M48
; DRILL file {KiCad 5.1.10-88a1d61d58~90~ubuntu20.10.1} date Sun Aug 15 21:12:23 2021
; FORMAT={-:-/ absolute / inch / decimal}
; #@! TF.CreationDate,2021-08-15T21:12:23+02:00
; #@! TF.GenerationSoftware,Kicad,Pcbnew,5.1.10-88a1d61d58~90~ubuntu20.10.1
; #@! TF.FileFunction,Plated,1,2,PTH
FMAT,2
INCH
T1C0.0150
T2C0.0157
T3C0.0276
T4C0.0315
T5C0.0394
T6C0.0469
T7C0.1260
%
G90
G05
T1
X3.6118Y-4.6126
X3.722Y-4.6126
X3.9921Y-5.6142
X4.0315Y-4.9646
X4.1643Y-5.6624
X4.3858Y-5.1575
X4.6654Y-6.4921
X4.7441Y-5.2412
X4.8031Y-4.0748
X4.811Y-6.4055
X4.9085Y-5.748
X5.189Y-4.437
X5.189Y-5.7244
X5.2795Y-4.9724
X5.2795Y-5.7087
X5.2953Y-5.9016
X5.311Y-5.0157
X5.311Y-5.6811
X5.5709Y-6.7323
X5.5839Y-4.761
X5.6161Y-3.5374
X5.6198Y-4.7615
X5.6621Y-3.6332
X5.7972Y-4.8563
X5.8346Y-4.8937
X6.1579Y-3.8508
X6.3268Y-4.4961
X6.3377Y-4.5818
X6.3419Y-5.0079
X6.3737Y-4.5045
X6.3976Y-4.9679
X6.4013Y-5.8659
X6.4437Y-5.328
X6.5323Y-5.4165
X6.7544Y-5.2977
X6.811Y-4.2362
X6.8725Y-5.1796
X6.8898Y-5.4596
X6.8898Y-5.7087
X6.9567Y-5.1969
X7.5709Y-6.0984
X7.7246Y-3.9565
T2
X5.0279Y-5.6808
X5.9525Y-5.8743
X5.9539Y-5.7705
X6.0394Y-3.9528
X6.3189Y-5.8937
X6.4803Y-6.5591
X6.9539Y-6.7154
T3
X5.3685Y-4.9764
X5.3685Y-5.0669
X5.3685Y-5.1575
X5.3685Y-5.248
X5.3685Y-5.3386
X5.3685Y-5.4291
X5.3685Y-5.5197
X5.3685Y-5.6102
X5.4685Y-4.9764
X5.4685Y-5.0669
X5.4685Y-5.1575
X5.4685Y-5.248
X5.4685Y-5.3386
X5.4685Y-5.4291
X5.4685Y-5.5197
X5.4685Y-5.6102
X5.7657Y-3.9547
X5.7657Y-4.0531
X5.7657Y-4.1535
X5.7657Y-4.3524
X5.7657Y-4.4528
X5.7657Y-4.5571
X5.7657Y-4.6555
X5.7677Y-4.252
X5.8657Y-3.9547
X5.8657Y-4.0531
X5.8657Y-4.1535
X5.8657Y-4.3524
X5.8657Y-4.4528
X5.8657Y-4.5571
X5.8657Y-4.6555
X5.8677Y-4.252
X6.1654Y-4.9685
X6.1654Y-5.0591
X6.1654Y-5.1496
X6.1654Y-5.2402
X6.1654Y-5.3346
X6.1654Y-5.4252
X6.1654Y-5.5157
X6.1654Y-5.6063
X6.2654Y-4.9685
X6.2654Y-5.0591
X6.2654Y-5.1496
X6.2654Y-5.2402
X6.2654Y-5.3346
X6.2654Y-5.4252
X6.2654Y-5.5157
X6.2654Y-5.6063
T4
X2.9764Y-4.3906
X2.9764Y-4.7906
X2.9764Y-5.9008
X2.9764Y-6.3008
X3.0315Y-4.1898
X3.0315Y-4.2882
X3.0315Y-5.7
X3.0315Y-5.7984
X3.0709Y-4.8906
X3.0709Y-5.2906
X3.0709Y-6.4008
X3.0709Y-6.8008
X3.122Y-4.4449
X3.122Y-4.7449
X3.122Y-5.9551
X3.122Y-6.2551
X3.1693Y-4.0913
X3.1693Y-4.2882
X3.1693Y-5.6016
X3.1693Y-5.7984
X3.222Y-4.4449
X3.222Y-4.7449
X3.222Y-5.9551
X3.222Y-6.2551
X3.2244Y-4.8906
X3.2244Y-5.2906
X3.2244Y-6.4008
X3.2244Y-6.8008
X3.3189Y-3.8882
X3.3189Y-4.2882
X3.3189Y-5.3984
X3.3189Y-5.7984
X3.322Y-4.4449
X3.322Y-4.7449
X3.322Y-5.9551
X3.322Y-6.2551
X3.378Y-4.8906
X3.378Y-5.0874
X3.378Y-6.4008
X3.378Y-6.5976
X3.422Y-4.4449
X3.422Y-4.7449
X3.422Y-5.9551
X3.422Y-6.2551
X3.4646Y-4.0913
X3.4646Y-4.2882
X3.4646Y-5.6016
X3.4646Y-5.7984
X3.522Y-4.4449
X3.522Y-4.7449
X3.522Y-5.9551
X3.522Y-6.2551
X3.5236Y-4.8906
X3.5236Y-5.0874
X3.5236Y-6.4008
X3.5236Y-6.5976
X3.6063Y-3.8882
X3.6063Y-4.2882
X3.6063Y-5.3984
X3.6063Y-5.7984
X3.622Y-4.4449
X3.622Y-4.7449
X3.622Y-5.9551
X3.622Y-6.2551
X3.6732Y-4.8906
X3.6732Y-5.2906
X3.6732Y-6.4008
X3.6732Y-6.8008
X3.722Y-4.4449
X3.722Y-4.7449
X3.722Y-5.9551
X3.722Y-6.2551
X3.748Y-3.8882
X3.748Y-4.2882
X3.748Y-5.3984
X3.748Y-5.7984
X3.815Y-4.8906
X3.815Y-4.989
X3.815Y-6.4008
X3.815Y-6.4992
X3.822Y-4.4449
X3.822Y-4.7449
X3.822Y-5.9551
X3.822Y-6.2551
X3.8858Y-3.8882
X3.8858Y-4.2882
X3.8858Y-5.3984
X3.8858Y-5.7984
X3.9567Y-4.8906
X3.9567Y-5.2906
X3.9567Y-6.4008
X3.9567Y-6.8008
X4.0118Y-4.4449
X4.0118Y-4.7449
X4.0118Y-5.9551
X4.0118Y-6.2551
X4.0906Y-3.9024
X4.0906Y-4.3024
X4.0906Y-5.4126
X4.0906Y-5.8126
X4.1063Y-4.9
X4.1063Y-5.3
X4.1063Y-6.4102
X4.1063Y-6.8102
X4.1118Y-4.4449
X4.1118Y-4.7449
X4.1118Y-5.9551
X4.1118Y-6.2551
X4.2118Y-4.4449
X4.2118Y-4.7449
X4.2118Y-5.9551
X4.2118Y-6.2551
X4.2441Y-3.9024
X4.2441Y-4.3024
X4.2441Y-5.4126
X4.2441Y-5.8126
X4.2559Y-4.9
X4.2559Y-5.3
X4.2559Y-6.4102
X4.2559Y-6.8102
X4.2636Y-3.5059
X4.2636Y-3.6654
X4.3118Y-4.4449
X4.3118Y-4.7449
X4.3118Y-5.9551
X4.3118Y-6.2551
X4.378Y-4.2008
X4.378Y-4.2992
X4.378Y-5.7126
X4.378Y-5.811
X4.3858Y-4.8945
X4.3858Y-4.9929
X4.3858Y-6.4047
X4.3858Y-6.5031
X4.4118Y-4.4449
X4.4118Y-4.7449
X4.4118Y-5.9551
X4.4118Y-6.2551
X4.5118Y-3.9024
X4.5118Y-4.3024
X4.5118Y-4.4449
X4.5118Y-4.7449
X4.5118Y-5.4126
X4.5118Y-5.8126
X4.5118Y-5.9551
X4.5118Y-6.2551
X4.5138Y-4.8925
X4.5138Y-5.2925
X4.5138Y-6.4028
X4.5138Y-6.8028
X4.6118Y-4.4449
X4.6118Y-4.7449
X4.6118Y-5.9551
X4.6118Y-6.2551
X4.6614Y-3.8984
X4.6614Y-4.2984
X4.6614Y-4.8921
X4.6614Y-5.2921
X4.6614Y-5.4087
X4.6614Y-5.8087
X4.6614Y-6.4024
X4.6614Y-6.8024
X4.6636Y-3.5059
X4.6636Y-3.6654
X4.7992Y-4.2016
X4.7992Y-4.3
X4.7992Y-5.7118
X4.7992Y-5.8102
X4.811Y-4.4449
X4.811Y-4.7449
X4.811Y-5.9551
X4.811Y-6.2551
X4.911Y-4.4449
X4.911Y-4.7449
X4.911Y-5.9551
X4.911Y-6.2551
X4.9567Y-3.4843
X4.9567Y-3.6811
X5.011Y-4.4449
X5.011Y-4.7449
X5.011Y-5.9551
X5.011Y-6.2551
X5.111Y-4.4449
X5.111Y-4.7449
X5.111Y-5.9551
X5.111Y-6.2551
X5.1142Y-4.8906
X5.1142Y-4.989
X5.1142Y-6.4008
X5.1142Y-6.4992
X6.5067Y-5.7118
X6.5067Y-5.8102
X6.5079Y-4.2087
X6.5079Y-4.3071
X6.5098Y-5.9559
X6.5098Y-6.2559
X6.511Y-4.4528
X6.511Y-4.7528
X6.6098Y-5.9559
X6.6098Y-6.2559
X6.611Y-4.4528
X6.611Y-4.7528
X6.6654Y-3.4882
X6.6654Y-3.685
X6.7098Y-5.9559
X6.7098Y-6.2559
X6.711Y-4.4528
X6.711Y-4.7528
X6.8098Y-5.9559
X6.8098Y-6.2559
X6.811Y-4.4528
X6.811Y-4.7528
X6.8217Y-6.4008
X6.8217Y-6.4992
X6.8228Y-4.8976
X6.8228Y-4.9961
X6.9594Y-5.4087
X6.9594Y-5.8087
X6.9594Y-6.4024
X6.9594Y-6.8024
X6.9606Y-3.9055
X6.9606Y-4.3055
X6.9606Y-4.8992
X6.9606Y-5.2992
X7.0091Y-5.9559
X7.0091Y-6.2559
X7.0102Y-4.4528
X7.0102Y-4.7528
X7.1071Y-5.4083
X7.1071Y-5.8083
X7.1083Y-3.9051
X7.1083Y-4.3051
X7.1091Y-5.9559
X7.1091Y-6.2559
X7.1091Y-6.3984
X7.1091Y-6.7984
X7.1102Y-4.4528
X7.1102Y-4.7528
X7.1102Y-4.8953
X7.1102Y-5.2953
X7.2091Y-5.9559
X7.2091Y-6.2559
X7.2102Y-4.4528
X7.2102Y-4.7528
X7.235Y-5.7079
X7.235Y-5.8063
X7.2362Y-4.2047
X7.2362Y-4.3031
X7.2429Y-6.4016
X7.2429Y-6.5
X7.2441Y-4.8976
X7.2441Y-4.9961
X7.3091Y-5.9559
X7.3091Y-6.2559
X7.3102Y-4.4528
X7.3102Y-4.7528
X7.365Y-5.4008
X7.365Y-5.8008
X7.3661Y-3.8976
X7.3661Y-4.2976
X7.3768Y-6.3984
X7.3768Y-6.7984
X7.378Y-4.8953
X7.378Y-5.2953
X7.4091Y-5.9559
X7.4091Y-6.2559
X7.4102Y-4.4528
X7.4102Y-4.7528
X7.5091Y-5.9559
X7.5091Y-6.2559
X7.5102Y-4.4528
X7.5102Y-4.7528
X7.5146Y-5.4008
X7.5146Y-5.8008
X7.5157Y-3.8976
X7.5157Y-4.2976
X7.5303Y-6.3984
X7.5303Y-6.7984
X7.5315Y-4.8953
X7.5315Y-5.2953
X7.6091Y-5.9559
X7.6091Y-6.2559
X7.6102Y-4.4528
X7.6102Y-4.7528
X7.6642Y-5.4102
X7.6642Y-5.8102
X7.6654Y-3.9071
X7.6654Y-4.3071
X7.735Y-6.4126
X7.735Y-6.8126
X7.7362Y-4.9094
X7.7362Y-5.3094
X7.7988Y-5.9559
X7.7988Y-6.2559
X7.8Y-4.4528
X7.8Y-4.7528
X7.8059Y-5.7118
X7.8059Y-5.8102
X7.8071Y-4.2087
X7.8071Y-4.3071
X7.8728Y-6.4126
X7.8728Y-6.8126
X7.874Y-4.9094
X7.874Y-5.3094
X7.8988Y-5.9559
X7.8988Y-6.2559
X7.9Y-4.4528
X7.9Y-4.7528
X7.9476Y-5.4102
X7.9476Y-5.8102
X7.9488Y-3.9071
X7.9488Y-4.3071
X7.9988Y-5.9559
X7.9988Y-6.2559
X8.0Y-4.4528
X8.0Y-4.7528
X8.0146Y-6.4126
X8.0146Y-6.8126
X8.0157Y-4.9094
X8.0157Y-5.3094
X8.0972Y-5.6134
X8.0972Y-5.8102
X8.0984Y-4.1102
X8.0984Y-4.3071
X8.0988Y-5.9559
X8.0988Y-6.2559
X8.1Y-4.4528
X8.1Y-4.7528
X8.1563Y-6.4126
X8.1563Y-6.6094
X8.1575Y-4.9094
X8.1575Y-5.1063
X8.1988Y-5.9559
X8.1988Y-6.2559
X8.2Y-4.4528
X8.2Y-4.7528
X8.2429Y-5.6134
X8.2429Y-5.8102
X8.2441Y-4.1102
X8.2441Y-4.3071
X8.2988Y-5.9559
X8.2988Y-6.2559
X8.3Y-4.4528
X8.3Y-4.7528
X8.302Y-6.4126
X8.302Y-6.8126
X8.3031Y-4.9094
X8.3031Y-5.3094
X8.3965Y-5.4102
X8.3965Y-5.8102
X8.3976Y-3.9071
X8.3976Y-4.3071
X8.3988Y-5.9559
X8.3988Y-6.2559
X8.4Y-4.4528
X8.4Y-4.7528
X8.4516Y-6.4126
X8.4516Y-6.6094
X8.4528Y-4.9094
X8.4528Y-5.1063
X8.4988Y-5.9559
X8.4988Y-6.2559
X8.5Y-4.4528
X8.5Y-4.7528
X8.55Y-5.4102
X8.55Y-5.8102
X8.5512Y-3.9071
X8.5512Y-4.3071
X8.5894Y-6.4126
X8.5894Y-6.511
X8.5906Y-4.9094
X8.5906Y-5.0079
X8.6445Y-5.9102
X8.6445Y-6.3102
X8.6457Y-4.4071
X8.6457Y-4.8071
T5
X3.4803Y-3.526
X3.4803Y-3.626
X3.5803Y-3.526
X3.5803Y-3.626
X3.6803Y-3.526
X3.6803Y-3.626
X3.7803Y-3.526
X3.7803Y-3.626
X3.8803Y-3.526
X3.8803Y-3.626
X5.3896Y-5.9256
X5.3896Y-6.0256
X5.3896Y-6.1256
X5.3896Y-6.2256
X5.3896Y-6.3256
X5.3896Y-6.4256
X5.3896Y-6.5256
X5.3896Y-6.6256
X5.3919Y-3.9531
X5.3919Y-4.0531
X5.3919Y-4.1531
X5.3919Y-4.2531
X5.3919Y-4.3531
X5.3919Y-4.4531
X5.3919Y-4.5531
X5.3919Y-4.6531
X5.4896Y-5.9256
X5.4896Y-6.0256
X5.4896Y-6.1256
X5.4896Y-6.2256
X5.4896Y-6.3256
X5.4896Y-6.4256
X5.4896Y-6.5256
X5.4896Y-6.6256
X5.4919Y-3.9531
X5.4919Y-4.0531
X5.4919Y-4.1531
X5.4919Y-4.2531
X5.4919Y-4.3531
X5.4919Y-4.4531
X5.4919Y-4.5531
X5.4919Y-4.6531
X6.1378Y-5.9256
X6.1378Y-6.0256
X6.1378Y-6.1256
X6.1378Y-6.2256
X6.1378Y-6.3256
X6.1378Y-6.4256
X6.1378Y-6.5256
X6.1378Y-6.6256
X6.1417Y-3.9449
X6.1417Y-4.0449
X6.1417Y-4.1449
X6.1417Y-4.2449
X6.1417Y-4.3449
X6.1417Y-4.4449
X6.1417Y-4.5449
X6.1417Y-4.6449
X6.2378Y-5.9256
X6.2378Y-6.0256
X6.2378Y-6.1256
X6.2378Y-6.2256
X6.2378Y-6.3256
X6.2378Y-6.4256
X6.2378Y-6.5256
X6.2378Y-6.6256
X6.2417Y-3.9449
X6.2417Y-4.0449
X6.2417Y-4.1449
X6.2417Y-4.2449
X6.2417Y-4.3449
X6.2417Y-4.4449
X6.2417Y-4.5449
X6.2417Y-4.6449
T6
X5.8189Y-5.0961
X5.8189Y-5.1961
X5.8189Y-5.2961
X5.8189Y-5.3961
X5.8189Y-5.4961
T7
X2.8937Y-3.4646
X2.8937Y-6.7913
X5.8071Y-3.7598
X5.8071Y-6.2598
X8.622Y-3.4646
X8.622Y-6.7913
T0
M30
