M48
; DRILL file {KiCad 5.1.10-88a1d61d58~90~ubuntu20.10.1} date Sat Jul 31 21:38:22 2021
; FORMAT={-:-/ absolute / inch / decimal}
; #@! TF.CreationDate,2021-07-31T21:38:22+02:00
; #@! TF.GenerationSoftware,Kicad,Pcbnew,5.1.10-88a1d61d58~90~ubuntu20.10.1
; #@! TF.FileFunction,Plated,1,2,PTH
FMAT,2
INCH
T1C0.0315
T2C0.0394
T3C0.0433
T4C0.0469
%
G90
G05
T1
X3.5039Y-2.9094
X3.5039Y-3.3094
T2
X3.3071Y-2.7559
X3.3071Y-5.1181
X3.4055Y-2.7559
X3.4055Y-5.1181
X3.5039Y-2.7559
X3.5039Y-5.1181
T4
X3.4055Y-3.5094
X3.4055Y-3.6094
X3.4055Y-3.7094
X3.4055Y-3.8094
X3.4055Y-3.9094
T3
G00X3.2165Y-2.4469
M15
G01X3.2165Y-2.4744
M16
G05
G00X3.2165Y-4.8091
M15
G01X3.2165Y-4.8366
M16
G05
G00X3.5945Y-2.4469
M15
G01X3.5945Y-2.4744
M16
G05
G00X3.5945Y-4.8091
M15
G01X3.5945Y-4.8366
M16
G05
T0
M30
