%TF.GenerationSoftware,KiCad,Pcbnew,5.1.10-88a1d61d58~90~ubuntu21.04.1*%
%TF.CreationDate,2021-09-12T11:52:23+02:00*%
%TF.ProjectId,control,636f6e74-726f-46c2-9e6b-696361645f70,v0.0.2*%
%TF.SameCoordinates,Original*%
%TF.FileFunction,Copper,L2,Bot*%
%TF.FilePolarity,Positive*%
%FSLAX46Y46*%
G04 Gerber Fmt 4.6, Leading zero omitted, Abs format (unit mm)*
G04 Created by KiCad (PCBNEW 5.1.10-88a1d61d58~90~ubuntu21.04.1) date 2021-09-12 11:52:23*
%MOMM*%
%LPD*%
G01*
G04 APERTURE LIST*
%TA.AperFunction,ComponentPad*%
%ADD10O,1.600000X1.600000*%
%TD*%
%TA.AperFunction,ComponentPad*%
%ADD11C,1.600000*%
%TD*%
%TA.AperFunction,ComponentPad*%
%ADD12O,2.400000X1.600000*%
%TD*%
%TA.AperFunction,ComponentPad*%
%ADD13R,2.400000X1.600000*%
%TD*%
%TA.AperFunction,ComponentPad*%
%ADD14O,2.190000X1.740000*%
%TD*%
%TA.AperFunction,ComponentPad*%
%ADD15O,2.720000X3.240000*%
%TD*%
%TA.AperFunction,ComponentPad*%
%ADD16C,1.800000*%
%TD*%
%TA.AperFunction,ComponentPad*%
%ADD17R,1.800000X1.800000*%
%TD*%
%TA.AperFunction,ViaPad*%
%ADD18C,3.300000*%
%TD*%
%TA.AperFunction,Conductor*%
%ADD19C,0.508000*%
%TD*%
%TA.AperFunction,Conductor*%
%ADD20C,0.254000*%
%TD*%
%TA.AperFunction,Conductor*%
%ADD21C,0.100000*%
%TD*%
G04 APERTURE END LIST*
D10*
%TO.P,R13,2*%
%TO.N,Net-(R13-Pad2)*%
X78760000Y-106200000D03*
D11*
%TO.P,R13,1*%
%TO.N,SW_FREQ_RES*%
X68600000Y-106200000D03*
%TD*%
D10*
%TO.P,R12,2*%
%TO.N,Net-(R12-Pad2)*%
X78860000Y-81600000D03*
D11*
%TO.P,R12,1*%
%TO.N,SW_FREQ_RES*%
X68700000Y-81600000D03*
%TD*%
D12*
%TO.P,U1,14*%
%TO.N,FREQ*%
X90620000Y-86000000D03*
%TO.P,U1,7*%
%TO.N,Net-(R10-Pad1)*%
X83000000Y-101240000D03*
%TO.P,U1,13*%
%TO.N,Net-(R6-Pad2)*%
X90620000Y-88540000D03*
%TO.P,U1,6*%
%TO.N,Net-(R13-Pad2)*%
X83000000Y-98700000D03*
%TO.P,U1,12*%
%TO.N,GND*%
X90620000Y-91080000D03*
%TO.P,U1,5*%
X83000000Y-96160000D03*
%TO.P,U1,11*%
%TO.N,-12V*%
X90620000Y-93620000D03*
%TO.P,U1,4*%
%TO.N,+12V*%
X83000000Y-93620000D03*
%TO.P,U1,10*%
%TO.N,GND*%
X90620000Y-96160000D03*
%TO.P,U1,3*%
X83000000Y-91080000D03*
%TO.P,U1,9*%
%TO.N,Net-(R10-Pad2)*%
X90620000Y-98700000D03*
%TO.P,U1,2*%
%TO.N,Net-(R12-Pad2)*%
X83000000Y-88540000D03*
%TO.P,U1,8*%
%TO.N,RES*%
X90620000Y-101240000D03*
D13*
%TO.P,U1,1*%
%TO.N,Net-(R5-Pad2)*%
X83000000Y-86000000D03*
%TD*%
D10*
%TO.P,R11,2*%
%TO.N,RES*%
X104660000Y-106200000D03*
D11*
%TO.P,R11,1*%
%TO.N,Net-(R10-Pad2)*%
X94500000Y-106200000D03*
%TD*%
D10*
%TO.P,R10,2*%
%TO.N,Net-(R10-Pad2)*%
X91660000Y-109700000D03*
D11*
%TO.P,R10,1*%
%TO.N,Net-(R10-Pad1)*%
X81500000Y-109700000D03*
%TD*%
D10*
%TO.P,R9,2*%
%TO.N,Net-(R10-Pad1)*%
X91660000Y-106200000D03*
D11*
%TO.P,R9,1*%
%TO.N,Net-(R13-Pad2)*%
X81500000Y-106200000D03*
%TD*%
D10*
%TO.P,R8,2*%
%TO.N,Net-(R13-Pad2)*%
X78760000Y-109700000D03*
D11*
%TO.P,R8,1*%
%TO.N,SW_RES*%
X68600000Y-109700000D03*
%TD*%
D10*
%TO.P,R2,2*%
%TO.N,Net-(R13-Pad2)*%
X78760000Y-113200000D03*
D11*
%TO.P,R2,1*%
%TO.N,POT_RES*%
X68600000Y-113200000D03*
%TD*%
D14*
%TO.P,J3,4*%
%TO.N,SW_FREQ_RES*%
X71000000Y-93620000D03*
%TO.P,J3,3*%
%TO.N,SW_RES*%
X71000000Y-91080000D03*
%TO.P,J3,2*%
%TO.N,SW_FREQ*%
X71000000Y-88540000D03*
%TO.P,J3,1*%
%TO.N,LFO*%
%TA.AperFunction,ComponentPad*%
G36*
G01*
X70154999Y-85130000D02*
X71845001Y-85130000D01*
G75*
G02*
X72095000Y-85379999I0J-249999D01*
G01*
X72095000Y-86620001D01*
G75*
G02*
X71845001Y-86870000I-249999J0D01*
G01*
X70154999Y-86870000D01*
G75*
G02*
X69905000Y-86620001I0J249999D01*
G01*
X69905000Y-85379999D01*
G75*
G02*
X70154999Y-85130000I249999J0D01*
G01*
G37*
%TD.AperFunction*%
%TD*%
D10*
%TO.P,R7,2*%
%TO.N,FREQ*%
X91760000Y-81600000D03*
D11*
%TO.P,R7,1*%
%TO.N,Net-(R6-Pad2)*%
X81600000Y-81600000D03*
%TD*%
D10*
%TO.P,R6,2*%
%TO.N,Net-(R6-Pad2)*%
X104660000Y-78000000D03*
D11*
%TO.P,R6,1*%
%TO.N,Net-(R5-Pad2)*%
X94500000Y-78000000D03*
%TD*%
D10*
%TO.P,R5,2*%
%TO.N,Net-(R5-Pad2)*%
X91760000Y-78000000D03*
D11*
%TO.P,R5,1*%
%TO.N,Net-(R12-Pad2)*%
X81600000Y-78000000D03*
%TD*%
D10*
%TO.P,R4,2*%
%TO.N,Net-(R12-Pad2)*%
X78860000Y-78000000D03*
D11*
%TO.P,R4,1*%
%TO.N,SW_FREQ*%
X68700000Y-78000000D03*
%TD*%
D10*
%TO.P,R3,2*%
%TO.N,Net-(R12-Pad2)*%
X78860000Y-74400000D03*
D11*
%TO.P,R3,1*%
%TO.N,POT_FREQ*%
X68700000Y-74400000D03*
%TD*%
D14*
%TO.P,J2,2*%
%TO.N,GND*%
X71000000Y-101540000D03*
%TO.P,J2,1*%
%TO.N,LFO*%
%TA.AperFunction,ComponentPad*%
G36*
G01*
X70154999Y-98130000D02*
X71845001Y-98130000D01*
G75*
G02*
X72095000Y-98379999I0J-249999D01*
G01*
X72095000Y-99620001D01*
G75*
G02*
X71845001Y-99870000I-249999J0D01*
G01*
X70154999Y-99870000D01*
G75*
G02*
X69905000Y-99620001I0J249999D01*
G01*
X69905000Y-98379999D01*
G75*
G02*
X70154999Y-98130000I249999J0D01*
G01*
G37*
%TD.AperFunction*%
%TD*%
D11*
%TO.P,C2,2*%
%TO.N,-12V*%
X94300000Y-93600000D03*
%TO.P,C2,1*%
%TO.N,GND*%
X96800000Y-93600000D03*
%TD*%
%TO.P,C1,2*%
%TO.N,+12V*%
X79300000Y-93600000D03*
%TO.P,C1,1*%
%TO.N,GND*%
X76800000Y-93600000D03*
%TD*%
D15*
%TO.P,RV2,*%
%TO.N,*%
X91300000Y-122500000D03*
X81700000Y-122500000D03*
D16*
%TO.P,RV2,3*%
%TO.N,-12V*%
X84000000Y-130000000D03*
%TO.P,RV2,2*%
%TO.N,POT_RES*%
X86500000Y-130000000D03*
D17*
%TO.P,RV2,1*%
%TO.N,+12V*%
X89000000Y-130000000D03*
%TD*%
D15*
%TO.P,RV1,*%
%TO.N,*%
X91300000Y-62500000D03*
X81700000Y-62500000D03*
D16*
%TO.P,RV1,3*%
%TO.N,+12V*%
X84000000Y-70000000D03*
%TO.P,RV1,2*%
%TO.N,POT_FREQ*%
X86500000Y-70000000D03*
D17*
%TO.P,RV1,1*%
%TO.N,Net-(R1-Pad1)*%
X89000000Y-70000000D03*
%TD*%
D10*
%TO.P,R1,2*%
%TO.N,GND*%
X98000000Y-58840000D03*
D11*
%TO.P,R1,1*%
%TO.N,Net-(R1-Pad1)*%
X98000000Y-69000000D03*
%TD*%
D14*
%TO.P,J1,5*%
%TO.N,GND*%
X103000000Y-88840000D03*
%TO.P,J1,4*%
%TO.N,-12V*%
X103000000Y-91380000D03*
%TO.P,J1,3*%
%TO.N,+12V*%
X103000000Y-93920000D03*
%TO.P,J1,2*%
%TO.N,FREQ*%
X103000000Y-96460000D03*
%TO.P,J1,1*%
%TO.N,RES*%
%TA.AperFunction,ComponentPad*%
G36*
G01*
X103845001Y-99870000D02*
X102154999Y-99870000D01*
G75*
G02*
X101905000Y-99620001I0J249999D01*
G01*
X101905000Y-98379999D01*
G75*
G02*
X102154999Y-98130000I249999J0D01*
G01*
X103845001Y-98130000D01*
G75*
G02*
X104095000Y-98379999I0J-249999D01*
G01*
X104095000Y-99620001D01*
G75*
G02*
X103845001Y-99870000I-249999J0D01*
G01*
G37*
%TD.AperFunction*%
%TD*%
D18*
%TO.N,GND*%
X105000000Y-58000000D03*
X69000000Y-58000000D03*
X69000000Y-130500000D03*
X105000000Y-130500000D03*
%TD*%
D19*
%TO.N,-12V*%
X94280000Y-93620000D02*
X94300000Y-93600000D01*
X90620000Y-93620000D02*
X94280000Y-93620000D01*
X96520000Y-91380000D02*
X94300000Y-93600000D01*
X103000000Y-91380000D02*
X96520000Y-91380000D01*
%TO.N,+12V*%
X82980000Y-93600000D02*
X83000000Y-93620000D01*
X79300000Y-93600000D02*
X82980000Y-93600000D01*
X84285990Y-94905990D02*
X83000000Y-93620000D01*
X102014010Y-94905990D02*
X84285990Y-94905990D01*
X103000000Y-93920000D02*
X102014010Y-94905990D01*
%TO.N,FREQ*%
X90620000Y-82740000D02*
X91760000Y-81600000D01*
X90620000Y-86000000D02*
X90620000Y-82740000D01*
%TO.N,RES*%
X103000000Y-104540000D02*
X104660000Y-106200000D01*
X102940000Y-101240000D02*
X103000000Y-101300000D01*
X90620000Y-101240000D02*
X102940000Y-101240000D01*
X103000000Y-101300000D02*
X103000000Y-104540000D01*
X103000000Y-99000000D02*
X103000000Y-101300000D01*
%TO.N,Net-(R1-Pad1)*%
X97000000Y-70000000D02*
X98000000Y-69000000D01*
X89000000Y-70000000D02*
X97000000Y-70000000D01*
%TO.N,Net-(R5-Pad2)*%
X94500000Y-78000000D02*
X91760000Y-78000000D01*
X83760000Y-86000000D02*
X91760000Y-78000000D01*
X83000000Y-86000000D02*
X83760000Y-86000000D01*
%TO.N,Net-(R6-Pad2)*%
X94120000Y-88540000D02*
X104660000Y-78000000D01*
X90620000Y-88540000D02*
X94120000Y-88540000D01*
%TO.N,SW_FREQ*%
X72549010Y-81849010D02*
X68700000Y-78000000D01*
X72549010Y-86990990D02*
X72549010Y-81849010D01*
X71000000Y-88540000D02*
X72549010Y-86990990D01*
%TO.N,POT_RES*%
X86003922Y-130000000D02*
X86500000Y-130000000D01*
X69203922Y-113200000D02*
X86003922Y-130000000D01*
X68600000Y-113200000D02*
X69203922Y-113200000D01*
%TO.N,POT_FREQ*%
X83354001Y-73145999D02*
X86500000Y-70000000D01*
X69954001Y-73145999D02*
X83354001Y-73145999D01*
X68700000Y-74400000D02*
X69954001Y-73145999D01*
%TO.N,Net-(R10-Pad1)*%
X83000000Y-108200000D02*
X81500000Y-109700000D01*
X83100000Y-106200000D02*
X83000000Y-106300000D01*
X91660000Y-106200000D02*
X83100000Y-106200000D01*
X83000000Y-106300000D02*
X83000000Y-108200000D01*
X83000000Y-101240000D02*
X83000000Y-106300000D01*
%TO.N,Net-(R10-Pad2)*%
X94500000Y-106860000D02*
X91660000Y-109700000D01*
X94500000Y-106200000D02*
X94500000Y-106860000D01*
%TO.N,SW_FREQ_RES*%
X68700000Y-91320000D02*
X71000000Y-93620000D01*
X68700000Y-81600000D02*
X68700000Y-91320000D01*
X68600000Y-96020000D02*
X71000000Y-93620000D01*
X68600000Y-106200000D02*
X68600000Y-96020000D01*
%TO.N,SW_RES*%
X72549010Y-92629010D02*
X71000000Y-91080000D01*
X72549010Y-94168422D02*
X72549010Y-92629010D01*
X69450990Y-102088422D02*
X69450990Y-97266442D01*
X69854001Y-102491433D02*
X69450990Y-102088422D01*
X69854001Y-108445999D02*
X69854001Y-102491433D01*
X69450990Y-97266442D02*
X72549010Y-94168422D01*
X68600000Y-109700000D02*
X69854001Y-108445999D01*
%TO.N,Net-(R13-Pad2)*%
X78760000Y-113200000D02*
X78760000Y-109700000D01*
X78760000Y-109700000D02*
X78760000Y-106200000D01*
X78760000Y-106200000D02*
X81500000Y-106200000D01*
X81345990Y-106045990D02*
X81500000Y-106200000D01*
X81345990Y-100354010D02*
X81345990Y-106045990D01*
X83000000Y-98700000D02*
X81345990Y-100354010D01*
%TO.N,Net-(R12-Pad2)*%
X78860000Y-74400000D02*
X78860000Y-78000000D01*
X78860000Y-78000000D02*
X78860000Y-81600000D01*
X78860000Y-78000000D02*
X81600000Y-78000000D01*
X81292000Y-88540000D02*
X78860000Y-86108000D01*
X78860000Y-86108000D02*
X78860000Y-81600000D01*
X83000000Y-88540000D02*
X81292000Y-88540000D01*
%TD*%
D20*
%TO.N,GND*%
X107340001Y-132840000D02*
X66660000Y-132840000D01*
X66660000Y-113058665D01*
X67165000Y-113058665D01*
X67165000Y-113341335D01*
X67220147Y-113618574D01*
X67328320Y-113879727D01*
X67485363Y-114114759D01*
X67685241Y-114314637D01*
X67920273Y-114471680D01*
X68181426Y-114579853D01*
X68458665Y-114635000D01*
X68741335Y-114635000D01*
X69018574Y-114579853D01*
X69236339Y-114489652D01*
X83353149Y-128606463D01*
X83272905Y-128639701D01*
X83021495Y-128807688D01*
X82807688Y-129021495D01*
X82639701Y-129272905D01*
X82523989Y-129552257D01*
X82465000Y-129848816D01*
X82465000Y-130151184D01*
X82523989Y-130447743D01*
X82639701Y-130727095D01*
X82807688Y-130978505D01*
X83021495Y-131192312D01*
X83272905Y-131360299D01*
X83552257Y-131476011D01*
X83848816Y-131535000D01*
X84151184Y-131535000D01*
X84447743Y-131476011D01*
X84727095Y-131360299D01*
X84978505Y-131192312D01*
X85192312Y-130978505D01*
X85250000Y-130892169D01*
X85307688Y-130978505D01*
X85521495Y-131192312D01*
X85772905Y-131360299D01*
X86052257Y-131476011D01*
X86348816Y-131535000D01*
X86651184Y-131535000D01*
X86947743Y-131476011D01*
X87227095Y-131360299D01*
X87478505Y-131192312D01*
X87516120Y-131154697D01*
X87569463Y-131254494D01*
X87648815Y-131351185D01*
X87745506Y-131430537D01*
X87855820Y-131489502D01*
X87975518Y-131525812D01*
X88100000Y-131538072D01*
X89900000Y-131538072D01*
X90024482Y-131525812D01*
X90144180Y-131489502D01*
X90254494Y-131430537D01*
X90351185Y-131351185D01*
X90430537Y-131254494D01*
X90489502Y-131144180D01*
X90525812Y-131024482D01*
X90538072Y-130900000D01*
X90538072Y-129100000D01*
X90525812Y-128975518D01*
X90489502Y-128855820D01*
X90430537Y-128745506D01*
X90351185Y-128648815D01*
X90254494Y-128569463D01*
X90144180Y-128510498D01*
X90024482Y-128474188D01*
X89900000Y-128461928D01*
X88100000Y-128461928D01*
X87975518Y-128474188D01*
X87855820Y-128510498D01*
X87745506Y-128569463D01*
X87648815Y-128648815D01*
X87569463Y-128745506D01*
X87516120Y-128845303D01*
X87478505Y-128807688D01*
X87227095Y-128639701D01*
X86947743Y-128523989D01*
X86651184Y-128465000D01*
X86348816Y-128465000D01*
X86052257Y-128523989D01*
X85863382Y-128602224D01*
X81996597Y-124735440D01*
X82091088Y-124726133D01*
X82467147Y-124612057D01*
X82813725Y-124426807D01*
X83117503Y-124177503D01*
X83366807Y-123873725D01*
X83552057Y-123527147D01*
X83666133Y-123151087D01*
X83695000Y-122857997D01*
X83695000Y-122142003D01*
X89305000Y-122142003D01*
X89305000Y-122857998D01*
X89333867Y-123151088D01*
X89447943Y-123527147D01*
X89633193Y-123873725D01*
X89882498Y-124177503D01*
X90186276Y-124426807D01*
X90532854Y-124612057D01*
X90908913Y-124726133D01*
X91300000Y-124764652D01*
X91691088Y-124726133D01*
X92067147Y-124612057D01*
X92413725Y-124426807D01*
X92717503Y-124177503D01*
X92966807Y-123873725D01*
X93152057Y-123527147D01*
X93266133Y-123151087D01*
X93295000Y-122857997D01*
X93295000Y-122142002D01*
X93266133Y-121848912D01*
X93152057Y-121472853D01*
X92966807Y-121126275D01*
X92717503Y-120822497D01*
X92413725Y-120573193D01*
X92067146Y-120387943D01*
X91691087Y-120273867D01*
X91300000Y-120235348D01*
X90908912Y-120273867D01*
X90532853Y-120387943D01*
X90186275Y-120573193D01*
X89882497Y-120822497D01*
X89633193Y-121126275D01*
X89447943Y-121472854D01*
X89333867Y-121848913D01*
X89305000Y-122142003D01*
X83695000Y-122142003D01*
X83695000Y-122142002D01*
X83666133Y-121848912D01*
X83552057Y-121472853D01*
X83366807Y-121126275D01*
X83117503Y-120822497D01*
X82813725Y-120573193D01*
X82467146Y-120387943D01*
X82091087Y-120273867D01*
X81700000Y-120235348D01*
X81308912Y-120273867D01*
X80932853Y-120387943D01*
X80586275Y-120573193D01*
X80282497Y-120822497D01*
X80033193Y-121126275D01*
X79847943Y-121472854D01*
X79733867Y-121848913D01*
X79705000Y-122142003D01*
X79705000Y-122443842D01*
X69935496Y-112674339D01*
X69871680Y-112520273D01*
X69714637Y-112285241D01*
X69514759Y-112085363D01*
X69279727Y-111928320D01*
X69018574Y-111820147D01*
X68741335Y-111765000D01*
X68458665Y-111765000D01*
X68181426Y-111820147D01*
X67920273Y-111928320D01*
X67685241Y-112085363D01*
X67485363Y-112285241D01*
X67328320Y-112520273D01*
X67220147Y-112781426D01*
X67165000Y-113058665D01*
X66660000Y-113058665D01*
X66660000Y-106058665D01*
X67165000Y-106058665D01*
X67165000Y-106341335D01*
X67220147Y-106618574D01*
X67328320Y-106879727D01*
X67485363Y-107114759D01*
X67685241Y-107314637D01*
X67920273Y-107471680D01*
X68181426Y-107579853D01*
X68458665Y-107635000D01*
X68741335Y-107635000D01*
X68965001Y-107590509D01*
X68965001Y-108077763D01*
X68771720Y-108271044D01*
X68741335Y-108265000D01*
X68458665Y-108265000D01*
X68181426Y-108320147D01*
X67920273Y-108428320D01*
X67685241Y-108585363D01*
X67485363Y-108785241D01*
X67328320Y-109020273D01*
X67220147Y-109281426D01*
X67165000Y-109558665D01*
X67165000Y-109841335D01*
X67220147Y-110118574D01*
X67328320Y-110379727D01*
X67485363Y-110614759D01*
X67685241Y-110814637D01*
X67920273Y-110971680D01*
X68181426Y-111079853D01*
X68458665Y-111135000D01*
X68741335Y-111135000D01*
X69018574Y-111079853D01*
X69279727Y-110971680D01*
X69514759Y-110814637D01*
X69714637Y-110614759D01*
X69871680Y-110379727D01*
X69979853Y-110118574D01*
X70035000Y-109841335D01*
X70035000Y-109558665D01*
X70028956Y-109528280D01*
X70451744Y-109105492D01*
X70485660Y-109077658D01*
X70596754Y-108942290D01*
X70679304Y-108787850D01*
X70707078Y-108696291D01*
X70730137Y-108620275D01*
X70737861Y-108541851D01*
X70743001Y-108489666D01*
X70743001Y-108489660D01*
X70747301Y-108446000D01*
X70743001Y-108402340D01*
X70743001Y-106058665D01*
X77325000Y-106058665D01*
X77325000Y-106341335D01*
X77380147Y-106618574D01*
X77488320Y-106879727D01*
X77645363Y-107114759D01*
X77845241Y-107314637D01*
X77871001Y-107331849D01*
X77871000Y-108568151D01*
X77845241Y-108585363D01*
X77645363Y-108785241D01*
X77488320Y-109020273D01*
X77380147Y-109281426D01*
X77325000Y-109558665D01*
X77325000Y-109841335D01*
X77380147Y-110118574D01*
X77488320Y-110379727D01*
X77645363Y-110614759D01*
X77845241Y-110814637D01*
X77871001Y-110831849D01*
X77871000Y-112068151D01*
X77845241Y-112085363D01*
X77645363Y-112285241D01*
X77488320Y-112520273D01*
X77380147Y-112781426D01*
X77325000Y-113058665D01*
X77325000Y-113341335D01*
X77380147Y-113618574D01*
X77488320Y-113879727D01*
X77645363Y-114114759D01*
X77845241Y-114314637D01*
X78080273Y-114471680D01*
X78341426Y-114579853D01*
X78618665Y-114635000D01*
X78901335Y-114635000D01*
X79178574Y-114579853D01*
X79439727Y-114471680D01*
X79674759Y-114314637D01*
X79874637Y-114114759D01*
X80031680Y-113879727D01*
X80139853Y-113618574D01*
X80195000Y-113341335D01*
X80195000Y-113058665D01*
X80139853Y-112781426D01*
X80031680Y-112520273D01*
X79874637Y-112285241D01*
X79674759Y-112085363D01*
X79649000Y-112068151D01*
X79649000Y-110831849D01*
X79674759Y-110814637D01*
X79874637Y-110614759D01*
X80031680Y-110379727D01*
X80130000Y-110142361D01*
X80228320Y-110379727D01*
X80385363Y-110614759D01*
X80585241Y-110814637D01*
X80820273Y-110971680D01*
X81081426Y-111079853D01*
X81358665Y-111135000D01*
X81641335Y-111135000D01*
X81918574Y-111079853D01*
X82179727Y-110971680D01*
X82414759Y-110814637D01*
X82614637Y-110614759D01*
X82771680Y-110379727D01*
X82879853Y-110118574D01*
X82935000Y-109841335D01*
X82935000Y-109558665D01*
X82928956Y-109528279D01*
X83597736Y-108859499D01*
X83631659Y-108831659D01*
X83742753Y-108696291D01*
X83825303Y-108541851D01*
X83859742Y-108428320D01*
X83876136Y-108374276D01*
X83886236Y-108271725D01*
X83889000Y-108243667D01*
X83889000Y-108243661D01*
X83893300Y-108200001D01*
X83889000Y-108156341D01*
X83889000Y-107089000D01*
X90528151Y-107089000D01*
X90545363Y-107114759D01*
X90745241Y-107314637D01*
X90980273Y-107471680D01*
X91241426Y-107579853D01*
X91518665Y-107635000D01*
X91801335Y-107635000D01*
X92078574Y-107579853D01*
X92339727Y-107471680D01*
X92574759Y-107314637D01*
X92774637Y-107114759D01*
X92931680Y-106879727D01*
X93039853Y-106618574D01*
X93080000Y-106416744D01*
X93120147Y-106618574D01*
X93226773Y-106875992D01*
X91831721Y-108271044D01*
X91801335Y-108265000D01*
X91518665Y-108265000D01*
X91241426Y-108320147D01*
X90980273Y-108428320D01*
X90745241Y-108585363D01*
X90545363Y-108785241D01*
X90388320Y-109020273D01*
X90280147Y-109281426D01*
X90225000Y-109558665D01*
X90225000Y-109841335D01*
X90280147Y-110118574D01*
X90388320Y-110379727D01*
X90545363Y-110614759D01*
X90745241Y-110814637D01*
X90980273Y-110971680D01*
X91241426Y-111079853D01*
X91518665Y-111135000D01*
X91801335Y-111135000D01*
X92078574Y-111079853D01*
X92339727Y-110971680D01*
X92574759Y-110814637D01*
X92774637Y-110614759D01*
X92931680Y-110379727D01*
X93039853Y-110118574D01*
X93095000Y-109841335D01*
X93095000Y-109558665D01*
X93088956Y-109528279D01*
X95097742Y-107519494D01*
X95131659Y-107491659D01*
X95131744Y-107491555D01*
X95179727Y-107471680D01*
X95414759Y-107314637D01*
X95614637Y-107114759D01*
X95771680Y-106879727D01*
X95879853Y-106618574D01*
X95935000Y-106341335D01*
X95935000Y-106058665D01*
X95879853Y-105781426D01*
X95771680Y-105520273D01*
X95614637Y-105285241D01*
X95414759Y-105085363D01*
X95179727Y-104928320D01*
X94918574Y-104820147D01*
X94641335Y-104765000D01*
X94358665Y-104765000D01*
X94081426Y-104820147D01*
X93820273Y-104928320D01*
X93585241Y-105085363D01*
X93385363Y-105285241D01*
X93228320Y-105520273D01*
X93120147Y-105781426D01*
X93080000Y-105983256D01*
X93039853Y-105781426D01*
X92931680Y-105520273D01*
X92774637Y-105285241D01*
X92574759Y-105085363D01*
X92339727Y-104928320D01*
X92078574Y-104820147D01*
X91801335Y-104765000D01*
X91518665Y-104765000D01*
X91241426Y-104820147D01*
X90980273Y-104928320D01*
X90745241Y-105085363D01*
X90545363Y-105285241D01*
X90528151Y-105311000D01*
X83889000Y-105311000D01*
X83889000Y-102591234D01*
X83951808Y-102572182D01*
X84201101Y-102438932D01*
X84419608Y-102259608D01*
X84598932Y-102041101D01*
X84732182Y-101791808D01*
X84814236Y-101521309D01*
X84841943Y-101240000D01*
X84814236Y-100958691D01*
X84732182Y-100688192D01*
X84598932Y-100438899D01*
X84419608Y-100220392D01*
X84201101Y-100041068D01*
X84068142Y-99970000D01*
X84201101Y-99898932D01*
X84419608Y-99719608D01*
X84598932Y-99501101D01*
X84732182Y-99251808D01*
X84814236Y-98981309D01*
X84841943Y-98700000D01*
X84814236Y-98418691D01*
X84732182Y-98148192D01*
X84598932Y-97898899D01*
X84419608Y-97680392D01*
X84201101Y-97501068D01*
X84073259Y-97432735D01*
X84302839Y-97282601D01*
X84504500Y-97084895D01*
X84663715Y-96851646D01*
X84774367Y-96591818D01*
X84791904Y-96509039D01*
X84669915Y-96287000D01*
X83127000Y-96287000D01*
X83127000Y-96307000D01*
X82873000Y-96307000D01*
X82873000Y-96287000D01*
X81330085Y-96287000D01*
X81208096Y-96509039D01*
X81225633Y-96591818D01*
X81336285Y-96851646D01*
X81495500Y-97084895D01*
X81697161Y-97282601D01*
X81926741Y-97432735D01*
X81798899Y-97501068D01*
X81580392Y-97680392D01*
X81401068Y-97898899D01*
X81267818Y-98148192D01*
X81185764Y-98418691D01*
X81158057Y-98700000D01*
X81185764Y-98981309D01*
X81249929Y-99192836D01*
X80748254Y-99694511D01*
X80714331Y-99722351D01*
X80686495Y-99756270D01*
X80603238Y-99857719D01*
X80520688Y-100012158D01*
X80483425Y-100135000D01*
X80469854Y-100179737D01*
X80456990Y-100310344D01*
X80456990Y-100310350D01*
X80452690Y-100354010D01*
X80456990Y-100397670D01*
X80456991Y-105213613D01*
X80385363Y-105285241D01*
X80368151Y-105311000D01*
X79891849Y-105311000D01*
X79874637Y-105285241D01*
X79674759Y-105085363D01*
X79439727Y-104928320D01*
X79178574Y-104820147D01*
X78901335Y-104765000D01*
X78618665Y-104765000D01*
X78341426Y-104820147D01*
X78080273Y-104928320D01*
X77845241Y-105085363D01*
X77645363Y-105285241D01*
X77488320Y-105520273D01*
X77380147Y-105781426D01*
X77325000Y-106058665D01*
X70743001Y-106058665D01*
X70743001Y-102975568D01*
X70873000Y-102890376D01*
X70873000Y-101667000D01*
X71127000Y-101667000D01*
X71127000Y-102890376D01*
X71364286Y-103045877D01*
X71655392Y-102989769D01*
X71929958Y-102877947D01*
X72177433Y-102714708D01*
X72388306Y-102506326D01*
X72554474Y-102260809D01*
X72669551Y-101987591D01*
X72686302Y-101900031D01*
X72565246Y-101667000D01*
X71127000Y-101667000D01*
X70873000Y-101667000D01*
X70853000Y-101667000D01*
X70853000Y-101413000D01*
X70873000Y-101413000D01*
X70873000Y-101393000D01*
X71127000Y-101393000D01*
X71127000Y-101413000D01*
X72565246Y-101413000D01*
X72686302Y-101179969D01*
X72669551Y-101092409D01*
X72554474Y-100819191D01*
X72388306Y-100573674D01*
X72229410Y-100416655D01*
X72338387Y-100358405D01*
X72472962Y-100247962D01*
X72583405Y-100113387D01*
X72665472Y-99959851D01*
X72716008Y-99793255D01*
X72733072Y-99620001D01*
X72733072Y-98379999D01*
X72716008Y-98206745D01*
X72665472Y-98040149D01*
X72583405Y-97886613D01*
X72472962Y-97752038D01*
X72338387Y-97641595D01*
X72184851Y-97559528D01*
X72018255Y-97508992D01*
X71845001Y-97491928D01*
X70482739Y-97491928D01*
X73146753Y-94827915D01*
X73180669Y-94800081D01*
X73291763Y-94664713D01*
X73330253Y-94592702D01*
X75986903Y-94592702D01*
X76058486Y-94836671D01*
X76313996Y-94957571D01*
X76588184Y-95026300D01*
X76870512Y-95040217D01*
X77150130Y-94998787D01*
X77416292Y-94903603D01*
X77541514Y-94836671D01*
X77613097Y-94592702D01*
X76800000Y-93779605D01*
X75986903Y-94592702D01*
X73330253Y-94592702D01*
X73374313Y-94510273D01*
X73419062Y-94362752D01*
X73425146Y-94342697D01*
X73431371Y-94279494D01*
X73438010Y-94212089D01*
X73438010Y-94212082D01*
X73442310Y-94168422D01*
X73438010Y-94124762D01*
X73438010Y-93670512D01*
X75359783Y-93670512D01*
X75401213Y-93950130D01*
X75496397Y-94216292D01*
X75563329Y-94341514D01*
X75807298Y-94413097D01*
X76620395Y-93600000D01*
X76979605Y-93600000D01*
X77792702Y-94413097D01*
X78036671Y-94341514D01*
X78050324Y-94312659D01*
X78185363Y-94514759D01*
X78385241Y-94714637D01*
X78620273Y-94871680D01*
X78881426Y-94979853D01*
X79158665Y-95035000D01*
X79441335Y-95035000D01*
X79718574Y-94979853D01*
X79979727Y-94871680D01*
X80214759Y-94714637D01*
X80414637Y-94514759D01*
X80431849Y-94489000D01*
X81456791Y-94489000D01*
X81580392Y-94639608D01*
X81798899Y-94818932D01*
X81926741Y-94887265D01*
X81697161Y-95037399D01*
X81495500Y-95235105D01*
X81336285Y-95468354D01*
X81225633Y-95728182D01*
X81208096Y-95810961D01*
X81330085Y-96033000D01*
X82873000Y-96033000D01*
X82873000Y-96013000D01*
X83127000Y-96013000D01*
X83127000Y-96033000D01*
X84669915Y-96033000D01*
X84791904Y-95810961D01*
X84788520Y-95794990D01*
X88831480Y-95794990D01*
X88828096Y-95810961D01*
X88950085Y-96033000D01*
X90493000Y-96033000D01*
X90493000Y-96013000D01*
X90747000Y-96013000D01*
X90747000Y-96033000D01*
X92289915Y-96033000D01*
X92411904Y-95810961D01*
X92408520Y-95794990D01*
X101423954Y-95794990D01*
X101377834Y-95881275D01*
X101291776Y-96164968D01*
X101262718Y-96460000D01*
X101291776Y-96755032D01*
X101377834Y-97038725D01*
X101517583Y-97300179D01*
X101705655Y-97529345D01*
X101771114Y-97583066D01*
X101661613Y-97641595D01*
X101527038Y-97752038D01*
X101416595Y-97886613D01*
X101334528Y-98040149D01*
X101283992Y-98206745D01*
X101266928Y-98379999D01*
X101266928Y-99620001D01*
X101283992Y-99793255D01*
X101334528Y-99959851D01*
X101416595Y-100113387D01*
X101527038Y-100247962D01*
X101652590Y-100351000D01*
X92146795Y-100351000D01*
X92039608Y-100220392D01*
X91821101Y-100041068D01*
X91688142Y-99970000D01*
X91821101Y-99898932D01*
X92039608Y-99719608D01*
X92218932Y-99501101D01*
X92352182Y-99251808D01*
X92434236Y-98981309D01*
X92461943Y-98700000D01*
X92434236Y-98418691D01*
X92352182Y-98148192D01*
X92218932Y-97898899D01*
X92039608Y-97680392D01*
X91821101Y-97501068D01*
X91693259Y-97432735D01*
X91922839Y-97282601D01*
X92124500Y-97084895D01*
X92283715Y-96851646D01*
X92394367Y-96591818D01*
X92411904Y-96509039D01*
X92289915Y-96287000D01*
X90747000Y-96287000D01*
X90747000Y-96307000D01*
X90493000Y-96307000D01*
X90493000Y-96287000D01*
X88950085Y-96287000D01*
X88828096Y-96509039D01*
X88845633Y-96591818D01*
X88956285Y-96851646D01*
X89115500Y-97084895D01*
X89317161Y-97282601D01*
X89546741Y-97432735D01*
X89418899Y-97501068D01*
X89200392Y-97680392D01*
X89021068Y-97898899D01*
X88887818Y-98148192D01*
X88805764Y-98418691D01*
X88778057Y-98700000D01*
X88805764Y-98981309D01*
X88887818Y-99251808D01*
X89021068Y-99501101D01*
X89200392Y-99719608D01*
X89418899Y-99898932D01*
X89551858Y-99970000D01*
X89418899Y-100041068D01*
X89200392Y-100220392D01*
X89021068Y-100438899D01*
X88887818Y-100688192D01*
X88805764Y-100958691D01*
X88778057Y-101240000D01*
X88805764Y-101521309D01*
X88887818Y-101791808D01*
X89021068Y-102041101D01*
X89200392Y-102259608D01*
X89418899Y-102438932D01*
X89668192Y-102572182D01*
X89938691Y-102654236D01*
X90149508Y-102675000D01*
X91090492Y-102675000D01*
X91301309Y-102654236D01*
X91571808Y-102572182D01*
X91821101Y-102438932D01*
X92039608Y-102259608D01*
X92146795Y-102129000D01*
X102111000Y-102129000D01*
X102111001Y-104496330D01*
X102106700Y-104540000D01*
X102123864Y-104714274D01*
X102174698Y-104881852D01*
X102199536Y-104928320D01*
X102257248Y-105036291D01*
X102368342Y-105171659D01*
X102402259Y-105199494D01*
X103231044Y-106028280D01*
X103225000Y-106058665D01*
X103225000Y-106341335D01*
X103280147Y-106618574D01*
X103388320Y-106879727D01*
X103545363Y-107114759D01*
X103745241Y-107314637D01*
X103980273Y-107471680D01*
X104241426Y-107579853D01*
X104518665Y-107635000D01*
X104801335Y-107635000D01*
X105078574Y-107579853D01*
X105339727Y-107471680D01*
X105574759Y-107314637D01*
X105774637Y-107114759D01*
X105931680Y-106879727D01*
X106039853Y-106618574D01*
X106095000Y-106341335D01*
X106095000Y-106058665D01*
X106039853Y-105781426D01*
X105931680Y-105520273D01*
X105774637Y-105285241D01*
X105574759Y-105085363D01*
X105339727Y-104928320D01*
X105078574Y-104820147D01*
X104801335Y-104765000D01*
X104518665Y-104765000D01*
X104488280Y-104771044D01*
X103889000Y-104171765D01*
X103889000Y-101343660D01*
X103893300Y-101300000D01*
X103889000Y-101256340D01*
X103889000Y-100503738D01*
X104018255Y-100491008D01*
X104184851Y-100440472D01*
X104338387Y-100358405D01*
X104472962Y-100247962D01*
X104583405Y-100113387D01*
X104665472Y-99959851D01*
X104716008Y-99793255D01*
X104733072Y-99620001D01*
X104733072Y-98379999D01*
X104716008Y-98206745D01*
X104665472Y-98040149D01*
X104583405Y-97886613D01*
X104472962Y-97752038D01*
X104338387Y-97641595D01*
X104228886Y-97583066D01*
X104294345Y-97529345D01*
X104482417Y-97300179D01*
X104622166Y-97038725D01*
X104708224Y-96755032D01*
X104737282Y-96460000D01*
X104708224Y-96164968D01*
X104622166Y-95881275D01*
X104482417Y-95619821D01*
X104294345Y-95390655D01*
X104065179Y-95202583D01*
X104041638Y-95190000D01*
X104065179Y-95177417D01*
X104294345Y-94989345D01*
X104482417Y-94760179D01*
X104622166Y-94498725D01*
X104708224Y-94215032D01*
X104737282Y-93920000D01*
X104708224Y-93624968D01*
X104622166Y-93341275D01*
X104482417Y-93079821D01*
X104294345Y-92850655D01*
X104065179Y-92662583D01*
X104041638Y-92650000D01*
X104065179Y-92637417D01*
X104294345Y-92449345D01*
X104482417Y-92220179D01*
X104622166Y-91958725D01*
X104708224Y-91675032D01*
X104737282Y-91380000D01*
X104708224Y-91084968D01*
X104622166Y-90801275D01*
X104482417Y-90539821D01*
X104294345Y-90310655D01*
X104065179Y-90122583D01*
X104036848Y-90107440D01*
X104177433Y-90014708D01*
X104388306Y-89806326D01*
X104554474Y-89560809D01*
X104669551Y-89287591D01*
X104686302Y-89200031D01*
X104565246Y-88967000D01*
X103127000Y-88967000D01*
X103127000Y-88987000D01*
X102873000Y-88987000D01*
X102873000Y-88967000D01*
X101434754Y-88967000D01*
X101313698Y-89200031D01*
X101330449Y-89287591D01*
X101445526Y-89560809D01*
X101611694Y-89806326D01*
X101822567Y-90014708D01*
X101963152Y-90107440D01*
X101934821Y-90122583D01*
X101705655Y-90310655D01*
X101557649Y-90491000D01*
X96563659Y-90491000D01*
X96519999Y-90486700D01*
X96476339Y-90491000D01*
X96476333Y-90491000D01*
X96378924Y-90500594D01*
X96345724Y-90503864D01*
X96244058Y-90534704D01*
X96178149Y-90554697D01*
X96023709Y-90637247D01*
X95888341Y-90748341D01*
X95860506Y-90782258D01*
X94471721Y-92171044D01*
X94441335Y-92165000D01*
X94158665Y-92165000D01*
X93881426Y-92220147D01*
X93620273Y-92328320D01*
X93385241Y-92485363D01*
X93185363Y-92685241D01*
X93154788Y-92731000D01*
X92146795Y-92731000D01*
X92039608Y-92600392D01*
X91821101Y-92421068D01*
X91693259Y-92352735D01*
X91922839Y-92202601D01*
X92124500Y-92004895D01*
X92283715Y-91771646D01*
X92394367Y-91511818D01*
X92411904Y-91429039D01*
X92289915Y-91207000D01*
X90747000Y-91207000D01*
X90747000Y-91227000D01*
X90493000Y-91227000D01*
X90493000Y-91207000D01*
X88950085Y-91207000D01*
X88828096Y-91429039D01*
X88845633Y-91511818D01*
X88956285Y-91771646D01*
X89115500Y-92004895D01*
X89317161Y-92202601D01*
X89546741Y-92352735D01*
X89418899Y-92421068D01*
X89200392Y-92600392D01*
X89021068Y-92818899D01*
X88887818Y-93068192D01*
X88805764Y-93338691D01*
X88778057Y-93620000D01*
X88805764Y-93901309D01*
X88840855Y-94016990D01*
X84779145Y-94016990D01*
X84814236Y-93901309D01*
X84841943Y-93620000D01*
X84814236Y-93338691D01*
X84732182Y-93068192D01*
X84598932Y-92818899D01*
X84419608Y-92600392D01*
X84201101Y-92421068D01*
X84073259Y-92352735D01*
X84302839Y-92202601D01*
X84504500Y-92004895D01*
X84663715Y-91771646D01*
X84774367Y-91511818D01*
X84791904Y-91429039D01*
X84669915Y-91207000D01*
X83127000Y-91207000D01*
X83127000Y-91227000D01*
X82873000Y-91227000D01*
X82873000Y-91207000D01*
X81330085Y-91207000D01*
X81208096Y-91429039D01*
X81225633Y-91511818D01*
X81336285Y-91771646D01*
X81495500Y-92004895D01*
X81697161Y-92202601D01*
X81926741Y-92352735D01*
X81798899Y-92421068D01*
X81580392Y-92600392D01*
X81489618Y-92711000D01*
X80431849Y-92711000D01*
X80414637Y-92685241D01*
X80214759Y-92485363D01*
X79979727Y-92328320D01*
X79718574Y-92220147D01*
X79441335Y-92165000D01*
X79158665Y-92165000D01*
X78881426Y-92220147D01*
X78620273Y-92328320D01*
X78385241Y-92485363D01*
X78185363Y-92685241D01*
X78051308Y-92885869D01*
X78036671Y-92858486D01*
X77792702Y-92786903D01*
X76979605Y-93600000D01*
X76620395Y-93600000D01*
X75807298Y-92786903D01*
X75563329Y-92858486D01*
X75442429Y-93113996D01*
X75373700Y-93388184D01*
X75359783Y-93670512D01*
X73438010Y-93670512D01*
X73438010Y-92672670D01*
X73442310Y-92629010D01*
X73440172Y-92607298D01*
X75986903Y-92607298D01*
X76800000Y-93420395D01*
X77613097Y-92607298D01*
X77541514Y-92363329D01*
X77286004Y-92242429D01*
X77011816Y-92173700D01*
X76729488Y-92159783D01*
X76449870Y-92201213D01*
X76183708Y-92296397D01*
X76058486Y-92363329D01*
X75986903Y-92607298D01*
X73440172Y-92607298D01*
X73438010Y-92585350D01*
X73438010Y-92585343D01*
X73426781Y-92471335D01*
X73425146Y-92454735D01*
X73374312Y-92287157D01*
X73350404Y-92242429D01*
X73291763Y-92132719D01*
X73180669Y-91997351D01*
X73146752Y-91969516D01*
X72671926Y-91494690D01*
X72708224Y-91375032D01*
X72737282Y-91080000D01*
X72708224Y-90784968D01*
X72622166Y-90501275D01*
X72482417Y-90239821D01*
X72294345Y-90010655D01*
X72065179Y-89822583D01*
X72041638Y-89810000D01*
X72065179Y-89797417D01*
X72294345Y-89609345D01*
X72482417Y-89380179D01*
X72622166Y-89118725D01*
X72708224Y-88835032D01*
X72737282Y-88540000D01*
X72708224Y-88244968D01*
X72671926Y-88125310D01*
X73146753Y-87650483D01*
X73180669Y-87622649D01*
X73291763Y-87487281D01*
X73374313Y-87332841D01*
X73425146Y-87165264D01*
X73438010Y-87034657D01*
X73438010Y-87034650D01*
X73442310Y-86990990D01*
X73438010Y-86947330D01*
X73438010Y-81892669D01*
X73442310Y-81849009D01*
X73438010Y-81805349D01*
X73438010Y-81805343D01*
X73425146Y-81674736D01*
X73425146Y-81674734D01*
X73374312Y-81507157D01*
X73348392Y-81458665D01*
X73291763Y-81352719D01*
X73180669Y-81217351D01*
X73146752Y-81189516D01*
X70128956Y-78171721D01*
X70135000Y-78141335D01*
X70135000Y-77858665D01*
X70079853Y-77581426D01*
X69971680Y-77320273D01*
X69814637Y-77085241D01*
X69614759Y-76885363D01*
X69379727Y-76728320D01*
X69118574Y-76620147D01*
X68841335Y-76565000D01*
X68558665Y-76565000D01*
X68281426Y-76620147D01*
X68020273Y-76728320D01*
X67785241Y-76885363D01*
X67585363Y-77085241D01*
X67428320Y-77320273D01*
X67320147Y-77581426D01*
X67265000Y-77858665D01*
X67265000Y-78141335D01*
X67320147Y-78418574D01*
X67428320Y-78679727D01*
X67585363Y-78914759D01*
X67785241Y-79114637D01*
X68020273Y-79271680D01*
X68281426Y-79379853D01*
X68558665Y-79435000D01*
X68841335Y-79435000D01*
X68871721Y-79428956D01*
X71660011Y-82217247D01*
X71660010Y-84491928D01*
X70154999Y-84491928D01*
X69981745Y-84508992D01*
X69815149Y-84559528D01*
X69661613Y-84641595D01*
X69589000Y-84701187D01*
X69589000Y-82731849D01*
X69614759Y-82714637D01*
X69814637Y-82514759D01*
X69971680Y-82279727D01*
X70079853Y-82018574D01*
X70135000Y-81741335D01*
X70135000Y-81458665D01*
X70079853Y-81181426D01*
X69971680Y-80920273D01*
X69814637Y-80685241D01*
X69614759Y-80485363D01*
X69379727Y-80328320D01*
X69118574Y-80220147D01*
X68841335Y-80165000D01*
X68558665Y-80165000D01*
X68281426Y-80220147D01*
X68020273Y-80328320D01*
X67785241Y-80485363D01*
X67585363Y-80685241D01*
X67428320Y-80920273D01*
X67320147Y-81181426D01*
X67265000Y-81458665D01*
X67265000Y-81741335D01*
X67320147Y-82018574D01*
X67428320Y-82279727D01*
X67585363Y-82514759D01*
X67785241Y-82714637D01*
X67811000Y-82731849D01*
X67811001Y-91276330D01*
X67806700Y-91320000D01*
X67823864Y-91494274D01*
X67874698Y-91661852D01*
X67914176Y-91735709D01*
X67957248Y-91816291D01*
X68068342Y-91951659D01*
X68102259Y-91979494D01*
X69328074Y-93205310D01*
X69291776Y-93324968D01*
X69262718Y-93620000D01*
X69291776Y-93915032D01*
X69328074Y-94034690D01*
X68002259Y-95360506D01*
X67968342Y-95388341D01*
X67940507Y-95422258D01*
X67940505Y-95422260D01*
X67857248Y-95523709D01*
X67774698Y-95678148D01*
X67723864Y-95845726D01*
X67706700Y-96020000D01*
X67711001Y-96063670D01*
X67711000Y-105068151D01*
X67685241Y-105085363D01*
X67485363Y-105285241D01*
X67328320Y-105520273D01*
X67220147Y-105781426D01*
X67165000Y-106058665D01*
X66660000Y-106058665D01*
X66660000Y-74258665D01*
X67265000Y-74258665D01*
X67265000Y-74541335D01*
X67320147Y-74818574D01*
X67428320Y-75079727D01*
X67585363Y-75314759D01*
X67785241Y-75514637D01*
X68020273Y-75671680D01*
X68281426Y-75779853D01*
X68558665Y-75835000D01*
X68841335Y-75835000D01*
X69118574Y-75779853D01*
X69379727Y-75671680D01*
X69614759Y-75514637D01*
X69814637Y-75314759D01*
X69971680Y-75079727D01*
X70079853Y-74818574D01*
X70135000Y-74541335D01*
X70135000Y-74258665D01*
X70128956Y-74228280D01*
X70322237Y-74034999D01*
X77469491Y-74034999D01*
X77425000Y-74258665D01*
X77425000Y-74541335D01*
X77480147Y-74818574D01*
X77588320Y-75079727D01*
X77745363Y-75314759D01*
X77945241Y-75514637D01*
X77971000Y-75531849D01*
X77971001Y-76868151D01*
X77945241Y-76885363D01*
X77745363Y-77085241D01*
X77588320Y-77320273D01*
X77480147Y-77581426D01*
X77425000Y-77858665D01*
X77425000Y-78141335D01*
X77480147Y-78418574D01*
X77588320Y-78679727D01*
X77745363Y-78914759D01*
X77945241Y-79114637D01*
X77971000Y-79131849D01*
X77971001Y-80468151D01*
X77945241Y-80485363D01*
X77745363Y-80685241D01*
X77588320Y-80920273D01*
X77480147Y-81181426D01*
X77425000Y-81458665D01*
X77425000Y-81741335D01*
X77480147Y-82018574D01*
X77588320Y-82279727D01*
X77745363Y-82514759D01*
X77945241Y-82714637D01*
X77971001Y-82731849D01*
X77971000Y-86064340D01*
X77966700Y-86108000D01*
X77971000Y-86151660D01*
X77971000Y-86151666D01*
X77983864Y-86282273D01*
X78034697Y-86449850D01*
X78117247Y-86604290D01*
X78228341Y-86739659D01*
X78262264Y-86767499D01*
X80632501Y-89137736D01*
X80660341Y-89171659D01*
X80795709Y-89282753D01*
X80950149Y-89365303D01*
X81016058Y-89385296D01*
X81117724Y-89416136D01*
X81150924Y-89419406D01*
X81248333Y-89429000D01*
X81248339Y-89429000D01*
X81291999Y-89433300D01*
X81335659Y-89429000D01*
X81473205Y-89429000D01*
X81580392Y-89559608D01*
X81798899Y-89738932D01*
X81926741Y-89807265D01*
X81697161Y-89957399D01*
X81495500Y-90155105D01*
X81336285Y-90388354D01*
X81225633Y-90648182D01*
X81208096Y-90730961D01*
X81330085Y-90953000D01*
X82873000Y-90953000D01*
X82873000Y-90933000D01*
X83127000Y-90933000D01*
X83127000Y-90953000D01*
X84669915Y-90953000D01*
X84791904Y-90730961D01*
X84774367Y-90648182D01*
X84663715Y-90388354D01*
X84504500Y-90155105D01*
X84302839Y-89957399D01*
X84073259Y-89807265D01*
X84201101Y-89738932D01*
X84419608Y-89559608D01*
X84598932Y-89341101D01*
X84732182Y-89091808D01*
X84814236Y-88821309D01*
X84841943Y-88540000D01*
X84814236Y-88258691D01*
X84732182Y-87988192D01*
X84598932Y-87738899D01*
X84419608Y-87520392D01*
X84306518Y-87427581D01*
X84324482Y-87425812D01*
X84444180Y-87389502D01*
X84554494Y-87330537D01*
X84651185Y-87251185D01*
X84730537Y-87154494D01*
X84789502Y-87044180D01*
X84825812Y-86924482D01*
X84838072Y-86800000D01*
X84838072Y-86179163D01*
X85017235Y-86000000D01*
X88778057Y-86000000D01*
X88805764Y-86281309D01*
X88887818Y-86551808D01*
X89021068Y-86801101D01*
X89200392Y-87019608D01*
X89418899Y-87198932D01*
X89551858Y-87270000D01*
X89418899Y-87341068D01*
X89200392Y-87520392D01*
X89021068Y-87738899D01*
X88887818Y-87988192D01*
X88805764Y-88258691D01*
X88778057Y-88540000D01*
X88805764Y-88821309D01*
X88887818Y-89091808D01*
X89021068Y-89341101D01*
X89200392Y-89559608D01*
X89418899Y-89738932D01*
X89546741Y-89807265D01*
X89317161Y-89957399D01*
X89115500Y-90155105D01*
X88956285Y-90388354D01*
X88845633Y-90648182D01*
X88828096Y-90730961D01*
X88950085Y-90953000D01*
X90493000Y-90953000D01*
X90493000Y-90933000D01*
X90747000Y-90933000D01*
X90747000Y-90953000D01*
X92289915Y-90953000D01*
X92411904Y-90730961D01*
X92394367Y-90648182D01*
X92283715Y-90388354D01*
X92124500Y-90155105D01*
X91922839Y-89957399D01*
X91693259Y-89807265D01*
X91821101Y-89738932D01*
X92039608Y-89559608D01*
X92146795Y-89429000D01*
X94076340Y-89429000D01*
X94120000Y-89433300D01*
X94163660Y-89429000D01*
X94163667Y-89429000D01*
X94294274Y-89416136D01*
X94461851Y-89365303D01*
X94616291Y-89282753D01*
X94751659Y-89171659D01*
X94779499Y-89137736D01*
X95437266Y-88479969D01*
X101313698Y-88479969D01*
X101434754Y-88713000D01*
X102873000Y-88713000D01*
X102873000Y-87489624D01*
X103127000Y-87489624D01*
X103127000Y-88713000D01*
X104565246Y-88713000D01*
X104686302Y-88479969D01*
X104669551Y-88392409D01*
X104554474Y-88119191D01*
X104388306Y-87873674D01*
X104177433Y-87665292D01*
X103929958Y-87502053D01*
X103655392Y-87390231D01*
X103364286Y-87334123D01*
X103127000Y-87489624D01*
X102873000Y-87489624D01*
X102635714Y-87334123D01*
X102344608Y-87390231D01*
X102070042Y-87502053D01*
X101822567Y-87665292D01*
X101611694Y-87873674D01*
X101445526Y-88119191D01*
X101330449Y-88392409D01*
X101313698Y-88479969D01*
X95437266Y-88479969D01*
X104488280Y-79428956D01*
X104518665Y-79435000D01*
X104801335Y-79435000D01*
X105078574Y-79379853D01*
X105339727Y-79271680D01*
X105574759Y-79114637D01*
X105774637Y-78914759D01*
X105931680Y-78679727D01*
X106039853Y-78418574D01*
X106095000Y-78141335D01*
X106095000Y-77858665D01*
X106039853Y-77581426D01*
X105931680Y-77320273D01*
X105774637Y-77085241D01*
X105574759Y-76885363D01*
X105339727Y-76728320D01*
X105078574Y-76620147D01*
X104801335Y-76565000D01*
X104518665Y-76565000D01*
X104241426Y-76620147D01*
X103980273Y-76728320D01*
X103745241Y-76885363D01*
X103545363Y-77085241D01*
X103388320Y-77320273D01*
X103280147Y-77581426D01*
X103225000Y-77858665D01*
X103225000Y-78141335D01*
X103231044Y-78171720D01*
X93751765Y-87651000D01*
X92146795Y-87651000D01*
X92039608Y-87520392D01*
X91821101Y-87341068D01*
X91688142Y-87270000D01*
X91821101Y-87198932D01*
X92039608Y-87019608D01*
X92218932Y-86801101D01*
X92352182Y-86551808D01*
X92434236Y-86281309D01*
X92461943Y-86000000D01*
X92434236Y-85718691D01*
X92352182Y-85448192D01*
X92218932Y-85198899D01*
X92039608Y-84980392D01*
X91821101Y-84801068D01*
X91571808Y-84667818D01*
X91509000Y-84648766D01*
X91509000Y-83108235D01*
X91588279Y-83028956D01*
X91618665Y-83035000D01*
X91901335Y-83035000D01*
X92178574Y-82979853D01*
X92439727Y-82871680D01*
X92674759Y-82714637D01*
X92874637Y-82514759D01*
X93031680Y-82279727D01*
X93139853Y-82018574D01*
X93195000Y-81741335D01*
X93195000Y-81458665D01*
X93139853Y-81181426D01*
X93031680Y-80920273D01*
X92874637Y-80685241D01*
X92674759Y-80485363D01*
X92439727Y-80328320D01*
X92178574Y-80220147D01*
X91901335Y-80165000D01*
X91618665Y-80165000D01*
X91341426Y-80220147D01*
X91080273Y-80328320D01*
X90845241Y-80485363D01*
X90645363Y-80685241D01*
X90488320Y-80920273D01*
X90380147Y-81181426D01*
X90325000Y-81458665D01*
X90325000Y-81741335D01*
X90331044Y-81771721D01*
X90022259Y-82080506D01*
X89988342Y-82108341D01*
X89960507Y-82142258D01*
X89960505Y-82142260D01*
X89877248Y-82243709D01*
X89794698Y-82398148D01*
X89743864Y-82565726D01*
X89726700Y-82740000D01*
X89731001Y-82783670D01*
X89731000Y-84648766D01*
X89668192Y-84667818D01*
X89418899Y-84801068D01*
X89200392Y-84980392D01*
X89021068Y-85198899D01*
X88887818Y-85448192D01*
X88805764Y-85718691D01*
X88778057Y-86000000D01*
X85017235Y-86000000D01*
X91588280Y-79428956D01*
X91618665Y-79435000D01*
X91901335Y-79435000D01*
X92178574Y-79379853D01*
X92439727Y-79271680D01*
X92674759Y-79114637D01*
X92874637Y-78914759D01*
X92891849Y-78889000D01*
X93368151Y-78889000D01*
X93385363Y-78914759D01*
X93585241Y-79114637D01*
X93820273Y-79271680D01*
X94081426Y-79379853D01*
X94358665Y-79435000D01*
X94641335Y-79435000D01*
X94918574Y-79379853D01*
X95179727Y-79271680D01*
X95414759Y-79114637D01*
X95614637Y-78914759D01*
X95771680Y-78679727D01*
X95879853Y-78418574D01*
X95935000Y-78141335D01*
X95935000Y-77858665D01*
X95879853Y-77581426D01*
X95771680Y-77320273D01*
X95614637Y-77085241D01*
X95414759Y-76885363D01*
X95179727Y-76728320D01*
X94918574Y-76620147D01*
X94641335Y-76565000D01*
X94358665Y-76565000D01*
X94081426Y-76620147D01*
X93820273Y-76728320D01*
X93585241Y-76885363D01*
X93385363Y-77085241D01*
X93368151Y-77111000D01*
X92891849Y-77111000D01*
X92874637Y-77085241D01*
X92674759Y-76885363D01*
X92439727Y-76728320D01*
X92178574Y-76620147D01*
X91901335Y-76565000D01*
X91618665Y-76565000D01*
X91341426Y-76620147D01*
X91080273Y-76728320D01*
X90845241Y-76885363D01*
X90645363Y-77085241D01*
X90488320Y-77320273D01*
X90380147Y-77581426D01*
X90325000Y-77858665D01*
X90325000Y-78141335D01*
X90331044Y-78171720D01*
X83940837Y-84561928D01*
X81800000Y-84561928D01*
X81675518Y-84574188D01*
X81555820Y-84610498D01*
X81445506Y-84669463D01*
X81348815Y-84748815D01*
X81269463Y-84845506D01*
X81210498Y-84955820D01*
X81174188Y-85075518D01*
X81161928Y-85200000D01*
X81161928Y-86800000D01*
X81174188Y-86924482D01*
X81210498Y-87044180D01*
X81269463Y-87154494D01*
X81348815Y-87251185D01*
X81445506Y-87330537D01*
X81555820Y-87389502D01*
X81675518Y-87425812D01*
X81693482Y-87427581D01*
X81580392Y-87520392D01*
X81557509Y-87548274D01*
X79749000Y-85739765D01*
X79749000Y-82731849D01*
X79774759Y-82714637D01*
X79974637Y-82514759D01*
X80131680Y-82279727D01*
X80230000Y-82042361D01*
X80328320Y-82279727D01*
X80485363Y-82514759D01*
X80685241Y-82714637D01*
X80920273Y-82871680D01*
X81181426Y-82979853D01*
X81458665Y-83035000D01*
X81741335Y-83035000D01*
X82018574Y-82979853D01*
X82279727Y-82871680D01*
X82514759Y-82714637D01*
X82714637Y-82514759D01*
X82871680Y-82279727D01*
X82979853Y-82018574D01*
X83035000Y-81741335D01*
X83035000Y-81458665D01*
X82979853Y-81181426D01*
X82871680Y-80920273D01*
X82714637Y-80685241D01*
X82514759Y-80485363D01*
X82279727Y-80328320D01*
X82018574Y-80220147D01*
X81741335Y-80165000D01*
X81458665Y-80165000D01*
X81181426Y-80220147D01*
X80920273Y-80328320D01*
X80685241Y-80485363D01*
X80485363Y-80685241D01*
X80328320Y-80920273D01*
X80230000Y-81157639D01*
X80131680Y-80920273D01*
X79974637Y-80685241D01*
X79774759Y-80485363D01*
X79749000Y-80468151D01*
X79749000Y-79131849D01*
X79774759Y-79114637D01*
X79974637Y-78914759D01*
X79991849Y-78889000D01*
X80468151Y-78889000D01*
X80485363Y-78914759D01*
X80685241Y-79114637D01*
X80920273Y-79271680D01*
X81181426Y-79379853D01*
X81458665Y-79435000D01*
X81741335Y-79435000D01*
X82018574Y-79379853D01*
X82279727Y-79271680D01*
X82514759Y-79114637D01*
X82714637Y-78914759D01*
X82871680Y-78679727D01*
X82979853Y-78418574D01*
X83035000Y-78141335D01*
X83035000Y-77858665D01*
X82979853Y-77581426D01*
X82871680Y-77320273D01*
X82714637Y-77085241D01*
X82514759Y-76885363D01*
X82279727Y-76728320D01*
X82018574Y-76620147D01*
X81741335Y-76565000D01*
X81458665Y-76565000D01*
X81181426Y-76620147D01*
X80920273Y-76728320D01*
X80685241Y-76885363D01*
X80485363Y-77085241D01*
X80468151Y-77111000D01*
X79991849Y-77111000D01*
X79974637Y-77085241D01*
X79774759Y-76885363D01*
X79749000Y-76868151D01*
X79749000Y-75531849D01*
X79774759Y-75514637D01*
X79974637Y-75314759D01*
X80131680Y-75079727D01*
X80239853Y-74818574D01*
X80295000Y-74541335D01*
X80295000Y-74258665D01*
X80250509Y-74034999D01*
X83310341Y-74034999D01*
X83354001Y-74039299D01*
X83397661Y-74034999D01*
X83397668Y-74034999D01*
X83528275Y-74022135D01*
X83695852Y-73971302D01*
X83850292Y-73888752D01*
X83985660Y-73777658D01*
X84013500Y-73743735D01*
X86243237Y-71513999D01*
X86348816Y-71535000D01*
X86651184Y-71535000D01*
X86947743Y-71476011D01*
X87227095Y-71360299D01*
X87478505Y-71192312D01*
X87516120Y-71154697D01*
X87569463Y-71254494D01*
X87648815Y-71351185D01*
X87745506Y-71430537D01*
X87855820Y-71489502D01*
X87975518Y-71525812D01*
X88100000Y-71538072D01*
X89900000Y-71538072D01*
X90024482Y-71525812D01*
X90144180Y-71489502D01*
X90254494Y-71430537D01*
X90351185Y-71351185D01*
X90430537Y-71254494D01*
X90489502Y-71144180D01*
X90525812Y-71024482D01*
X90538072Y-70900000D01*
X90538072Y-70889000D01*
X96956340Y-70889000D01*
X97000000Y-70893300D01*
X97043660Y-70889000D01*
X97043667Y-70889000D01*
X97174274Y-70876136D01*
X97341851Y-70825303D01*
X97496291Y-70742753D01*
X97631659Y-70631659D01*
X97659499Y-70597736D01*
X97828279Y-70428956D01*
X97858665Y-70435000D01*
X98141335Y-70435000D01*
X98418574Y-70379853D01*
X98679727Y-70271680D01*
X98914759Y-70114637D01*
X99114637Y-69914759D01*
X99271680Y-69679727D01*
X99379853Y-69418574D01*
X99435000Y-69141335D01*
X99435000Y-68858665D01*
X99379853Y-68581426D01*
X99271680Y-68320273D01*
X99114637Y-68085241D01*
X98914759Y-67885363D01*
X98679727Y-67728320D01*
X98418574Y-67620147D01*
X98141335Y-67565000D01*
X97858665Y-67565000D01*
X97581426Y-67620147D01*
X97320273Y-67728320D01*
X97085241Y-67885363D01*
X96885363Y-68085241D01*
X96728320Y-68320273D01*
X96620147Y-68581426D01*
X96565000Y-68858665D01*
X96565000Y-69111000D01*
X90538072Y-69111000D01*
X90538072Y-69100000D01*
X90525812Y-68975518D01*
X90489502Y-68855820D01*
X90430537Y-68745506D01*
X90351185Y-68648815D01*
X90254494Y-68569463D01*
X90144180Y-68510498D01*
X90024482Y-68474188D01*
X89900000Y-68461928D01*
X88100000Y-68461928D01*
X87975518Y-68474188D01*
X87855820Y-68510498D01*
X87745506Y-68569463D01*
X87648815Y-68648815D01*
X87569463Y-68745506D01*
X87516120Y-68845303D01*
X87478505Y-68807688D01*
X87227095Y-68639701D01*
X86947743Y-68523989D01*
X86651184Y-68465000D01*
X86348816Y-68465000D01*
X86052257Y-68523989D01*
X85772905Y-68639701D01*
X85521495Y-68807688D01*
X85307688Y-69021495D01*
X85250000Y-69107831D01*
X85192312Y-69021495D01*
X84978505Y-68807688D01*
X84727095Y-68639701D01*
X84447743Y-68523989D01*
X84151184Y-68465000D01*
X83848816Y-68465000D01*
X83552257Y-68523989D01*
X83272905Y-68639701D01*
X83021495Y-68807688D01*
X82807688Y-69021495D01*
X82639701Y-69272905D01*
X82523989Y-69552257D01*
X82465000Y-69848816D01*
X82465000Y-70151184D01*
X82523989Y-70447743D01*
X82639701Y-70727095D01*
X82807688Y-70978505D01*
X83021495Y-71192312D01*
X83272905Y-71360299D01*
X83552257Y-71476011D01*
X83731167Y-71511598D01*
X82985766Y-72256999D01*
X69997660Y-72256999D01*
X69954000Y-72252699D01*
X69910340Y-72256999D01*
X69910334Y-72256999D01*
X69812925Y-72266593D01*
X69779725Y-72269863D01*
X69678059Y-72300703D01*
X69612150Y-72320696D01*
X69457710Y-72403246D01*
X69322342Y-72514340D01*
X69294507Y-72548258D01*
X68871720Y-72971044D01*
X68841335Y-72965000D01*
X68558665Y-72965000D01*
X68281426Y-73020147D01*
X68020273Y-73128320D01*
X67785241Y-73285363D01*
X67585363Y-73485241D01*
X67428320Y-73720273D01*
X67320147Y-73981426D01*
X67265000Y-74258665D01*
X66660000Y-74258665D01*
X66660000Y-62142003D01*
X79705000Y-62142003D01*
X79705000Y-62857998D01*
X79733867Y-63151088D01*
X79847943Y-63527147D01*
X80033193Y-63873725D01*
X80282498Y-64177503D01*
X80586276Y-64426807D01*
X80932854Y-64612057D01*
X81308913Y-64726133D01*
X81700000Y-64764652D01*
X82091088Y-64726133D01*
X82467147Y-64612057D01*
X82813725Y-64426807D01*
X83117503Y-64177503D01*
X83366807Y-63873725D01*
X83552057Y-63527147D01*
X83666133Y-63151087D01*
X83695000Y-62857997D01*
X83695000Y-62142003D01*
X89305000Y-62142003D01*
X89305000Y-62857998D01*
X89333867Y-63151088D01*
X89447943Y-63527147D01*
X89633193Y-63873725D01*
X89882498Y-64177503D01*
X90186276Y-64426807D01*
X90532854Y-64612057D01*
X90908913Y-64726133D01*
X91300000Y-64764652D01*
X91691088Y-64726133D01*
X92067147Y-64612057D01*
X92413725Y-64426807D01*
X92717503Y-64177503D01*
X92966807Y-63873725D01*
X93152057Y-63527147D01*
X93266133Y-63151087D01*
X93295000Y-62857997D01*
X93295000Y-62142002D01*
X93266133Y-61848912D01*
X93152057Y-61472853D01*
X92966807Y-61126275D01*
X92717503Y-60822497D01*
X92413725Y-60573193D01*
X92067146Y-60387943D01*
X91691087Y-60273867D01*
X91300000Y-60235348D01*
X90908912Y-60273867D01*
X90532853Y-60387943D01*
X90186275Y-60573193D01*
X89882497Y-60822497D01*
X89633193Y-61126275D01*
X89447943Y-61472854D01*
X89333867Y-61848913D01*
X89305000Y-62142003D01*
X83695000Y-62142003D01*
X83695000Y-62142002D01*
X83666133Y-61848912D01*
X83552057Y-61472853D01*
X83366807Y-61126275D01*
X83117503Y-60822497D01*
X82813725Y-60573193D01*
X82467146Y-60387943D01*
X82091087Y-60273867D01*
X81700000Y-60235348D01*
X81308912Y-60273867D01*
X80932853Y-60387943D01*
X80586275Y-60573193D01*
X80282497Y-60822497D01*
X80033193Y-61126275D01*
X79847943Y-61472854D01*
X79733867Y-61848913D01*
X79705000Y-62142003D01*
X66660000Y-62142003D01*
X66660000Y-59189040D01*
X96608091Y-59189040D01*
X96702930Y-59453881D01*
X96847615Y-59695131D01*
X97036586Y-59903519D01*
X97262580Y-60071037D01*
X97516913Y-60191246D01*
X97650961Y-60231904D01*
X97873000Y-60109915D01*
X97873000Y-58967000D01*
X98127000Y-58967000D01*
X98127000Y-60109915D01*
X98349039Y-60231904D01*
X98483087Y-60191246D01*
X98737420Y-60071037D01*
X98963414Y-59903519D01*
X99152385Y-59695131D01*
X99297070Y-59453881D01*
X99391909Y-59189040D01*
X99270624Y-58967000D01*
X98127000Y-58967000D01*
X97873000Y-58967000D01*
X96729376Y-58967000D01*
X96608091Y-59189040D01*
X66660000Y-59189040D01*
X66660000Y-58490960D01*
X96608091Y-58490960D01*
X96729376Y-58713000D01*
X97873000Y-58713000D01*
X97873000Y-57570085D01*
X98127000Y-57570085D01*
X98127000Y-58713000D01*
X99270624Y-58713000D01*
X99391909Y-58490960D01*
X99297070Y-58226119D01*
X99152385Y-57984869D01*
X98963414Y-57776481D01*
X98737420Y-57608963D01*
X98483087Y-57488754D01*
X98349039Y-57448096D01*
X98127000Y-57570085D01*
X97873000Y-57570085D01*
X97650961Y-57448096D01*
X97516913Y-57488754D01*
X97262580Y-57608963D01*
X97036586Y-57776481D01*
X96847615Y-57984869D01*
X96702930Y-58226119D01*
X96608091Y-58490960D01*
X66660000Y-58490960D01*
X66660000Y-55660000D01*
X107340000Y-55660000D01*
X107340001Y-132840000D01*
%TA.AperFunction,Conductor*%
D21*
G36*
X107340001Y-132840000D02*
G01*
X66660000Y-132840000D01*
X66660000Y-113058665D01*
X67165000Y-113058665D01*
X67165000Y-113341335D01*
X67220147Y-113618574D01*
X67328320Y-113879727D01*
X67485363Y-114114759D01*
X67685241Y-114314637D01*
X67920273Y-114471680D01*
X68181426Y-114579853D01*
X68458665Y-114635000D01*
X68741335Y-114635000D01*
X69018574Y-114579853D01*
X69236339Y-114489652D01*
X83353149Y-128606463D01*
X83272905Y-128639701D01*
X83021495Y-128807688D01*
X82807688Y-129021495D01*
X82639701Y-129272905D01*
X82523989Y-129552257D01*
X82465000Y-129848816D01*
X82465000Y-130151184D01*
X82523989Y-130447743D01*
X82639701Y-130727095D01*
X82807688Y-130978505D01*
X83021495Y-131192312D01*
X83272905Y-131360299D01*
X83552257Y-131476011D01*
X83848816Y-131535000D01*
X84151184Y-131535000D01*
X84447743Y-131476011D01*
X84727095Y-131360299D01*
X84978505Y-131192312D01*
X85192312Y-130978505D01*
X85250000Y-130892169D01*
X85307688Y-130978505D01*
X85521495Y-131192312D01*
X85772905Y-131360299D01*
X86052257Y-131476011D01*
X86348816Y-131535000D01*
X86651184Y-131535000D01*
X86947743Y-131476011D01*
X87227095Y-131360299D01*
X87478505Y-131192312D01*
X87516120Y-131154697D01*
X87569463Y-131254494D01*
X87648815Y-131351185D01*
X87745506Y-131430537D01*
X87855820Y-131489502D01*
X87975518Y-131525812D01*
X88100000Y-131538072D01*
X89900000Y-131538072D01*
X90024482Y-131525812D01*
X90144180Y-131489502D01*
X90254494Y-131430537D01*
X90351185Y-131351185D01*
X90430537Y-131254494D01*
X90489502Y-131144180D01*
X90525812Y-131024482D01*
X90538072Y-130900000D01*
X90538072Y-129100000D01*
X90525812Y-128975518D01*
X90489502Y-128855820D01*
X90430537Y-128745506D01*
X90351185Y-128648815D01*
X90254494Y-128569463D01*
X90144180Y-128510498D01*
X90024482Y-128474188D01*
X89900000Y-128461928D01*
X88100000Y-128461928D01*
X87975518Y-128474188D01*
X87855820Y-128510498D01*
X87745506Y-128569463D01*
X87648815Y-128648815D01*
X87569463Y-128745506D01*
X87516120Y-128845303D01*
X87478505Y-128807688D01*
X87227095Y-128639701D01*
X86947743Y-128523989D01*
X86651184Y-128465000D01*
X86348816Y-128465000D01*
X86052257Y-128523989D01*
X85863382Y-128602224D01*
X81996597Y-124735440D01*
X82091088Y-124726133D01*
X82467147Y-124612057D01*
X82813725Y-124426807D01*
X83117503Y-124177503D01*
X83366807Y-123873725D01*
X83552057Y-123527147D01*
X83666133Y-123151087D01*
X83695000Y-122857997D01*
X83695000Y-122142003D01*
X89305000Y-122142003D01*
X89305000Y-122857998D01*
X89333867Y-123151088D01*
X89447943Y-123527147D01*
X89633193Y-123873725D01*
X89882498Y-124177503D01*
X90186276Y-124426807D01*
X90532854Y-124612057D01*
X90908913Y-124726133D01*
X91300000Y-124764652D01*
X91691088Y-124726133D01*
X92067147Y-124612057D01*
X92413725Y-124426807D01*
X92717503Y-124177503D01*
X92966807Y-123873725D01*
X93152057Y-123527147D01*
X93266133Y-123151087D01*
X93295000Y-122857997D01*
X93295000Y-122142002D01*
X93266133Y-121848912D01*
X93152057Y-121472853D01*
X92966807Y-121126275D01*
X92717503Y-120822497D01*
X92413725Y-120573193D01*
X92067146Y-120387943D01*
X91691087Y-120273867D01*
X91300000Y-120235348D01*
X90908912Y-120273867D01*
X90532853Y-120387943D01*
X90186275Y-120573193D01*
X89882497Y-120822497D01*
X89633193Y-121126275D01*
X89447943Y-121472854D01*
X89333867Y-121848913D01*
X89305000Y-122142003D01*
X83695000Y-122142003D01*
X83695000Y-122142002D01*
X83666133Y-121848912D01*
X83552057Y-121472853D01*
X83366807Y-121126275D01*
X83117503Y-120822497D01*
X82813725Y-120573193D01*
X82467146Y-120387943D01*
X82091087Y-120273867D01*
X81700000Y-120235348D01*
X81308912Y-120273867D01*
X80932853Y-120387943D01*
X80586275Y-120573193D01*
X80282497Y-120822497D01*
X80033193Y-121126275D01*
X79847943Y-121472854D01*
X79733867Y-121848913D01*
X79705000Y-122142003D01*
X79705000Y-122443842D01*
X69935496Y-112674339D01*
X69871680Y-112520273D01*
X69714637Y-112285241D01*
X69514759Y-112085363D01*
X69279727Y-111928320D01*
X69018574Y-111820147D01*
X68741335Y-111765000D01*
X68458665Y-111765000D01*
X68181426Y-111820147D01*
X67920273Y-111928320D01*
X67685241Y-112085363D01*
X67485363Y-112285241D01*
X67328320Y-112520273D01*
X67220147Y-112781426D01*
X67165000Y-113058665D01*
X66660000Y-113058665D01*
X66660000Y-106058665D01*
X67165000Y-106058665D01*
X67165000Y-106341335D01*
X67220147Y-106618574D01*
X67328320Y-106879727D01*
X67485363Y-107114759D01*
X67685241Y-107314637D01*
X67920273Y-107471680D01*
X68181426Y-107579853D01*
X68458665Y-107635000D01*
X68741335Y-107635000D01*
X68965001Y-107590509D01*
X68965001Y-108077763D01*
X68771720Y-108271044D01*
X68741335Y-108265000D01*
X68458665Y-108265000D01*
X68181426Y-108320147D01*
X67920273Y-108428320D01*
X67685241Y-108585363D01*
X67485363Y-108785241D01*
X67328320Y-109020273D01*
X67220147Y-109281426D01*
X67165000Y-109558665D01*
X67165000Y-109841335D01*
X67220147Y-110118574D01*
X67328320Y-110379727D01*
X67485363Y-110614759D01*
X67685241Y-110814637D01*
X67920273Y-110971680D01*
X68181426Y-111079853D01*
X68458665Y-111135000D01*
X68741335Y-111135000D01*
X69018574Y-111079853D01*
X69279727Y-110971680D01*
X69514759Y-110814637D01*
X69714637Y-110614759D01*
X69871680Y-110379727D01*
X69979853Y-110118574D01*
X70035000Y-109841335D01*
X70035000Y-109558665D01*
X70028956Y-109528280D01*
X70451744Y-109105492D01*
X70485660Y-109077658D01*
X70596754Y-108942290D01*
X70679304Y-108787850D01*
X70707078Y-108696291D01*
X70730137Y-108620275D01*
X70737861Y-108541851D01*
X70743001Y-108489666D01*
X70743001Y-108489660D01*
X70747301Y-108446000D01*
X70743001Y-108402340D01*
X70743001Y-106058665D01*
X77325000Y-106058665D01*
X77325000Y-106341335D01*
X77380147Y-106618574D01*
X77488320Y-106879727D01*
X77645363Y-107114759D01*
X77845241Y-107314637D01*
X77871001Y-107331849D01*
X77871000Y-108568151D01*
X77845241Y-108585363D01*
X77645363Y-108785241D01*
X77488320Y-109020273D01*
X77380147Y-109281426D01*
X77325000Y-109558665D01*
X77325000Y-109841335D01*
X77380147Y-110118574D01*
X77488320Y-110379727D01*
X77645363Y-110614759D01*
X77845241Y-110814637D01*
X77871001Y-110831849D01*
X77871000Y-112068151D01*
X77845241Y-112085363D01*
X77645363Y-112285241D01*
X77488320Y-112520273D01*
X77380147Y-112781426D01*
X77325000Y-113058665D01*
X77325000Y-113341335D01*
X77380147Y-113618574D01*
X77488320Y-113879727D01*
X77645363Y-114114759D01*
X77845241Y-114314637D01*
X78080273Y-114471680D01*
X78341426Y-114579853D01*
X78618665Y-114635000D01*
X78901335Y-114635000D01*
X79178574Y-114579853D01*
X79439727Y-114471680D01*
X79674759Y-114314637D01*
X79874637Y-114114759D01*
X80031680Y-113879727D01*
X80139853Y-113618574D01*
X80195000Y-113341335D01*
X80195000Y-113058665D01*
X80139853Y-112781426D01*
X80031680Y-112520273D01*
X79874637Y-112285241D01*
X79674759Y-112085363D01*
X79649000Y-112068151D01*
X79649000Y-110831849D01*
X79674759Y-110814637D01*
X79874637Y-110614759D01*
X80031680Y-110379727D01*
X80130000Y-110142361D01*
X80228320Y-110379727D01*
X80385363Y-110614759D01*
X80585241Y-110814637D01*
X80820273Y-110971680D01*
X81081426Y-111079853D01*
X81358665Y-111135000D01*
X81641335Y-111135000D01*
X81918574Y-111079853D01*
X82179727Y-110971680D01*
X82414759Y-110814637D01*
X82614637Y-110614759D01*
X82771680Y-110379727D01*
X82879853Y-110118574D01*
X82935000Y-109841335D01*
X82935000Y-109558665D01*
X82928956Y-109528279D01*
X83597736Y-108859499D01*
X83631659Y-108831659D01*
X83742753Y-108696291D01*
X83825303Y-108541851D01*
X83859742Y-108428320D01*
X83876136Y-108374276D01*
X83886236Y-108271725D01*
X83889000Y-108243667D01*
X83889000Y-108243661D01*
X83893300Y-108200001D01*
X83889000Y-108156341D01*
X83889000Y-107089000D01*
X90528151Y-107089000D01*
X90545363Y-107114759D01*
X90745241Y-107314637D01*
X90980273Y-107471680D01*
X91241426Y-107579853D01*
X91518665Y-107635000D01*
X91801335Y-107635000D01*
X92078574Y-107579853D01*
X92339727Y-107471680D01*
X92574759Y-107314637D01*
X92774637Y-107114759D01*
X92931680Y-106879727D01*
X93039853Y-106618574D01*
X93080000Y-106416744D01*
X93120147Y-106618574D01*
X93226773Y-106875992D01*
X91831721Y-108271044D01*
X91801335Y-108265000D01*
X91518665Y-108265000D01*
X91241426Y-108320147D01*
X90980273Y-108428320D01*
X90745241Y-108585363D01*
X90545363Y-108785241D01*
X90388320Y-109020273D01*
X90280147Y-109281426D01*
X90225000Y-109558665D01*
X90225000Y-109841335D01*
X90280147Y-110118574D01*
X90388320Y-110379727D01*
X90545363Y-110614759D01*
X90745241Y-110814637D01*
X90980273Y-110971680D01*
X91241426Y-111079853D01*
X91518665Y-111135000D01*
X91801335Y-111135000D01*
X92078574Y-111079853D01*
X92339727Y-110971680D01*
X92574759Y-110814637D01*
X92774637Y-110614759D01*
X92931680Y-110379727D01*
X93039853Y-110118574D01*
X93095000Y-109841335D01*
X93095000Y-109558665D01*
X93088956Y-109528279D01*
X95097742Y-107519494D01*
X95131659Y-107491659D01*
X95131744Y-107491555D01*
X95179727Y-107471680D01*
X95414759Y-107314637D01*
X95614637Y-107114759D01*
X95771680Y-106879727D01*
X95879853Y-106618574D01*
X95935000Y-106341335D01*
X95935000Y-106058665D01*
X95879853Y-105781426D01*
X95771680Y-105520273D01*
X95614637Y-105285241D01*
X95414759Y-105085363D01*
X95179727Y-104928320D01*
X94918574Y-104820147D01*
X94641335Y-104765000D01*
X94358665Y-104765000D01*
X94081426Y-104820147D01*
X93820273Y-104928320D01*
X93585241Y-105085363D01*
X93385363Y-105285241D01*
X93228320Y-105520273D01*
X93120147Y-105781426D01*
X93080000Y-105983256D01*
X93039853Y-105781426D01*
X92931680Y-105520273D01*
X92774637Y-105285241D01*
X92574759Y-105085363D01*
X92339727Y-104928320D01*
X92078574Y-104820147D01*
X91801335Y-104765000D01*
X91518665Y-104765000D01*
X91241426Y-104820147D01*
X90980273Y-104928320D01*
X90745241Y-105085363D01*
X90545363Y-105285241D01*
X90528151Y-105311000D01*
X83889000Y-105311000D01*
X83889000Y-102591234D01*
X83951808Y-102572182D01*
X84201101Y-102438932D01*
X84419608Y-102259608D01*
X84598932Y-102041101D01*
X84732182Y-101791808D01*
X84814236Y-101521309D01*
X84841943Y-101240000D01*
X84814236Y-100958691D01*
X84732182Y-100688192D01*
X84598932Y-100438899D01*
X84419608Y-100220392D01*
X84201101Y-100041068D01*
X84068142Y-99970000D01*
X84201101Y-99898932D01*
X84419608Y-99719608D01*
X84598932Y-99501101D01*
X84732182Y-99251808D01*
X84814236Y-98981309D01*
X84841943Y-98700000D01*
X84814236Y-98418691D01*
X84732182Y-98148192D01*
X84598932Y-97898899D01*
X84419608Y-97680392D01*
X84201101Y-97501068D01*
X84073259Y-97432735D01*
X84302839Y-97282601D01*
X84504500Y-97084895D01*
X84663715Y-96851646D01*
X84774367Y-96591818D01*
X84791904Y-96509039D01*
X84669915Y-96287000D01*
X83127000Y-96287000D01*
X83127000Y-96307000D01*
X82873000Y-96307000D01*
X82873000Y-96287000D01*
X81330085Y-96287000D01*
X81208096Y-96509039D01*
X81225633Y-96591818D01*
X81336285Y-96851646D01*
X81495500Y-97084895D01*
X81697161Y-97282601D01*
X81926741Y-97432735D01*
X81798899Y-97501068D01*
X81580392Y-97680392D01*
X81401068Y-97898899D01*
X81267818Y-98148192D01*
X81185764Y-98418691D01*
X81158057Y-98700000D01*
X81185764Y-98981309D01*
X81249929Y-99192836D01*
X80748254Y-99694511D01*
X80714331Y-99722351D01*
X80686495Y-99756270D01*
X80603238Y-99857719D01*
X80520688Y-100012158D01*
X80483425Y-100135000D01*
X80469854Y-100179737D01*
X80456990Y-100310344D01*
X80456990Y-100310350D01*
X80452690Y-100354010D01*
X80456990Y-100397670D01*
X80456991Y-105213613D01*
X80385363Y-105285241D01*
X80368151Y-105311000D01*
X79891849Y-105311000D01*
X79874637Y-105285241D01*
X79674759Y-105085363D01*
X79439727Y-104928320D01*
X79178574Y-104820147D01*
X78901335Y-104765000D01*
X78618665Y-104765000D01*
X78341426Y-104820147D01*
X78080273Y-104928320D01*
X77845241Y-105085363D01*
X77645363Y-105285241D01*
X77488320Y-105520273D01*
X77380147Y-105781426D01*
X77325000Y-106058665D01*
X70743001Y-106058665D01*
X70743001Y-102975568D01*
X70873000Y-102890376D01*
X70873000Y-101667000D01*
X71127000Y-101667000D01*
X71127000Y-102890376D01*
X71364286Y-103045877D01*
X71655392Y-102989769D01*
X71929958Y-102877947D01*
X72177433Y-102714708D01*
X72388306Y-102506326D01*
X72554474Y-102260809D01*
X72669551Y-101987591D01*
X72686302Y-101900031D01*
X72565246Y-101667000D01*
X71127000Y-101667000D01*
X70873000Y-101667000D01*
X70853000Y-101667000D01*
X70853000Y-101413000D01*
X70873000Y-101413000D01*
X70873000Y-101393000D01*
X71127000Y-101393000D01*
X71127000Y-101413000D01*
X72565246Y-101413000D01*
X72686302Y-101179969D01*
X72669551Y-101092409D01*
X72554474Y-100819191D01*
X72388306Y-100573674D01*
X72229410Y-100416655D01*
X72338387Y-100358405D01*
X72472962Y-100247962D01*
X72583405Y-100113387D01*
X72665472Y-99959851D01*
X72716008Y-99793255D01*
X72733072Y-99620001D01*
X72733072Y-98379999D01*
X72716008Y-98206745D01*
X72665472Y-98040149D01*
X72583405Y-97886613D01*
X72472962Y-97752038D01*
X72338387Y-97641595D01*
X72184851Y-97559528D01*
X72018255Y-97508992D01*
X71845001Y-97491928D01*
X70482739Y-97491928D01*
X73146753Y-94827915D01*
X73180669Y-94800081D01*
X73291763Y-94664713D01*
X73330253Y-94592702D01*
X75986903Y-94592702D01*
X76058486Y-94836671D01*
X76313996Y-94957571D01*
X76588184Y-95026300D01*
X76870512Y-95040217D01*
X77150130Y-94998787D01*
X77416292Y-94903603D01*
X77541514Y-94836671D01*
X77613097Y-94592702D01*
X76800000Y-93779605D01*
X75986903Y-94592702D01*
X73330253Y-94592702D01*
X73374313Y-94510273D01*
X73419062Y-94362752D01*
X73425146Y-94342697D01*
X73431371Y-94279494D01*
X73438010Y-94212089D01*
X73438010Y-94212082D01*
X73442310Y-94168422D01*
X73438010Y-94124762D01*
X73438010Y-93670512D01*
X75359783Y-93670512D01*
X75401213Y-93950130D01*
X75496397Y-94216292D01*
X75563329Y-94341514D01*
X75807298Y-94413097D01*
X76620395Y-93600000D01*
X76979605Y-93600000D01*
X77792702Y-94413097D01*
X78036671Y-94341514D01*
X78050324Y-94312659D01*
X78185363Y-94514759D01*
X78385241Y-94714637D01*
X78620273Y-94871680D01*
X78881426Y-94979853D01*
X79158665Y-95035000D01*
X79441335Y-95035000D01*
X79718574Y-94979853D01*
X79979727Y-94871680D01*
X80214759Y-94714637D01*
X80414637Y-94514759D01*
X80431849Y-94489000D01*
X81456791Y-94489000D01*
X81580392Y-94639608D01*
X81798899Y-94818932D01*
X81926741Y-94887265D01*
X81697161Y-95037399D01*
X81495500Y-95235105D01*
X81336285Y-95468354D01*
X81225633Y-95728182D01*
X81208096Y-95810961D01*
X81330085Y-96033000D01*
X82873000Y-96033000D01*
X82873000Y-96013000D01*
X83127000Y-96013000D01*
X83127000Y-96033000D01*
X84669915Y-96033000D01*
X84791904Y-95810961D01*
X84788520Y-95794990D01*
X88831480Y-95794990D01*
X88828096Y-95810961D01*
X88950085Y-96033000D01*
X90493000Y-96033000D01*
X90493000Y-96013000D01*
X90747000Y-96013000D01*
X90747000Y-96033000D01*
X92289915Y-96033000D01*
X92411904Y-95810961D01*
X92408520Y-95794990D01*
X101423954Y-95794990D01*
X101377834Y-95881275D01*
X101291776Y-96164968D01*
X101262718Y-96460000D01*
X101291776Y-96755032D01*
X101377834Y-97038725D01*
X101517583Y-97300179D01*
X101705655Y-97529345D01*
X101771114Y-97583066D01*
X101661613Y-97641595D01*
X101527038Y-97752038D01*
X101416595Y-97886613D01*
X101334528Y-98040149D01*
X101283992Y-98206745D01*
X101266928Y-98379999D01*
X101266928Y-99620001D01*
X101283992Y-99793255D01*
X101334528Y-99959851D01*
X101416595Y-100113387D01*
X101527038Y-100247962D01*
X101652590Y-100351000D01*
X92146795Y-100351000D01*
X92039608Y-100220392D01*
X91821101Y-100041068D01*
X91688142Y-99970000D01*
X91821101Y-99898932D01*
X92039608Y-99719608D01*
X92218932Y-99501101D01*
X92352182Y-99251808D01*
X92434236Y-98981309D01*
X92461943Y-98700000D01*
X92434236Y-98418691D01*
X92352182Y-98148192D01*
X92218932Y-97898899D01*
X92039608Y-97680392D01*
X91821101Y-97501068D01*
X91693259Y-97432735D01*
X91922839Y-97282601D01*
X92124500Y-97084895D01*
X92283715Y-96851646D01*
X92394367Y-96591818D01*
X92411904Y-96509039D01*
X92289915Y-96287000D01*
X90747000Y-96287000D01*
X90747000Y-96307000D01*
X90493000Y-96307000D01*
X90493000Y-96287000D01*
X88950085Y-96287000D01*
X88828096Y-96509039D01*
X88845633Y-96591818D01*
X88956285Y-96851646D01*
X89115500Y-97084895D01*
X89317161Y-97282601D01*
X89546741Y-97432735D01*
X89418899Y-97501068D01*
X89200392Y-97680392D01*
X89021068Y-97898899D01*
X88887818Y-98148192D01*
X88805764Y-98418691D01*
X88778057Y-98700000D01*
X88805764Y-98981309D01*
X88887818Y-99251808D01*
X89021068Y-99501101D01*
X89200392Y-99719608D01*
X89418899Y-99898932D01*
X89551858Y-99970000D01*
X89418899Y-100041068D01*
X89200392Y-100220392D01*
X89021068Y-100438899D01*
X88887818Y-100688192D01*
X88805764Y-100958691D01*
X88778057Y-101240000D01*
X88805764Y-101521309D01*
X88887818Y-101791808D01*
X89021068Y-102041101D01*
X89200392Y-102259608D01*
X89418899Y-102438932D01*
X89668192Y-102572182D01*
X89938691Y-102654236D01*
X90149508Y-102675000D01*
X91090492Y-102675000D01*
X91301309Y-102654236D01*
X91571808Y-102572182D01*
X91821101Y-102438932D01*
X92039608Y-102259608D01*
X92146795Y-102129000D01*
X102111000Y-102129000D01*
X102111001Y-104496330D01*
X102106700Y-104540000D01*
X102123864Y-104714274D01*
X102174698Y-104881852D01*
X102199536Y-104928320D01*
X102257248Y-105036291D01*
X102368342Y-105171659D01*
X102402259Y-105199494D01*
X103231044Y-106028280D01*
X103225000Y-106058665D01*
X103225000Y-106341335D01*
X103280147Y-106618574D01*
X103388320Y-106879727D01*
X103545363Y-107114759D01*
X103745241Y-107314637D01*
X103980273Y-107471680D01*
X104241426Y-107579853D01*
X104518665Y-107635000D01*
X104801335Y-107635000D01*
X105078574Y-107579853D01*
X105339727Y-107471680D01*
X105574759Y-107314637D01*
X105774637Y-107114759D01*
X105931680Y-106879727D01*
X106039853Y-106618574D01*
X106095000Y-106341335D01*
X106095000Y-106058665D01*
X106039853Y-105781426D01*
X105931680Y-105520273D01*
X105774637Y-105285241D01*
X105574759Y-105085363D01*
X105339727Y-104928320D01*
X105078574Y-104820147D01*
X104801335Y-104765000D01*
X104518665Y-104765000D01*
X104488280Y-104771044D01*
X103889000Y-104171765D01*
X103889000Y-101343660D01*
X103893300Y-101300000D01*
X103889000Y-101256340D01*
X103889000Y-100503738D01*
X104018255Y-100491008D01*
X104184851Y-100440472D01*
X104338387Y-100358405D01*
X104472962Y-100247962D01*
X104583405Y-100113387D01*
X104665472Y-99959851D01*
X104716008Y-99793255D01*
X104733072Y-99620001D01*
X104733072Y-98379999D01*
X104716008Y-98206745D01*
X104665472Y-98040149D01*
X104583405Y-97886613D01*
X104472962Y-97752038D01*
X104338387Y-97641595D01*
X104228886Y-97583066D01*
X104294345Y-97529345D01*
X104482417Y-97300179D01*
X104622166Y-97038725D01*
X104708224Y-96755032D01*
X104737282Y-96460000D01*
X104708224Y-96164968D01*
X104622166Y-95881275D01*
X104482417Y-95619821D01*
X104294345Y-95390655D01*
X104065179Y-95202583D01*
X104041638Y-95190000D01*
X104065179Y-95177417D01*
X104294345Y-94989345D01*
X104482417Y-94760179D01*
X104622166Y-94498725D01*
X104708224Y-94215032D01*
X104737282Y-93920000D01*
X104708224Y-93624968D01*
X104622166Y-93341275D01*
X104482417Y-93079821D01*
X104294345Y-92850655D01*
X104065179Y-92662583D01*
X104041638Y-92650000D01*
X104065179Y-92637417D01*
X104294345Y-92449345D01*
X104482417Y-92220179D01*
X104622166Y-91958725D01*
X104708224Y-91675032D01*
X104737282Y-91380000D01*
X104708224Y-91084968D01*
X104622166Y-90801275D01*
X104482417Y-90539821D01*
X104294345Y-90310655D01*
X104065179Y-90122583D01*
X104036848Y-90107440D01*
X104177433Y-90014708D01*
X104388306Y-89806326D01*
X104554474Y-89560809D01*
X104669551Y-89287591D01*
X104686302Y-89200031D01*
X104565246Y-88967000D01*
X103127000Y-88967000D01*
X103127000Y-88987000D01*
X102873000Y-88987000D01*
X102873000Y-88967000D01*
X101434754Y-88967000D01*
X101313698Y-89200031D01*
X101330449Y-89287591D01*
X101445526Y-89560809D01*
X101611694Y-89806326D01*
X101822567Y-90014708D01*
X101963152Y-90107440D01*
X101934821Y-90122583D01*
X101705655Y-90310655D01*
X101557649Y-90491000D01*
X96563659Y-90491000D01*
X96519999Y-90486700D01*
X96476339Y-90491000D01*
X96476333Y-90491000D01*
X96378924Y-90500594D01*
X96345724Y-90503864D01*
X96244058Y-90534704D01*
X96178149Y-90554697D01*
X96023709Y-90637247D01*
X95888341Y-90748341D01*
X95860506Y-90782258D01*
X94471721Y-92171044D01*
X94441335Y-92165000D01*
X94158665Y-92165000D01*
X93881426Y-92220147D01*
X93620273Y-92328320D01*
X93385241Y-92485363D01*
X93185363Y-92685241D01*
X93154788Y-92731000D01*
X92146795Y-92731000D01*
X92039608Y-92600392D01*
X91821101Y-92421068D01*
X91693259Y-92352735D01*
X91922839Y-92202601D01*
X92124500Y-92004895D01*
X92283715Y-91771646D01*
X92394367Y-91511818D01*
X92411904Y-91429039D01*
X92289915Y-91207000D01*
X90747000Y-91207000D01*
X90747000Y-91227000D01*
X90493000Y-91227000D01*
X90493000Y-91207000D01*
X88950085Y-91207000D01*
X88828096Y-91429039D01*
X88845633Y-91511818D01*
X88956285Y-91771646D01*
X89115500Y-92004895D01*
X89317161Y-92202601D01*
X89546741Y-92352735D01*
X89418899Y-92421068D01*
X89200392Y-92600392D01*
X89021068Y-92818899D01*
X88887818Y-93068192D01*
X88805764Y-93338691D01*
X88778057Y-93620000D01*
X88805764Y-93901309D01*
X88840855Y-94016990D01*
X84779145Y-94016990D01*
X84814236Y-93901309D01*
X84841943Y-93620000D01*
X84814236Y-93338691D01*
X84732182Y-93068192D01*
X84598932Y-92818899D01*
X84419608Y-92600392D01*
X84201101Y-92421068D01*
X84073259Y-92352735D01*
X84302839Y-92202601D01*
X84504500Y-92004895D01*
X84663715Y-91771646D01*
X84774367Y-91511818D01*
X84791904Y-91429039D01*
X84669915Y-91207000D01*
X83127000Y-91207000D01*
X83127000Y-91227000D01*
X82873000Y-91227000D01*
X82873000Y-91207000D01*
X81330085Y-91207000D01*
X81208096Y-91429039D01*
X81225633Y-91511818D01*
X81336285Y-91771646D01*
X81495500Y-92004895D01*
X81697161Y-92202601D01*
X81926741Y-92352735D01*
X81798899Y-92421068D01*
X81580392Y-92600392D01*
X81489618Y-92711000D01*
X80431849Y-92711000D01*
X80414637Y-92685241D01*
X80214759Y-92485363D01*
X79979727Y-92328320D01*
X79718574Y-92220147D01*
X79441335Y-92165000D01*
X79158665Y-92165000D01*
X78881426Y-92220147D01*
X78620273Y-92328320D01*
X78385241Y-92485363D01*
X78185363Y-92685241D01*
X78051308Y-92885869D01*
X78036671Y-92858486D01*
X77792702Y-92786903D01*
X76979605Y-93600000D01*
X76620395Y-93600000D01*
X75807298Y-92786903D01*
X75563329Y-92858486D01*
X75442429Y-93113996D01*
X75373700Y-93388184D01*
X75359783Y-93670512D01*
X73438010Y-93670512D01*
X73438010Y-92672670D01*
X73442310Y-92629010D01*
X73440172Y-92607298D01*
X75986903Y-92607298D01*
X76800000Y-93420395D01*
X77613097Y-92607298D01*
X77541514Y-92363329D01*
X77286004Y-92242429D01*
X77011816Y-92173700D01*
X76729488Y-92159783D01*
X76449870Y-92201213D01*
X76183708Y-92296397D01*
X76058486Y-92363329D01*
X75986903Y-92607298D01*
X73440172Y-92607298D01*
X73438010Y-92585350D01*
X73438010Y-92585343D01*
X73426781Y-92471335D01*
X73425146Y-92454735D01*
X73374312Y-92287157D01*
X73350404Y-92242429D01*
X73291763Y-92132719D01*
X73180669Y-91997351D01*
X73146752Y-91969516D01*
X72671926Y-91494690D01*
X72708224Y-91375032D01*
X72737282Y-91080000D01*
X72708224Y-90784968D01*
X72622166Y-90501275D01*
X72482417Y-90239821D01*
X72294345Y-90010655D01*
X72065179Y-89822583D01*
X72041638Y-89810000D01*
X72065179Y-89797417D01*
X72294345Y-89609345D01*
X72482417Y-89380179D01*
X72622166Y-89118725D01*
X72708224Y-88835032D01*
X72737282Y-88540000D01*
X72708224Y-88244968D01*
X72671926Y-88125310D01*
X73146753Y-87650483D01*
X73180669Y-87622649D01*
X73291763Y-87487281D01*
X73374313Y-87332841D01*
X73425146Y-87165264D01*
X73438010Y-87034657D01*
X73438010Y-87034650D01*
X73442310Y-86990990D01*
X73438010Y-86947330D01*
X73438010Y-81892669D01*
X73442310Y-81849009D01*
X73438010Y-81805349D01*
X73438010Y-81805343D01*
X73425146Y-81674736D01*
X73425146Y-81674734D01*
X73374312Y-81507157D01*
X73348392Y-81458665D01*
X73291763Y-81352719D01*
X73180669Y-81217351D01*
X73146752Y-81189516D01*
X70128956Y-78171721D01*
X70135000Y-78141335D01*
X70135000Y-77858665D01*
X70079853Y-77581426D01*
X69971680Y-77320273D01*
X69814637Y-77085241D01*
X69614759Y-76885363D01*
X69379727Y-76728320D01*
X69118574Y-76620147D01*
X68841335Y-76565000D01*
X68558665Y-76565000D01*
X68281426Y-76620147D01*
X68020273Y-76728320D01*
X67785241Y-76885363D01*
X67585363Y-77085241D01*
X67428320Y-77320273D01*
X67320147Y-77581426D01*
X67265000Y-77858665D01*
X67265000Y-78141335D01*
X67320147Y-78418574D01*
X67428320Y-78679727D01*
X67585363Y-78914759D01*
X67785241Y-79114637D01*
X68020273Y-79271680D01*
X68281426Y-79379853D01*
X68558665Y-79435000D01*
X68841335Y-79435000D01*
X68871721Y-79428956D01*
X71660011Y-82217247D01*
X71660010Y-84491928D01*
X70154999Y-84491928D01*
X69981745Y-84508992D01*
X69815149Y-84559528D01*
X69661613Y-84641595D01*
X69589000Y-84701187D01*
X69589000Y-82731849D01*
X69614759Y-82714637D01*
X69814637Y-82514759D01*
X69971680Y-82279727D01*
X70079853Y-82018574D01*
X70135000Y-81741335D01*
X70135000Y-81458665D01*
X70079853Y-81181426D01*
X69971680Y-80920273D01*
X69814637Y-80685241D01*
X69614759Y-80485363D01*
X69379727Y-80328320D01*
X69118574Y-80220147D01*
X68841335Y-80165000D01*
X68558665Y-80165000D01*
X68281426Y-80220147D01*
X68020273Y-80328320D01*
X67785241Y-80485363D01*
X67585363Y-80685241D01*
X67428320Y-80920273D01*
X67320147Y-81181426D01*
X67265000Y-81458665D01*
X67265000Y-81741335D01*
X67320147Y-82018574D01*
X67428320Y-82279727D01*
X67585363Y-82514759D01*
X67785241Y-82714637D01*
X67811000Y-82731849D01*
X67811001Y-91276330D01*
X67806700Y-91320000D01*
X67823864Y-91494274D01*
X67874698Y-91661852D01*
X67914176Y-91735709D01*
X67957248Y-91816291D01*
X68068342Y-91951659D01*
X68102259Y-91979494D01*
X69328074Y-93205310D01*
X69291776Y-93324968D01*
X69262718Y-93620000D01*
X69291776Y-93915032D01*
X69328074Y-94034690D01*
X68002259Y-95360506D01*
X67968342Y-95388341D01*
X67940507Y-95422258D01*
X67940505Y-95422260D01*
X67857248Y-95523709D01*
X67774698Y-95678148D01*
X67723864Y-95845726D01*
X67706700Y-96020000D01*
X67711001Y-96063670D01*
X67711000Y-105068151D01*
X67685241Y-105085363D01*
X67485363Y-105285241D01*
X67328320Y-105520273D01*
X67220147Y-105781426D01*
X67165000Y-106058665D01*
X66660000Y-106058665D01*
X66660000Y-74258665D01*
X67265000Y-74258665D01*
X67265000Y-74541335D01*
X67320147Y-74818574D01*
X67428320Y-75079727D01*
X67585363Y-75314759D01*
X67785241Y-75514637D01*
X68020273Y-75671680D01*
X68281426Y-75779853D01*
X68558665Y-75835000D01*
X68841335Y-75835000D01*
X69118574Y-75779853D01*
X69379727Y-75671680D01*
X69614759Y-75514637D01*
X69814637Y-75314759D01*
X69971680Y-75079727D01*
X70079853Y-74818574D01*
X70135000Y-74541335D01*
X70135000Y-74258665D01*
X70128956Y-74228280D01*
X70322237Y-74034999D01*
X77469491Y-74034999D01*
X77425000Y-74258665D01*
X77425000Y-74541335D01*
X77480147Y-74818574D01*
X77588320Y-75079727D01*
X77745363Y-75314759D01*
X77945241Y-75514637D01*
X77971000Y-75531849D01*
X77971001Y-76868151D01*
X77945241Y-76885363D01*
X77745363Y-77085241D01*
X77588320Y-77320273D01*
X77480147Y-77581426D01*
X77425000Y-77858665D01*
X77425000Y-78141335D01*
X77480147Y-78418574D01*
X77588320Y-78679727D01*
X77745363Y-78914759D01*
X77945241Y-79114637D01*
X77971000Y-79131849D01*
X77971001Y-80468151D01*
X77945241Y-80485363D01*
X77745363Y-80685241D01*
X77588320Y-80920273D01*
X77480147Y-81181426D01*
X77425000Y-81458665D01*
X77425000Y-81741335D01*
X77480147Y-82018574D01*
X77588320Y-82279727D01*
X77745363Y-82514759D01*
X77945241Y-82714637D01*
X77971001Y-82731849D01*
X77971000Y-86064340D01*
X77966700Y-86108000D01*
X77971000Y-86151660D01*
X77971000Y-86151666D01*
X77983864Y-86282273D01*
X78034697Y-86449850D01*
X78117247Y-86604290D01*
X78228341Y-86739659D01*
X78262264Y-86767499D01*
X80632501Y-89137736D01*
X80660341Y-89171659D01*
X80795709Y-89282753D01*
X80950149Y-89365303D01*
X81016058Y-89385296D01*
X81117724Y-89416136D01*
X81150924Y-89419406D01*
X81248333Y-89429000D01*
X81248339Y-89429000D01*
X81291999Y-89433300D01*
X81335659Y-89429000D01*
X81473205Y-89429000D01*
X81580392Y-89559608D01*
X81798899Y-89738932D01*
X81926741Y-89807265D01*
X81697161Y-89957399D01*
X81495500Y-90155105D01*
X81336285Y-90388354D01*
X81225633Y-90648182D01*
X81208096Y-90730961D01*
X81330085Y-90953000D01*
X82873000Y-90953000D01*
X82873000Y-90933000D01*
X83127000Y-90933000D01*
X83127000Y-90953000D01*
X84669915Y-90953000D01*
X84791904Y-90730961D01*
X84774367Y-90648182D01*
X84663715Y-90388354D01*
X84504500Y-90155105D01*
X84302839Y-89957399D01*
X84073259Y-89807265D01*
X84201101Y-89738932D01*
X84419608Y-89559608D01*
X84598932Y-89341101D01*
X84732182Y-89091808D01*
X84814236Y-88821309D01*
X84841943Y-88540000D01*
X84814236Y-88258691D01*
X84732182Y-87988192D01*
X84598932Y-87738899D01*
X84419608Y-87520392D01*
X84306518Y-87427581D01*
X84324482Y-87425812D01*
X84444180Y-87389502D01*
X84554494Y-87330537D01*
X84651185Y-87251185D01*
X84730537Y-87154494D01*
X84789502Y-87044180D01*
X84825812Y-86924482D01*
X84838072Y-86800000D01*
X84838072Y-86179163D01*
X85017235Y-86000000D01*
X88778057Y-86000000D01*
X88805764Y-86281309D01*
X88887818Y-86551808D01*
X89021068Y-86801101D01*
X89200392Y-87019608D01*
X89418899Y-87198932D01*
X89551858Y-87270000D01*
X89418899Y-87341068D01*
X89200392Y-87520392D01*
X89021068Y-87738899D01*
X88887818Y-87988192D01*
X88805764Y-88258691D01*
X88778057Y-88540000D01*
X88805764Y-88821309D01*
X88887818Y-89091808D01*
X89021068Y-89341101D01*
X89200392Y-89559608D01*
X89418899Y-89738932D01*
X89546741Y-89807265D01*
X89317161Y-89957399D01*
X89115500Y-90155105D01*
X88956285Y-90388354D01*
X88845633Y-90648182D01*
X88828096Y-90730961D01*
X88950085Y-90953000D01*
X90493000Y-90953000D01*
X90493000Y-90933000D01*
X90747000Y-90933000D01*
X90747000Y-90953000D01*
X92289915Y-90953000D01*
X92411904Y-90730961D01*
X92394367Y-90648182D01*
X92283715Y-90388354D01*
X92124500Y-90155105D01*
X91922839Y-89957399D01*
X91693259Y-89807265D01*
X91821101Y-89738932D01*
X92039608Y-89559608D01*
X92146795Y-89429000D01*
X94076340Y-89429000D01*
X94120000Y-89433300D01*
X94163660Y-89429000D01*
X94163667Y-89429000D01*
X94294274Y-89416136D01*
X94461851Y-89365303D01*
X94616291Y-89282753D01*
X94751659Y-89171659D01*
X94779499Y-89137736D01*
X95437266Y-88479969D01*
X101313698Y-88479969D01*
X101434754Y-88713000D01*
X102873000Y-88713000D01*
X102873000Y-87489624D01*
X103127000Y-87489624D01*
X103127000Y-88713000D01*
X104565246Y-88713000D01*
X104686302Y-88479969D01*
X104669551Y-88392409D01*
X104554474Y-88119191D01*
X104388306Y-87873674D01*
X104177433Y-87665292D01*
X103929958Y-87502053D01*
X103655392Y-87390231D01*
X103364286Y-87334123D01*
X103127000Y-87489624D01*
X102873000Y-87489624D01*
X102635714Y-87334123D01*
X102344608Y-87390231D01*
X102070042Y-87502053D01*
X101822567Y-87665292D01*
X101611694Y-87873674D01*
X101445526Y-88119191D01*
X101330449Y-88392409D01*
X101313698Y-88479969D01*
X95437266Y-88479969D01*
X104488280Y-79428956D01*
X104518665Y-79435000D01*
X104801335Y-79435000D01*
X105078574Y-79379853D01*
X105339727Y-79271680D01*
X105574759Y-79114637D01*
X105774637Y-78914759D01*
X105931680Y-78679727D01*
X106039853Y-78418574D01*
X106095000Y-78141335D01*
X106095000Y-77858665D01*
X106039853Y-77581426D01*
X105931680Y-77320273D01*
X105774637Y-77085241D01*
X105574759Y-76885363D01*
X105339727Y-76728320D01*
X105078574Y-76620147D01*
X104801335Y-76565000D01*
X104518665Y-76565000D01*
X104241426Y-76620147D01*
X103980273Y-76728320D01*
X103745241Y-76885363D01*
X103545363Y-77085241D01*
X103388320Y-77320273D01*
X103280147Y-77581426D01*
X103225000Y-77858665D01*
X103225000Y-78141335D01*
X103231044Y-78171720D01*
X93751765Y-87651000D01*
X92146795Y-87651000D01*
X92039608Y-87520392D01*
X91821101Y-87341068D01*
X91688142Y-87270000D01*
X91821101Y-87198932D01*
X92039608Y-87019608D01*
X92218932Y-86801101D01*
X92352182Y-86551808D01*
X92434236Y-86281309D01*
X92461943Y-86000000D01*
X92434236Y-85718691D01*
X92352182Y-85448192D01*
X92218932Y-85198899D01*
X92039608Y-84980392D01*
X91821101Y-84801068D01*
X91571808Y-84667818D01*
X91509000Y-84648766D01*
X91509000Y-83108235D01*
X91588279Y-83028956D01*
X91618665Y-83035000D01*
X91901335Y-83035000D01*
X92178574Y-82979853D01*
X92439727Y-82871680D01*
X92674759Y-82714637D01*
X92874637Y-82514759D01*
X93031680Y-82279727D01*
X93139853Y-82018574D01*
X93195000Y-81741335D01*
X93195000Y-81458665D01*
X93139853Y-81181426D01*
X93031680Y-80920273D01*
X92874637Y-80685241D01*
X92674759Y-80485363D01*
X92439727Y-80328320D01*
X92178574Y-80220147D01*
X91901335Y-80165000D01*
X91618665Y-80165000D01*
X91341426Y-80220147D01*
X91080273Y-80328320D01*
X90845241Y-80485363D01*
X90645363Y-80685241D01*
X90488320Y-80920273D01*
X90380147Y-81181426D01*
X90325000Y-81458665D01*
X90325000Y-81741335D01*
X90331044Y-81771721D01*
X90022259Y-82080506D01*
X89988342Y-82108341D01*
X89960507Y-82142258D01*
X89960505Y-82142260D01*
X89877248Y-82243709D01*
X89794698Y-82398148D01*
X89743864Y-82565726D01*
X89726700Y-82740000D01*
X89731001Y-82783670D01*
X89731000Y-84648766D01*
X89668192Y-84667818D01*
X89418899Y-84801068D01*
X89200392Y-84980392D01*
X89021068Y-85198899D01*
X88887818Y-85448192D01*
X88805764Y-85718691D01*
X88778057Y-86000000D01*
X85017235Y-86000000D01*
X91588280Y-79428956D01*
X91618665Y-79435000D01*
X91901335Y-79435000D01*
X92178574Y-79379853D01*
X92439727Y-79271680D01*
X92674759Y-79114637D01*
X92874637Y-78914759D01*
X92891849Y-78889000D01*
X93368151Y-78889000D01*
X93385363Y-78914759D01*
X93585241Y-79114637D01*
X93820273Y-79271680D01*
X94081426Y-79379853D01*
X94358665Y-79435000D01*
X94641335Y-79435000D01*
X94918574Y-79379853D01*
X95179727Y-79271680D01*
X95414759Y-79114637D01*
X95614637Y-78914759D01*
X95771680Y-78679727D01*
X95879853Y-78418574D01*
X95935000Y-78141335D01*
X95935000Y-77858665D01*
X95879853Y-77581426D01*
X95771680Y-77320273D01*
X95614637Y-77085241D01*
X95414759Y-76885363D01*
X95179727Y-76728320D01*
X94918574Y-76620147D01*
X94641335Y-76565000D01*
X94358665Y-76565000D01*
X94081426Y-76620147D01*
X93820273Y-76728320D01*
X93585241Y-76885363D01*
X93385363Y-77085241D01*
X93368151Y-77111000D01*
X92891849Y-77111000D01*
X92874637Y-77085241D01*
X92674759Y-76885363D01*
X92439727Y-76728320D01*
X92178574Y-76620147D01*
X91901335Y-76565000D01*
X91618665Y-76565000D01*
X91341426Y-76620147D01*
X91080273Y-76728320D01*
X90845241Y-76885363D01*
X90645363Y-77085241D01*
X90488320Y-77320273D01*
X90380147Y-77581426D01*
X90325000Y-77858665D01*
X90325000Y-78141335D01*
X90331044Y-78171720D01*
X83940837Y-84561928D01*
X81800000Y-84561928D01*
X81675518Y-84574188D01*
X81555820Y-84610498D01*
X81445506Y-84669463D01*
X81348815Y-84748815D01*
X81269463Y-84845506D01*
X81210498Y-84955820D01*
X81174188Y-85075518D01*
X81161928Y-85200000D01*
X81161928Y-86800000D01*
X81174188Y-86924482D01*
X81210498Y-87044180D01*
X81269463Y-87154494D01*
X81348815Y-87251185D01*
X81445506Y-87330537D01*
X81555820Y-87389502D01*
X81675518Y-87425812D01*
X81693482Y-87427581D01*
X81580392Y-87520392D01*
X81557509Y-87548274D01*
X79749000Y-85739765D01*
X79749000Y-82731849D01*
X79774759Y-82714637D01*
X79974637Y-82514759D01*
X80131680Y-82279727D01*
X80230000Y-82042361D01*
X80328320Y-82279727D01*
X80485363Y-82514759D01*
X80685241Y-82714637D01*
X80920273Y-82871680D01*
X81181426Y-82979853D01*
X81458665Y-83035000D01*
X81741335Y-83035000D01*
X82018574Y-82979853D01*
X82279727Y-82871680D01*
X82514759Y-82714637D01*
X82714637Y-82514759D01*
X82871680Y-82279727D01*
X82979853Y-82018574D01*
X83035000Y-81741335D01*
X83035000Y-81458665D01*
X82979853Y-81181426D01*
X82871680Y-80920273D01*
X82714637Y-80685241D01*
X82514759Y-80485363D01*
X82279727Y-80328320D01*
X82018574Y-80220147D01*
X81741335Y-80165000D01*
X81458665Y-80165000D01*
X81181426Y-80220147D01*
X80920273Y-80328320D01*
X80685241Y-80485363D01*
X80485363Y-80685241D01*
X80328320Y-80920273D01*
X80230000Y-81157639D01*
X80131680Y-80920273D01*
X79974637Y-80685241D01*
X79774759Y-80485363D01*
X79749000Y-80468151D01*
X79749000Y-79131849D01*
X79774759Y-79114637D01*
X79974637Y-78914759D01*
X79991849Y-78889000D01*
X80468151Y-78889000D01*
X80485363Y-78914759D01*
X80685241Y-79114637D01*
X80920273Y-79271680D01*
X81181426Y-79379853D01*
X81458665Y-79435000D01*
X81741335Y-79435000D01*
X82018574Y-79379853D01*
X82279727Y-79271680D01*
X82514759Y-79114637D01*
X82714637Y-78914759D01*
X82871680Y-78679727D01*
X82979853Y-78418574D01*
X83035000Y-78141335D01*
X83035000Y-77858665D01*
X82979853Y-77581426D01*
X82871680Y-77320273D01*
X82714637Y-77085241D01*
X82514759Y-76885363D01*
X82279727Y-76728320D01*
X82018574Y-76620147D01*
X81741335Y-76565000D01*
X81458665Y-76565000D01*
X81181426Y-76620147D01*
X80920273Y-76728320D01*
X80685241Y-76885363D01*
X80485363Y-77085241D01*
X80468151Y-77111000D01*
X79991849Y-77111000D01*
X79974637Y-77085241D01*
X79774759Y-76885363D01*
X79749000Y-76868151D01*
X79749000Y-75531849D01*
X79774759Y-75514637D01*
X79974637Y-75314759D01*
X80131680Y-75079727D01*
X80239853Y-74818574D01*
X80295000Y-74541335D01*
X80295000Y-74258665D01*
X80250509Y-74034999D01*
X83310341Y-74034999D01*
X83354001Y-74039299D01*
X83397661Y-74034999D01*
X83397668Y-74034999D01*
X83528275Y-74022135D01*
X83695852Y-73971302D01*
X83850292Y-73888752D01*
X83985660Y-73777658D01*
X84013500Y-73743735D01*
X86243237Y-71513999D01*
X86348816Y-71535000D01*
X86651184Y-71535000D01*
X86947743Y-71476011D01*
X87227095Y-71360299D01*
X87478505Y-71192312D01*
X87516120Y-71154697D01*
X87569463Y-71254494D01*
X87648815Y-71351185D01*
X87745506Y-71430537D01*
X87855820Y-71489502D01*
X87975518Y-71525812D01*
X88100000Y-71538072D01*
X89900000Y-71538072D01*
X90024482Y-71525812D01*
X90144180Y-71489502D01*
X90254494Y-71430537D01*
X90351185Y-71351185D01*
X90430537Y-71254494D01*
X90489502Y-71144180D01*
X90525812Y-71024482D01*
X90538072Y-70900000D01*
X90538072Y-70889000D01*
X96956340Y-70889000D01*
X97000000Y-70893300D01*
X97043660Y-70889000D01*
X97043667Y-70889000D01*
X97174274Y-70876136D01*
X97341851Y-70825303D01*
X97496291Y-70742753D01*
X97631659Y-70631659D01*
X97659499Y-70597736D01*
X97828279Y-70428956D01*
X97858665Y-70435000D01*
X98141335Y-70435000D01*
X98418574Y-70379853D01*
X98679727Y-70271680D01*
X98914759Y-70114637D01*
X99114637Y-69914759D01*
X99271680Y-69679727D01*
X99379853Y-69418574D01*
X99435000Y-69141335D01*
X99435000Y-68858665D01*
X99379853Y-68581426D01*
X99271680Y-68320273D01*
X99114637Y-68085241D01*
X98914759Y-67885363D01*
X98679727Y-67728320D01*
X98418574Y-67620147D01*
X98141335Y-67565000D01*
X97858665Y-67565000D01*
X97581426Y-67620147D01*
X97320273Y-67728320D01*
X97085241Y-67885363D01*
X96885363Y-68085241D01*
X96728320Y-68320273D01*
X96620147Y-68581426D01*
X96565000Y-68858665D01*
X96565000Y-69111000D01*
X90538072Y-69111000D01*
X90538072Y-69100000D01*
X90525812Y-68975518D01*
X90489502Y-68855820D01*
X90430537Y-68745506D01*
X90351185Y-68648815D01*
X90254494Y-68569463D01*
X90144180Y-68510498D01*
X90024482Y-68474188D01*
X89900000Y-68461928D01*
X88100000Y-68461928D01*
X87975518Y-68474188D01*
X87855820Y-68510498D01*
X87745506Y-68569463D01*
X87648815Y-68648815D01*
X87569463Y-68745506D01*
X87516120Y-68845303D01*
X87478505Y-68807688D01*
X87227095Y-68639701D01*
X86947743Y-68523989D01*
X86651184Y-68465000D01*
X86348816Y-68465000D01*
X86052257Y-68523989D01*
X85772905Y-68639701D01*
X85521495Y-68807688D01*
X85307688Y-69021495D01*
X85250000Y-69107831D01*
X85192312Y-69021495D01*
X84978505Y-68807688D01*
X84727095Y-68639701D01*
X84447743Y-68523989D01*
X84151184Y-68465000D01*
X83848816Y-68465000D01*
X83552257Y-68523989D01*
X83272905Y-68639701D01*
X83021495Y-68807688D01*
X82807688Y-69021495D01*
X82639701Y-69272905D01*
X82523989Y-69552257D01*
X82465000Y-69848816D01*
X82465000Y-70151184D01*
X82523989Y-70447743D01*
X82639701Y-70727095D01*
X82807688Y-70978505D01*
X83021495Y-71192312D01*
X83272905Y-71360299D01*
X83552257Y-71476011D01*
X83731167Y-71511598D01*
X82985766Y-72256999D01*
X69997660Y-72256999D01*
X69954000Y-72252699D01*
X69910340Y-72256999D01*
X69910334Y-72256999D01*
X69812925Y-72266593D01*
X69779725Y-72269863D01*
X69678059Y-72300703D01*
X69612150Y-72320696D01*
X69457710Y-72403246D01*
X69322342Y-72514340D01*
X69294507Y-72548258D01*
X68871720Y-72971044D01*
X68841335Y-72965000D01*
X68558665Y-72965000D01*
X68281426Y-73020147D01*
X68020273Y-73128320D01*
X67785241Y-73285363D01*
X67585363Y-73485241D01*
X67428320Y-73720273D01*
X67320147Y-73981426D01*
X67265000Y-74258665D01*
X66660000Y-74258665D01*
X66660000Y-62142003D01*
X79705000Y-62142003D01*
X79705000Y-62857998D01*
X79733867Y-63151088D01*
X79847943Y-63527147D01*
X80033193Y-63873725D01*
X80282498Y-64177503D01*
X80586276Y-64426807D01*
X80932854Y-64612057D01*
X81308913Y-64726133D01*
X81700000Y-64764652D01*
X82091088Y-64726133D01*
X82467147Y-64612057D01*
X82813725Y-64426807D01*
X83117503Y-64177503D01*
X83366807Y-63873725D01*
X83552057Y-63527147D01*
X83666133Y-63151087D01*
X83695000Y-62857997D01*
X83695000Y-62142003D01*
X89305000Y-62142003D01*
X89305000Y-62857998D01*
X89333867Y-63151088D01*
X89447943Y-63527147D01*
X89633193Y-63873725D01*
X89882498Y-64177503D01*
X90186276Y-64426807D01*
X90532854Y-64612057D01*
X90908913Y-64726133D01*
X91300000Y-64764652D01*
X91691088Y-64726133D01*
X92067147Y-64612057D01*
X92413725Y-64426807D01*
X92717503Y-64177503D01*
X92966807Y-63873725D01*
X93152057Y-63527147D01*
X93266133Y-63151087D01*
X93295000Y-62857997D01*
X93295000Y-62142002D01*
X93266133Y-61848912D01*
X93152057Y-61472853D01*
X92966807Y-61126275D01*
X92717503Y-60822497D01*
X92413725Y-60573193D01*
X92067146Y-60387943D01*
X91691087Y-60273867D01*
X91300000Y-60235348D01*
X90908912Y-60273867D01*
X90532853Y-60387943D01*
X90186275Y-60573193D01*
X89882497Y-60822497D01*
X89633193Y-61126275D01*
X89447943Y-61472854D01*
X89333867Y-61848913D01*
X89305000Y-62142003D01*
X83695000Y-62142003D01*
X83695000Y-62142002D01*
X83666133Y-61848912D01*
X83552057Y-61472853D01*
X83366807Y-61126275D01*
X83117503Y-60822497D01*
X82813725Y-60573193D01*
X82467146Y-60387943D01*
X82091087Y-60273867D01*
X81700000Y-60235348D01*
X81308912Y-60273867D01*
X80932853Y-60387943D01*
X80586275Y-60573193D01*
X80282497Y-60822497D01*
X80033193Y-61126275D01*
X79847943Y-61472854D01*
X79733867Y-61848913D01*
X79705000Y-62142003D01*
X66660000Y-62142003D01*
X66660000Y-59189040D01*
X96608091Y-59189040D01*
X96702930Y-59453881D01*
X96847615Y-59695131D01*
X97036586Y-59903519D01*
X97262580Y-60071037D01*
X97516913Y-60191246D01*
X97650961Y-60231904D01*
X97873000Y-60109915D01*
X97873000Y-58967000D01*
X98127000Y-58967000D01*
X98127000Y-60109915D01*
X98349039Y-60231904D01*
X98483087Y-60191246D01*
X98737420Y-60071037D01*
X98963414Y-59903519D01*
X99152385Y-59695131D01*
X99297070Y-59453881D01*
X99391909Y-59189040D01*
X99270624Y-58967000D01*
X98127000Y-58967000D01*
X97873000Y-58967000D01*
X96729376Y-58967000D01*
X96608091Y-59189040D01*
X66660000Y-59189040D01*
X66660000Y-58490960D01*
X96608091Y-58490960D01*
X96729376Y-58713000D01*
X97873000Y-58713000D01*
X97873000Y-57570085D01*
X98127000Y-57570085D01*
X98127000Y-58713000D01*
X99270624Y-58713000D01*
X99391909Y-58490960D01*
X99297070Y-58226119D01*
X99152385Y-57984869D01*
X98963414Y-57776481D01*
X98737420Y-57608963D01*
X98483087Y-57488754D01*
X98349039Y-57448096D01*
X98127000Y-57570085D01*
X97873000Y-57570085D01*
X97650961Y-57448096D01*
X97516913Y-57488754D01*
X97262580Y-57608963D01*
X97036586Y-57776481D01*
X96847615Y-57984869D01*
X96702930Y-58226119D01*
X96608091Y-58490960D01*
X66660000Y-58490960D01*
X66660000Y-55660000D01*
X107340000Y-55660000D01*
X107340001Y-132840000D01*
G37*
%TD.AperFunction*%
D20*
X101705655Y-92449345D02*
X101934821Y-92637417D01*
X101958362Y-92650000D01*
X101934821Y-92662583D01*
X101705655Y-92850655D01*
X101517583Y-93079821D01*
X101377834Y-93341275D01*
X101291776Y-93624968D01*
X101262718Y-93920000D01*
X101272271Y-94016990D01*
X98174870Y-94016990D01*
X98226300Y-93811816D01*
X98240217Y-93529488D01*
X98198787Y-93249870D01*
X98103603Y-92983708D01*
X98036671Y-92858486D01*
X97792702Y-92786903D01*
X96979605Y-93600000D01*
X96993748Y-93614143D01*
X96814143Y-93793748D01*
X96800000Y-93779605D01*
X96785858Y-93793748D01*
X96606253Y-93614143D01*
X96620395Y-93600000D01*
X96606253Y-93585858D01*
X96785858Y-93406253D01*
X96800000Y-93420395D01*
X97613097Y-92607298D01*
X97541514Y-92363329D01*
X97342159Y-92269000D01*
X101557649Y-92269000D01*
X101705655Y-92449345D01*
%TA.AperFunction,Conductor*%
D21*
G36*
X101705655Y-92449345D02*
G01*
X101934821Y-92637417D01*
X101958362Y-92650000D01*
X101934821Y-92662583D01*
X101705655Y-92850655D01*
X101517583Y-93079821D01*
X101377834Y-93341275D01*
X101291776Y-93624968D01*
X101262718Y-93920000D01*
X101272271Y-94016990D01*
X98174870Y-94016990D01*
X98226300Y-93811816D01*
X98240217Y-93529488D01*
X98198787Y-93249870D01*
X98103603Y-92983708D01*
X98036671Y-92858486D01*
X97792702Y-92786903D01*
X96979605Y-93600000D01*
X96993748Y-93614143D01*
X96814143Y-93793748D01*
X96800000Y-93779605D01*
X96785858Y-93793748D01*
X96606253Y-93614143D01*
X96620395Y-93600000D01*
X96606253Y-93585858D01*
X96785858Y-93406253D01*
X96800000Y-93420395D01*
X97613097Y-92607298D01*
X97541514Y-92363329D01*
X97342159Y-92269000D01*
X101557649Y-92269000D01*
X101705655Y-92449345D01*
G37*
%TD.AperFunction*%
%TD*%
M02*
