%TF.GenerationSoftware,KiCad,Pcbnew,5.1.10-88a1d61d58~90~ubuntu21.04.1*%
%TF.CreationDate,2021-09-12T11:52:23+02:00*%
%TF.ProjectId,control,636f6e74-726f-46c2-9e6b-696361645f70,v0.0.2*%
%TF.SameCoordinates,Original*%
%TF.FileFunction,Soldermask,Bot*%
%TF.FilePolarity,Negative*%
%FSLAX46Y46*%
G04 Gerber Fmt 4.6, Leading zero omitted, Abs format (unit mm)*
G04 Created by KiCad (PCBNEW 5.1.10-88a1d61d58~90~ubuntu21.04.1) date 2021-09-12 11:52:23*
%MOMM*%
%LPD*%
G01*
G04 APERTURE LIST*
%ADD10O,1.600000X1.600000*%
%ADD11C,1.600000*%
%ADD12O,2.400000X1.600000*%
%ADD13R,2.400000X1.600000*%
%ADD14O,2.190000X1.740000*%
%ADD15O,2.720000X3.240000*%
%ADD16C,1.800000*%
%ADD17R,1.800000X1.800000*%
G04 APERTURE END LIST*
D10*
%TO.C,R13*%
X78760000Y-106200000D03*
D11*
X68600000Y-106200000D03*
%TD*%
D10*
%TO.C,R12*%
X78860000Y-81600000D03*
D11*
X68700000Y-81600000D03*
%TD*%
D12*
%TO.C,U1*%
X90620000Y-86000000D03*
X83000000Y-101240000D03*
X90620000Y-88540000D03*
X83000000Y-98700000D03*
X90620000Y-91080000D03*
X83000000Y-96160000D03*
X90620000Y-93620000D03*
X83000000Y-93620000D03*
X90620000Y-96160000D03*
X83000000Y-91080000D03*
X90620000Y-98700000D03*
X83000000Y-88540000D03*
X90620000Y-101240000D03*
D13*
X83000000Y-86000000D03*
%TD*%
D10*
%TO.C,R11*%
X104660000Y-106200000D03*
D11*
X94500000Y-106200000D03*
%TD*%
D10*
%TO.C,R10*%
X91660000Y-109700000D03*
D11*
X81500000Y-109700000D03*
%TD*%
D10*
%TO.C,R9*%
X91660000Y-106200000D03*
D11*
X81500000Y-106200000D03*
%TD*%
D10*
%TO.C,R8*%
X78760000Y-109700000D03*
D11*
X68600000Y-109700000D03*
%TD*%
D10*
%TO.C,R2*%
X78760000Y-113200000D03*
D11*
X68600000Y-113200000D03*
%TD*%
D14*
%TO.C,J3*%
X71000000Y-93620000D03*
X71000000Y-91080000D03*
X71000000Y-88540000D03*
G36*
G01*
X70154999Y-85130000D02*
X71845001Y-85130000D01*
G75*
G02*
X72095000Y-85379999I0J-249999D01*
G01*
X72095000Y-86620001D01*
G75*
G02*
X71845001Y-86870000I-249999J0D01*
G01*
X70154999Y-86870000D01*
G75*
G02*
X69905000Y-86620001I0J249999D01*
G01*
X69905000Y-85379999D01*
G75*
G02*
X70154999Y-85130000I249999J0D01*
G01*
G37*
%TD*%
D10*
%TO.C,R7*%
X91760000Y-81600000D03*
D11*
X81600000Y-81600000D03*
%TD*%
D10*
%TO.C,R6*%
X104660000Y-78000000D03*
D11*
X94500000Y-78000000D03*
%TD*%
D10*
%TO.C,R5*%
X91760000Y-78000000D03*
D11*
X81600000Y-78000000D03*
%TD*%
D10*
%TO.C,R4*%
X78860000Y-78000000D03*
D11*
X68700000Y-78000000D03*
%TD*%
D10*
%TO.C,R3*%
X78860000Y-74400000D03*
D11*
X68700000Y-74400000D03*
%TD*%
D14*
%TO.C,J2*%
X71000000Y-101540000D03*
G36*
G01*
X70154999Y-98130000D02*
X71845001Y-98130000D01*
G75*
G02*
X72095000Y-98379999I0J-249999D01*
G01*
X72095000Y-99620001D01*
G75*
G02*
X71845001Y-99870000I-249999J0D01*
G01*
X70154999Y-99870000D01*
G75*
G02*
X69905000Y-99620001I0J249999D01*
G01*
X69905000Y-98379999D01*
G75*
G02*
X70154999Y-98130000I249999J0D01*
G01*
G37*
%TD*%
D11*
%TO.C,C2*%
X94300000Y-93600000D03*
X96800000Y-93600000D03*
%TD*%
%TO.C,C1*%
X79300000Y-93600000D03*
X76800000Y-93600000D03*
%TD*%
D15*
%TO.C,RV2*%
X91300000Y-122500000D03*
X81700000Y-122500000D03*
D16*
X84000000Y-130000000D03*
X86500000Y-130000000D03*
D17*
X89000000Y-130000000D03*
%TD*%
D15*
%TO.C,RV1*%
X91300000Y-62500000D03*
X81700000Y-62500000D03*
D16*
X84000000Y-70000000D03*
X86500000Y-70000000D03*
D17*
X89000000Y-70000000D03*
%TD*%
D10*
%TO.C,R1*%
X98000000Y-58840000D03*
D11*
X98000000Y-69000000D03*
%TD*%
D14*
%TO.C,J1*%
X103000000Y-88840000D03*
X103000000Y-91380000D03*
X103000000Y-93920000D03*
X103000000Y-96460000D03*
G36*
G01*
X103845001Y-99870000D02*
X102154999Y-99870000D01*
G75*
G02*
X101905000Y-99620001I0J249999D01*
G01*
X101905000Y-98379999D01*
G75*
G02*
X102154999Y-98130000I249999J0D01*
G01*
X103845001Y-98130000D01*
G75*
G02*
X104095000Y-98379999I0J-249999D01*
G01*
X104095000Y-99620001D01*
G75*
G02*
X103845001Y-99870000I-249999J0D01*
G01*
G37*
%TD*%
M02*
