%TF.GenerationSoftware,KiCad,Pcbnew,5.1.10-88a1d61d58~90~ubuntu20.10.1*%
%TF.CreationDate,2021-07-31T21:38:24+02:00*%
%TF.ProjectId,control,636f6e74-726f-46c2-9e6b-696361645f70,rev?*%
%TF.SameCoordinates,Original*%
%TF.FileFunction,Copper,L1,Top*%
%TF.FilePolarity,Positive*%
%FSLAX46Y46*%
G04 Gerber Fmt 4.6, Leading zero omitted, Abs format (unit mm)*
G04 Created by KiCad (PCBNEW 5.1.10-88a1d61d58~90~ubuntu20.10.1) date 2021-07-31 21:38:24*
%MOMM*%
%LPD*%
G01*
G04 APERTURE LIST*
%TA.AperFunction,ComponentPad*%
%ADD10O,2.720000X3.240000*%
%TD*%
%TA.AperFunction,ComponentPad*%
%ADD11C,1.800000*%
%TD*%
%TA.AperFunction,ComponentPad*%
%ADD12R,1.800000X1.800000*%
%TD*%
%TA.AperFunction,ComponentPad*%
%ADD13O,1.600000X1.600000*%
%TD*%
%TA.AperFunction,ComponentPad*%
%ADD14C,1.600000*%
%TD*%
%TA.AperFunction,ComponentPad*%
%ADD15O,2.190000X1.740000*%
%TD*%
%TA.AperFunction,Conductor*%
%ADD16C,0.508000*%
%TD*%
%TA.AperFunction,Conductor*%
%ADD17C,0.254000*%
%TD*%
%TA.AperFunction,Conductor*%
%ADD18C,0.100000*%
%TD*%
G04 APERTURE END LIST*
D10*
%TO.P,RV2,*%
%TO.N,*%
X91300000Y-122500000D03*
X81700000Y-122500000D03*
D11*
%TO.P,RV2,3*%
%TO.N,+12V*%
X84000000Y-130000000D03*
%TO.P,RV2,2*%
%TO.N,RES*%
X86500000Y-130000000D03*
D12*
%TO.P,RV2,1*%
%TO.N,-12V*%
X89000000Y-130000000D03*
%TD*%
D10*
%TO.P,RV1,*%
%TO.N,*%
X91300000Y-62500000D03*
X81700000Y-62500000D03*
D11*
%TO.P,RV1,3*%
%TO.N,+12V*%
X84000000Y-70000000D03*
%TO.P,RV1,2*%
%TO.N,FREQ*%
X86500000Y-70000000D03*
D12*
%TO.P,RV1,1*%
%TO.N,Net-(R1-Pad1)*%
X89000000Y-70000000D03*
%TD*%
D13*
%TO.P,R1,2*%
%TO.N,GND*%
X89000000Y-84060000D03*
D14*
%TO.P,R1,1*%
%TO.N,Net-(R1-Pad1)*%
X89000000Y-73900000D03*
%TD*%
D15*
%TO.P,J1,5*%
%TO.N,GND*%
X86500000Y-89140000D03*
%TO.P,J1,4*%
%TO.N,-12V*%
X86500000Y-91680000D03*
%TO.P,J1,3*%
%TO.N,+12V*%
X86500000Y-94220000D03*
%TO.P,J1,2*%
%TO.N,FREQ*%
X86500000Y-96760000D03*
%TO.P,J1,1*%
%TO.N,RES*%
%TA.AperFunction,ComponentPad*%
G36*
G01*
X87345001Y-100170000D02*
X85654999Y-100170000D01*
G75*
G02*
X85405000Y-99920001I0J249999D01*
G01*
X85405000Y-98679999D01*
G75*
G02*
X85654999Y-98430000I249999J0D01*
G01*
X87345001Y-98430000D01*
G75*
G02*
X87595000Y-98679999I0J-249999D01*
G01*
X87595000Y-99920001D01*
G75*
G02*
X87345001Y-100170000I-249999J0D01*
G01*
G37*
%TD.AperFunction*%
%TD*%
D16*
%TO.N,FREQ*%
X84950990Y-95210990D02*
X86500000Y-96760000D01*
X84950990Y-71549010D02*
X84950990Y-95210990D01*
X86500000Y-70000000D02*
X84950990Y-71549010D01*
%TD*%
D17*
%TO.N,GND*%
X97340000Y-135340000D02*
X75660000Y-135340000D01*
X75660000Y-129848816D01*
X82465000Y-129848816D01*
X82465000Y-130151184D01*
X82523989Y-130447743D01*
X82639701Y-130727095D01*
X82807688Y-130978505D01*
X83021495Y-131192312D01*
X83272905Y-131360299D01*
X83552257Y-131476011D01*
X83848816Y-131535000D01*
X84151184Y-131535000D01*
X84447743Y-131476011D01*
X84727095Y-131360299D01*
X84978505Y-131192312D01*
X85192312Y-130978505D01*
X85250000Y-130892169D01*
X85307688Y-130978505D01*
X85521495Y-131192312D01*
X85772905Y-131360299D01*
X86052257Y-131476011D01*
X86348816Y-131535000D01*
X86651184Y-131535000D01*
X86947743Y-131476011D01*
X87227095Y-131360299D01*
X87478505Y-131192312D01*
X87516120Y-131154697D01*
X87569463Y-131254494D01*
X87648815Y-131351185D01*
X87745506Y-131430537D01*
X87855820Y-131489502D01*
X87975518Y-131525812D01*
X88100000Y-131538072D01*
X89900000Y-131538072D01*
X90024482Y-131525812D01*
X90144180Y-131489502D01*
X90254494Y-131430537D01*
X90351185Y-131351185D01*
X90430537Y-131254494D01*
X90489502Y-131144180D01*
X90525812Y-131024482D01*
X90538072Y-130900000D01*
X90538072Y-129100000D01*
X90525812Y-128975518D01*
X90489502Y-128855820D01*
X90430537Y-128745506D01*
X90351185Y-128648815D01*
X90254494Y-128569463D01*
X90144180Y-128510498D01*
X90024482Y-128474188D01*
X89900000Y-128461928D01*
X88100000Y-128461928D01*
X87975518Y-128474188D01*
X87855820Y-128510498D01*
X87745506Y-128569463D01*
X87648815Y-128648815D01*
X87569463Y-128745506D01*
X87516120Y-128845303D01*
X87478505Y-128807688D01*
X87227095Y-128639701D01*
X86947743Y-128523989D01*
X86651184Y-128465000D01*
X86348816Y-128465000D01*
X86052257Y-128523989D01*
X85772905Y-128639701D01*
X85521495Y-128807688D01*
X85307688Y-129021495D01*
X85250000Y-129107831D01*
X85192312Y-129021495D01*
X84978505Y-128807688D01*
X84727095Y-128639701D01*
X84447743Y-128523989D01*
X84151184Y-128465000D01*
X83848816Y-128465000D01*
X83552257Y-128523989D01*
X83272905Y-128639701D01*
X83021495Y-128807688D01*
X82807688Y-129021495D01*
X82639701Y-129272905D01*
X82523989Y-129552257D01*
X82465000Y-129848816D01*
X75660000Y-129848816D01*
X75660000Y-122142003D01*
X79705000Y-122142003D01*
X79705000Y-122857998D01*
X79733867Y-123151088D01*
X79847943Y-123527147D01*
X80033193Y-123873725D01*
X80282498Y-124177503D01*
X80586276Y-124426807D01*
X80932854Y-124612057D01*
X81308913Y-124726133D01*
X81700000Y-124764652D01*
X82091088Y-124726133D01*
X82467147Y-124612057D01*
X82813725Y-124426807D01*
X83117503Y-124177503D01*
X83366807Y-123873725D01*
X83552057Y-123527147D01*
X83666133Y-123151087D01*
X83695000Y-122857997D01*
X83695000Y-122142003D01*
X89305000Y-122142003D01*
X89305000Y-122857998D01*
X89333867Y-123151088D01*
X89447943Y-123527147D01*
X89633193Y-123873725D01*
X89882498Y-124177503D01*
X90186276Y-124426807D01*
X90532854Y-124612057D01*
X90908913Y-124726133D01*
X91300000Y-124764652D01*
X91691088Y-124726133D01*
X92067147Y-124612057D01*
X92413725Y-124426807D01*
X92717503Y-124177503D01*
X92966807Y-123873725D01*
X93152057Y-123527147D01*
X93266133Y-123151087D01*
X93295000Y-122857997D01*
X93295000Y-122142002D01*
X93266133Y-121848912D01*
X93152057Y-121472853D01*
X92966807Y-121126275D01*
X92717503Y-120822497D01*
X92413725Y-120573193D01*
X92067146Y-120387943D01*
X91691087Y-120273867D01*
X91300000Y-120235348D01*
X90908912Y-120273867D01*
X90532853Y-120387943D01*
X90186275Y-120573193D01*
X89882497Y-120822497D01*
X89633193Y-121126275D01*
X89447943Y-121472854D01*
X89333867Y-121848913D01*
X89305000Y-122142003D01*
X83695000Y-122142003D01*
X83695000Y-122142002D01*
X83666133Y-121848912D01*
X83552057Y-121472853D01*
X83366807Y-121126275D01*
X83117503Y-120822497D01*
X82813725Y-120573193D01*
X82467146Y-120387943D01*
X82091087Y-120273867D01*
X81700000Y-120235348D01*
X81308912Y-120273867D01*
X80932853Y-120387943D01*
X80586275Y-120573193D01*
X80282497Y-120822497D01*
X80033193Y-121126275D01*
X79847943Y-121472854D01*
X79733867Y-121848913D01*
X79705000Y-122142003D01*
X75660000Y-122142003D01*
X75660000Y-69848816D01*
X82465000Y-69848816D01*
X82465000Y-70151184D01*
X82523989Y-70447743D01*
X82639701Y-70727095D01*
X82807688Y-70978505D01*
X83021495Y-71192312D01*
X83272905Y-71360299D01*
X83552257Y-71476011D01*
X83848816Y-71535000D01*
X84059070Y-71535000D01*
X84057690Y-71549010D01*
X84061990Y-71592670D01*
X84061991Y-95167320D01*
X84057690Y-95210990D01*
X84074854Y-95385264D01*
X84125688Y-95552842D01*
X84160070Y-95617166D01*
X84208238Y-95707281D01*
X84319332Y-95842649D01*
X84353249Y-95870484D01*
X84828074Y-96345310D01*
X84791776Y-96464968D01*
X84762718Y-96760000D01*
X84791776Y-97055032D01*
X84877834Y-97338725D01*
X85017583Y-97600179D01*
X85205655Y-97829345D01*
X85271114Y-97883066D01*
X85161613Y-97941595D01*
X85027038Y-98052038D01*
X84916595Y-98186613D01*
X84834528Y-98340149D01*
X84783992Y-98506745D01*
X84766928Y-98679999D01*
X84766928Y-99920001D01*
X84783992Y-100093255D01*
X84834528Y-100259851D01*
X84916595Y-100413387D01*
X85027038Y-100547962D01*
X85161613Y-100658405D01*
X85315149Y-100740472D01*
X85481745Y-100791008D01*
X85654999Y-100808072D01*
X87345001Y-100808072D01*
X87518255Y-100791008D01*
X87684851Y-100740472D01*
X87838387Y-100658405D01*
X87972962Y-100547962D01*
X88083405Y-100413387D01*
X88165472Y-100259851D01*
X88216008Y-100093255D01*
X88233072Y-99920001D01*
X88233072Y-98679999D01*
X88216008Y-98506745D01*
X88165472Y-98340149D01*
X88083405Y-98186613D01*
X87972962Y-98052038D01*
X87838387Y-97941595D01*
X87728886Y-97883066D01*
X87794345Y-97829345D01*
X87982417Y-97600179D01*
X88122166Y-97338725D01*
X88208224Y-97055032D01*
X88237282Y-96760000D01*
X88208224Y-96464968D01*
X88122166Y-96181275D01*
X87982417Y-95919821D01*
X87794345Y-95690655D01*
X87565179Y-95502583D01*
X87541638Y-95490000D01*
X87565179Y-95477417D01*
X87794345Y-95289345D01*
X87982417Y-95060179D01*
X88122166Y-94798725D01*
X88208224Y-94515032D01*
X88237282Y-94220000D01*
X88208224Y-93924968D01*
X88122166Y-93641275D01*
X87982417Y-93379821D01*
X87794345Y-93150655D01*
X87565179Y-92962583D01*
X87541638Y-92950000D01*
X87565179Y-92937417D01*
X87794345Y-92749345D01*
X87982417Y-92520179D01*
X88122166Y-92258725D01*
X88208224Y-91975032D01*
X88237282Y-91680000D01*
X88208224Y-91384968D01*
X88122166Y-91101275D01*
X87982417Y-90839821D01*
X87794345Y-90610655D01*
X87565179Y-90422583D01*
X87536848Y-90407440D01*
X87677433Y-90314708D01*
X87888306Y-90106326D01*
X88054474Y-89860809D01*
X88169551Y-89587591D01*
X88186302Y-89500031D01*
X88065246Y-89267000D01*
X86627000Y-89267000D01*
X86627000Y-89287000D01*
X86373000Y-89287000D01*
X86373000Y-89267000D01*
X86353000Y-89267000D01*
X86353000Y-89013000D01*
X86373000Y-89013000D01*
X86373000Y-87789624D01*
X86627000Y-87789624D01*
X86627000Y-89013000D01*
X88065246Y-89013000D01*
X88186302Y-88779969D01*
X88169551Y-88692409D01*
X88054474Y-88419191D01*
X87888306Y-88173674D01*
X87677433Y-87965292D01*
X87429958Y-87802053D01*
X87155392Y-87690231D01*
X86864286Y-87634123D01*
X86627000Y-87789624D01*
X86373000Y-87789624D01*
X86135714Y-87634123D01*
X85844608Y-87690231D01*
X85839990Y-87692112D01*
X85839990Y-84409040D01*
X87608091Y-84409040D01*
X87702930Y-84673881D01*
X87847615Y-84915131D01*
X88036586Y-85123519D01*
X88262580Y-85291037D01*
X88516913Y-85411246D01*
X88650961Y-85451904D01*
X88873000Y-85329915D01*
X88873000Y-84187000D01*
X89127000Y-84187000D01*
X89127000Y-85329915D01*
X89349039Y-85451904D01*
X89483087Y-85411246D01*
X89737420Y-85291037D01*
X89963414Y-85123519D01*
X90152385Y-84915131D01*
X90297070Y-84673881D01*
X90391909Y-84409040D01*
X90270624Y-84187000D01*
X89127000Y-84187000D01*
X88873000Y-84187000D01*
X87729376Y-84187000D01*
X87608091Y-84409040D01*
X85839990Y-84409040D01*
X85839990Y-83710960D01*
X87608091Y-83710960D01*
X87729376Y-83933000D01*
X88873000Y-83933000D01*
X88873000Y-82790085D01*
X89127000Y-82790085D01*
X89127000Y-83933000D01*
X90270624Y-83933000D01*
X90391909Y-83710960D01*
X90297070Y-83446119D01*
X90152385Y-83204869D01*
X89963414Y-82996481D01*
X89737420Y-82828963D01*
X89483087Y-82708754D01*
X89349039Y-82668096D01*
X89127000Y-82790085D01*
X88873000Y-82790085D01*
X88650961Y-82668096D01*
X88516913Y-82708754D01*
X88262580Y-82828963D01*
X88036586Y-82996481D01*
X87847615Y-83204869D01*
X87702930Y-83446119D01*
X87608091Y-83710960D01*
X85839990Y-83710960D01*
X85839990Y-73758665D01*
X87565000Y-73758665D01*
X87565000Y-74041335D01*
X87620147Y-74318574D01*
X87728320Y-74579727D01*
X87885363Y-74814759D01*
X88085241Y-75014637D01*
X88320273Y-75171680D01*
X88581426Y-75279853D01*
X88858665Y-75335000D01*
X89141335Y-75335000D01*
X89418574Y-75279853D01*
X89679727Y-75171680D01*
X89914759Y-75014637D01*
X90114637Y-74814759D01*
X90271680Y-74579727D01*
X90379853Y-74318574D01*
X90435000Y-74041335D01*
X90435000Y-73758665D01*
X90379853Y-73481426D01*
X90271680Y-73220273D01*
X90114637Y-72985241D01*
X89914759Y-72785363D01*
X89679727Y-72628320D01*
X89418574Y-72520147D01*
X89141335Y-72465000D01*
X88858665Y-72465000D01*
X88581426Y-72520147D01*
X88320273Y-72628320D01*
X88085241Y-72785363D01*
X87885363Y-72985241D01*
X87728320Y-73220273D01*
X87620147Y-73481426D01*
X87565000Y-73758665D01*
X85839990Y-73758665D01*
X85839990Y-71917245D01*
X86243236Y-71513999D01*
X86348816Y-71535000D01*
X86651184Y-71535000D01*
X86947743Y-71476011D01*
X87227095Y-71360299D01*
X87478505Y-71192312D01*
X87516120Y-71154697D01*
X87569463Y-71254494D01*
X87648815Y-71351185D01*
X87745506Y-71430537D01*
X87855820Y-71489502D01*
X87975518Y-71525812D01*
X88100000Y-71538072D01*
X89900000Y-71538072D01*
X90024482Y-71525812D01*
X90144180Y-71489502D01*
X90254494Y-71430537D01*
X90351185Y-71351185D01*
X90430537Y-71254494D01*
X90489502Y-71144180D01*
X90525812Y-71024482D01*
X90538072Y-70900000D01*
X90538072Y-69100000D01*
X90525812Y-68975518D01*
X90489502Y-68855820D01*
X90430537Y-68745506D01*
X90351185Y-68648815D01*
X90254494Y-68569463D01*
X90144180Y-68510498D01*
X90024482Y-68474188D01*
X89900000Y-68461928D01*
X88100000Y-68461928D01*
X87975518Y-68474188D01*
X87855820Y-68510498D01*
X87745506Y-68569463D01*
X87648815Y-68648815D01*
X87569463Y-68745506D01*
X87516120Y-68845303D01*
X87478505Y-68807688D01*
X87227095Y-68639701D01*
X86947743Y-68523989D01*
X86651184Y-68465000D01*
X86348816Y-68465000D01*
X86052257Y-68523989D01*
X85772905Y-68639701D01*
X85521495Y-68807688D01*
X85307688Y-69021495D01*
X85250000Y-69107831D01*
X85192312Y-69021495D01*
X84978505Y-68807688D01*
X84727095Y-68639701D01*
X84447743Y-68523989D01*
X84151184Y-68465000D01*
X83848816Y-68465000D01*
X83552257Y-68523989D01*
X83272905Y-68639701D01*
X83021495Y-68807688D01*
X82807688Y-69021495D01*
X82639701Y-69272905D01*
X82523989Y-69552257D01*
X82465000Y-69848816D01*
X75660000Y-69848816D01*
X75660000Y-62142003D01*
X79705000Y-62142003D01*
X79705000Y-62857998D01*
X79733867Y-63151088D01*
X79847943Y-63527147D01*
X80033193Y-63873725D01*
X80282498Y-64177503D01*
X80586276Y-64426807D01*
X80932854Y-64612057D01*
X81308913Y-64726133D01*
X81700000Y-64764652D01*
X82091088Y-64726133D01*
X82467147Y-64612057D01*
X82813725Y-64426807D01*
X83117503Y-64177503D01*
X83366807Y-63873725D01*
X83552057Y-63527147D01*
X83666133Y-63151087D01*
X83695000Y-62857997D01*
X83695000Y-62142003D01*
X89305000Y-62142003D01*
X89305000Y-62857998D01*
X89333867Y-63151088D01*
X89447943Y-63527147D01*
X89633193Y-63873725D01*
X89882498Y-64177503D01*
X90186276Y-64426807D01*
X90532854Y-64612057D01*
X90908913Y-64726133D01*
X91300000Y-64764652D01*
X91691088Y-64726133D01*
X92067147Y-64612057D01*
X92413725Y-64426807D01*
X92717503Y-64177503D01*
X92966807Y-63873725D01*
X93152057Y-63527147D01*
X93266133Y-63151087D01*
X93295000Y-62857997D01*
X93295000Y-62142002D01*
X93266133Y-61848912D01*
X93152057Y-61472853D01*
X92966807Y-61126275D01*
X92717503Y-60822497D01*
X92413725Y-60573193D01*
X92067146Y-60387943D01*
X91691087Y-60273867D01*
X91300000Y-60235348D01*
X90908912Y-60273867D01*
X90532853Y-60387943D01*
X90186275Y-60573193D01*
X89882497Y-60822497D01*
X89633193Y-61126275D01*
X89447943Y-61472854D01*
X89333867Y-61848913D01*
X89305000Y-62142003D01*
X83695000Y-62142003D01*
X83695000Y-62142002D01*
X83666133Y-61848912D01*
X83552057Y-61472853D01*
X83366807Y-61126275D01*
X83117503Y-60822497D01*
X82813725Y-60573193D01*
X82467146Y-60387943D01*
X82091087Y-60273867D01*
X81700000Y-60235348D01*
X81308912Y-60273867D01*
X80932853Y-60387943D01*
X80586275Y-60573193D01*
X80282497Y-60822497D01*
X80033193Y-61126275D01*
X79847943Y-61472854D01*
X79733867Y-61848913D01*
X79705000Y-62142003D01*
X75660000Y-62142003D01*
X75660000Y-52660000D01*
X97340001Y-52660000D01*
X97340000Y-135340000D01*
%TA.AperFunction,Conductor*%
D18*
G36*
X97340000Y-135340000D02*
G01*
X75660000Y-135340000D01*
X75660000Y-129848816D01*
X82465000Y-129848816D01*
X82465000Y-130151184D01*
X82523989Y-130447743D01*
X82639701Y-130727095D01*
X82807688Y-130978505D01*
X83021495Y-131192312D01*
X83272905Y-131360299D01*
X83552257Y-131476011D01*
X83848816Y-131535000D01*
X84151184Y-131535000D01*
X84447743Y-131476011D01*
X84727095Y-131360299D01*
X84978505Y-131192312D01*
X85192312Y-130978505D01*
X85250000Y-130892169D01*
X85307688Y-130978505D01*
X85521495Y-131192312D01*
X85772905Y-131360299D01*
X86052257Y-131476011D01*
X86348816Y-131535000D01*
X86651184Y-131535000D01*
X86947743Y-131476011D01*
X87227095Y-131360299D01*
X87478505Y-131192312D01*
X87516120Y-131154697D01*
X87569463Y-131254494D01*
X87648815Y-131351185D01*
X87745506Y-131430537D01*
X87855820Y-131489502D01*
X87975518Y-131525812D01*
X88100000Y-131538072D01*
X89900000Y-131538072D01*
X90024482Y-131525812D01*
X90144180Y-131489502D01*
X90254494Y-131430537D01*
X90351185Y-131351185D01*
X90430537Y-131254494D01*
X90489502Y-131144180D01*
X90525812Y-131024482D01*
X90538072Y-130900000D01*
X90538072Y-129100000D01*
X90525812Y-128975518D01*
X90489502Y-128855820D01*
X90430537Y-128745506D01*
X90351185Y-128648815D01*
X90254494Y-128569463D01*
X90144180Y-128510498D01*
X90024482Y-128474188D01*
X89900000Y-128461928D01*
X88100000Y-128461928D01*
X87975518Y-128474188D01*
X87855820Y-128510498D01*
X87745506Y-128569463D01*
X87648815Y-128648815D01*
X87569463Y-128745506D01*
X87516120Y-128845303D01*
X87478505Y-128807688D01*
X87227095Y-128639701D01*
X86947743Y-128523989D01*
X86651184Y-128465000D01*
X86348816Y-128465000D01*
X86052257Y-128523989D01*
X85772905Y-128639701D01*
X85521495Y-128807688D01*
X85307688Y-129021495D01*
X85250000Y-129107831D01*
X85192312Y-129021495D01*
X84978505Y-128807688D01*
X84727095Y-128639701D01*
X84447743Y-128523989D01*
X84151184Y-128465000D01*
X83848816Y-128465000D01*
X83552257Y-128523989D01*
X83272905Y-128639701D01*
X83021495Y-128807688D01*
X82807688Y-129021495D01*
X82639701Y-129272905D01*
X82523989Y-129552257D01*
X82465000Y-129848816D01*
X75660000Y-129848816D01*
X75660000Y-122142003D01*
X79705000Y-122142003D01*
X79705000Y-122857998D01*
X79733867Y-123151088D01*
X79847943Y-123527147D01*
X80033193Y-123873725D01*
X80282498Y-124177503D01*
X80586276Y-124426807D01*
X80932854Y-124612057D01*
X81308913Y-124726133D01*
X81700000Y-124764652D01*
X82091088Y-124726133D01*
X82467147Y-124612057D01*
X82813725Y-124426807D01*
X83117503Y-124177503D01*
X83366807Y-123873725D01*
X83552057Y-123527147D01*
X83666133Y-123151087D01*
X83695000Y-122857997D01*
X83695000Y-122142003D01*
X89305000Y-122142003D01*
X89305000Y-122857998D01*
X89333867Y-123151088D01*
X89447943Y-123527147D01*
X89633193Y-123873725D01*
X89882498Y-124177503D01*
X90186276Y-124426807D01*
X90532854Y-124612057D01*
X90908913Y-124726133D01*
X91300000Y-124764652D01*
X91691088Y-124726133D01*
X92067147Y-124612057D01*
X92413725Y-124426807D01*
X92717503Y-124177503D01*
X92966807Y-123873725D01*
X93152057Y-123527147D01*
X93266133Y-123151087D01*
X93295000Y-122857997D01*
X93295000Y-122142002D01*
X93266133Y-121848912D01*
X93152057Y-121472853D01*
X92966807Y-121126275D01*
X92717503Y-120822497D01*
X92413725Y-120573193D01*
X92067146Y-120387943D01*
X91691087Y-120273867D01*
X91300000Y-120235348D01*
X90908912Y-120273867D01*
X90532853Y-120387943D01*
X90186275Y-120573193D01*
X89882497Y-120822497D01*
X89633193Y-121126275D01*
X89447943Y-121472854D01*
X89333867Y-121848913D01*
X89305000Y-122142003D01*
X83695000Y-122142003D01*
X83695000Y-122142002D01*
X83666133Y-121848912D01*
X83552057Y-121472853D01*
X83366807Y-121126275D01*
X83117503Y-120822497D01*
X82813725Y-120573193D01*
X82467146Y-120387943D01*
X82091087Y-120273867D01*
X81700000Y-120235348D01*
X81308912Y-120273867D01*
X80932853Y-120387943D01*
X80586275Y-120573193D01*
X80282497Y-120822497D01*
X80033193Y-121126275D01*
X79847943Y-121472854D01*
X79733867Y-121848913D01*
X79705000Y-122142003D01*
X75660000Y-122142003D01*
X75660000Y-69848816D01*
X82465000Y-69848816D01*
X82465000Y-70151184D01*
X82523989Y-70447743D01*
X82639701Y-70727095D01*
X82807688Y-70978505D01*
X83021495Y-71192312D01*
X83272905Y-71360299D01*
X83552257Y-71476011D01*
X83848816Y-71535000D01*
X84059070Y-71535000D01*
X84057690Y-71549010D01*
X84061990Y-71592670D01*
X84061991Y-95167320D01*
X84057690Y-95210990D01*
X84074854Y-95385264D01*
X84125688Y-95552842D01*
X84160070Y-95617166D01*
X84208238Y-95707281D01*
X84319332Y-95842649D01*
X84353249Y-95870484D01*
X84828074Y-96345310D01*
X84791776Y-96464968D01*
X84762718Y-96760000D01*
X84791776Y-97055032D01*
X84877834Y-97338725D01*
X85017583Y-97600179D01*
X85205655Y-97829345D01*
X85271114Y-97883066D01*
X85161613Y-97941595D01*
X85027038Y-98052038D01*
X84916595Y-98186613D01*
X84834528Y-98340149D01*
X84783992Y-98506745D01*
X84766928Y-98679999D01*
X84766928Y-99920001D01*
X84783992Y-100093255D01*
X84834528Y-100259851D01*
X84916595Y-100413387D01*
X85027038Y-100547962D01*
X85161613Y-100658405D01*
X85315149Y-100740472D01*
X85481745Y-100791008D01*
X85654999Y-100808072D01*
X87345001Y-100808072D01*
X87518255Y-100791008D01*
X87684851Y-100740472D01*
X87838387Y-100658405D01*
X87972962Y-100547962D01*
X88083405Y-100413387D01*
X88165472Y-100259851D01*
X88216008Y-100093255D01*
X88233072Y-99920001D01*
X88233072Y-98679999D01*
X88216008Y-98506745D01*
X88165472Y-98340149D01*
X88083405Y-98186613D01*
X87972962Y-98052038D01*
X87838387Y-97941595D01*
X87728886Y-97883066D01*
X87794345Y-97829345D01*
X87982417Y-97600179D01*
X88122166Y-97338725D01*
X88208224Y-97055032D01*
X88237282Y-96760000D01*
X88208224Y-96464968D01*
X88122166Y-96181275D01*
X87982417Y-95919821D01*
X87794345Y-95690655D01*
X87565179Y-95502583D01*
X87541638Y-95490000D01*
X87565179Y-95477417D01*
X87794345Y-95289345D01*
X87982417Y-95060179D01*
X88122166Y-94798725D01*
X88208224Y-94515032D01*
X88237282Y-94220000D01*
X88208224Y-93924968D01*
X88122166Y-93641275D01*
X87982417Y-93379821D01*
X87794345Y-93150655D01*
X87565179Y-92962583D01*
X87541638Y-92950000D01*
X87565179Y-92937417D01*
X87794345Y-92749345D01*
X87982417Y-92520179D01*
X88122166Y-92258725D01*
X88208224Y-91975032D01*
X88237282Y-91680000D01*
X88208224Y-91384968D01*
X88122166Y-91101275D01*
X87982417Y-90839821D01*
X87794345Y-90610655D01*
X87565179Y-90422583D01*
X87536848Y-90407440D01*
X87677433Y-90314708D01*
X87888306Y-90106326D01*
X88054474Y-89860809D01*
X88169551Y-89587591D01*
X88186302Y-89500031D01*
X88065246Y-89267000D01*
X86627000Y-89267000D01*
X86627000Y-89287000D01*
X86373000Y-89287000D01*
X86373000Y-89267000D01*
X86353000Y-89267000D01*
X86353000Y-89013000D01*
X86373000Y-89013000D01*
X86373000Y-87789624D01*
X86627000Y-87789624D01*
X86627000Y-89013000D01*
X88065246Y-89013000D01*
X88186302Y-88779969D01*
X88169551Y-88692409D01*
X88054474Y-88419191D01*
X87888306Y-88173674D01*
X87677433Y-87965292D01*
X87429958Y-87802053D01*
X87155392Y-87690231D01*
X86864286Y-87634123D01*
X86627000Y-87789624D01*
X86373000Y-87789624D01*
X86135714Y-87634123D01*
X85844608Y-87690231D01*
X85839990Y-87692112D01*
X85839990Y-84409040D01*
X87608091Y-84409040D01*
X87702930Y-84673881D01*
X87847615Y-84915131D01*
X88036586Y-85123519D01*
X88262580Y-85291037D01*
X88516913Y-85411246D01*
X88650961Y-85451904D01*
X88873000Y-85329915D01*
X88873000Y-84187000D01*
X89127000Y-84187000D01*
X89127000Y-85329915D01*
X89349039Y-85451904D01*
X89483087Y-85411246D01*
X89737420Y-85291037D01*
X89963414Y-85123519D01*
X90152385Y-84915131D01*
X90297070Y-84673881D01*
X90391909Y-84409040D01*
X90270624Y-84187000D01*
X89127000Y-84187000D01*
X88873000Y-84187000D01*
X87729376Y-84187000D01*
X87608091Y-84409040D01*
X85839990Y-84409040D01*
X85839990Y-83710960D01*
X87608091Y-83710960D01*
X87729376Y-83933000D01*
X88873000Y-83933000D01*
X88873000Y-82790085D01*
X89127000Y-82790085D01*
X89127000Y-83933000D01*
X90270624Y-83933000D01*
X90391909Y-83710960D01*
X90297070Y-83446119D01*
X90152385Y-83204869D01*
X89963414Y-82996481D01*
X89737420Y-82828963D01*
X89483087Y-82708754D01*
X89349039Y-82668096D01*
X89127000Y-82790085D01*
X88873000Y-82790085D01*
X88650961Y-82668096D01*
X88516913Y-82708754D01*
X88262580Y-82828963D01*
X88036586Y-82996481D01*
X87847615Y-83204869D01*
X87702930Y-83446119D01*
X87608091Y-83710960D01*
X85839990Y-83710960D01*
X85839990Y-73758665D01*
X87565000Y-73758665D01*
X87565000Y-74041335D01*
X87620147Y-74318574D01*
X87728320Y-74579727D01*
X87885363Y-74814759D01*
X88085241Y-75014637D01*
X88320273Y-75171680D01*
X88581426Y-75279853D01*
X88858665Y-75335000D01*
X89141335Y-75335000D01*
X89418574Y-75279853D01*
X89679727Y-75171680D01*
X89914759Y-75014637D01*
X90114637Y-74814759D01*
X90271680Y-74579727D01*
X90379853Y-74318574D01*
X90435000Y-74041335D01*
X90435000Y-73758665D01*
X90379853Y-73481426D01*
X90271680Y-73220273D01*
X90114637Y-72985241D01*
X89914759Y-72785363D01*
X89679727Y-72628320D01*
X89418574Y-72520147D01*
X89141335Y-72465000D01*
X88858665Y-72465000D01*
X88581426Y-72520147D01*
X88320273Y-72628320D01*
X88085241Y-72785363D01*
X87885363Y-72985241D01*
X87728320Y-73220273D01*
X87620147Y-73481426D01*
X87565000Y-73758665D01*
X85839990Y-73758665D01*
X85839990Y-71917245D01*
X86243236Y-71513999D01*
X86348816Y-71535000D01*
X86651184Y-71535000D01*
X86947743Y-71476011D01*
X87227095Y-71360299D01*
X87478505Y-71192312D01*
X87516120Y-71154697D01*
X87569463Y-71254494D01*
X87648815Y-71351185D01*
X87745506Y-71430537D01*
X87855820Y-71489502D01*
X87975518Y-71525812D01*
X88100000Y-71538072D01*
X89900000Y-71538072D01*
X90024482Y-71525812D01*
X90144180Y-71489502D01*
X90254494Y-71430537D01*
X90351185Y-71351185D01*
X90430537Y-71254494D01*
X90489502Y-71144180D01*
X90525812Y-71024482D01*
X90538072Y-70900000D01*
X90538072Y-69100000D01*
X90525812Y-68975518D01*
X90489502Y-68855820D01*
X90430537Y-68745506D01*
X90351185Y-68648815D01*
X90254494Y-68569463D01*
X90144180Y-68510498D01*
X90024482Y-68474188D01*
X89900000Y-68461928D01*
X88100000Y-68461928D01*
X87975518Y-68474188D01*
X87855820Y-68510498D01*
X87745506Y-68569463D01*
X87648815Y-68648815D01*
X87569463Y-68745506D01*
X87516120Y-68845303D01*
X87478505Y-68807688D01*
X87227095Y-68639701D01*
X86947743Y-68523989D01*
X86651184Y-68465000D01*
X86348816Y-68465000D01*
X86052257Y-68523989D01*
X85772905Y-68639701D01*
X85521495Y-68807688D01*
X85307688Y-69021495D01*
X85250000Y-69107831D01*
X85192312Y-69021495D01*
X84978505Y-68807688D01*
X84727095Y-68639701D01*
X84447743Y-68523989D01*
X84151184Y-68465000D01*
X83848816Y-68465000D01*
X83552257Y-68523989D01*
X83272905Y-68639701D01*
X83021495Y-68807688D01*
X82807688Y-69021495D01*
X82639701Y-69272905D01*
X82523989Y-69552257D01*
X82465000Y-69848816D01*
X75660000Y-69848816D01*
X75660000Y-62142003D01*
X79705000Y-62142003D01*
X79705000Y-62857998D01*
X79733867Y-63151088D01*
X79847943Y-63527147D01*
X80033193Y-63873725D01*
X80282498Y-64177503D01*
X80586276Y-64426807D01*
X80932854Y-64612057D01*
X81308913Y-64726133D01*
X81700000Y-64764652D01*
X82091088Y-64726133D01*
X82467147Y-64612057D01*
X82813725Y-64426807D01*
X83117503Y-64177503D01*
X83366807Y-63873725D01*
X83552057Y-63527147D01*
X83666133Y-63151087D01*
X83695000Y-62857997D01*
X83695000Y-62142003D01*
X89305000Y-62142003D01*
X89305000Y-62857998D01*
X89333867Y-63151088D01*
X89447943Y-63527147D01*
X89633193Y-63873725D01*
X89882498Y-64177503D01*
X90186276Y-64426807D01*
X90532854Y-64612057D01*
X90908913Y-64726133D01*
X91300000Y-64764652D01*
X91691088Y-64726133D01*
X92067147Y-64612057D01*
X92413725Y-64426807D01*
X92717503Y-64177503D01*
X92966807Y-63873725D01*
X93152057Y-63527147D01*
X93266133Y-63151087D01*
X93295000Y-62857997D01*
X93295000Y-62142002D01*
X93266133Y-61848912D01*
X93152057Y-61472853D01*
X92966807Y-61126275D01*
X92717503Y-60822497D01*
X92413725Y-60573193D01*
X92067146Y-60387943D01*
X91691087Y-60273867D01*
X91300000Y-60235348D01*
X90908912Y-60273867D01*
X90532853Y-60387943D01*
X90186275Y-60573193D01*
X89882497Y-60822497D01*
X89633193Y-61126275D01*
X89447943Y-61472854D01*
X89333867Y-61848913D01*
X89305000Y-62142003D01*
X83695000Y-62142003D01*
X83695000Y-62142002D01*
X83666133Y-61848912D01*
X83552057Y-61472853D01*
X83366807Y-61126275D01*
X83117503Y-60822497D01*
X82813725Y-60573193D01*
X82467146Y-60387943D01*
X82091087Y-60273867D01*
X81700000Y-60235348D01*
X81308912Y-60273867D01*
X80932853Y-60387943D01*
X80586275Y-60573193D01*
X80282497Y-60822497D01*
X80033193Y-61126275D01*
X79847943Y-61472854D01*
X79733867Y-61848913D01*
X79705000Y-62142003D01*
X75660000Y-62142003D01*
X75660000Y-52660000D01*
X97340001Y-52660000D01*
X97340000Y-135340000D01*
G37*
%TD.AperFunction*%
%TD*%
M02*
