%TF.GenerationSoftware,KiCad,Pcbnew,5.1.10-88a1d61d58~90~ubuntu21.04.1*%
%TF.CreationDate,2021-09-12T11:52:23+02:00*%
%TF.ProjectId,control,636f6e74-726f-46c2-9e6b-696361645f70,v0.0.2*%
%TF.SameCoordinates,Original*%
%TF.FileFunction,Legend,Top*%
%TF.FilePolarity,Positive*%
%FSLAX46Y46*%
G04 Gerber Fmt 4.6, Leading zero omitted, Abs format (unit mm)*
G04 Created by KiCad (PCBNEW 5.1.10-88a1d61d58~90~ubuntu21.04.1) date 2021-09-12 11:52:23*
%MOMM*%
%LPD*%
G01*
G04 APERTURE LIST*
%ADD10C,0.100000*%
%ADD11C,0.010000*%
%ADD12C,0.120000*%
%ADD13C,0.150000*%
G04 APERTURE END LIST*
D10*
X96335714Y-130442857D02*
X96373809Y-130480952D01*
X96411904Y-130595238D01*
X96411904Y-130671428D01*
X96373809Y-130785714D01*
X96297619Y-130861904D01*
X96221428Y-130900000D01*
X96069047Y-130938095D01*
X95954761Y-130938095D01*
X95802380Y-130900000D01*
X95726190Y-130861904D01*
X95650000Y-130785714D01*
X95611904Y-130671428D01*
X95611904Y-130595238D01*
X95650000Y-130480952D01*
X95688095Y-130442857D01*
X96411904Y-129985714D02*
X96373809Y-130061904D01*
X96335714Y-130100000D01*
X96259523Y-130138095D01*
X96030952Y-130138095D01*
X95954761Y-130100000D01*
X95916666Y-130061904D01*
X95878571Y-129985714D01*
X95878571Y-129871428D01*
X95916666Y-129795238D01*
X95954761Y-129757142D01*
X96030952Y-129719047D01*
X96259523Y-129719047D01*
X96335714Y-129757142D01*
X96373809Y-129795238D01*
X96411904Y-129871428D01*
X96411904Y-129985714D01*
X95878571Y-129376190D02*
X96411904Y-129376190D01*
X95954761Y-129376190D02*
X95916666Y-129338095D01*
X95878571Y-129261904D01*
X95878571Y-129147619D01*
X95916666Y-129071428D01*
X95992857Y-129033333D01*
X96411904Y-129033333D01*
X95878571Y-128766666D02*
X95878571Y-128461904D01*
X95611904Y-128652380D02*
X96297619Y-128652380D01*
X96373809Y-128614285D01*
X96411904Y-128538095D01*
X96411904Y-128461904D01*
X96411904Y-128195238D02*
X95878571Y-128195238D01*
X96030952Y-128195238D02*
X95954761Y-128157142D01*
X95916666Y-128119047D01*
X95878571Y-128042857D01*
X95878571Y-127966666D01*
X96411904Y-127585714D02*
X96373809Y-127661904D01*
X96335714Y-127700000D01*
X96259523Y-127738095D01*
X96030952Y-127738095D01*
X95954761Y-127700000D01*
X95916666Y-127661904D01*
X95878571Y-127585714D01*
X95878571Y-127471428D01*
X95916666Y-127395238D01*
X95954761Y-127357142D01*
X96030952Y-127319047D01*
X96259523Y-127319047D01*
X96335714Y-127357142D01*
X96373809Y-127395238D01*
X96411904Y-127471428D01*
X96411904Y-127585714D01*
X96411904Y-126861904D02*
X96373809Y-126938095D01*
X96297619Y-126976190D01*
X95611904Y-126976190D01*
X96411904Y-125947619D02*
X95611904Y-125947619D01*
X95916666Y-125947619D02*
X95878571Y-125871428D01*
X95878571Y-125719047D01*
X95916666Y-125642857D01*
X95954761Y-125604761D01*
X96030952Y-125566666D01*
X96259523Y-125566666D01*
X96335714Y-125604761D01*
X96373809Y-125642857D01*
X96411904Y-125719047D01*
X96411904Y-125871428D01*
X96373809Y-125947619D01*
X96411904Y-125109523D02*
X96373809Y-125185714D01*
X96335714Y-125223809D01*
X96259523Y-125261904D01*
X96030952Y-125261904D01*
X95954761Y-125223809D01*
X95916666Y-125185714D01*
X95878571Y-125109523D01*
X95878571Y-124995238D01*
X95916666Y-124919047D01*
X95954761Y-124880952D01*
X96030952Y-124842857D01*
X96259523Y-124842857D01*
X96335714Y-124880952D01*
X96373809Y-124919047D01*
X96411904Y-124995238D01*
X96411904Y-125109523D01*
X96411904Y-124157142D02*
X95992857Y-124157142D01*
X95916666Y-124195238D01*
X95878571Y-124271428D01*
X95878571Y-124423809D01*
X95916666Y-124500000D01*
X96373809Y-124157142D02*
X96411904Y-124233333D01*
X96411904Y-124423809D01*
X96373809Y-124500000D01*
X96297619Y-124538095D01*
X96221428Y-124538095D01*
X96145238Y-124500000D01*
X96107142Y-124423809D01*
X96107142Y-124233333D01*
X96069047Y-124157142D01*
X96411904Y-123776190D02*
X95878571Y-123776190D01*
X96030952Y-123776190D02*
X95954761Y-123738095D01*
X95916666Y-123700000D01*
X95878571Y-123623809D01*
X95878571Y-123547619D01*
X96411904Y-122938095D02*
X95611904Y-122938095D01*
X96373809Y-122938095D02*
X96411904Y-123014285D01*
X96411904Y-123166666D01*
X96373809Y-123242857D01*
X96335714Y-123280952D01*
X96259523Y-123319047D01*
X96030952Y-123319047D01*
X95954761Y-123280952D01*
X95916666Y-123242857D01*
X95878571Y-123166666D01*
X95878571Y-123014285D01*
X95916666Y-122938095D01*
X95611904Y-122061904D02*
X96411904Y-121795238D01*
X95611904Y-121528571D01*
X96335714Y-120804761D02*
X96373809Y-120842857D01*
X96411904Y-120957142D01*
X96411904Y-121033333D01*
X96373809Y-121147619D01*
X96297619Y-121223809D01*
X96221428Y-121261904D01*
X96069047Y-121300000D01*
X95954761Y-121300000D01*
X95802380Y-121261904D01*
X95726190Y-121223809D01*
X95650000Y-121147619D01*
X95611904Y-121033333D01*
X95611904Y-120957142D01*
X95650000Y-120842857D01*
X95688095Y-120804761D01*
X95992857Y-120195238D02*
X95992857Y-120461904D01*
X96411904Y-120461904D02*
X95611904Y-120461904D01*
X95611904Y-120080952D01*
X96107142Y-119776190D02*
X96107142Y-119166666D01*
X95611904Y-118861904D02*
X95611904Y-118366666D01*
X95916666Y-118633333D01*
X95916666Y-118519047D01*
X95954761Y-118442857D01*
X95992857Y-118404761D01*
X96069047Y-118366666D01*
X96259523Y-118366666D01*
X96335714Y-118404761D01*
X96373809Y-118442857D01*
X96411904Y-118519047D01*
X96411904Y-118747619D01*
X96373809Y-118823809D01*
X96335714Y-118861904D01*
X95611904Y-118100000D02*
X95611904Y-117604761D01*
X95916666Y-117871428D01*
X95916666Y-117757142D01*
X95954761Y-117680952D01*
X95992857Y-117642857D01*
X96069047Y-117604761D01*
X96259523Y-117604761D01*
X96335714Y-117642857D01*
X96373809Y-117680952D01*
X96411904Y-117757142D01*
X96411904Y-117985714D01*
X96373809Y-118061904D01*
X96335714Y-118100000D01*
X95611904Y-116880952D02*
X95611904Y-117261904D01*
X95992857Y-117300000D01*
X95954761Y-117261904D01*
X95916666Y-117185714D01*
X95916666Y-116995238D01*
X95954761Y-116919047D01*
X95992857Y-116880952D01*
X96069047Y-116842857D01*
X96259523Y-116842857D01*
X96335714Y-116880952D01*
X96373809Y-116919047D01*
X96411904Y-116995238D01*
X96411904Y-117185714D01*
X96373809Y-117261904D01*
X96335714Y-117300000D01*
X95611904Y-116347619D02*
X95611904Y-116271428D01*
X95650000Y-116195238D01*
X95688095Y-116157142D01*
X95764285Y-116119047D01*
X95916666Y-116080952D01*
X96107142Y-116080952D01*
X96259523Y-116119047D01*
X96335714Y-116157142D01*
X96373809Y-116195238D01*
X96411904Y-116271428D01*
X96411904Y-116347619D01*
X96373809Y-116423809D01*
X96335714Y-116461904D01*
X96259523Y-116500000D01*
X96107142Y-116538095D01*
X95916666Y-116538095D01*
X95764285Y-116500000D01*
X95688095Y-116461904D01*
X95650000Y-116423809D01*
X95611904Y-116347619D01*
X96107142Y-115738095D02*
X96107142Y-115128571D01*
X95954761Y-114633333D02*
X95916666Y-114709523D01*
X95878571Y-114747619D01*
X95802380Y-114785714D01*
X95764285Y-114785714D01*
X95688095Y-114747619D01*
X95650000Y-114709523D01*
X95611904Y-114633333D01*
X95611904Y-114480952D01*
X95650000Y-114404761D01*
X95688095Y-114366666D01*
X95764285Y-114328571D01*
X95802380Y-114328571D01*
X95878571Y-114366666D01*
X95916666Y-114404761D01*
X95954761Y-114480952D01*
X95954761Y-114633333D01*
X95992857Y-114709523D01*
X96030952Y-114747619D01*
X96107142Y-114785714D01*
X96259523Y-114785714D01*
X96335714Y-114747619D01*
X96373809Y-114709523D01*
X96411904Y-114633333D01*
X96411904Y-114480952D01*
X96373809Y-114404761D01*
X96335714Y-114366666D01*
X96259523Y-114328571D01*
X96107142Y-114328571D01*
X96030952Y-114366666D01*
X95992857Y-114404761D01*
X95954761Y-114480952D01*
X95878571Y-113452380D02*
X96411904Y-113261904D01*
X95878571Y-113071428D01*
X95611904Y-112614285D02*
X95611904Y-112538095D01*
X95650000Y-112461904D01*
X95688095Y-112423809D01*
X95764285Y-112385714D01*
X95916666Y-112347619D01*
X96107142Y-112347619D01*
X96259523Y-112385714D01*
X96335714Y-112423809D01*
X96373809Y-112461904D01*
X96411904Y-112538095D01*
X96411904Y-112614285D01*
X96373809Y-112690476D01*
X96335714Y-112728571D01*
X96259523Y-112766666D01*
X96107142Y-112804761D01*
X95916666Y-112804761D01*
X95764285Y-112766666D01*
X95688095Y-112728571D01*
X95650000Y-112690476D01*
X95611904Y-112614285D01*
X96335714Y-112004761D02*
X96373809Y-111966666D01*
X96411904Y-112004761D01*
X96373809Y-112042857D01*
X96335714Y-112004761D01*
X96411904Y-112004761D01*
X95611904Y-111471428D02*
X95611904Y-111395238D01*
X95650000Y-111319047D01*
X95688095Y-111280952D01*
X95764285Y-111242857D01*
X95916666Y-111204761D01*
X96107142Y-111204761D01*
X96259523Y-111242857D01*
X96335714Y-111280952D01*
X96373809Y-111319047D01*
X96411904Y-111395238D01*
X96411904Y-111471428D01*
X96373809Y-111547619D01*
X96335714Y-111585714D01*
X96259523Y-111623809D01*
X96107142Y-111661904D01*
X95916666Y-111661904D01*
X95764285Y-111623809D01*
X95688095Y-111585714D01*
X95650000Y-111547619D01*
X95611904Y-111471428D01*
X96335714Y-110861904D02*
X96373809Y-110823809D01*
X96411904Y-110861904D01*
X96373809Y-110900000D01*
X96335714Y-110861904D01*
X96411904Y-110861904D01*
X95688095Y-110519047D02*
X95650000Y-110480952D01*
X95611904Y-110404761D01*
X95611904Y-110214285D01*
X95650000Y-110138095D01*
X95688095Y-110100000D01*
X95764285Y-110061904D01*
X95840476Y-110061904D01*
X95954761Y-110100000D01*
X96411904Y-110557142D01*
X96411904Y-110061904D01*
X96911904Y-125509523D02*
X97483333Y-125509523D01*
X97597619Y-125547619D01*
X97673809Y-125623809D01*
X97711904Y-125738095D01*
X97711904Y-125814285D01*
X97711904Y-124785714D02*
X97292857Y-124785714D01*
X97216666Y-124823809D01*
X97178571Y-124900000D01*
X97178571Y-125052380D01*
X97216666Y-125128571D01*
X97673809Y-124785714D02*
X97711904Y-124861904D01*
X97711904Y-125052380D01*
X97673809Y-125128571D01*
X97597619Y-125166666D01*
X97521428Y-125166666D01*
X97445238Y-125128571D01*
X97407142Y-125052380D01*
X97407142Y-124861904D01*
X97369047Y-124785714D01*
X97178571Y-124404761D02*
X97711904Y-124404761D01*
X97254761Y-124404761D02*
X97216666Y-124366666D01*
X97178571Y-124290476D01*
X97178571Y-124176190D01*
X97216666Y-124100000D01*
X97292857Y-124061904D01*
X97711904Y-124061904D01*
X97711904Y-123071428D02*
X96911904Y-123071428D01*
X97711904Y-122614285D02*
X97254761Y-122957142D01*
X96911904Y-122614285D02*
X97369047Y-123071428D01*
X97178571Y-122271428D02*
X97711904Y-122271428D01*
X97254761Y-122271428D02*
X97216666Y-122233333D01*
X97178571Y-122157142D01*
X97178571Y-122042857D01*
X97216666Y-121966666D01*
X97292857Y-121928571D01*
X97711904Y-121928571D01*
X97711904Y-121547619D02*
X97178571Y-121547619D01*
X96911904Y-121547619D02*
X96950000Y-121585714D01*
X96988095Y-121547619D01*
X96950000Y-121509523D01*
X96911904Y-121547619D01*
X96988095Y-121547619D01*
X97178571Y-121166666D02*
X97978571Y-121166666D01*
X97216666Y-121166666D02*
X97178571Y-121090476D01*
X97178571Y-120938095D01*
X97216666Y-120861904D01*
X97254761Y-120823809D01*
X97330952Y-120785714D01*
X97559523Y-120785714D01*
X97635714Y-120823809D01*
X97673809Y-120861904D01*
X97711904Y-120938095D01*
X97711904Y-121090476D01*
X97673809Y-121166666D01*
X97178571Y-120442857D02*
X97978571Y-120442857D01*
X97216666Y-120442857D02*
X97178571Y-120366666D01*
X97178571Y-120214285D01*
X97216666Y-120138095D01*
X97254761Y-120100000D01*
X97330952Y-120061904D01*
X97559523Y-120061904D01*
X97635714Y-120100000D01*
X97673809Y-120138095D01*
X97711904Y-120214285D01*
X97711904Y-120366666D01*
X97673809Y-120442857D01*
X97673809Y-119414285D02*
X97711904Y-119490476D01*
X97711904Y-119642857D01*
X97673809Y-119719047D01*
X97597619Y-119757142D01*
X97292857Y-119757142D01*
X97216666Y-119719047D01*
X97178571Y-119642857D01*
X97178571Y-119490476D01*
X97216666Y-119414285D01*
X97292857Y-119376190D01*
X97369047Y-119376190D01*
X97445238Y-119757142D01*
X97711904Y-119033333D02*
X97178571Y-119033333D01*
X97330952Y-119033333D02*
X97254761Y-118995238D01*
X97216666Y-118957142D01*
X97178571Y-118880952D01*
X97178571Y-118804761D01*
X96988095Y-117966666D02*
X96950000Y-117928571D01*
X96911904Y-117852380D01*
X96911904Y-117661904D01*
X96950000Y-117585714D01*
X96988095Y-117547619D01*
X97064285Y-117509523D01*
X97140476Y-117509523D01*
X97254761Y-117547619D01*
X97711904Y-118004761D01*
X97711904Y-117509523D01*
X96911904Y-117014285D02*
X96911904Y-116938095D01*
X96950000Y-116861904D01*
X96988095Y-116823809D01*
X97064285Y-116785714D01*
X97216666Y-116747619D01*
X97407142Y-116747619D01*
X97559523Y-116785714D01*
X97635714Y-116823809D01*
X97673809Y-116861904D01*
X97711904Y-116938095D01*
X97711904Y-117014285D01*
X97673809Y-117090476D01*
X97635714Y-117128571D01*
X97559523Y-117166666D01*
X97407142Y-117204761D01*
X97216666Y-117204761D01*
X97064285Y-117166666D01*
X96988095Y-117128571D01*
X96950000Y-117090476D01*
X96911904Y-117014285D01*
X96988095Y-116442857D02*
X96950000Y-116404761D01*
X96911904Y-116328571D01*
X96911904Y-116138095D01*
X96950000Y-116061904D01*
X96988095Y-116023809D01*
X97064285Y-115985714D01*
X97140476Y-115985714D01*
X97254761Y-116023809D01*
X97711904Y-116480952D01*
X97711904Y-115985714D01*
X97711904Y-115223809D02*
X97711904Y-115680952D01*
X97711904Y-115452380D02*
X96911904Y-115452380D01*
X97026190Y-115528571D01*
X97102380Y-115604761D01*
X97140476Y-115680952D01*
X98478571Y-125661904D02*
X99126190Y-125661904D01*
X99202380Y-125700000D01*
X99240476Y-125738095D01*
X99278571Y-125814285D01*
X99278571Y-125928571D01*
X99240476Y-126004761D01*
X98973809Y-125661904D02*
X99011904Y-125738095D01*
X99011904Y-125890476D01*
X98973809Y-125966666D01*
X98935714Y-126004761D01*
X98859523Y-126042857D01*
X98630952Y-126042857D01*
X98554761Y-126004761D01*
X98516666Y-125966666D01*
X98478571Y-125890476D01*
X98478571Y-125738095D01*
X98516666Y-125661904D01*
X99011904Y-125280952D02*
X98478571Y-125280952D01*
X98211904Y-125280952D02*
X98250000Y-125319047D01*
X98288095Y-125280952D01*
X98250000Y-125242857D01*
X98211904Y-125280952D01*
X98288095Y-125280952D01*
X98478571Y-125014285D02*
X98478571Y-124709523D01*
X98211904Y-124900000D02*
X98897619Y-124900000D01*
X98973809Y-124861904D01*
X99011904Y-124785714D01*
X99011904Y-124709523D01*
X99011904Y-124442857D02*
X98211904Y-124442857D01*
X99011904Y-124100000D02*
X98592857Y-124100000D01*
X98516666Y-124138095D01*
X98478571Y-124214285D01*
X98478571Y-124328571D01*
X98516666Y-124404761D01*
X98554761Y-124442857D01*
X98478571Y-123376190D02*
X99011904Y-123376190D01*
X98478571Y-123719047D02*
X98897619Y-123719047D01*
X98973809Y-123680952D01*
X99011904Y-123604761D01*
X99011904Y-123490476D01*
X98973809Y-123414285D01*
X98935714Y-123376190D01*
X99011904Y-122995238D02*
X98211904Y-122995238D01*
X98516666Y-122995238D02*
X98478571Y-122919047D01*
X98478571Y-122766666D01*
X98516666Y-122690476D01*
X98554761Y-122652380D01*
X98630952Y-122614285D01*
X98859523Y-122614285D01*
X98935714Y-122652380D01*
X98973809Y-122690476D01*
X99011904Y-122766666D01*
X99011904Y-122919047D01*
X98973809Y-122995238D01*
X98935714Y-122271428D02*
X98973809Y-122233333D01*
X99011904Y-122271428D01*
X98973809Y-122309523D01*
X98935714Y-122271428D01*
X99011904Y-122271428D01*
X98973809Y-121547619D02*
X99011904Y-121623809D01*
X99011904Y-121776190D01*
X98973809Y-121852380D01*
X98935714Y-121890476D01*
X98859523Y-121928571D01*
X98630952Y-121928571D01*
X98554761Y-121890476D01*
X98516666Y-121852380D01*
X98478571Y-121776190D01*
X98478571Y-121623809D01*
X98516666Y-121547619D01*
X99011904Y-121090476D02*
X98973809Y-121166666D01*
X98935714Y-121204761D01*
X98859523Y-121242857D01*
X98630952Y-121242857D01*
X98554761Y-121204761D01*
X98516666Y-121166666D01*
X98478571Y-121090476D01*
X98478571Y-120976190D01*
X98516666Y-120900000D01*
X98554761Y-120861904D01*
X98630952Y-120823809D01*
X98859523Y-120823809D01*
X98935714Y-120861904D01*
X98973809Y-120900000D01*
X99011904Y-120976190D01*
X99011904Y-121090476D01*
X99011904Y-120480952D02*
X98478571Y-120480952D01*
X98554761Y-120480952D02*
X98516666Y-120442857D01*
X98478571Y-120366666D01*
X98478571Y-120252380D01*
X98516666Y-120176190D01*
X98592857Y-120138095D01*
X99011904Y-120138095D01*
X98592857Y-120138095D02*
X98516666Y-120100000D01*
X98478571Y-120023809D01*
X98478571Y-119909523D01*
X98516666Y-119833333D01*
X98592857Y-119795238D01*
X99011904Y-119795238D01*
X98173809Y-118842857D02*
X99202380Y-119528571D01*
X98478571Y-118576190D02*
X99278571Y-118576190D01*
X98516666Y-118576190D02*
X98478571Y-118500000D01*
X98478571Y-118347619D01*
X98516666Y-118271428D01*
X98554761Y-118233333D01*
X98630952Y-118195238D01*
X98859523Y-118195238D01*
X98935714Y-118233333D01*
X98973809Y-118271428D01*
X99011904Y-118347619D01*
X99011904Y-118500000D01*
X98973809Y-118576190D01*
X99011904Y-117738095D02*
X98973809Y-117814285D01*
X98935714Y-117852380D01*
X98859523Y-117890476D01*
X98630952Y-117890476D01*
X98554761Y-117852380D01*
X98516666Y-117814285D01*
X98478571Y-117738095D01*
X98478571Y-117623809D01*
X98516666Y-117547619D01*
X98554761Y-117509523D01*
X98630952Y-117471428D01*
X98859523Y-117471428D01*
X98935714Y-117509523D01*
X98973809Y-117547619D01*
X99011904Y-117623809D01*
X99011904Y-117738095D01*
X99011904Y-117014285D02*
X98973809Y-117090476D01*
X98897619Y-117128571D01*
X98211904Y-117128571D01*
X98478571Y-116785714D02*
X99011904Y-116595238D01*
X98478571Y-116404761D02*
X99011904Y-116595238D01*
X99202380Y-116671428D01*
X99240476Y-116709523D01*
X99278571Y-116785714D01*
X99011904Y-116100000D02*
X98211904Y-116100000D01*
X98707142Y-116023809D02*
X99011904Y-115795238D01*
X98478571Y-115795238D02*
X98783333Y-116100000D01*
X99011904Y-115452380D02*
X98478571Y-115452380D01*
X98211904Y-115452380D02*
X98250000Y-115490476D01*
X98288095Y-115452380D01*
X98250000Y-115414285D01*
X98211904Y-115452380D01*
X98288095Y-115452380D01*
X98478571Y-115185714D02*
X98478571Y-114880952D01*
X98211904Y-115071428D02*
X98897619Y-115071428D01*
X98973809Y-115033333D01*
X99011904Y-114957142D01*
X99011904Y-114880952D01*
X99511904Y-131814285D02*
X99702380Y-131814285D01*
X99626190Y-132004761D02*
X99702380Y-131814285D01*
X99626190Y-131623809D01*
X99854761Y-131928571D02*
X99702380Y-131814285D01*
X99854761Y-131700000D01*
X100273809Y-130976190D02*
X100311904Y-131052380D01*
X100311904Y-131204761D01*
X100273809Y-131280952D01*
X100235714Y-131319047D01*
X100159523Y-131357142D01*
X99930952Y-131357142D01*
X99854761Y-131319047D01*
X99816666Y-131280952D01*
X99778571Y-131204761D01*
X99778571Y-131052380D01*
X99816666Y-130976190D01*
X100311904Y-130290476D02*
X99892857Y-130290476D01*
X99816666Y-130328571D01*
X99778571Y-130404761D01*
X99778571Y-130557142D01*
X99816666Y-130633333D01*
X100273809Y-130290476D02*
X100311904Y-130366666D01*
X100311904Y-130557142D01*
X100273809Y-130633333D01*
X100197619Y-130671428D01*
X100121428Y-130671428D01*
X100045238Y-130633333D01*
X100007142Y-130557142D01*
X100007142Y-130366666D01*
X99969047Y-130290476D01*
X99778571Y-129909523D02*
X100311904Y-129909523D01*
X99854761Y-129909523D02*
X99816666Y-129871428D01*
X99778571Y-129795238D01*
X99778571Y-129680952D01*
X99816666Y-129604761D01*
X99892857Y-129566666D01*
X100311904Y-129566666D01*
X100311904Y-128576190D02*
X99511904Y-128576190D01*
X99816666Y-128576190D02*
X99778571Y-128500000D01*
X99778571Y-128347619D01*
X99816666Y-128271428D01*
X99854761Y-128233333D01*
X99930952Y-128195238D01*
X100159523Y-128195238D01*
X100235714Y-128233333D01*
X100273809Y-128271428D01*
X100311904Y-128347619D01*
X100311904Y-128500000D01*
X100273809Y-128576190D01*
X100273809Y-127547619D02*
X100311904Y-127623809D01*
X100311904Y-127776190D01*
X100273809Y-127852380D01*
X100197619Y-127890476D01*
X99892857Y-127890476D01*
X99816666Y-127852380D01*
X99778571Y-127776190D01*
X99778571Y-127623809D01*
X99816666Y-127547619D01*
X99892857Y-127509523D01*
X99969047Y-127509523D01*
X100045238Y-127890476D01*
X100311904Y-126557142D02*
X99511904Y-126557142D01*
X99816666Y-126557142D02*
X99778571Y-126480952D01*
X99778571Y-126328571D01*
X99816666Y-126252380D01*
X99854761Y-126214285D01*
X99930952Y-126176190D01*
X100159523Y-126176190D01*
X100235714Y-126214285D01*
X100273809Y-126252380D01*
X100311904Y-126328571D01*
X100311904Y-126480952D01*
X100273809Y-126557142D01*
X100311904Y-125833333D02*
X99778571Y-125833333D01*
X99930952Y-125833333D02*
X99854761Y-125795238D01*
X99816666Y-125757142D01*
X99778571Y-125680952D01*
X99778571Y-125604761D01*
X100311904Y-125338095D02*
X99778571Y-125338095D01*
X99511904Y-125338095D02*
X99550000Y-125376190D01*
X99588095Y-125338095D01*
X99550000Y-125300000D01*
X99511904Y-125338095D01*
X99588095Y-125338095D01*
X100311904Y-124614285D02*
X99511904Y-124614285D01*
X100273809Y-124614285D02*
X100311904Y-124690476D01*
X100311904Y-124842857D01*
X100273809Y-124919047D01*
X100235714Y-124957142D01*
X100159523Y-124995238D01*
X99930952Y-124995238D01*
X99854761Y-124957142D01*
X99816666Y-124919047D01*
X99778571Y-124842857D01*
X99778571Y-124690476D01*
X99816666Y-124614285D01*
X99778571Y-123890476D02*
X100426190Y-123890476D01*
X100502380Y-123928571D01*
X100540476Y-123966666D01*
X100578571Y-124042857D01*
X100578571Y-124157142D01*
X100540476Y-124233333D01*
X100273809Y-123890476D02*
X100311904Y-123966666D01*
X100311904Y-124119047D01*
X100273809Y-124195238D01*
X100235714Y-124233333D01*
X100159523Y-124271428D01*
X99930952Y-124271428D01*
X99854761Y-124233333D01*
X99816666Y-124195238D01*
X99778571Y-124119047D01*
X99778571Y-123966666D01*
X99816666Y-123890476D01*
X100273809Y-123204761D02*
X100311904Y-123280952D01*
X100311904Y-123433333D01*
X100273809Y-123509523D01*
X100197619Y-123547619D01*
X99892857Y-123547619D01*
X99816666Y-123509523D01*
X99778571Y-123433333D01*
X99778571Y-123280952D01*
X99816666Y-123204761D01*
X99892857Y-123166666D01*
X99969047Y-123166666D01*
X100045238Y-123547619D01*
X100311904Y-122480952D02*
X99511904Y-122480952D01*
X100273809Y-122480952D02*
X100311904Y-122557142D01*
X100311904Y-122709523D01*
X100273809Y-122785714D01*
X100235714Y-122823809D01*
X100159523Y-122861904D01*
X99930952Y-122861904D01*
X99854761Y-122823809D01*
X99816666Y-122785714D01*
X99778571Y-122709523D01*
X99778571Y-122557142D01*
X99816666Y-122480952D01*
X100273809Y-122061904D02*
X100311904Y-122061904D01*
X100388095Y-122100000D01*
X100426190Y-122138095D01*
X100311904Y-120766666D02*
X99892857Y-120766666D01*
X99816666Y-120804761D01*
X99778571Y-120880952D01*
X99778571Y-121033333D01*
X99816666Y-121109523D01*
X100273809Y-120766666D02*
X100311904Y-120842857D01*
X100311904Y-121033333D01*
X100273809Y-121109523D01*
X100197619Y-121147619D01*
X100121428Y-121147619D01*
X100045238Y-121109523D01*
X100007142Y-121033333D01*
X100007142Y-120842857D01*
X99969047Y-120766666D01*
X100311904Y-120042857D02*
X99511904Y-120042857D01*
X100273809Y-120042857D02*
X100311904Y-120119047D01*
X100311904Y-120271428D01*
X100273809Y-120347619D01*
X100235714Y-120385714D01*
X100159523Y-120423809D01*
X99930952Y-120423809D01*
X99854761Y-120385714D01*
X99816666Y-120347619D01*
X99778571Y-120271428D01*
X99778571Y-120119047D01*
X99816666Y-120042857D01*
X99778571Y-119661904D02*
X100464285Y-119661904D01*
X100540476Y-119700000D01*
X100578571Y-119776190D01*
X100578571Y-119814285D01*
X99511904Y-119661904D02*
X99550000Y-119700000D01*
X99588095Y-119661904D01*
X99550000Y-119623809D01*
X99511904Y-119661904D01*
X99588095Y-119661904D01*
X99778571Y-118938095D02*
X100311904Y-118938095D01*
X99778571Y-119280952D02*
X100197619Y-119280952D01*
X100273809Y-119242857D01*
X100311904Y-119166666D01*
X100311904Y-119052380D01*
X100273809Y-118976190D01*
X100235714Y-118938095D01*
X100273809Y-118595238D02*
X100311904Y-118519047D01*
X100311904Y-118366666D01*
X100273809Y-118290476D01*
X100197619Y-118252380D01*
X100159523Y-118252380D01*
X100083333Y-118290476D01*
X100045238Y-118366666D01*
X100045238Y-118480952D01*
X100007142Y-118557142D01*
X99930952Y-118595238D01*
X99892857Y-118595238D01*
X99816666Y-118557142D01*
X99778571Y-118480952D01*
X99778571Y-118366666D01*
X99816666Y-118290476D01*
X99778571Y-118023809D02*
X99778571Y-117719047D01*
X99511904Y-117909523D02*
X100197619Y-117909523D01*
X100273809Y-117871428D01*
X100311904Y-117795238D01*
X100311904Y-117719047D01*
X99778571Y-116957142D02*
X99778571Y-116652380D01*
X100311904Y-116842857D02*
X99626190Y-116842857D01*
X99550000Y-116804761D01*
X99511904Y-116728571D01*
X99511904Y-116652380D01*
X100311904Y-116271428D02*
X100273809Y-116347619D01*
X100235714Y-116385714D01*
X100159523Y-116423809D01*
X99930952Y-116423809D01*
X99854761Y-116385714D01*
X99816666Y-116347619D01*
X99778571Y-116271428D01*
X99778571Y-116157142D01*
X99816666Y-116080952D01*
X99854761Y-116042857D01*
X99930952Y-116004761D01*
X100159523Y-116004761D01*
X100235714Y-116042857D01*
X100273809Y-116080952D01*
X100311904Y-116157142D01*
X100311904Y-116271428D01*
X100311904Y-115661904D02*
X99778571Y-115661904D01*
X99930952Y-115661904D02*
X99854761Y-115623809D01*
X99816666Y-115585714D01*
X99778571Y-115509523D01*
X99778571Y-115433333D01*
X99778571Y-114557142D02*
X100578571Y-114557142D01*
X99816666Y-114557142D02*
X99778571Y-114480952D01*
X99778571Y-114328571D01*
X99816666Y-114252380D01*
X99854761Y-114214285D01*
X99930952Y-114176190D01*
X100159523Y-114176190D01*
X100235714Y-114214285D01*
X100273809Y-114252380D01*
X100311904Y-114328571D01*
X100311904Y-114480952D01*
X100273809Y-114557142D01*
X100311904Y-113719047D02*
X100273809Y-113795238D01*
X100235714Y-113833333D01*
X100159523Y-113871428D01*
X99930952Y-113871428D01*
X99854761Y-113833333D01*
X99816666Y-113795238D01*
X99778571Y-113719047D01*
X99778571Y-113604761D01*
X99816666Y-113528571D01*
X99854761Y-113490476D01*
X99930952Y-113452380D01*
X100159523Y-113452380D01*
X100235714Y-113490476D01*
X100273809Y-113528571D01*
X100311904Y-113604761D01*
X100311904Y-113719047D01*
X99778571Y-113223809D02*
X99778571Y-112919047D01*
X99511904Y-113109523D02*
X100197619Y-113109523D01*
X100273809Y-113071428D01*
X100311904Y-112995238D01*
X100311904Y-112919047D01*
X100311904Y-112042857D02*
X99778571Y-112042857D01*
X99930952Y-112042857D02*
X99854761Y-112004761D01*
X99816666Y-111966666D01*
X99778571Y-111890476D01*
X99778571Y-111814285D01*
X100311904Y-111204761D02*
X99892857Y-111204761D01*
X99816666Y-111242857D01*
X99778571Y-111319047D01*
X99778571Y-111471428D01*
X99816666Y-111547619D01*
X100273809Y-111204761D02*
X100311904Y-111280952D01*
X100311904Y-111471428D01*
X100273809Y-111547619D01*
X100197619Y-111585714D01*
X100121428Y-111585714D01*
X100045238Y-111547619D01*
X100007142Y-111471428D01*
X100007142Y-111280952D01*
X99969047Y-111204761D01*
X99778571Y-110823809D02*
X100311904Y-110823809D01*
X99854761Y-110823809D02*
X99816666Y-110785714D01*
X99778571Y-110709523D01*
X99778571Y-110595238D01*
X99816666Y-110519047D01*
X99892857Y-110480952D01*
X100311904Y-110480952D01*
X99778571Y-109757142D02*
X100426190Y-109757142D01*
X100502380Y-109795238D01*
X100540476Y-109833333D01*
X100578571Y-109909523D01*
X100578571Y-110023809D01*
X100540476Y-110100000D01*
X100273809Y-109757142D02*
X100311904Y-109833333D01*
X100311904Y-109985714D01*
X100273809Y-110061904D01*
X100235714Y-110100000D01*
X100159523Y-110138095D01*
X99930952Y-110138095D01*
X99854761Y-110100000D01*
X99816666Y-110061904D01*
X99778571Y-109985714D01*
X99778571Y-109833333D01*
X99816666Y-109757142D01*
X100273809Y-109071428D02*
X100311904Y-109147619D01*
X100311904Y-109300000D01*
X100273809Y-109376190D01*
X100197619Y-109414285D01*
X99892857Y-109414285D01*
X99816666Y-109376190D01*
X99778571Y-109300000D01*
X99778571Y-109147619D01*
X99816666Y-109071428D01*
X99892857Y-109033333D01*
X99969047Y-109033333D01*
X100045238Y-109414285D01*
D11*
%TO.C,G\u002A\u002A\u002A*%
G36*
X74851273Y-59581562D02*
G01*
X74993659Y-59599840D01*
X75092208Y-59634138D01*
X75119473Y-59650115D01*
X75217908Y-59698046D01*
X75305891Y-59689155D01*
X75337897Y-59675939D01*
X75477139Y-59651931D01*
X75605603Y-59695758D01*
X75707398Y-59790743D01*
X75766630Y-59920209D01*
X75767409Y-60067479D01*
X75753918Y-60112506D01*
X75731668Y-60206354D01*
X75741005Y-60312349D01*
X75784850Y-60461804D01*
X75787101Y-60468367D01*
X75832979Y-60629042D01*
X75877903Y-60831449D01*
X75912492Y-61033074D01*
X75913756Y-61042184D01*
X75936095Y-61302991D01*
X75927448Y-61560293D01*
X75884870Y-61833849D01*
X75805414Y-62143419D01*
X75701938Y-62463384D01*
X75628421Y-62694264D01*
X75561123Y-62938150D01*
X75508971Y-63160979D01*
X75486203Y-63286557D01*
X75455174Y-63679514D01*
X75468360Y-64098677D01*
X75522360Y-64517957D01*
X75613775Y-64911263D01*
X75739204Y-65252505D01*
X75743696Y-65262175D01*
X75821325Y-65458062D01*
X75844958Y-65596770D01*
X75814507Y-65675443D01*
X75756527Y-65693334D01*
X75736786Y-65692783D01*
X75721586Y-65696604D01*
X75711807Y-65713003D01*
X75708325Y-65750188D01*
X75712017Y-65816365D01*
X75723762Y-65919743D01*
X75744436Y-66068528D01*
X75774918Y-66270929D01*
X75816084Y-66535151D01*
X75868814Y-66869403D01*
X75910424Y-67132667D01*
X75961320Y-67458409D01*
X75999092Y-67711126D01*
X76024697Y-67901281D01*
X76039088Y-68039334D01*
X76043222Y-68135750D01*
X76038054Y-68200991D01*
X76024539Y-68245519D01*
X76013823Y-68265084D01*
X75987384Y-68301132D01*
X75952179Y-68326711D01*
X75894651Y-68343614D01*
X75801244Y-68353633D01*
X75658400Y-68358561D01*
X75452563Y-68360192D01*
X75293602Y-68360334D01*
X74633822Y-68360334D01*
X74662597Y-68243917D01*
X74746921Y-68071733D01*
X74899287Y-67933128D01*
X75106572Y-67837585D01*
X75274372Y-67801776D01*
X75315520Y-67790011D01*
X75315256Y-67763384D01*
X75265610Y-67712408D01*
X75158616Y-67627596D01*
X75076369Y-67566006D01*
X74924431Y-67442976D01*
X74741086Y-67279071D01*
X74550895Y-67096941D01*
X74399219Y-66941550D01*
X74022279Y-66539923D01*
X73841494Y-66783378D01*
X73659154Y-67051960D01*
X73522697Y-67313283D01*
X73416397Y-67601223D01*
X73350439Y-67841063D01*
X73302698Y-68019602D01*
X73255827Y-68170602D01*
X73216856Y-68272431D01*
X73201485Y-68299463D01*
X73163726Y-68323838D01*
X73089552Y-68341092D01*
X72967219Y-68352244D01*
X72784985Y-68358312D01*
X72531105Y-68360317D01*
X72499983Y-68360334D01*
X71849000Y-68360334D01*
X71849000Y-68250267D01*
X71888560Y-68116465D01*
X71996531Y-67990405D01*
X72156852Y-67885548D01*
X72353461Y-67815357D01*
X72372975Y-67811078D01*
X72509327Y-67779695D01*
X72579070Y-67750928D01*
X72599144Y-67713672D01*
X72590297Y-67668598D01*
X72576218Y-67589081D01*
X72561038Y-67447537D01*
X72546915Y-67266542D01*
X72539002Y-67132138D01*
X72546953Y-66688761D01*
X72621599Y-66280815D01*
X72767747Y-65893175D01*
X72990208Y-65510716D01*
X73105355Y-65350885D01*
X73316977Y-65071937D01*
X73239866Y-64694718D01*
X73204729Y-64508075D01*
X73177798Y-64336985D01*
X73163360Y-64209820D01*
X73162045Y-64179917D01*
X73146894Y-64077094D01*
X73098888Y-64042513D01*
X73093417Y-64042334D01*
X73031543Y-64050462D01*
X72901394Y-64073030D01*
X72717601Y-64107317D01*
X72494799Y-64150598D01*
X72272394Y-64195117D01*
X71519288Y-64347901D01*
X71112644Y-64105235D01*
X70949539Y-64003389D01*
X70817627Y-63912436D01*
X70731742Y-63843172D01*
X70706000Y-63809153D01*
X70743186Y-63740222D01*
X70835880Y-63675224D01*
X70955786Y-63630146D01*
X71042570Y-63619000D01*
X71164377Y-63630272D01*
X71314516Y-63658471D01*
X71362752Y-63670433D01*
X71555052Y-63721865D01*
X72358193Y-63322073D01*
X72595888Y-63202736D01*
X72805560Y-63095524D01*
X72976167Y-63006245D01*
X73096664Y-62940707D01*
X73156009Y-62904717D01*
X73160293Y-62900224D01*
X73127649Y-62869530D01*
X73036785Y-62795765D01*
X72897360Y-62686464D01*
X72719033Y-62549159D01*
X72511463Y-62391385D01*
X72405407Y-62311443D01*
X71651562Y-61744719D01*
X71474883Y-61358943D01*
X71399950Y-61190252D01*
X71340834Y-61047504D01*
X71305268Y-60949926D01*
X71298435Y-60920250D01*
X71335911Y-60889954D01*
X71429152Y-60871310D01*
X71549843Y-60866005D01*
X71669673Y-60875725D01*
X71741820Y-60893841D01*
X71800522Y-60942078D01*
X71882101Y-61040043D01*
X71950886Y-61139184D01*
X72090873Y-61358020D01*
X72844745Y-61641924D01*
X73079771Y-61729769D01*
X73285629Y-61805444D01*
X73450032Y-61864537D01*
X73560695Y-61902636D01*
X73605330Y-61915328D01*
X73605657Y-61915164D01*
X73632711Y-61878393D01*
X73695831Y-61793711D01*
X73765170Y-61701055D01*
X73854047Y-61567499D01*
X73921396Y-61439097D01*
X73945397Y-61371251D01*
X73940072Y-61222371D01*
X73868947Y-61093875D01*
X73747898Y-61014077D01*
X73744545Y-61013005D01*
X73636031Y-60954951D01*
X73587881Y-60879810D01*
X73604235Y-60807526D01*
X73689236Y-60758045D01*
X73691488Y-60757470D01*
X73802614Y-60697742D01*
X73889492Y-60597547D01*
X73923334Y-60492695D01*
X73902819Y-60457582D01*
X73830244Y-60446342D01*
X73714810Y-60453265D01*
X73585774Y-60460792D01*
X73507249Y-60443594D01*
X73446039Y-60389660D01*
X73409938Y-60342981D01*
X73328787Y-60169026D01*
X73311544Y-60021414D01*
X73309500Y-59830167D01*
X73563500Y-59818927D01*
X73856056Y-59769994D01*
X74050334Y-59691927D01*
X74184375Y-59631851D01*
X74307702Y-59596679D01*
X74452258Y-59580191D01*
X74644919Y-59576167D01*
X74851273Y-59581562D01*
G37*
X74851273Y-59581562D02*
X74993659Y-59599840D01*
X75092208Y-59634138D01*
X75119473Y-59650115D01*
X75217908Y-59698046D01*
X75305891Y-59689155D01*
X75337897Y-59675939D01*
X75477139Y-59651931D01*
X75605603Y-59695758D01*
X75707398Y-59790743D01*
X75766630Y-59920209D01*
X75767409Y-60067479D01*
X75753918Y-60112506D01*
X75731668Y-60206354D01*
X75741005Y-60312349D01*
X75784850Y-60461804D01*
X75787101Y-60468367D01*
X75832979Y-60629042D01*
X75877903Y-60831449D01*
X75912492Y-61033074D01*
X75913756Y-61042184D01*
X75936095Y-61302991D01*
X75927448Y-61560293D01*
X75884870Y-61833849D01*
X75805414Y-62143419D01*
X75701938Y-62463384D01*
X75628421Y-62694264D01*
X75561123Y-62938150D01*
X75508971Y-63160979D01*
X75486203Y-63286557D01*
X75455174Y-63679514D01*
X75468360Y-64098677D01*
X75522360Y-64517957D01*
X75613775Y-64911263D01*
X75739204Y-65252505D01*
X75743696Y-65262175D01*
X75821325Y-65458062D01*
X75844958Y-65596770D01*
X75814507Y-65675443D01*
X75756527Y-65693334D01*
X75736786Y-65692783D01*
X75721586Y-65696604D01*
X75711807Y-65713003D01*
X75708325Y-65750188D01*
X75712017Y-65816365D01*
X75723762Y-65919743D01*
X75744436Y-66068528D01*
X75774918Y-66270929D01*
X75816084Y-66535151D01*
X75868814Y-66869403D01*
X75910424Y-67132667D01*
X75961320Y-67458409D01*
X75999092Y-67711126D01*
X76024697Y-67901281D01*
X76039088Y-68039334D01*
X76043222Y-68135750D01*
X76038054Y-68200991D01*
X76024539Y-68245519D01*
X76013823Y-68265084D01*
X75987384Y-68301132D01*
X75952179Y-68326711D01*
X75894651Y-68343614D01*
X75801244Y-68353633D01*
X75658400Y-68358561D01*
X75452563Y-68360192D01*
X75293602Y-68360334D01*
X74633822Y-68360334D01*
X74662597Y-68243917D01*
X74746921Y-68071733D01*
X74899287Y-67933128D01*
X75106572Y-67837585D01*
X75274372Y-67801776D01*
X75315520Y-67790011D01*
X75315256Y-67763384D01*
X75265610Y-67712408D01*
X75158616Y-67627596D01*
X75076369Y-67566006D01*
X74924431Y-67442976D01*
X74741086Y-67279071D01*
X74550895Y-67096941D01*
X74399219Y-66941550D01*
X74022279Y-66539923D01*
X73841494Y-66783378D01*
X73659154Y-67051960D01*
X73522697Y-67313283D01*
X73416397Y-67601223D01*
X73350439Y-67841063D01*
X73302698Y-68019602D01*
X73255827Y-68170602D01*
X73216856Y-68272431D01*
X73201485Y-68299463D01*
X73163726Y-68323838D01*
X73089552Y-68341092D01*
X72967219Y-68352244D01*
X72784985Y-68358312D01*
X72531105Y-68360317D01*
X72499983Y-68360334D01*
X71849000Y-68360334D01*
X71849000Y-68250267D01*
X71888560Y-68116465D01*
X71996531Y-67990405D01*
X72156852Y-67885548D01*
X72353461Y-67815357D01*
X72372975Y-67811078D01*
X72509327Y-67779695D01*
X72579070Y-67750928D01*
X72599144Y-67713672D01*
X72590297Y-67668598D01*
X72576218Y-67589081D01*
X72561038Y-67447537D01*
X72546915Y-67266542D01*
X72539002Y-67132138D01*
X72546953Y-66688761D01*
X72621599Y-66280815D01*
X72767747Y-65893175D01*
X72990208Y-65510716D01*
X73105355Y-65350885D01*
X73316977Y-65071937D01*
X73239866Y-64694718D01*
X73204729Y-64508075D01*
X73177798Y-64336985D01*
X73163360Y-64209820D01*
X73162045Y-64179917D01*
X73146894Y-64077094D01*
X73098888Y-64042513D01*
X73093417Y-64042334D01*
X73031543Y-64050462D01*
X72901394Y-64073030D01*
X72717601Y-64107317D01*
X72494799Y-64150598D01*
X72272394Y-64195117D01*
X71519288Y-64347901D01*
X71112644Y-64105235D01*
X70949539Y-64003389D01*
X70817627Y-63912436D01*
X70731742Y-63843172D01*
X70706000Y-63809153D01*
X70743186Y-63740222D01*
X70835880Y-63675224D01*
X70955786Y-63630146D01*
X71042570Y-63619000D01*
X71164377Y-63630272D01*
X71314516Y-63658471D01*
X71362752Y-63670433D01*
X71555052Y-63721865D01*
X72358193Y-63322073D01*
X72595888Y-63202736D01*
X72805560Y-63095524D01*
X72976167Y-63006245D01*
X73096664Y-62940707D01*
X73156009Y-62904717D01*
X73160293Y-62900224D01*
X73127649Y-62869530D01*
X73036785Y-62795765D01*
X72897360Y-62686464D01*
X72719033Y-62549159D01*
X72511463Y-62391385D01*
X72405407Y-62311443D01*
X71651562Y-61744719D01*
X71474883Y-61358943D01*
X71399950Y-61190252D01*
X71340834Y-61047504D01*
X71305268Y-60949926D01*
X71298435Y-60920250D01*
X71335911Y-60889954D01*
X71429152Y-60871310D01*
X71549843Y-60866005D01*
X71669673Y-60875725D01*
X71741820Y-60893841D01*
X71800522Y-60942078D01*
X71882101Y-61040043D01*
X71950886Y-61139184D01*
X72090873Y-61358020D01*
X72844745Y-61641924D01*
X73079771Y-61729769D01*
X73285629Y-61805444D01*
X73450032Y-61864537D01*
X73560695Y-61902636D01*
X73605330Y-61915328D01*
X73605657Y-61915164D01*
X73632711Y-61878393D01*
X73695831Y-61793711D01*
X73765170Y-61701055D01*
X73854047Y-61567499D01*
X73921396Y-61439097D01*
X73945397Y-61371251D01*
X73940072Y-61222371D01*
X73868947Y-61093875D01*
X73747898Y-61014077D01*
X73744545Y-61013005D01*
X73636031Y-60954951D01*
X73587881Y-60879810D01*
X73604235Y-60807526D01*
X73689236Y-60758045D01*
X73691488Y-60757470D01*
X73802614Y-60697742D01*
X73889492Y-60597547D01*
X73923334Y-60492695D01*
X73902819Y-60457582D01*
X73830244Y-60446342D01*
X73714810Y-60453265D01*
X73585774Y-60460792D01*
X73507249Y-60443594D01*
X73446039Y-60389660D01*
X73409938Y-60342981D01*
X73328787Y-60169026D01*
X73311544Y-60021414D01*
X73309500Y-59830167D01*
X73563500Y-59818927D01*
X73856056Y-59769994D01*
X74050334Y-59691927D01*
X74184375Y-59631851D01*
X74307702Y-59596679D01*
X74452258Y-59580191D01*
X74644919Y-59576167D01*
X74851273Y-59581562D01*
D12*
%TO.C,R13*%
X70410000Y-104830000D02*
X70410000Y-107570000D01*
X70410000Y-107570000D02*
X76950000Y-107570000D01*
X76950000Y-107570000D02*
X76950000Y-104830000D01*
X76950000Y-104830000D02*
X70410000Y-104830000D01*
X69640000Y-106200000D02*
X70410000Y-106200000D01*
X77720000Y-106200000D02*
X76950000Y-106200000D01*
%TO.C,R12*%
X70510000Y-80230000D02*
X70510000Y-82970000D01*
X70510000Y-82970000D02*
X77050000Y-82970000D01*
X77050000Y-82970000D02*
X77050000Y-80230000D01*
X77050000Y-80230000D02*
X70510000Y-80230000D01*
X69740000Y-81600000D02*
X70510000Y-81600000D01*
X77820000Y-81600000D02*
X77050000Y-81600000D01*
%TO.C,U1*%
X87810000Y-84670000D02*
G75*
G02*
X85810000Y-84670000I-1000000J0D01*
G01*
X85810000Y-84670000D02*
X84560000Y-84670000D01*
X84560000Y-84670000D02*
X84560000Y-102570000D01*
X84560000Y-102570000D02*
X89060000Y-102570000D01*
X89060000Y-102570000D02*
X89060000Y-84670000D01*
X89060000Y-84670000D02*
X87810000Y-84670000D01*
X81560000Y-84610000D02*
X81560000Y-102630000D01*
X81560000Y-102630000D02*
X92060000Y-102630000D01*
X92060000Y-102630000D02*
X92060000Y-84610000D01*
X92060000Y-84610000D02*
X81560000Y-84610000D01*
%TO.C,R11*%
X96310000Y-104830000D02*
X96310000Y-107570000D01*
X96310000Y-107570000D02*
X102850000Y-107570000D01*
X102850000Y-107570000D02*
X102850000Y-104830000D01*
X102850000Y-104830000D02*
X96310000Y-104830000D01*
X95540000Y-106200000D02*
X96310000Y-106200000D01*
X103620000Y-106200000D02*
X102850000Y-106200000D01*
%TO.C,R10*%
X83310000Y-108330000D02*
X83310000Y-111070000D01*
X83310000Y-111070000D02*
X89850000Y-111070000D01*
X89850000Y-111070000D02*
X89850000Y-108330000D01*
X89850000Y-108330000D02*
X83310000Y-108330000D01*
X82540000Y-109700000D02*
X83310000Y-109700000D01*
X90620000Y-109700000D02*
X89850000Y-109700000D01*
%TO.C,R9*%
X83310000Y-104830000D02*
X83310000Y-107570000D01*
X83310000Y-107570000D02*
X89850000Y-107570000D01*
X89850000Y-107570000D02*
X89850000Y-104830000D01*
X89850000Y-104830000D02*
X83310000Y-104830000D01*
X82540000Y-106200000D02*
X83310000Y-106200000D01*
X90620000Y-106200000D02*
X89850000Y-106200000D01*
%TO.C,R8*%
X70410000Y-108330000D02*
X70410000Y-111070000D01*
X70410000Y-111070000D02*
X76950000Y-111070000D01*
X76950000Y-111070000D02*
X76950000Y-108330000D01*
X76950000Y-108330000D02*
X70410000Y-108330000D01*
X69640000Y-109700000D02*
X70410000Y-109700000D01*
X77720000Y-109700000D02*
X76950000Y-109700000D01*
%TO.C,R2*%
X70410000Y-111830000D02*
X70410000Y-114570000D01*
X70410000Y-114570000D02*
X76950000Y-114570000D01*
X76950000Y-114570000D02*
X76950000Y-111830000D01*
X76950000Y-111830000D02*
X70410000Y-111830000D01*
X69640000Y-113200000D02*
X70410000Y-113200000D01*
X77720000Y-113200000D02*
X76950000Y-113200000D01*
%TO.C,J3*%
X74030000Y-84620000D02*
X68010000Y-84620000D01*
X68010000Y-84620000D02*
X68010000Y-95000000D01*
X68010000Y-95000000D02*
X74030000Y-95000000D01*
X74030000Y-95000000D02*
X74030000Y-84620000D01*
X73000000Y-84330000D02*
X69000000Y-84330000D01*
X68010000Y-86000000D02*
X69010000Y-86000000D01*
X69010000Y-86000000D02*
X69010000Y-93620000D01*
X69010000Y-93620000D02*
X68010000Y-93620000D01*
X69010000Y-86000000D02*
X69540000Y-86250000D01*
X69540000Y-86250000D02*
X69540000Y-93370000D01*
X69540000Y-93370000D02*
X69010000Y-93620000D01*
X68010000Y-86250000D02*
X69010000Y-86250000D01*
X68010000Y-93370000D02*
X69010000Y-93370000D01*
X74030000Y-85200000D02*
X73430000Y-85200000D01*
X73430000Y-85200000D02*
X73430000Y-86800000D01*
X73430000Y-86800000D02*
X74030000Y-86800000D01*
X74030000Y-87740000D02*
X73430000Y-87740000D01*
X73430000Y-87740000D02*
X73430000Y-89340000D01*
X73430000Y-89340000D02*
X74030000Y-89340000D01*
X74030000Y-90280000D02*
X73430000Y-90280000D01*
X73430000Y-90280000D02*
X73430000Y-91880000D01*
X73430000Y-91880000D02*
X74030000Y-91880000D01*
X74030000Y-92820000D02*
X73430000Y-92820000D01*
X73430000Y-92820000D02*
X73430000Y-94420000D01*
X73430000Y-94420000D02*
X74030000Y-94420000D01*
%TO.C,R7*%
X83410000Y-80230000D02*
X83410000Y-82970000D01*
X83410000Y-82970000D02*
X89950000Y-82970000D01*
X89950000Y-82970000D02*
X89950000Y-80230000D01*
X89950000Y-80230000D02*
X83410000Y-80230000D01*
X82640000Y-81600000D02*
X83410000Y-81600000D01*
X90720000Y-81600000D02*
X89950000Y-81600000D01*
%TO.C,R6*%
X96310000Y-76630000D02*
X96310000Y-79370000D01*
X96310000Y-79370000D02*
X102850000Y-79370000D01*
X102850000Y-79370000D02*
X102850000Y-76630000D01*
X102850000Y-76630000D02*
X96310000Y-76630000D01*
X95540000Y-78000000D02*
X96310000Y-78000000D01*
X103620000Y-78000000D02*
X102850000Y-78000000D01*
%TO.C,R5*%
X83410000Y-76630000D02*
X83410000Y-79370000D01*
X83410000Y-79370000D02*
X89950000Y-79370000D01*
X89950000Y-79370000D02*
X89950000Y-76630000D01*
X89950000Y-76630000D02*
X83410000Y-76630000D01*
X82640000Y-78000000D02*
X83410000Y-78000000D01*
X90720000Y-78000000D02*
X89950000Y-78000000D01*
%TO.C,R4*%
X70510000Y-76630000D02*
X70510000Y-79370000D01*
X70510000Y-79370000D02*
X77050000Y-79370000D01*
X77050000Y-79370000D02*
X77050000Y-76630000D01*
X77050000Y-76630000D02*
X70510000Y-76630000D01*
X69740000Y-78000000D02*
X70510000Y-78000000D01*
X77820000Y-78000000D02*
X77050000Y-78000000D01*
%TO.C,R3*%
X70510000Y-73030000D02*
X70510000Y-75770000D01*
X70510000Y-75770000D02*
X77050000Y-75770000D01*
X77050000Y-75770000D02*
X77050000Y-73030000D01*
X77050000Y-73030000D02*
X70510000Y-73030000D01*
X69740000Y-74400000D02*
X70510000Y-74400000D01*
X77820000Y-74400000D02*
X77050000Y-74400000D01*
%TO.C,J2*%
X74030000Y-97620000D02*
X68010000Y-97620000D01*
X68010000Y-97620000D02*
X68010000Y-102920000D01*
X68010000Y-102920000D02*
X74030000Y-102920000D01*
X74030000Y-102920000D02*
X74030000Y-97620000D01*
X73000000Y-97330000D02*
X69000000Y-97330000D01*
X68010000Y-99000000D02*
X69010000Y-99000000D01*
X69010000Y-99000000D02*
X69010000Y-101540000D01*
X69010000Y-101540000D02*
X68010000Y-101540000D01*
X69010000Y-99000000D02*
X69540000Y-99250000D01*
X69540000Y-99250000D02*
X69540000Y-101290000D01*
X69540000Y-101290000D02*
X69010000Y-101540000D01*
X68010000Y-99250000D02*
X69010000Y-99250000D01*
X68010000Y-101290000D02*
X69010000Y-101290000D01*
X74030000Y-98200000D02*
X73430000Y-98200000D01*
X73430000Y-98200000D02*
X73430000Y-99800000D01*
X73430000Y-99800000D02*
X74030000Y-99800000D01*
X74030000Y-100740000D02*
X73430000Y-100740000D01*
X73430000Y-100740000D02*
X73430000Y-102340000D01*
X73430000Y-102340000D02*
X74030000Y-102340000D01*
%TO.C,C2*%
X97170000Y-94720000D02*
X93930000Y-94720000D01*
X97170000Y-92480000D02*
X93930000Y-92480000D01*
X97170000Y-94720000D02*
X97170000Y-94655000D01*
X97170000Y-92545000D02*
X97170000Y-92480000D01*
X93930000Y-94720000D02*
X93930000Y-94655000D01*
X93930000Y-92545000D02*
X93930000Y-92480000D01*
%TO.C,C1*%
X76430000Y-92480000D02*
X79670000Y-92480000D01*
X76430000Y-94720000D02*
X79670000Y-94720000D01*
X76430000Y-92480000D02*
X76430000Y-92545000D01*
X76430000Y-94655000D02*
X76430000Y-94720000D01*
X79670000Y-92480000D02*
X79670000Y-92545000D01*
X79670000Y-94655000D02*
X79670000Y-94720000D01*
%TO.C,R1*%
X98000000Y-59880000D02*
X98000000Y-60650000D01*
X98000000Y-67960000D02*
X98000000Y-67190000D01*
X96630000Y-60650000D02*
X96630000Y-67190000D01*
X99370000Y-60650000D02*
X96630000Y-60650000D01*
X99370000Y-67190000D02*
X99370000Y-60650000D01*
X96630000Y-67190000D02*
X99370000Y-67190000D01*
%TO.C,J1*%
X100570000Y-88040000D02*
X99970000Y-88040000D01*
X100570000Y-89640000D02*
X100570000Y-88040000D01*
X99970000Y-89640000D02*
X100570000Y-89640000D01*
X100570000Y-90580000D02*
X99970000Y-90580000D01*
X100570000Y-92180000D02*
X100570000Y-90580000D01*
X99970000Y-92180000D02*
X100570000Y-92180000D01*
X100570000Y-93120000D02*
X99970000Y-93120000D01*
X100570000Y-94720000D02*
X100570000Y-93120000D01*
X99970000Y-94720000D02*
X100570000Y-94720000D01*
X100570000Y-95660000D02*
X99970000Y-95660000D01*
X100570000Y-97260000D02*
X100570000Y-95660000D01*
X99970000Y-97260000D02*
X100570000Y-97260000D01*
X100570000Y-98200000D02*
X99970000Y-98200000D01*
X100570000Y-99800000D02*
X100570000Y-98200000D01*
X99970000Y-99800000D02*
X100570000Y-99800000D01*
X105990000Y-89090000D02*
X104990000Y-89090000D01*
X105990000Y-98750000D02*
X104990000Y-98750000D01*
X104460000Y-89090000D02*
X104990000Y-88840000D01*
X104460000Y-98750000D02*
X104460000Y-89090000D01*
X104990000Y-99000000D02*
X104460000Y-98750000D01*
X104990000Y-88840000D02*
X105990000Y-88840000D01*
X104990000Y-99000000D02*
X104990000Y-88840000D01*
X105990000Y-99000000D02*
X104990000Y-99000000D01*
X101000000Y-100670000D02*
X105000000Y-100670000D01*
X99970000Y-87460000D02*
X99970000Y-100380000D01*
X105990000Y-87460000D02*
X99970000Y-87460000D01*
X105990000Y-100380000D02*
X105990000Y-87460000D01*
X99970000Y-100380000D02*
X105990000Y-100380000D01*
%TO.C,R13*%
D13*
X74657142Y-106652380D02*
X74323809Y-106176190D01*
X74085714Y-106652380D02*
X74085714Y-105652380D01*
X74466666Y-105652380D01*
X74561904Y-105700000D01*
X74609523Y-105747619D01*
X74657142Y-105842857D01*
X74657142Y-105985714D01*
X74609523Y-106080952D01*
X74561904Y-106128571D01*
X74466666Y-106176190D01*
X74085714Y-106176190D01*
X75609523Y-106652380D02*
X75038095Y-106652380D01*
X75323809Y-106652380D02*
X75323809Y-105652380D01*
X75228571Y-105795238D01*
X75133333Y-105890476D01*
X75038095Y-105938095D01*
X75942857Y-105652380D02*
X76561904Y-105652380D01*
X76228571Y-106033333D01*
X76371428Y-106033333D01*
X76466666Y-106080952D01*
X76514285Y-106128571D01*
X76561904Y-106223809D01*
X76561904Y-106461904D01*
X76514285Y-106557142D01*
X76466666Y-106604761D01*
X76371428Y-106652380D01*
X76085714Y-106652380D01*
X75990476Y-106604761D01*
X75942857Y-106557142D01*
X71128571Y-106652380D02*
X70557142Y-106652380D01*
X70842857Y-106652380D02*
X70842857Y-105652380D01*
X70747619Y-105795238D01*
X70652380Y-105890476D01*
X70557142Y-105938095D01*
X71747619Y-105652380D02*
X71842857Y-105652380D01*
X71938095Y-105700000D01*
X71985714Y-105747619D01*
X72033333Y-105842857D01*
X72080952Y-106033333D01*
X72080952Y-106271428D01*
X72033333Y-106461904D01*
X71985714Y-106557142D01*
X71938095Y-106604761D01*
X71842857Y-106652380D01*
X71747619Y-106652380D01*
X71652380Y-106604761D01*
X71604761Y-106557142D01*
X71557142Y-106461904D01*
X71509523Y-106271428D01*
X71509523Y-106033333D01*
X71557142Y-105842857D01*
X71604761Y-105747619D01*
X71652380Y-105700000D01*
X71747619Y-105652380D01*
X72700000Y-105652380D02*
X72795238Y-105652380D01*
X72890476Y-105700000D01*
X72938095Y-105747619D01*
X72985714Y-105842857D01*
X73033333Y-106033333D01*
X73033333Y-106271428D01*
X72985714Y-106461904D01*
X72938095Y-106557142D01*
X72890476Y-106604761D01*
X72795238Y-106652380D01*
X72700000Y-106652380D01*
X72604761Y-106604761D01*
X72557142Y-106557142D01*
X72509523Y-106461904D01*
X72461904Y-106271428D01*
X72461904Y-106033333D01*
X72509523Y-105842857D01*
X72557142Y-105747619D01*
X72604761Y-105700000D01*
X72700000Y-105652380D01*
X73461904Y-106652380D02*
X73461904Y-105652380D01*
X73557142Y-106271428D02*
X73842857Y-106652380D01*
X73842857Y-105985714D02*
X73461904Y-106366666D01*
%TO.C,R12*%
X74957142Y-82052380D02*
X74623809Y-81576190D01*
X74385714Y-82052380D02*
X74385714Y-81052380D01*
X74766666Y-81052380D01*
X74861904Y-81100000D01*
X74909523Y-81147619D01*
X74957142Y-81242857D01*
X74957142Y-81385714D01*
X74909523Y-81480952D01*
X74861904Y-81528571D01*
X74766666Y-81576190D01*
X74385714Y-81576190D01*
X75909523Y-82052380D02*
X75338095Y-82052380D01*
X75623809Y-82052380D02*
X75623809Y-81052380D01*
X75528571Y-81195238D01*
X75433333Y-81290476D01*
X75338095Y-81338095D01*
X76290476Y-81147619D02*
X76338095Y-81100000D01*
X76433333Y-81052380D01*
X76671428Y-81052380D01*
X76766666Y-81100000D01*
X76814285Y-81147619D01*
X76861904Y-81242857D01*
X76861904Y-81338095D01*
X76814285Y-81480952D01*
X76242857Y-82052380D01*
X76861904Y-82052380D01*
X71428571Y-82052380D02*
X70857142Y-82052380D01*
X71142857Y-82052380D02*
X71142857Y-81052380D01*
X71047619Y-81195238D01*
X70952380Y-81290476D01*
X70857142Y-81338095D01*
X72047619Y-81052380D02*
X72142857Y-81052380D01*
X72238095Y-81100000D01*
X72285714Y-81147619D01*
X72333333Y-81242857D01*
X72380952Y-81433333D01*
X72380952Y-81671428D01*
X72333333Y-81861904D01*
X72285714Y-81957142D01*
X72238095Y-82004761D01*
X72142857Y-82052380D01*
X72047619Y-82052380D01*
X71952380Y-82004761D01*
X71904761Y-81957142D01*
X71857142Y-81861904D01*
X71809523Y-81671428D01*
X71809523Y-81433333D01*
X71857142Y-81242857D01*
X71904761Y-81147619D01*
X71952380Y-81100000D01*
X72047619Y-81052380D01*
X73000000Y-81052380D02*
X73095238Y-81052380D01*
X73190476Y-81100000D01*
X73238095Y-81147619D01*
X73285714Y-81242857D01*
X73333333Y-81433333D01*
X73333333Y-81671428D01*
X73285714Y-81861904D01*
X73238095Y-81957142D01*
X73190476Y-82004761D01*
X73095238Y-82052380D01*
X73000000Y-82052380D01*
X72904761Y-82004761D01*
X72857142Y-81957142D01*
X72809523Y-81861904D01*
X72761904Y-81671428D01*
X72761904Y-81433333D01*
X72809523Y-81242857D01*
X72857142Y-81147619D01*
X72904761Y-81100000D01*
X73000000Y-81052380D01*
X73761904Y-82052380D02*
X73761904Y-81052380D01*
X73857142Y-81671428D02*
X74142857Y-82052380D01*
X74142857Y-81385714D02*
X73761904Y-81766666D01*
%TO.C,U1*%
X86048095Y-83122380D02*
X86048095Y-83931904D01*
X86095714Y-84027142D01*
X86143333Y-84074761D01*
X86238571Y-84122380D01*
X86429047Y-84122380D01*
X86524285Y-84074761D01*
X86571904Y-84027142D01*
X86619523Y-83931904D01*
X86619523Y-83122380D01*
X87619523Y-84122380D02*
X87048095Y-84122380D01*
X87333809Y-84122380D02*
X87333809Y-83122380D01*
X87238571Y-83265238D01*
X87143333Y-83360476D01*
X87048095Y-83408095D01*
X84690952Y-103022380D02*
X85262380Y-103022380D01*
X84976666Y-104022380D02*
X84976666Y-103022380D01*
X86071904Y-104022380D02*
X85595714Y-104022380D01*
X85595714Y-103022380D01*
X86595714Y-103022380D02*
X86690952Y-103022380D01*
X86786190Y-103070000D01*
X86833809Y-103117619D01*
X86881428Y-103212857D01*
X86929047Y-103403333D01*
X86929047Y-103641428D01*
X86881428Y-103831904D01*
X86833809Y-103927142D01*
X86786190Y-103974761D01*
X86690952Y-104022380D01*
X86595714Y-104022380D01*
X86500476Y-103974761D01*
X86452857Y-103927142D01*
X86405238Y-103831904D01*
X86357619Y-103641428D01*
X86357619Y-103403333D01*
X86405238Y-103212857D01*
X86452857Y-103117619D01*
X86500476Y-103070000D01*
X86595714Y-103022380D01*
X87262380Y-103022380D02*
X87929047Y-103022380D01*
X87500476Y-104022380D01*
X88738571Y-103355714D02*
X88738571Y-104022380D01*
X88500476Y-102974761D02*
X88262380Y-103689047D01*
X88881428Y-103689047D01*
%TO.C,R11*%
X100657142Y-106652380D02*
X100323809Y-106176190D01*
X100085714Y-106652380D02*
X100085714Y-105652380D01*
X100466666Y-105652380D01*
X100561904Y-105700000D01*
X100609523Y-105747619D01*
X100657142Y-105842857D01*
X100657142Y-105985714D01*
X100609523Y-106080952D01*
X100561904Y-106128571D01*
X100466666Y-106176190D01*
X100085714Y-106176190D01*
X101609523Y-106652380D02*
X101038095Y-106652380D01*
X101323809Y-106652380D02*
X101323809Y-105652380D01*
X101228571Y-105795238D01*
X101133333Y-105890476D01*
X101038095Y-105938095D01*
X102561904Y-106652380D02*
X101990476Y-106652380D01*
X102276190Y-106652380D02*
X102276190Y-105652380D01*
X102180952Y-105795238D01*
X102085714Y-105890476D01*
X101990476Y-105938095D01*
X97128571Y-106652380D02*
X96557142Y-106652380D01*
X96842857Y-106652380D02*
X96842857Y-105652380D01*
X96747619Y-105795238D01*
X96652380Y-105890476D01*
X96557142Y-105938095D01*
X97747619Y-105652380D02*
X97842857Y-105652380D01*
X97938095Y-105700000D01*
X97985714Y-105747619D01*
X98033333Y-105842857D01*
X98080952Y-106033333D01*
X98080952Y-106271428D01*
X98033333Y-106461904D01*
X97985714Y-106557142D01*
X97938095Y-106604761D01*
X97842857Y-106652380D01*
X97747619Y-106652380D01*
X97652380Y-106604761D01*
X97604761Y-106557142D01*
X97557142Y-106461904D01*
X97509523Y-106271428D01*
X97509523Y-106033333D01*
X97557142Y-105842857D01*
X97604761Y-105747619D01*
X97652380Y-105700000D01*
X97747619Y-105652380D01*
X98700000Y-105652380D02*
X98795238Y-105652380D01*
X98890476Y-105700000D01*
X98938095Y-105747619D01*
X98985714Y-105842857D01*
X99033333Y-106033333D01*
X99033333Y-106271428D01*
X98985714Y-106461904D01*
X98938095Y-106557142D01*
X98890476Y-106604761D01*
X98795238Y-106652380D01*
X98700000Y-106652380D01*
X98604761Y-106604761D01*
X98557142Y-106557142D01*
X98509523Y-106461904D01*
X98461904Y-106271428D01*
X98461904Y-106033333D01*
X98509523Y-105842857D01*
X98557142Y-105747619D01*
X98604761Y-105700000D01*
X98700000Y-105652380D01*
X99461904Y-106652380D02*
X99461904Y-105652380D01*
X99557142Y-106271428D02*
X99842857Y-106652380D01*
X99842857Y-105985714D02*
X99461904Y-106366666D01*
%TO.C,R10*%
X87657142Y-110152380D02*
X87323809Y-109676190D01*
X87085714Y-110152380D02*
X87085714Y-109152380D01*
X87466666Y-109152380D01*
X87561904Y-109200000D01*
X87609523Y-109247619D01*
X87657142Y-109342857D01*
X87657142Y-109485714D01*
X87609523Y-109580952D01*
X87561904Y-109628571D01*
X87466666Y-109676190D01*
X87085714Y-109676190D01*
X88609523Y-110152380D02*
X88038095Y-110152380D01*
X88323809Y-110152380D02*
X88323809Y-109152380D01*
X88228571Y-109295238D01*
X88133333Y-109390476D01*
X88038095Y-109438095D01*
X89228571Y-109152380D02*
X89323809Y-109152380D01*
X89419047Y-109200000D01*
X89466666Y-109247619D01*
X89514285Y-109342857D01*
X89561904Y-109533333D01*
X89561904Y-109771428D01*
X89514285Y-109961904D01*
X89466666Y-110057142D01*
X89419047Y-110104761D01*
X89323809Y-110152380D01*
X89228571Y-110152380D01*
X89133333Y-110104761D01*
X89085714Y-110057142D01*
X89038095Y-109961904D01*
X88990476Y-109771428D01*
X88990476Y-109533333D01*
X89038095Y-109342857D01*
X89085714Y-109247619D01*
X89133333Y-109200000D01*
X89228571Y-109152380D01*
X84128571Y-110152380D02*
X83557142Y-110152380D01*
X83842857Y-110152380D02*
X83842857Y-109152380D01*
X83747619Y-109295238D01*
X83652380Y-109390476D01*
X83557142Y-109438095D01*
X84747619Y-109152380D02*
X84842857Y-109152380D01*
X84938095Y-109200000D01*
X84985714Y-109247619D01*
X85033333Y-109342857D01*
X85080952Y-109533333D01*
X85080952Y-109771428D01*
X85033333Y-109961904D01*
X84985714Y-110057142D01*
X84938095Y-110104761D01*
X84842857Y-110152380D01*
X84747619Y-110152380D01*
X84652380Y-110104761D01*
X84604761Y-110057142D01*
X84557142Y-109961904D01*
X84509523Y-109771428D01*
X84509523Y-109533333D01*
X84557142Y-109342857D01*
X84604761Y-109247619D01*
X84652380Y-109200000D01*
X84747619Y-109152380D01*
X85700000Y-109152380D02*
X85795238Y-109152380D01*
X85890476Y-109200000D01*
X85938095Y-109247619D01*
X85985714Y-109342857D01*
X86033333Y-109533333D01*
X86033333Y-109771428D01*
X85985714Y-109961904D01*
X85938095Y-110057142D01*
X85890476Y-110104761D01*
X85795238Y-110152380D01*
X85700000Y-110152380D01*
X85604761Y-110104761D01*
X85557142Y-110057142D01*
X85509523Y-109961904D01*
X85461904Y-109771428D01*
X85461904Y-109533333D01*
X85509523Y-109342857D01*
X85557142Y-109247619D01*
X85604761Y-109200000D01*
X85700000Y-109152380D01*
X86461904Y-110152380D02*
X86461904Y-109152380D01*
X86557142Y-109771428D02*
X86842857Y-110152380D01*
X86842857Y-109485714D02*
X86461904Y-109866666D01*
%TO.C,R9*%
X88533333Y-106652380D02*
X88200000Y-106176190D01*
X87961904Y-106652380D02*
X87961904Y-105652380D01*
X88342857Y-105652380D01*
X88438095Y-105700000D01*
X88485714Y-105747619D01*
X88533333Y-105842857D01*
X88533333Y-105985714D01*
X88485714Y-106080952D01*
X88438095Y-106128571D01*
X88342857Y-106176190D01*
X87961904Y-106176190D01*
X89009523Y-106652380D02*
X89200000Y-106652380D01*
X89295238Y-106604761D01*
X89342857Y-106557142D01*
X89438095Y-106414285D01*
X89485714Y-106223809D01*
X89485714Y-105842857D01*
X89438095Y-105747619D01*
X89390476Y-105700000D01*
X89295238Y-105652380D01*
X89104761Y-105652380D01*
X89009523Y-105700000D01*
X88961904Y-105747619D01*
X88914285Y-105842857D01*
X88914285Y-106080952D01*
X88961904Y-106176190D01*
X89009523Y-106223809D01*
X89104761Y-106271428D01*
X89295238Y-106271428D01*
X89390476Y-106223809D01*
X89438095Y-106176190D01*
X89485714Y-106080952D01*
X84528571Y-106652380D02*
X83957142Y-106652380D01*
X84242857Y-106652380D02*
X84242857Y-105652380D01*
X84147619Y-105795238D01*
X84052380Y-105890476D01*
X83957142Y-105938095D01*
X85147619Y-105652380D02*
X85242857Y-105652380D01*
X85338095Y-105700000D01*
X85385714Y-105747619D01*
X85433333Y-105842857D01*
X85480952Y-106033333D01*
X85480952Y-106271428D01*
X85433333Y-106461904D01*
X85385714Y-106557142D01*
X85338095Y-106604761D01*
X85242857Y-106652380D01*
X85147619Y-106652380D01*
X85052380Y-106604761D01*
X85004761Y-106557142D01*
X84957142Y-106461904D01*
X84909523Y-106271428D01*
X84909523Y-106033333D01*
X84957142Y-105842857D01*
X85004761Y-105747619D01*
X85052380Y-105700000D01*
X85147619Y-105652380D01*
X86100000Y-105652380D02*
X86195238Y-105652380D01*
X86290476Y-105700000D01*
X86338095Y-105747619D01*
X86385714Y-105842857D01*
X86433333Y-106033333D01*
X86433333Y-106271428D01*
X86385714Y-106461904D01*
X86338095Y-106557142D01*
X86290476Y-106604761D01*
X86195238Y-106652380D01*
X86100000Y-106652380D01*
X86004761Y-106604761D01*
X85957142Y-106557142D01*
X85909523Y-106461904D01*
X85861904Y-106271428D01*
X85861904Y-106033333D01*
X85909523Y-105842857D01*
X85957142Y-105747619D01*
X86004761Y-105700000D01*
X86100000Y-105652380D01*
X86861904Y-106652380D02*
X86861904Y-105652380D01*
X86957142Y-106271428D02*
X87242857Y-106652380D01*
X87242857Y-105985714D02*
X86861904Y-106366666D01*
%TO.C,R8*%
X75633333Y-110152380D02*
X75300000Y-109676190D01*
X75061904Y-110152380D02*
X75061904Y-109152380D01*
X75442857Y-109152380D01*
X75538095Y-109200000D01*
X75585714Y-109247619D01*
X75633333Y-109342857D01*
X75633333Y-109485714D01*
X75585714Y-109580952D01*
X75538095Y-109628571D01*
X75442857Y-109676190D01*
X75061904Y-109676190D01*
X76204761Y-109580952D02*
X76109523Y-109533333D01*
X76061904Y-109485714D01*
X76014285Y-109390476D01*
X76014285Y-109342857D01*
X76061904Y-109247619D01*
X76109523Y-109200000D01*
X76204761Y-109152380D01*
X76395238Y-109152380D01*
X76490476Y-109200000D01*
X76538095Y-109247619D01*
X76585714Y-109342857D01*
X76585714Y-109390476D01*
X76538095Y-109485714D01*
X76490476Y-109533333D01*
X76395238Y-109580952D01*
X76204761Y-109580952D01*
X76109523Y-109628571D01*
X76061904Y-109676190D01*
X76014285Y-109771428D01*
X76014285Y-109961904D01*
X76061904Y-110057142D01*
X76109523Y-110104761D01*
X76204761Y-110152380D01*
X76395238Y-110152380D01*
X76490476Y-110104761D01*
X76538095Y-110057142D01*
X76585714Y-109961904D01*
X76585714Y-109771428D01*
X76538095Y-109676190D01*
X76490476Y-109628571D01*
X76395238Y-109580952D01*
X71328571Y-110152380D02*
X70757142Y-110152380D01*
X71042857Y-110152380D02*
X71042857Y-109152380D01*
X70947619Y-109295238D01*
X70852380Y-109390476D01*
X70757142Y-109438095D01*
X71947619Y-109152380D02*
X72042857Y-109152380D01*
X72138095Y-109200000D01*
X72185714Y-109247619D01*
X72233333Y-109342857D01*
X72280952Y-109533333D01*
X72280952Y-109771428D01*
X72233333Y-109961904D01*
X72185714Y-110057142D01*
X72138095Y-110104761D01*
X72042857Y-110152380D01*
X71947619Y-110152380D01*
X71852380Y-110104761D01*
X71804761Y-110057142D01*
X71757142Y-109961904D01*
X71709523Y-109771428D01*
X71709523Y-109533333D01*
X71757142Y-109342857D01*
X71804761Y-109247619D01*
X71852380Y-109200000D01*
X71947619Y-109152380D01*
X72900000Y-109152380D02*
X72995238Y-109152380D01*
X73090476Y-109200000D01*
X73138095Y-109247619D01*
X73185714Y-109342857D01*
X73233333Y-109533333D01*
X73233333Y-109771428D01*
X73185714Y-109961904D01*
X73138095Y-110057142D01*
X73090476Y-110104761D01*
X72995238Y-110152380D01*
X72900000Y-110152380D01*
X72804761Y-110104761D01*
X72757142Y-110057142D01*
X72709523Y-109961904D01*
X72661904Y-109771428D01*
X72661904Y-109533333D01*
X72709523Y-109342857D01*
X72757142Y-109247619D01*
X72804761Y-109200000D01*
X72900000Y-109152380D01*
X73661904Y-110152380D02*
X73661904Y-109152380D01*
X73757142Y-109771428D02*
X74042857Y-110152380D01*
X74042857Y-109485714D02*
X73661904Y-109866666D01*
%TO.C,R2*%
X75633333Y-113652380D02*
X75300000Y-113176190D01*
X75061904Y-113652380D02*
X75061904Y-112652380D01*
X75442857Y-112652380D01*
X75538095Y-112700000D01*
X75585714Y-112747619D01*
X75633333Y-112842857D01*
X75633333Y-112985714D01*
X75585714Y-113080952D01*
X75538095Y-113128571D01*
X75442857Y-113176190D01*
X75061904Y-113176190D01*
X76014285Y-112747619D02*
X76061904Y-112700000D01*
X76157142Y-112652380D01*
X76395238Y-112652380D01*
X76490476Y-112700000D01*
X76538095Y-112747619D01*
X76585714Y-112842857D01*
X76585714Y-112938095D01*
X76538095Y-113080952D01*
X75966666Y-113652380D01*
X76585714Y-113652380D01*
X71328571Y-113652380D02*
X70757142Y-113652380D01*
X71042857Y-113652380D02*
X71042857Y-112652380D01*
X70947619Y-112795238D01*
X70852380Y-112890476D01*
X70757142Y-112938095D01*
X71947619Y-112652380D02*
X72042857Y-112652380D01*
X72138095Y-112700000D01*
X72185714Y-112747619D01*
X72233333Y-112842857D01*
X72280952Y-113033333D01*
X72280952Y-113271428D01*
X72233333Y-113461904D01*
X72185714Y-113557142D01*
X72138095Y-113604761D01*
X72042857Y-113652380D01*
X71947619Y-113652380D01*
X71852380Y-113604761D01*
X71804761Y-113557142D01*
X71757142Y-113461904D01*
X71709523Y-113271428D01*
X71709523Y-113033333D01*
X71757142Y-112842857D01*
X71804761Y-112747619D01*
X71852380Y-112700000D01*
X71947619Y-112652380D01*
X72900000Y-112652380D02*
X72995238Y-112652380D01*
X73090476Y-112700000D01*
X73138095Y-112747619D01*
X73185714Y-112842857D01*
X73233333Y-113033333D01*
X73233333Y-113271428D01*
X73185714Y-113461904D01*
X73138095Y-113557142D01*
X73090476Y-113604761D01*
X72995238Y-113652380D01*
X72900000Y-113652380D01*
X72804761Y-113604761D01*
X72757142Y-113557142D01*
X72709523Y-113461904D01*
X72661904Y-113271428D01*
X72661904Y-113033333D01*
X72709523Y-112842857D01*
X72757142Y-112747619D01*
X72804761Y-112700000D01*
X72900000Y-112652380D01*
X73661904Y-113652380D02*
X73661904Y-112652380D01*
X73757142Y-113271428D02*
X74042857Y-113652380D01*
X74042857Y-112985714D02*
X73661904Y-113366666D01*
%TO.C,J3*%
X74572380Y-90143333D02*
X75286666Y-90143333D01*
X75429523Y-90190952D01*
X75524761Y-90286190D01*
X75572380Y-90429047D01*
X75572380Y-90524285D01*
X74572380Y-89762380D02*
X74572380Y-89143333D01*
X74953333Y-89476666D01*
X74953333Y-89333809D01*
X75000952Y-89238571D01*
X75048571Y-89190952D01*
X75143809Y-89143333D01*
X75381904Y-89143333D01*
X75477142Y-89190952D01*
X75524761Y-89238571D01*
X75572380Y-89333809D01*
X75572380Y-89619523D01*
X75524761Y-89714761D01*
X75477142Y-89762380D01*
X67324761Y-92310000D02*
X67372380Y-92167142D01*
X67372380Y-91929047D01*
X67324761Y-91833809D01*
X67277142Y-91786190D01*
X67181904Y-91738571D01*
X67086666Y-91738571D01*
X66991428Y-91786190D01*
X66943809Y-91833809D01*
X66896190Y-91929047D01*
X66848571Y-92119523D01*
X66800952Y-92214761D01*
X66753333Y-92262380D01*
X66658095Y-92310000D01*
X66562857Y-92310000D01*
X66467619Y-92262380D01*
X66420000Y-92214761D01*
X66372380Y-92119523D01*
X66372380Y-91881428D01*
X66420000Y-91738571D01*
X66372380Y-91405238D02*
X67372380Y-91167142D01*
X66658095Y-90976666D01*
X67372380Y-90786190D01*
X66372380Y-90548095D01*
X67372380Y-90167142D02*
X66372380Y-90167142D01*
X66372380Y-89833809D02*
X66372380Y-89262380D01*
X67372380Y-89548095D02*
X66372380Y-89548095D01*
X67277142Y-88357619D02*
X67324761Y-88405238D01*
X67372380Y-88548095D01*
X67372380Y-88643333D01*
X67324761Y-88786190D01*
X67229523Y-88881428D01*
X67134285Y-88929047D01*
X66943809Y-88976666D01*
X66800952Y-88976666D01*
X66610476Y-88929047D01*
X66515238Y-88881428D01*
X66420000Y-88786190D01*
X66372380Y-88643333D01*
X66372380Y-88548095D01*
X66420000Y-88405238D01*
X66467619Y-88357619D01*
X67372380Y-87929047D02*
X66372380Y-87929047D01*
X66848571Y-87929047D02*
X66848571Y-87357619D01*
X67372380Y-87357619D02*
X66372380Y-87357619D01*
%TO.C,R7*%
X88533333Y-82052380D02*
X88200000Y-81576190D01*
X87961904Y-82052380D02*
X87961904Y-81052380D01*
X88342857Y-81052380D01*
X88438095Y-81100000D01*
X88485714Y-81147619D01*
X88533333Y-81242857D01*
X88533333Y-81385714D01*
X88485714Y-81480952D01*
X88438095Y-81528571D01*
X88342857Y-81576190D01*
X87961904Y-81576190D01*
X88866666Y-81052380D02*
X89533333Y-81052380D01*
X89104761Y-82052380D01*
X84528571Y-82052380D02*
X83957142Y-82052380D01*
X84242857Y-82052380D02*
X84242857Y-81052380D01*
X84147619Y-81195238D01*
X84052380Y-81290476D01*
X83957142Y-81338095D01*
X85147619Y-81052380D02*
X85242857Y-81052380D01*
X85338095Y-81100000D01*
X85385714Y-81147619D01*
X85433333Y-81242857D01*
X85480952Y-81433333D01*
X85480952Y-81671428D01*
X85433333Y-81861904D01*
X85385714Y-81957142D01*
X85338095Y-82004761D01*
X85242857Y-82052380D01*
X85147619Y-82052380D01*
X85052380Y-82004761D01*
X85004761Y-81957142D01*
X84957142Y-81861904D01*
X84909523Y-81671428D01*
X84909523Y-81433333D01*
X84957142Y-81242857D01*
X85004761Y-81147619D01*
X85052380Y-81100000D01*
X85147619Y-81052380D01*
X86100000Y-81052380D02*
X86195238Y-81052380D01*
X86290476Y-81100000D01*
X86338095Y-81147619D01*
X86385714Y-81242857D01*
X86433333Y-81433333D01*
X86433333Y-81671428D01*
X86385714Y-81861904D01*
X86338095Y-81957142D01*
X86290476Y-82004761D01*
X86195238Y-82052380D01*
X86100000Y-82052380D01*
X86004761Y-82004761D01*
X85957142Y-81957142D01*
X85909523Y-81861904D01*
X85861904Y-81671428D01*
X85861904Y-81433333D01*
X85909523Y-81242857D01*
X85957142Y-81147619D01*
X86004761Y-81100000D01*
X86100000Y-81052380D01*
X86861904Y-82052380D02*
X86861904Y-81052380D01*
X86957142Y-81671428D02*
X87242857Y-82052380D01*
X87242857Y-81385714D02*
X86861904Y-81766666D01*
%TO.C,R6*%
X101433333Y-78452380D02*
X101100000Y-77976190D01*
X100861904Y-78452380D02*
X100861904Y-77452380D01*
X101242857Y-77452380D01*
X101338095Y-77500000D01*
X101385714Y-77547619D01*
X101433333Y-77642857D01*
X101433333Y-77785714D01*
X101385714Y-77880952D01*
X101338095Y-77928571D01*
X101242857Y-77976190D01*
X100861904Y-77976190D01*
X102290476Y-77452380D02*
X102100000Y-77452380D01*
X102004761Y-77500000D01*
X101957142Y-77547619D01*
X101861904Y-77690476D01*
X101814285Y-77880952D01*
X101814285Y-78261904D01*
X101861904Y-78357142D01*
X101909523Y-78404761D01*
X102004761Y-78452380D01*
X102195238Y-78452380D01*
X102290476Y-78404761D01*
X102338095Y-78357142D01*
X102385714Y-78261904D01*
X102385714Y-78023809D01*
X102338095Y-77928571D01*
X102290476Y-77880952D01*
X102195238Y-77833333D01*
X102004761Y-77833333D01*
X101909523Y-77880952D01*
X101861904Y-77928571D01*
X101814285Y-78023809D01*
X97228571Y-78452380D02*
X96657142Y-78452380D01*
X96942857Y-78452380D02*
X96942857Y-77452380D01*
X96847619Y-77595238D01*
X96752380Y-77690476D01*
X96657142Y-77738095D01*
X97847619Y-77452380D02*
X97942857Y-77452380D01*
X98038095Y-77500000D01*
X98085714Y-77547619D01*
X98133333Y-77642857D01*
X98180952Y-77833333D01*
X98180952Y-78071428D01*
X98133333Y-78261904D01*
X98085714Y-78357142D01*
X98038095Y-78404761D01*
X97942857Y-78452380D01*
X97847619Y-78452380D01*
X97752380Y-78404761D01*
X97704761Y-78357142D01*
X97657142Y-78261904D01*
X97609523Y-78071428D01*
X97609523Y-77833333D01*
X97657142Y-77642857D01*
X97704761Y-77547619D01*
X97752380Y-77500000D01*
X97847619Y-77452380D01*
X98800000Y-77452380D02*
X98895238Y-77452380D01*
X98990476Y-77500000D01*
X99038095Y-77547619D01*
X99085714Y-77642857D01*
X99133333Y-77833333D01*
X99133333Y-78071428D01*
X99085714Y-78261904D01*
X99038095Y-78357142D01*
X98990476Y-78404761D01*
X98895238Y-78452380D01*
X98800000Y-78452380D01*
X98704761Y-78404761D01*
X98657142Y-78357142D01*
X98609523Y-78261904D01*
X98561904Y-78071428D01*
X98561904Y-77833333D01*
X98609523Y-77642857D01*
X98657142Y-77547619D01*
X98704761Y-77500000D01*
X98800000Y-77452380D01*
X99561904Y-78452380D02*
X99561904Y-77452380D01*
X99657142Y-78071428D02*
X99942857Y-78452380D01*
X99942857Y-77785714D02*
X99561904Y-78166666D01*
%TO.C,R5*%
X88533333Y-78452380D02*
X88200000Y-77976190D01*
X87961904Y-78452380D02*
X87961904Y-77452380D01*
X88342857Y-77452380D01*
X88438095Y-77500000D01*
X88485714Y-77547619D01*
X88533333Y-77642857D01*
X88533333Y-77785714D01*
X88485714Y-77880952D01*
X88438095Y-77928571D01*
X88342857Y-77976190D01*
X87961904Y-77976190D01*
X89438095Y-77452380D02*
X88961904Y-77452380D01*
X88914285Y-77928571D01*
X88961904Y-77880952D01*
X89057142Y-77833333D01*
X89295238Y-77833333D01*
X89390476Y-77880952D01*
X89438095Y-77928571D01*
X89485714Y-78023809D01*
X89485714Y-78261904D01*
X89438095Y-78357142D01*
X89390476Y-78404761D01*
X89295238Y-78452380D01*
X89057142Y-78452380D01*
X88961904Y-78404761D01*
X88914285Y-78357142D01*
X84428571Y-78452380D02*
X83857142Y-78452380D01*
X84142857Y-78452380D02*
X84142857Y-77452380D01*
X84047619Y-77595238D01*
X83952380Y-77690476D01*
X83857142Y-77738095D01*
X85047619Y-77452380D02*
X85142857Y-77452380D01*
X85238095Y-77500000D01*
X85285714Y-77547619D01*
X85333333Y-77642857D01*
X85380952Y-77833333D01*
X85380952Y-78071428D01*
X85333333Y-78261904D01*
X85285714Y-78357142D01*
X85238095Y-78404761D01*
X85142857Y-78452380D01*
X85047619Y-78452380D01*
X84952380Y-78404761D01*
X84904761Y-78357142D01*
X84857142Y-78261904D01*
X84809523Y-78071428D01*
X84809523Y-77833333D01*
X84857142Y-77642857D01*
X84904761Y-77547619D01*
X84952380Y-77500000D01*
X85047619Y-77452380D01*
X86000000Y-77452380D02*
X86095238Y-77452380D01*
X86190476Y-77500000D01*
X86238095Y-77547619D01*
X86285714Y-77642857D01*
X86333333Y-77833333D01*
X86333333Y-78071428D01*
X86285714Y-78261904D01*
X86238095Y-78357142D01*
X86190476Y-78404761D01*
X86095238Y-78452380D01*
X86000000Y-78452380D01*
X85904761Y-78404761D01*
X85857142Y-78357142D01*
X85809523Y-78261904D01*
X85761904Y-78071428D01*
X85761904Y-77833333D01*
X85809523Y-77642857D01*
X85857142Y-77547619D01*
X85904761Y-77500000D01*
X86000000Y-77452380D01*
X86761904Y-78452380D02*
X86761904Y-77452380D01*
X86857142Y-78071428D02*
X87142857Y-78452380D01*
X87142857Y-77785714D02*
X86761904Y-78166666D01*
%TO.C,R4*%
X75433333Y-78452380D02*
X75100000Y-77976190D01*
X74861904Y-78452380D02*
X74861904Y-77452380D01*
X75242857Y-77452380D01*
X75338095Y-77500000D01*
X75385714Y-77547619D01*
X75433333Y-77642857D01*
X75433333Y-77785714D01*
X75385714Y-77880952D01*
X75338095Y-77928571D01*
X75242857Y-77976190D01*
X74861904Y-77976190D01*
X76290476Y-77785714D02*
X76290476Y-78452380D01*
X76052380Y-77404761D02*
X75814285Y-78119047D01*
X76433333Y-78119047D01*
X71528571Y-78452380D02*
X70957142Y-78452380D01*
X71242857Y-78452380D02*
X71242857Y-77452380D01*
X71147619Y-77595238D01*
X71052380Y-77690476D01*
X70957142Y-77738095D01*
X72147619Y-77452380D02*
X72242857Y-77452380D01*
X72338095Y-77500000D01*
X72385714Y-77547619D01*
X72433333Y-77642857D01*
X72480952Y-77833333D01*
X72480952Y-78071428D01*
X72433333Y-78261904D01*
X72385714Y-78357142D01*
X72338095Y-78404761D01*
X72242857Y-78452380D01*
X72147619Y-78452380D01*
X72052380Y-78404761D01*
X72004761Y-78357142D01*
X71957142Y-78261904D01*
X71909523Y-78071428D01*
X71909523Y-77833333D01*
X71957142Y-77642857D01*
X72004761Y-77547619D01*
X72052380Y-77500000D01*
X72147619Y-77452380D01*
X73100000Y-77452380D02*
X73195238Y-77452380D01*
X73290476Y-77500000D01*
X73338095Y-77547619D01*
X73385714Y-77642857D01*
X73433333Y-77833333D01*
X73433333Y-78071428D01*
X73385714Y-78261904D01*
X73338095Y-78357142D01*
X73290476Y-78404761D01*
X73195238Y-78452380D01*
X73100000Y-78452380D01*
X73004761Y-78404761D01*
X72957142Y-78357142D01*
X72909523Y-78261904D01*
X72861904Y-78071428D01*
X72861904Y-77833333D01*
X72909523Y-77642857D01*
X72957142Y-77547619D01*
X73004761Y-77500000D01*
X73100000Y-77452380D01*
X73861904Y-78452380D02*
X73861904Y-77452380D01*
X73957142Y-78071428D02*
X74242857Y-78452380D01*
X74242857Y-77785714D02*
X73861904Y-78166666D01*
%TO.C,R3*%
X75633333Y-74852380D02*
X75300000Y-74376190D01*
X75061904Y-74852380D02*
X75061904Y-73852380D01*
X75442857Y-73852380D01*
X75538095Y-73900000D01*
X75585714Y-73947619D01*
X75633333Y-74042857D01*
X75633333Y-74185714D01*
X75585714Y-74280952D01*
X75538095Y-74328571D01*
X75442857Y-74376190D01*
X75061904Y-74376190D01*
X75966666Y-73852380D02*
X76585714Y-73852380D01*
X76252380Y-74233333D01*
X76395238Y-74233333D01*
X76490476Y-74280952D01*
X76538095Y-74328571D01*
X76585714Y-74423809D01*
X76585714Y-74661904D01*
X76538095Y-74757142D01*
X76490476Y-74804761D01*
X76395238Y-74852380D01*
X76109523Y-74852380D01*
X76014285Y-74804761D01*
X75966666Y-74757142D01*
X71728571Y-74852380D02*
X71157142Y-74852380D01*
X71442857Y-74852380D02*
X71442857Y-73852380D01*
X71347619Y-73995238D01*
X71252380Y-74090476D01*
X71157142Y-74138095D01*
X72347619Y-73852380D02*
X72442857Y-73852380D01*
X72538095Y-73900000D01*
X72585714Y-73947619D01*
X72633333Y-74042857D01*
X72680952Y-74233333D01*
X72680952Y-74471428D01*
X72633333Y-74661904D01*
X72585714Y-74757142D01*
X72538095Y-74804761D01*
X72442857Y-74852380D01*
X72347619Y-74852380D01*
X72252380Y-74804761D01*
X72204761Y-74757142D01*
X72157142Y-74661904D01*
X72109523Y-74471428D01*
X72109523Y-74233333D01*
X72157142Y-74042857D01*
X72204761Y-73947619D01*
X72252380Y-73900000D01*
X72347619Y-73852380D01*
X73300000Y-73852380D02*
X73395238Y-73852380D01*
X73490476Y-73900000D01*
X73538095Y-73947619D01*
X73585714Y-74042857D01*
X73633333Y-74233333D01*
X73633333Y-74471428D01*
X73585714Y-74661904D01*
X73538095Y-74757142D01*
X73490476Y-74804761D01*
X73395238Y-74852380D01*
X73300000Y-74852380D01*
X73204761Y-74804761D01*
X73157142Y-74757142D01*
X73109523Y-74661904D01*
X73061904Y-74471428D01*
X73061904Y-74233333D01*
X73109523Y-74042857D01*
X73157142Y-73947619D01*
X73204761Y-73900000D01*
X73300000Y-73852380D01*
X74061904Y-74852380D02*
X74061904Y-73852380D01*
X74157142Y-74471428D02*
X74442857Y-74852380D01*
X74442857Y-74185714D02*
X74061904Y-74566666D01*
%TO.C,J2*%
X74572380Y-100603333D02*
X75286666Y-100603333D01*
X75429523Y-100650952D01*
X75524761Y-100746190D01*
X75572380Y-100889047D01*
X75572380Y-100984285D01*
X74667619Y-100174761D02*
X74620000Y-100127142D01*
X74572380Y-100031904D01*
X74572380Y-99793809D01*
X74620000Y-99698571D01*
X74667619Y-99650952D01*
X74762857Y-99603333D01*
X74858095Y-99603333D01*
X75000952Y-99650952D01*
X75572380Y-100222380D01*
X75572380Y-99603333D01*
X67372380Y-100912857D02*
X67372380Y-101389047D01*
X66372380Y-101389047D01*
X66848571Y-100246190D02*
X66848571Y-100579523D01*
X67372380Y-100579523D02*
X66372380Y-100579523D01*
X66372380Y-100103333D01*
X66372380Y-99531904D02*
X66372380Y-99341428D01*
X66420000Y-99246190D01*
X66515238Y-99150952D01*
X66705714Y-99103333D01*
X67039047Y-99103333D01*
X67229523Y-99150952D01*
X67324761Y-99246190D01*
X67372380Y-99341428D01*
X67372380Y-99531904D01*
X67324761Y-99627142D01*
X67229523Y-99722380D01*
X67039047Y-99770000D01*
X66705714Y-99770000D01*
X66515238Y-99722380D01*
X66420000Y-99627142D01*
X66372380Y-99531904D01*
%TO.C,C2*%
X95383333Y-96207142D02*
X95335714Y-96254761D01*
X95192857Y-96302380D01*
X95097619Y-96302380D01*
X94954761Y-96254761D01*
X94859523Y-96159523D01*
X94811904Y-96064285D01*
X94764285Y-95873809D01*
X94764285Y-95730952D01*
X94811904Y-95540476D01*
X94859523Y-95445238D01*
X94954761Y-95350000D01*
X95097619Y-95302380D01*
X95192857Y-95302380D01*
X95335714Y-95350000D01*
X95383333Y-95397619D01*
X95764285Y-95397619D02*
X95811904Y-95350000D01*
X95907142Y-95302380D01*
X96145238Y-95302380D01*
X96240476Y-95350000D01*
X96288095Y-95397619D01*
X96335714Y-95492857D01*
X96335714Y-95588095D01*
X96288095Y-95730952D01*
X95716666Y-96302380D01*
X96335714Y-96302380D01*
X94430952Y-91802380D02*
X93859523Y-91802380D01*
X94145238Y-91802380D02*
X94145238Y-90802380D01*
X94050000Y-90945238D01*
X93954761Y-91040476D01*
X93859523Y-91088095D01*
X95050000Y-90802380D02*
X95145238Y-90802380D01*
X95240476Y-90850000D01*
X95288095Y-90897619D01*
X95335714Y-90992857D01*
X95383333Y-91183333D01*
X95383333Y-91421428D01*
X95335714Y-91611904D01*
X95288095Y-91707142D01*
X95240476Y-91754761D01*
X95145238Y-91802380D01*
X95050000Y-91802380D01*
X94954761Y-91754761D01*
X94907142Y-91707142D01*
X94859523Y-91611904D01*
X94811904Y-91421428D01*
X94811904Y-91183333D01*
X94859523Y-90992857D01*
X94907142Y-90897619D01*
X94954761Y-90850000D01*
X95050000Y-90802380D01*
X96002380Y-90802380D02*
X96097619Y-90802380D01*
X96192857Y-90850000D01*
X96240476Y-90897619D01*
X96288095Y-90992857D01*
X96335714Y-91183333D01*
X96335714Y-91421428D01*
X96288095Y-91611904D01*
X96240476Y-91707142D01*
X96192857Y-91754761D01*
X96097619Y-91802380D01*
X96002380Y-91802380D01*
X95907142Y-91754761D01*
X95859523Y-91707142D01*
X95811904Y-91611904D01*
X95764285Y-91421428D01*
X95764285Y-91183333D01*
X95811904Y-90992857D01*
X95859523Y-90897619D01*
X95907142Y-90850000D01*
X96002380Y-90802380D01*
X96764285Y-91135714D02*
X96764285Y-91802380D01*
X96764285Y-91230952D02*
X96811904Y-91183333D01*
X96907142Y-91135714D01*
X97050000Y-91135714D01*
X97145238Y-91183333D01*
X97192857Y-91278571D01*
X97192857Y-91802380D01*
%TO.C,C1*%
X77883333Y-91707142D02*
X77835714Y-91754761D01*
X77692857Y-91802380D01*
X77597619Y-91802380D01*
X77454761Y-91754761D01*
X77359523Y-91659523D01*
X77311904Y-91564285D01*
X77264285Y-91373809D01*
X77264285Y-91230952D01*
X77311904Y-91040476D01*
X77359523Y-90945238D01*
X77454761Y-90850000D01*
X77597619Y-90802380D01*
X77692857Y-90802380D01*
X77835714Y-90850000D01*
X77883333Y-90897619D01*
X78835714Y-91802380D02*
X78264285Y-91802380D01*
X78550000Y-91802380D02*
X78550000Y-90802380D01*
X78454761Y-90945238D01*
X78359523Y-91040476D01*
X78264285Y-91088095D01*
X76930952Y-96302380D02*
X76359523Y-96302380D01*
X76645238Y-96302380D02*
X76645238Y-95302380D01*
X76550000Y-95445238D01*
X76454761Y-95540476D01*
X76359523Y-95588095D01*
X77550000Y-95302380D02*
X77645238Y-95302380D01*
X77740476Y-95350000D01*
X77788095Y-95397619D01*
X77835714Y-95492857D01*
X77883333Y-95683333D01*
X77883333Y-95921428D01*
X77835714Y-96111904D01*
X77788095Y-96207142D01*
X77740476Y-96254761D01*
X77645238Y-96302380D01*
X77550000Y-96302380D01*
X77454761Y-96254761D01*
X77407142Y-96207142D01*
X77359523Y-96111904D01*
X77311904Y-95921428D01*
X77311904Y-95683333D01*
X77359523Y-95492857D01*
X77407142Y-95397619D01*
X77454761Y-95350000D01*
X77550000Y-95302380D01*
X78502380Y-95302380D02*
X78597619Y-95302380D01*
X78692857Y-95350000D01*
X78740476Y-95397619D01*
X78788095Y-95492857D01*
X78835714Y-95683333D01*
X78835714Y-95921428D01*
X78788095Y-96111904D01*
X78740476Y-96207142D01*
X78692857Y-96254761D01*
X78597619Y-96302380D01*
X78502380Y-96302380D01*
X78407142Y-96254761D01*
X78359523Y-96207142D01*
X78311904Y-96111904D01*
X78264285Y-95921428D01*
X78264285Y-95683333D01*
X78311904Y-95492857D01*
X78359523Y-95397619D01*
X78407142Y-95350000D01*
X78502380Y-95302380D01*
X79264285Y-95635714D02*
X79264285Y-96302380D01*
X79264285Y-95730952D02*
X79311904Y-95683333D01*
X79407142Y-95635714D01*
X79550000Y-95635714D01*
X79645238Y-95683333D01*
X79692857Y-95778571D01*
X79692857Y-96302380D01*
%TO.C,R1*%
X96082380Y-64086666D02*
X95606190Y-64420000D01*
X96082380Y-64658095D02*
X95082380Y-64658095D01*
X95082380Y-64277142D01*
X95130000Y-64181904D01*
X95177619Y-64134285D01*
X95272857Y-64086666D01*
X95415714Y-64086666D01*
X95510952Y-64134285D01*
X95558571Y-64181904D01*
X95606190Y-64277142D01*
X95606190Y-64658095D01*
X96082380Y-63134285D02*
X96082380Y-63705714D01*
X96082380Y-63420000D02*
X95082380Y-63420000D01*
X95225238Y-63515238D01*
X95320476Y-63610476D01*
X95368095Y-63705714D01*
X100822380Y-63991428D02*
X100346190Y-64324761D01*
X100822380Y-64562857D02*
X99822380Y-64562857D01*
X99822380Y-64181904D01*
X99870000Y-64086666D01*
X99917619Y-64039047D01*
X100012857Y-63991428D01*
X100155714Y-63991428D01*
X100250952Y-64039047D01*
X100298571Y-64086666D01*
X100346190Y-64181904D01*
X100346190Y-64562857D01*
X99822380Y-63420000D02*
X100060476Y-63420000D01*
X99965238Y-63658095D02*
X100060476Y-63420000D01*
X99965238Y-63181904D01*
X100250952Y-63562857D02*
X100060476Y-63420000D01*
X100250952Y-63277142D01*
%TO.C,J1*%
X102452380Y-103033333D02*
X103166666Y-103033333D01*
X103309523Y-103080952D01*
X103404761Y-103176190D01*
X103452380Y-103319047D01*
X103452380Y-103414285D01*
X103452380Y-102033333D02*
X103452380Y-102604761D01*
X103452380Y-102319047D02*
X102452380Y-102319047D01*
X102595238Y-102414285D01*
X102690476Y-102509523D01*
X102738095Y-102604761D01*
X107437142Y-96467619D02*
X107484761Y-96515238D01*
X107532380Y-96658095D01*
X107532380Y-96753333D01*
X107484761Y-96896190D01*
X107389523Y-96991428D01*
X107294285Y-97039047D01*
X107103809Y-97086666D01*
X106960952Y-97086666D01*
X106770476Y-97039047D01*
X106675238Y-96991428D01*
X106580000Y-96896190D01*
X106532380Y-96753333D01*
X106532380Y-96658095D01*
X106580000Y-96515238D01*
X106627619Y-96467619D01*
X106532380Y-95848571D02*
X106532380Y-95658095D01*
X106580000Y-95562857D01*
X106675238Y-95467619D01*
X106865714Y-95420000D01*
X107199047Y-95420000D01*
X107389523Y-95467619D01*
X107484761Y-95562857D01*
X107532380Y-95658095D01*
X107532380Y-95848571D01*
X107484761Y-95943809D01*
X107389523Y-96039047D01*
X107199047Y-96086666D01*
X106865714Y-96086666D01*
X106675238Y-96039047D01*
X106580000Y-95943809D01*
X106532380Y-95848571D01*
X107532380Y-94991428D02*
X106532380Y-94991428D01*
X107532380Y-94420000D01*
X106532380Y-94420000D01*
X106532380Y-94086666D02*
X106532380Y-93515238D01*
X107532380Y-93800952D02*
X106532380Y-93800952D01*
X107532380Y-92610476D02*
X107056190Y-92943809D01*
X107532380Y-93181904D02*
X106532380Y-93181904D01*
X106532380Y-92800952D01*
X106580000Y-92705714D01*
X106627619Y-92658095D01*
X106722857Y-92610476D01*
X106865714Y-92610476D01*
X106960952Y-92658095D01*
X107008571Y-92705714D01*
X107056190Y-92800952D01*
X107056190Y-93181904D01*
X106532380Y-91991428D02*
X106532380Y-91800952D01*
X106580000Y-91705714D01*
X106675238Y-91610476D01*
X106865714Y-91562857D01*
X107199047Y-91562857D01*
X107389523Y-91610476D01*
X107484761Y-91705714D01*
X107532380Y-91800952D01*
X107532380Y-91991428D01*
X107484761Y-92086666D01*
X107389523Y-92181904D01*
X107199047Y-92229523D01*
X106865714Y-92229523D01*
X106675238Y-92181904D01*
X106580000Y-92086666D01*
X106532380Y-91991428D01*
X107532380Y-90658095D02*
X107532380Y-91134285D01*
X106532380Y-91134285D01*
%TD*%
M02*
