%TF.GenerationSoftware,KiCad,Pcbnew,5.1.10-88a1d61d58~90~ubuntu20.10.1*%
%TF.CreationDate,2021-07-31T21:38:24+02:00*%
%TF.ProjectId,control,636f6e74-726f-46c2-9e6b-696361645f70,rev?*%
%TF.SameCoordinates,Original*%
%TF.FileFunction,Legend,Bot*%
%TF.FilePolarity,Positive*%
%FSLAX46Y46*%
G04 Gerber Fmt 4.6, Leading zero omitted, Abs format (unit mm)*
G04 Created by KiCad (PCBNEW 5.1.10-88a1d61d58~90~ubuntu20.10.1) date 2021-07-31 21:38:24*
%MOMM*%
%LPD*%
G01*
G04 APERTURE LIST*
%ADD10C,0.120000*%
%ADD11C,0.150000*%
G04 APERTURE END LIST*
D10*
%TO.C,RV2*%
X81630000Y-117530000D02*
X91370000Y-117530000D01*
X81630000Y-129120000D02*
X83120000Y-129120000D01*
X81630000Y-120590000D02*
X81630000Y-117530000D01*
X91380000Y-129120000D02*
X91380000Y-124400000D01*
X91370000Y-120590000D02*
X91370000Y-117530000D01*
X81630000Y-129120000D02*
X81630000Y-124400000D01*
X90190000Y-129120000D02*
X91370000Y-129120000D01*
X87290000Y-129120000D02*
X87820000Y-129120000D01*
X84840000Y-129120000D02*
X85670000Y-129120000D01*
%TO.C,RV1*%
X81630000Y-57530000D02*
X91370000Y-57530000D01*
X81630000Y-69120000D02*
X83120000Y-69120000D01*
X81630000Y-60590000D02*
X81630000Y-57530000D01*
X91380000Y-69120000D02*
X91380000Y-64400000D01*
X91370000Y-60590000D02*
X91370000Y-57530000D01*
X81630000Y-69120000D02*
X81630000Y-64400000D01*
X90190000Y-69120000D02*
X91370000Y-69120000D01*
X87290000Y-69120000D02*
X87820000Y-69120000D01*
X84840000Y-69120000D02*
X85670000Y-69120000D01*
%TO.C,RV2*%
D11*
X93187619Y-123885238D02*
X93663809Y-124218571D01*
X93187619Y-124456666D02*
X94187619Y-124456666D01*
X94187619Y-124075714D01*
X94140000Y-123980476D01*
X94092380Y-123932857D01*
X93997142Y-123885238D01*
X93854285Y-123885238D01*
X93759047Y-123932857D01*
X93711428Y-123980476D01*
X93663809Y-124075714D01*
X93663809Y-124456666D01*
X94187619Y-123599523D02*
X93187619Y-123266190D01*
X94187619Y-122932857D01*
X94092380Y-122647142D02*
X94140000Y-122599523D01*
X94187619Y-122504285D01*
X94187619Y-122266190D01*
X94140000Y-122170952D01*
X94092380Y-122123333D01*
X93997142Y-122075714D01*
X93901904Y-122075714D01*
X93759047Y-122123333D01*
X93187619Y-122694761D01*
X93187619Y-122075714D01*
X78687619Y-130619047D02*
X79163809Y-130952380D01*
X78687619Y-131190476D02*
X79687619Y-131190476D01*
X79687619Y-130809523D01*
X79640000Y-130714285D01*
X79592380Y-130666666D01*
X79497142Y-130619047D01*
X79354285Y-130619047D01*
X79259047Y-130666666D01*
X79211428Y-130714285D01*
X79163809Y-130809523D01*
X79163809Y-131190476D01*
X79211428Y-130190476D02*
X79211428Y-129857142D01*
X78687619Y-129714285D02*
X78687619Y-130190476D01*
X79687619Y-130190476D01*
X79687619Y-129714285D01*
X78735238Y-129333333D02*
X78687619Y-129190476D01*
X78687619Y-128952380D01*
X78735238Y-128857142D01*
X78782857Y-128809523D01*
X78878095Y-128761904D01*
X78973333Y-128761904D01*
X79068571Y-128809523D01*
X79116190Y-128857142D01*
X79163809Y-128952380D01*
X79211428Y-129142857D01*
X79259047Y-129238095D01*
X79306666Y-129285714D01*
X79401904Y-129333333D01*
X79497142Y-129333333D01*
X79592380Y-129285714D01*
X79640000Y-129238095D01*
X79687619Y-129142857D01*
X79687619Y-128904761D01*
X79640000Y-128761904D01*
%TO.C,RV1*%
X93187619Y-63885238D02*
X93663809Y-64218571D01*
X93187619Y-64456666D02*
X94187619Y-64456666D01*
X94187619Y-64075714D01*
X94140000Y-63980476D01*
X94092380Y-63932857D01*
X93997142Y-63885238D01*
X93854285Y-63885238D01*
X93759047Y-63932857D01*
X93711428Y-63980476D01*
X93663809Y-64075714D01*
X93663809Y-64456666D01*
X94187619Y-63599523D02*
X93187619Y-63266190D01*
X94187619Y-62932857D01*
X93187619Y-62075714D02*
X93187619Y-62647142D01*
X93187619Y-62361428D02*
X94187619Y-62361428D01*
X94044761Y-62456666D01*
X93949523Y-62551904D01*
X93901904Y-62647142D01*
X79211428Y-71333333D02*
X79211428Y-71666666D01*
X78687619Y-71666666D02*
X79687619Y-71666666D01*
X79687619Y-71190476D01*
X78687619Y-70238095D02*
X79163809Y-70571428D01*
X78687619Y-70809523D02*
X79687619Y-70809523D01*
X79687619Y-70428571D01*
X79640000Y-70333333D01*
X79592380Y-70285714D01*
X79497142Y-70238095D01*
X79354285Y-70238095D01*
X79259047Y-70285714D01*
X79211428Y-70333333D01*
X79163809Y-70428571D01*
X79163809Y-70809523D01*
X79211428Y-69809523D02*
X79211428Y-69476190D01*
X78687619Y-69333333D02*
X78687619Y-69809523D01*
X79687619Y-69809523D01*
X79687619Y-69333333D01*
X78592380Y-68238095D02*
X78640000Y-68333333D01*
X78735238Y-68428571D01*
X78878095Y-68571428D01*
X78925714Y-68666666D01*
X78925714Y-68761904D01*
X78687619Y-68714285D02*
X78735238Y-68809523D01*
X78830476Y-68904761D01*
X79020952Y-68952380D01*
X79354285Y-68952380D01*
X79544761Y-68904761D01*
X79640000Y-68809523D01*
X79687619Y-68714285D01*
X79687619Y-68523809D01*
X79640000Y-68428571D01*
X79544761Y-68333333D01*
X79354285Y-68285714D01*
X79020952Y-68285714D01*
X78830476Y-68333333D01*
X78735238Y-68428571D01*
X78687619Y-68523809D01*
X78687619Y-68714285D01*
%TD*%
M02*
