%TF.GenerationSoftware,KiCad,Pcbnew,5.1.10-88a1d61d58~90~ubuntu20.10.1*%
%TF.CreationDate,2021-07-31T21:38:24+02:00*%
%TF.ProjectId,control,636f6e74-726f-46c2-9e6b-696361645f70,rev?*%
%TF.SameCoordinates,Original*%
%TF.FileFunction,Legend,Top*%
%TF.FilePolarity,Positive*%
%FSLAX46Y46*%
G04 Gerber Fmt 4.6, Leading zero omitted, Abs format (unit mm)*
G04 Created by KiCad (PCBNEW 5.1.10-88a1d61d58~90~ubuntu20.10.1) date 2021-07-31 21:38:24*
%MOMM*%
%LPD*%
G01*
G04 APERTURE LIST*
%ADD10C,0.200000*%
%ADD11C,0.120000*%
%ADD12C,0.150000*%
G04 APERTURE END LIST*
D10*
X77657142Y-107857142D02*
X77704761Y-107904761D01*
X77752380Y-108047619D01*
X77752380Y-108142857D01*
X77704761Y-108285714D01*
X77609523Y-108380952D01*
X77514285Y-108428571D01*
X77323809Y-108476190D01*
X77180952Y-108476190D01*
X76990476Y-108428571D01*
X76895238Y-108380952D01*
X76800000Y-108285714D01*
X76752380Y-108142857D01*
X76752380Y-108047619D01*
X76800000Y-107904761D01*
X76847619Y-107857142D01*
X77752380Y-107285714D02*
X77704761Y-107380952D01*
X77657142Y-107428571D01*
X77561904Y-107476190D01*
X77276190Y-107476190D01*
X77180952Y-107428571D01*
X77133333Y-107380952D01*
X77085714Y-107285714D01*
X77085714Y-107142857D01*
X77133333Y-107047619D01*
X77180952Y-107000000D01*
X77276190Y-106952380D01*
X77561904Y-106952380D01*
X77657142Y-107000000D01*
X77704761Y-107047619D01*
X77752380Y-107142857D01*
X77752380Y-107285714D01*
X77085714Y-106523809D02*
X77752380Y-106523809D01*
X77180952Y-106523809D02*
X77133333Y-106476190D01*
X77085714Y-106380952D01*
X77085714Y-106238095D01*
X77133333Y-106142857D01*
X77228571Y-106095238D01*
X77752380Y-106095238D01*
X77085714Y-105761904D02*
X77085714Y-105380952D01*
X76752380Y-105619047D02*
X77609523Y-105619047D01*
X77704761Y-105571428D01*
X77752380Y-105476190D01*
X77752380Y-105380952D01*
X77752380Y-105047619D02*
X77085714Y-105047619D01*
X77276190Y-105047619D02*
X77180952Y-105000000D01*
X77133333Y-104952380D01*
X77085714Y-104857142D01*
X77085714Y-104761904D01*
X77752380Y-104285714D02*
X77704761Y-104380952D01*
X77657142Y-104428571D01*
X77561904Y-104476190D01*
X77276190Y-104476190D01*
X77180952Y-104428571D01*
X77133333Y-104380952D01*
X77085714Y-104285714D01*
X77085714Y-104142857D01*
X77133333Y-104047619D01*
X77180952Y-104000000D01*
X77276190Y-103952380D01*
X77561904Y-103952380D01*
X77657142Y-104000000D01*
X77704761Y-104047619D01*
X77752380Y-104142857D01*
X77752380Y-104285714D01*
X77752380Y-103380952D02*
X77704761Y-103476190D01*
X77609523Y-103523809D01*
X76752380Y-103523809D01*
X77752380Y-102238095D02*
X76752380Y-102238095D01*
X77133333Y-102238095D02*
X77085714Y-102142857D01*
X77085714Y-101952380D01*
X77133333Y-101857142D01*
X77180952Y-101809523D01*
X77276190Y-101761904D01*
X77561904Y-101761904D01*
X77657142Y-101809523D01*
X77704761Y-101857142D01*
X77752380Y-101952380D01*
X77752380Y-102142857D01*
X77704761Y-102238095D01*
X77752380Y-101190476D02*
X77704761Y-101285714D01*
X77657142Y-101333333D01*
X77561904Y-101380952D01*
X77276190Y-101380952D01*
X77180952Y-101333333D01*
X77133333Y-101285714D01*
X77085714Y-101190476D01*
X77085714Y-101047619D01*
X77133333Y-100952380D01*
X77180952Y-100904761D01*
X77276190Y-100857142D01*
X77561904Y-100857142D01*
X77657142Y-100904761D01*
X77704761Y-100952380D01*
X77752380Y-101047619D01*
X77752380Y-101190476D01*
X77752380Y-100000000D02*
X77228571Y-100000000D01*
X77133333Y-100047619D01*
X77085714Y-100142857D01*
X77085714Y-100333333D01*
X77133333Y-100428571D01*
X77704761Y-100000000D02*
X77752380Y-100095238D01*
X77752380Y-100333333D01*
X77704761Y-100428571D01*
X77609523Y-100476190D01*
X77514285Y-100476190D01*
X77419047Y-100428571D01*
X77371428Y-100333333D01*
X77371428Y-100095238D01*
X77323809Y-100000000D01*
X77752380Y-99523809D02*
X77085714Y-99523809D01*
X77276190Y-99523809D02*
X77180952Y-99476190D01*
X77133333Y-99428571D01*
X77085714Y-99333333D01*
X77085714Y-99238095D01*
X77752380Y-98476190D02*
X76752380Y-98476190D01*
X77704761Y-98476190D02*
X77752380Y-98571428D01*
X77752380Y-98761904D01*
X77704761Y-98857142D01*
X77657142Y-98904761D01*
X77561904Y-98952380D01*
X77276190Y-98952380D01*
X77180952Y-98904761D01*
X77133333Y-98857142D01*
X77085714Y-98761904D01*
X77085714Y-98571428D01*
X77133333Y-98476190D01*
X77085714Y-97380952D02*
X77085714Y-97000000D01*
X77752380Y-97238095D02*
X76895238Y-97238095D01*
X76800000Y-97190476D01*
X76752380Y-97095238D01*
X76752380Y-97000000D01*
X77752380Y-96523809D02*
X77704761Y-96619047D01*
X77657142Y-96666666D01*
X77561904Y-96714285D01*
X77276190Y-96714285D01*
X77180952Y-96666666D01*
X77133333Y-96619047D01*
X77085714Y-96523809D01*
X77085714Y-96380952D01*
X77133333Y-96285714D01*
X77180952Y-96238095D01*
X77276190Y-96190476D01*
X77561904Y-96190476D01*
X77657142Y-96238095D01*
X77704761Y-96285714D01*
X77752380Y-96380952D01*
X77752380Y-96523809D01*
X77752380Y-95761904D02*
X77085714Y-95761904D01*
X77276190Y-95761904D02*
X77180952Y-95714285D01*
X77133333Y-95666666D01*
X77085714Y-95571428D01*
X77085714Y-95476190D01*
X76752380Y-94523809D02*
X77752380Y-94190476D01*
X76752380Y-93857142D01*
X77657142Y-92952380D02*
X77704761Y-93000000D01*
X77752380Y-93142857D01*
X77752380Y-93238095D01*
X77704761Y-93380952D01*
X77609523Y-93476190D01*
X77514285Y-93523809D01*
X77323809Y-93571428D01*
X77180952Y-93571428D01*
X76990476Y-93523809D01*
X76895238Y-93476190D01*
X76800000Y-93380952D01*
X76752380Y-93238095D01*
X76752380Y-93142857D01*
X76800000Y-93000000D01*
X76847619Y-92952380D01*
X77228571Y-92190476D02*
X77228571Y-92523809D01*
X77752380Y-92523809D02*
X76752380Y-92523809D01*
X76752380Y-92047619D01*
X77371428Y-91666666D02*
X77371428Y-90904761D01*
X76752380Y-90523809D02*
X76752380Y-89904761D01*
X77133333Y-90238095D01*
X77133333Y-90095238D01*
X77180952Y-90000000D01*
X77228571Y-89952380D01*
X77323809Y-89904761D01*
X77561904Y-89904761D01*
X77657142Y-89952380D01*
X77704761Y-90000000D01*
X77752380Y-90095238D01*
X77752380Y-90380952D01*
X77704761Y-90476190D01*
X77657142Y-90523809D01*
X76752380Y-89571428D02*
X76752380Y-88952380D01*
X77133333Y-89285714D01*
X77133333Y-89142857D01*
X77180952Y-89047619D01*
X77228571Y-89000000D01*
X77323809Y-88952380D01*
X77561904Y-88952380D01*
X77657142Y-89000000D01*
X77704761Y-89047619D01*
X77752380Y-89142857D01*
X77752380Y-89428571D01*
X77704761Y-89523809D01*
X77657142Y-89571428D01*
X76752380Y-88047619D02*
X76752380Y-88523809D01*
X77228571Y-88571428D01*
X77180952Y-88523809D01*
X77133333Y-88428571D01*
X77133333Y-88190476D01*
X77180952Y-88095238D01*
X77228571Y-88047619D01*
X77323809Y-88000000D01*
X77561904Y-88000000D01*
X77657142Y-88047619D01*
X77704761Y-88095238D01*
X77752380Y-88190476D01*
X77752380Y-88428571D01*
X77704761Y-88523809D01*
X77657142Y-88571428D01*
X76752380Y-87380952D02*
X76752380Y-87285714D01*
X76800000Y-87190476D01*
X76847619Y-87142857D01*
X76942857Y-87095238D01*
X77133333Y-87047619D01*
X77371428Y-87047619D01*
X77561904Y-87095238D01*
X77657142Y-87142857D01*
X77704761Y-87190476D01*
X77752380Y-87285714D01*
X77752380Y-87380952D01*
X77704761Y-87476190D01*
X77657142Y-87523809D01*
X77561904Y-87571428D01*
X77371428Y-87619047D01*
X77133333Y-87619047D01*
X76942857Y-87571428D01*
X76847619Y-87523809D01*
X76800000Y-87476190D01*
X76752380Y-87380952D01*
X77371428Y-86619047D02*
X77371428Y-85857142D01*
X77180952Y-85238095D02*
X77133333Y-85333333D01*
X77085714Y-85380952D01*
X76990476Y-85428571D01*
X76942857Y-85428571D01*
X76847619Y-85380952D01*
X76800000Y-85333333D01*
X76752380Y-85238095D01*
X76752380Y-85047619D01*
X76800000Y-84952380D01*
X76847619Y-84904761D01*
X76942857Y-84857142D01*
X76990476Y-84857142D01*
X77085714Y-84904761D01*
X77133333Y-84952380D01*
X77180952Y-85047619D01*
X77180952Y-85238095D01*
X77228571Y-85333333D01*
X77276190Y-85380952D01*
X77371428Y-85428571D01*
X77561904Y-85428571D01*
X77657142Y-85380952D01*
X77704761Y-85333333D01*
X77752380Y-85238095D01*
X77752380Y-85047619D01*
X77704761Y-84952380D01*
X77657142Y-84904761D01*
X77561904Y-84857142D01*
X77371428Y-84857142D01*
X77276190Y-84904761D01*
X77228571Y-84952380D01*
X77180952Y-85047619D01*
X77085714Y-83761904D02*
X77752380Y-83523809D01*
X77085714Y-83285714D01*
X76752380Y-82714285D02*
X76752380Y-82619047D01*
X76800000Y-82523809D01*
X76847619Y-82476190D01*
X76942857Y-82428571D01*
X77133333Y-82380952D01*
X77371428Y-82380952D01*
X77561904Y-82428571D01*
X77657142Y-82476190D01*
X77704761Y-82523809D01*
X77752380Y-82619047D01*
X77752380Y-82714285D01*
X77704761Y-82809523D01*
X77657142Y-82857142D01*
X77561904Y-82904761D01*
X77371428Y-82952380D01*
X77133333Y-82952380D01*
X76942857Y-82904761D01*
X76847619Y-82857142D01*
X76800000Y-82809523D01*
X76752380Y-82714285D01*
X77657142Y-81952380D02*
X77704761Y-81904761D01*
X77752380Y-81952380D01*
X77704761Y-82000000D01*
X77657142Y-81952380D01*
X77752380Y-81952380D01*
X76752380Y-81285714D02*
X76752380Y-81190476D01*
X76800000Y-81095238D01*
X76847619Y-81047619D01*
X76942857Y-81000000D01*
X77133333Y-80952380D01*
X77371428Y-80952380D01*
X77561904Y-81000000D01*
X77657142Y-81047619D01*
X77704761Y-81095238D01*
X77752380Y-81190476D01*
X77752380Y-81285714D01*
X77704761Y-81380952D01*
X77657142Y-81428571D01*
X77561904Y-81476190D01*
X77371428Y-81523809D01*
X77133333Y-81523809D01*
X76942857Y-81476190D01*
X76847619Y-81428571D01*
X76800000Y-81380952D01*
X76752380Y-81285714D01*
X77657142Y-80523809D02*
X77704761Y-80476190D01*
X77752380Y-80523809D01*
X77704761Y-80571428D01*
X77657142Y-80523809D01*
X77752380Y-80523809D01*
X77752380Y-79523809D02*
X77752380Y-80095238D01*
X77752380Y-79809523D02*
X76752380Y-79809523D01*
X76895238Y-79904761D01*
X76990476Y-80000000D01*
X77038095Y-80095238D01*
X78452380Y-100261904D02*
X79166666Y-100261904D01*
X79309523Y-100309523D01*
X79404761Y-100404761D01*
X79452380Y-100547619D01*
X79452380Y-100642857D01*
X79452380Y-99357142D02*
X78928571Y-99357142D01*
X78833333Y-99404761D01*
X78785714Y-99500000D01*
X78785714Y-99690476D01*
X78833333Y-99785714D01*
X79404761Y-99357142D02*
X79452380Y-99452380D01*
X79452380Y-99690476D01*
X79404761Y-99785714D01*
X79309523Y-99833333D01*
X79214285Y-99833333D01*
X79119047Y-99785714D01*
X79071428Y-99690476D01*
X79071428Y-99452380D01*
X79023809Y-99357142D01*
X78785714Y-98880952D02*
X79452380Y-98880952D01*
X78880952Y-98880952D02*
X78833333Y-98833333D01*
X78785714Y-98738095D01*
X78785714Y-98595238D01*
X78833333Y-98500000D01*
X78928571Y-98452380D01*
X79452380Y-98452380D01*
X79452380Y-97214285D02*
X78452380Y-97214285D01*
X79452380Y-96642857D02*
X78880952Y-97071428D01*
X78452380Y-96642857D02*
X79023809Y-97214285D01*
X78785714Y-96214285D02*
X79452380Y-96214285D01*
X78880952Y-96214285D02*
X78833333Y-96166666D01*
X78785714Y-96071428D01*
X78785714Y-95928571D01*
X78833333Y-95833333D01*
X78928571Y-95785714D01*
X79452380Y-95785714D01*
X79452380Y-95309523D02*
X78785714Y-95309523D01*
X78452380Y-95309523D02*
X78500000Y-95357142D01*
X78547619Y-95309523D01*
X78500000Y-95261904D01*
X78452380Y-95309523D01*
X78547619Y-95309523D01*
X78785714Y-94833333D02*
X79785714Y-94833333D01*
X78833333Y-94833333D02*
X78785714Y-94738095D01*
X78785714Y-94547619D01*
X78833333Y-94452380D01*
X78880952Y-94404761D01*
X78976190Y-94357142D01*
X79261904Y-94357142D01*
X79357142Y-94404761D01*
X79404761Y-94452380D01*
X79452380Y-94547619D01*
X79452380Y-94738095D01*
X79404761Y-94833333D01*
X78785714Y-93928571D02*
X79785714Y-93928571D01*
X78833333Y-93928571D02*
X78785714Y-93833333D01*
X78785714Y-93642857D01*
X78833333Y-93547619D01*
X78880952Y-93500000D01*
X78976190Y-93452380D01*
X79261904Y-93452380D01*
X79357142Y-93500000D01*
X79404761Y-93547619D01*
X79452380Y-93642857D01*
X79452380Y-93833333D01*
X79404761Y-93928571D01*
X79404761Y-92642857D02*
X79452380Y-92738095D01*
X79452380Y-92928571D01*
X79404761Y-93023809D01*
X79309523Y-93071428D01*
X78928571Y-93071428D01*
X78833333Y-93023809D01*
X78785714Y-92928571D01*
X78785714Y-92738095D01*
X78833333Y-92642857D01*
X78928571Y-92595238D01*
X79023809Y-92595238D01*
X79119047Y-93071428D01*
X79452380Y-92166666D02*
X78785714Y-92166666D01*
X78976190Y-92166666D02*
X78880952Y-92119047D01*
X78833333Y-92071428D01*
X78785714Y-91976190D01*
X78785714Y-91880952D01*
X78547619Y-90833333D02*
X78500000Y-90785714D01*
X78452380Y-90690476D01*
X78452380Y-90452380D01*
X78500000Y-90357142D01*
X78547619Y-90309523D01*
X78642857Y-90261904D01*
X78738095Y-90261904D01*
X78880952Y-90309523D01*
X79452380Y-90880952D01*
X79452380Y-90261904D01*
X78452380Y-89642857D02*
X78452380Y-89547619D01*
X78500000Y-89452380D01*
X78547619Y-89404761D01*
X78642857Y-89357142D01*
X78833333Y-89309523D01*
X79071428Y-89309523D01*
X79261904Y-89357142D01*
X79357142Y-89404761D01*
X79404761Y-89452380D01*
X79452380Y-89547619D01*
X79452380Y-89642857D01*
X79404761Y-89738095D01*
X79357142Y-89785714D01*
X79261904Y-89833333D01*
X79071428Y-89880952D01*
X78833333Y-89880952D01*
X78642857Y-89833333D01*
X78547619Y-89785714D01*
X78500000Y-89738095D01*
X78452380Y-89642857D01*
X78547619Y-88928571D02*
X78500000Y-88880952D01*
X78452380Y-88785714D01*
X78452380Y-88547619D01*
X78500000Y-88452380D01*
X78547619Y-88404761D01*
X78642857Y-88357142D01*
X78738095Y-88357142D01*
X78880952Y-88404761D01*
X79452380Y-88976190D01*
X79452380Y-88357142D01*
X79452380Y-87404761D02*
X79452380Y-87976190D01*
X79452380Y-87690476D02*
X78452380Y-87690476D01*
X78595238Y-87785714D01*
X78690476Y-87880952D01*
X78738095Y-87976190D01*
X80485714Y-100452380D02*
X81295238Y-100452380D01*
X81390476Y-100500000D01*
X81438095Y-100547619D01*
X81485714Y-100642857D01*
X81485714Y-100785714D01*
X81438095Y-100880952D01*
X81104761Y-100452380D02*
X81152380Y-100547619D01*
X81152380Y-100738095D01*
X81104761Y-100833333D01*
X81057142Y-100880952D01*
X80961904Y-100928571D01*
X80676190Y-100928571D01*
X80580952Y-100880952D01*
X80533333Y-100833333D01*
X80485714Y-100738095D01*
X80485714Y-100547619D01*
X80533333Y-100452380D01*
X81152380Y-99976190D02*
X80485714Y-99976190D01*
X80152380Y-99976190D02*
X80200000Y-100023809D01*
X80247619Y-99976190D01*
X80200000Y-99928571D01*
X80152380Y-99976190D01*
X80247619Y-99976190D01*
X80485714Y-99642857D02*
X80485714Y-99261904D01*
X80152380Y-99500000D02*
X81009523Y-99500000D01*
X81104761Y-99452380D01*
X81152380Y-99357142D01*
X81152380Y-99261904D01*
X81152380Y-98928571D02*
X80152380Y-98928571D01*
X81152380Y-98500000D02*
X80628571Y-98500000D01*
X80533333Y-98547619D01*
X80485714Y-98642857D01*
X80485714Y-98785714D01*
X80533333Y-98880952D01*
X80580952Y-98928571D01*
X80485714Y-97595238D02*
X81152380Y-97595238D01*
X80485714Y-98023809D02*
X81009523Y-98023809D01*
X81104761Y-97976190D01*
X81152380Y-97880952D01*
X81152380Y-97738095D01*
X81104761Y-97642857D01*
X81057142Y-97595238D01*
X81152380Y-97119047D02*
X80152380Y-97119047D01*
X80533333Y-97119047D02*
X80485714Y-97023809D01*
X80485714Y-96833333D01*
X80533333Y-96738095D01*
X80580952Y-96690476D01*
X80676190Y-96642857D01*
X80961904Y-96642857D01*
X81057142Y-96690476D01*
X81104761Y-96738095D01*
X81152380Y-96833333D01*
X81152380Y-97023809D01*
X81104761Y-97119047D01*
X81057142Y-96214285D02*
X81104761Y-96166666D01*
X81152380Y-96214285D01*
X81104761Y-96261904D01*
X81057142Y-96214285D01*
X81152380Y-96214285D01*
X81104761Y-95309523D02*
X81152380Y-95404761D01*
X81152380Y-95595238D01*
X81104761Y-95690476D01*
X81057142Y-95738095D01*
X80961904Y-95785714D01*
X80676190Y-95785714D01*
X80580952Y-95738095D01*
X80533333Y-95690476D01*
X80485714Y-95595238D01*
X80485714Y-95404761D01*
X80533333Y-95309523D01*
X81152380Y-94738095D02*
X81104761Y-94833333D01*
X81057142Y-94880952D01*
X80961904Y-94928571D01*
X80676190Y-94928571D01*
X80580952Y-94880952D01*
X80533333Y-94833333D01*
X80485714Y-94738095D01*
X80485714Y-94595238D01*
X80533333Y-94500000D01*
X80580952Y-94452380D01*
X80676190Y-94404761D01*
X80961904Y-94404761D01*
X81057142Y-94452380D01*
X81104761Y-94500000D01*
X81152380Y-94595238D01*
X81152380Y-94738095D01*
X81152380Y-93976190D02*
X80485714Y-93976190D01*
X80580952Y-93976190D02*
X80533333Y-93928571D01*
X80485714Y-93833333D01*
X80485714Y-93690476D01*
X80533333Y-93595238D01*
X80628571Y-93547619D01*
X81152380Y-93547619D01*
X80628571Y-93547619D02*
X80533333Y-93500000D01*
X80485714Y-93404761D01*
X80485714Y-93261904D01*
X80533333Y-93166666D01*
X80628571Y-93119047D01*
X81152380Y-93119047D01*
X80104761Y-91928571D02*
X81390476Y-92785714D01*
X80485714Y-91595238D02*
X81485714Y-91595238D01*
X80533333Y-91595238D02*
X80485714Y-91500000D01*
X80485714Y-91309523D01*
X80533333Y-91214285D01*
X80580952Y-91166666D01*
X80676190Y-91119047D01*
X80961904Y-91119047D01*
X81057142Y-91166666D01*
X81104761Y-91214285D01*
X81152380Y-91309523D01*
X81152380Y-91500000D01*
X81104761Y-91595238D01*
X81152380Y-90547619D02*
X81104761Y-90642857D01*
X81057142Y-90690476D01*
X80961904Y-90738095D01*
X80676190Y-90738095D01*
X80580952Y-90690476D01*
X80533333Y-90642857D01*
X80485714Y-90547619D01*
X80485714Y-90404761D01*
X80533333Y-90309523D01*
X80580952Y-90261904D01*
X80676190Y-90214285D01*
X80961904Y-90214285D01*
X81057142Y-90261904D01*
X81104761Y-90309523D01*
X81152380Y-90404761D01*
X81152380Y-90547619D01*
X81152380Y-89642857D02*
X81104761Y-89738095D01*
X81009523Y-89785714D01*
X80152380Y-89785714D01*
X80485714Y-89357142D02*
X81152380Y-89119047D01*
X80485714Y-88880952D02*
X81152380Y-89119047D01*
X81390476Y-89214285D01*
X81438095Y-89261904D01*
X81485714Y-89357142D01*
X81152380Y-88500000D02*
X80152380Y-88500000D01*
X80771428Y-88404761D02*
X81152380Y-88119047D01*
X80485714Y-88119047D02*
X80866666Y-88500000D01*
X81152380Y-87690476D02*
X80485714Y-87690476D01*
X80152380Y-87690476D02*
X80200000Y-87738095D01*
X80247619Y-87690476D01*
X80200000Y-87642857D01*
X80152380Y-87690476D01*
X80247619Y-87690476D01*
X80485714Y-87357142D02*
X80485714Y-86976190D01*
X80152380Y-87214285D02*
X81009523Y-87214285D01*
X81104761Y-87166666D01*
X81152380Y-87071428D01*
X81152380Y-86976190D01*
D11*
%TO.C,R1*%
X90370000Y-75710000D02*
X87630000Y-75710000D01*
X87630000Y-75710000D02*
X87630000Y-82250000D01*
X87630000Y-82250000D02*
X90370000Y-82250000D01*
X90370000Y-82250000D02*
X90370000Y-75710000D01*
X89000000Y-74940000D02*
X89000000Y-75710000D01*
X89000000Y-83020000D02*
X89000000Y-82250000D01*
%TO.C,J1*%
X83470000Y-100680000D02*
X89490000Y-100680000D01*
X89490000Y-100680000D02*
X89490000Y-87760000D01*
X89490000Y-87760000D02*
X83470000Y-87760000D01*
X83470000Y-87760000D02*
X83470000Y-100680000D01*
X84500000Y-100970000D02*
X88500000Y-100970000D01*
X89490000Y-99300000D02*
X88490000Y-99300000D01*
X88490000Y-99300000D02*
X88490000Y-89140000D01*
X88490000Y-89140000D02*
X89490000Y-89140000D01*
X88490000Y-99300000D02*
X87960000Y-99050000D01*
X87960000Y-99050000D02*
X87960000Y-89390000D01*
X87960000Y-89390000D02*
X88490000Y-89140000D01*
X89490000Y-99050000D02*
X88490000Y-99050000D01*
X89490000Y-89390000D02*
X88490000Y-89390000D01*
X83470000Y-100100000D02*
X84070000Y-100100000D01*
X84070000Y-100100000D02*
X84070000Y-98500000D01*
X84070000Y-98500000D02*
X83470000Y-98500000D01*
X83470000Y-97560000D02*
X84070000Y-97560000D01*
X84070000Y-97560000D02*
X84070000Y-95960000D01*
X84070000Y-95960000D02*
X83470000Y-95960000D01*
X83470000Y-95020000D02*
X84070000Y-95020000D01*
X84070000Y-95020000D02*
X84070000Y-93420000D01*
X84070000Y-93420000D02*
X83470000Y-93420000D01*
X83470000Y-92480000D02*
X84070000Y-92480000D01*
X84070000Y-92480000D02*
X84070000Y-90880000D01*
X84070000Y-90880000D02*
X83470000Y-90880000D01*
X83470000Y-89940000D02*
X84070000Y-89940000D01*
X84070000Y-89940000D02*
X84070000Y-88340000D01*
X84070000Y-88340000D02*
X83470000Y-88340000D01*
%TO.C,R1*%
D12*
X91822380Y-79146666D02*
X91346190Y-79480000D01*
X91822380Y-79718095D02*
X90822380Y-79718095D01*
X90822380Y-79337142D01*
X90870000Y-79241904D01*
X90917619Y-79194285D01*
X91012857Y-79146666D01*
X91155714Y-79146666D01*
X91250952Y-79194285D01*
X91298571Y-79241904D01*
X91346190Y-79337142D01*
X91346190Y-79718095D01*
X91822380Y-78194285D02*
X91822380Y-78765714D01*
X91822380Y-78480000D02*
X90822380Y-78480000D01*
X90965238Y-78575238D01*
X91060476Y-78670476D01*
X91108095Y-78765714D01*
X87082380Y-79051428D02*
X86606190Y-79384761D01*
X87082380Y-79622857D02*
X86082380Y-79622857D01*
X86082380Y-79241904D01*
X86130000Y-79146666D01*
X86177619Y-79099047D01*
X86272857Y-79051428D01*
X86415714Y-79051428D01*
X86510952Y-79099047D01*
X86558571Y-79146666D01*
X86606190Y-79241904D01*
X86606190Y-79622857D01*
X86082380Y-78480000D02*
X86320476Y-78480000D01*
X86225238Y-78718095D02*
X86320476Y-78480000D01*
X86225238Y-78241904D01*
X86510952Y-78622857D02*
X86320476Y-78480000D01*
X86510952Y-78337142D01*
%TO.C,J1*%
X85952380Y-103333333D02*
X86666666Y-103333333D01*
X86809523Y-103380952D01*
X86904761Y-103476190D01*
X86952380Y-103619047D01*
X86952380Y-103714285D01*
X86952380Y-102333333D02*
X86952380Y-102904761D01*
X86952380Y-102619047D02*
X85952380Y-102619047D01*
X86095238Y-102714285D01*
X86190476Y-102809523D01*
X86238095Y-102904761D01*
X90937142Y-96767619D02*
X90984761Y-96815238D01*
X91032380Y-96958095D01*
X91032380Y-97053333D01*
X90984761Y-97196190D01*
X90889523Y-97291428D01*
X90794285Y-97339047D01*
X90603809Y-97386666D01*
X90460952Y-97386666D01*
X90270476Y-97339047D01*
X90175238Y-97291428D01*
X90080000Y-97196190D01*
X90032380Y-97053333D01*
X90032380Y-96958095D01*
X90080000Y-96815238D01*
X90127619Y-96767619D01*
X90032380Y-96148571D02*
X90032380Y-95958095D01*
X90080000Y-95862857D01*
X90175238Y-95767619D01*
X90365714Y-95720000D01*
X90699047Y-95720000D01*
X90889523Y-95767619D01*
X90984761Y-95862857D01*
X91032380Y-95958095D01*
X91032380Y-96148571D01*
X90984761Y-96243809D01*
X90889523Y-96339047D01*
X90699047Y-96386666D01*
X90365714Y-96386666D01*
X90175238Y-96339047D01*
X90080000Y-96243809D01*
X90032380Y-96148571D01*
X91032380Y-95291428D02*
X90032380Y-95291428D01*
X91032380Y-94720000D01*
X90032380Y-94720000D01*
X90032380Y-94386666D02*
X90032380Y-93815238D01*
X91032380Y-94100952D02*
X90032380Y-94100952D01*
X91032380Y-92910476D02*
X90556190Y-93243809D01*
X91032380Y-93481904D02*
X90032380Y-93481904D01*
X90032380Y-93100952D01*
X90080000Y-93005714D01*
X90127619Y-92958095D01*
X90222857Y-92910476D01*
X90365714Y-92910476D01*
X90460952Y-92958095D01*
X90508571Y-93005714D01*
X90556190Y-93100952D01*
X90556190Y-93481904D01*
X90032380Y-92291428D02*
X90032380Y-92100952D01*
X90080000Y-92005714D01*
X90175238Y-91910476D01*
X90365714Y-91862857D01*
X90699047Y-91862857D01*
X90889523Y-91910476D01*
X90984761Y-92005714D01*
X91032380Y-92100952D01*
X91032380Y-92291428D01*
X90984761Y-92386666D01*
X90889523Y-92481904D01*
X90699047Y-92529523D01*
X90365714Y-92529523D01*
X90175238Y-92481904D01*
X90080000Y-92386666D01*
X90032380Y-92291428D01*
X91032380Y-90958095D02*
X91032380Y-91434285D01*
X90032380Y-91434285D01*
%TD*%
M02*
