M48
; DRILL file {KiCad 5.1.10-88a1d61d58~90~ubuntu21.04.1} date Sun Sep 12 11:52:21 2021
; FORMAT={-:-/ absolute / inch / decimal}
; #@! TF.CreationDate,2021-09-12T11:52:21+02:00
; #@! TF.GenerationSoftware,Kicad,Pcbnew,5.1.10-88a1d61d58~90~ubuntu21.04.1
; #@! TF.FileFunction,Plated,1,2,PTH
FMAT,2
INCH
T1C0.0315
T2C0.0394
T3C0.0433
T4C0.0469
T5C0.1220
%
G90
G05
T1
X2.7008Y-4.1811
X2.7008Y-4.3189
X2.7008Y-4.4567
X2.7047Y-2.9291
X2.7047Y-3.0709
X2.7047Y-3.2126
X3.0236Y-3.685
X3.1008Y-4.1811
X3.1008Y-4.3189
X3.1008Y-4.4567
X3.1047Y-2.9291
X3.1047Y-3.0709
X3.1047Y-3.2126
X3.122Y-3.685
X3.2087Y-4.1811
X3.2087Y-4.3189
X3.2126Y-3.0709
X3.2126Y-3.2126
X3.2677Y-3.3858
X3.2677Y-3.4858
X3.2677Y-3.5858
X3.2677Y-3.6858
X3.2677Y-3.7858
X3.2677Y-3.8858
X3.2677Y-3.9858
X3.5677Y-3.3858
X3.5677Y-3.4858
X3.5677Y-3.5858
X3.5677Y-3.6858
X3.5677Y-3.7858
X3.5677Y-3.8858
X3.5677Y-3.9858
X3.6087Y-4.1811
X3.6087Y-4.3189
X3.6126Y-3.0709
X3.6126Y-3.2126
X3.7126Y-3.685
X3.7205Y-3.0709
X3.7205Y-4.1811
X3.811Y-3.685
X3.8583Y-2.3165
X3.8583Y-2.7165
X4.1205Y-3.0709
X4.1205Y-4.1811
T2
X3.3071Y-2.7559
X3.3071Y-5.1181
X3.4055Y-2.7559
X3.4055Y-5.1181
X3.5039Y-2.7559
X3.5039Y-5.1181
T4
X2.7953Y-3.3858
X2.7953Y-3.4858
X2.7953Y-3.5858
X2.7953Y-3.6858
X2.7953Y-3.8976
X2.7953Y-3.9976
X4.0551Y-3.4976
X4.0551Y-3.5976
X4.0551Y-3.6976
X4.0551Y-3.7976
X4.0551Y-3.8976
T5
X2.7165Y-2.2835
X2.7165Y-5.1378
X4.1339Y-2.2835
X4.1339Y-5.1378
T3
G00X3.2165Y-2.4469
M15
G01X3.2165Y-2.4744
M16
G05
G00X3.2165Y-4.8091
M15
G01X3.2165Y-4.8366
M16
G05
G00X3.5945Y-2.4469
M15
G01X3.5945Y-2.4744
M16
G05
G00X3.5945Y-4.8091
M15
G01X3.5945Y-4.8366
M16
G05
T0
M30
