%TF.GenerationSoftware,KiCad,Pcbnew,5.1.10-88a1d61d58~90~ubuntu21.04.1*%
%TF.CreationDate,2021-09-12T11:52:23+02:00*%
%TF.ProjectId,control,636f6e74-726f-46c2-9e6b-696361645f70,v0.0.2*%
%TF.SameCoordinates,Original*%
%TF.FileFunction,Copper,L1,Top*%
%TF.FilePolarity,Positive*%
%FSLAX46Y46*%
G04 Gerber Fmt 4.6, Leading zero omitted, Abs format (unit mm)*
G04 Created by KiCad (PCBNEW 5.1.10-88a1d61d58~90~ubuntu21.04.1) date 2021-09-12 11:52:23*
%MOMM*%
%LPD*%
G01*
G04 APERTURE LIST*
%TA.AperFunction,ComponentPad*%
%ADD10O,1.600000X1.600000*%
%TD*%
%TA.AperFunction,ComponentPad*%
%ADD11C,1.600000*%
%TD*%
%TA.AperFunction,ComponentPad*%
%ADD12O,2.400000X1.600000*%
%TD*%
%TA.AperFunction,ComponentPad*%
%ADD13R,2.400000X1.600000*%
%TD*%
%TA.AperFunction,ComponentPad*%
%ADD14O,2.190000X1.740000*%
%TD*%
%TA.AperFunction,ComponentPad*%
%ADD15O,2.720000X3.240000*%
%TD*%
%TA.AperFunction,ComponentPad*%
%ADD16C,1.800000*%
%TD*%
%TA.AperFunction,ComponentPad*%
%ADD17R,1.800000X1.800000*%
%TD*%
%TA.AperFunction,ViaPad*%
%ADD18C,3.300000*%
%TD*%
%TA.AperFunction,Conductor*%
%ADD19C,0.508000*%
%TD*%
%TA.AperFunction,Conductor*%
%ADD20C,0.254000*%
%TD*%
%TA.AperFunction,Conductor*%
%ADD21C,0.100000*%
%TD*%
G04 APERTURE END LIST*
D10*
%TO.P,R13,2*%
%TO.N,Net-(R13-Pad2)*%
X78760000Y-106200000D03*
D11*
%TO.P,R13,1*%
%TO.N,SW_FREQ_RES*%
X68600000Y-106200000D03*
%TD*%
D10*
%TO.P,R12,2*%
%TO.N,Net-(R12-Pad2)*%
X78860000Y-81600000D03*
D11*
%TO.P,R12,1*%
%TO.N,SW_FREQ_RES*%
X68700000Y-81600000D03*
%TD*%
D12*
%TO.P,U1,14*%
%TO.N,FREQ*%
X90620000Y-86000000D03*
%TO.P,U1,7*%
%TO.N,Net-(R10-Pad1)*%
X83000000Y-101240000D03*
%TO.P,U1,13*%
%TO.N,Net-(R6-Pad2)*%
X90620000Y-88540000D03*
%TO.P,U1,6*%
%TO.N,Net-(R13-Pad2)*%
X83000000Y-98700000D03*
%TO.P,U1,12*%
%TO.N,GND*%
X90620000Y-91080000D03*
%TO.P,U1,5*%
X83000000Y-96160000D03*
%TO.P,U1,11*%
%TO.N,-12V*%
X90620000Y-93620000D03*
%TO.P,U1,4*%
%TO.N,+12V*%
X83000000Y-93620000D03*
%TO.P,U1,10*%
%TO.N,GND*%
X90620000Y-96160000D03*
%TO.P,U1,3*%
X83000000Y-91080000D03*
%TO.P,U1,9*%
%TO.N,Net-(R10-Pad2)*%
X90620000Y-98700000D03*
%TO.P,U1,2*%
%TO.N,Net-(R12-Pad2)*%
X83000000Y-88540000D03*
%TO.P,U1,8*%
%TO.N,RES*%
X90620000Y-101240000D03*
D13*
%TO.P,U1,1*%
%TO.N,Net-(R5-Pad2)*%
X83000000Y-86000000D03*
%TD*%
D10*
%TO.P,R11,2*%
%TO.N,RES*%
X104660000Y-106200000D03*
D11*
%TO.P,R11,1*%
%TO.N,Net-(R10-Pad2)*%
X94500000Y-106200000D03*
%TD*%
D10*
%TO.P,R10,2*%
%TO.N,Net-(R10-Pad2)*%
X91660000Y-109700000D03*
D11*
%TO.P,R10,1*%
%TO.N,Net-(R10-Pad1)*%
X81500000Y-109700000D03*
%TD*%
D10*
%TO.P,R9,2*%
%TO.N,Net-(R10-Pad1)*%
X91660000Y-106200000D03*
D11*
%TO.P,R9,1*%
%TO.N,Net-(R13-Pad2)*%
X81500000Y-106200000D03*
%TD*%
D10*
%TO.P,R8,2*%
%TO.N,Net-(R13-Pad2)*%
X78760000Y-109700000D03*
D11*
%TO.P,R8,1*%
%TO.N,SW_RES*%
X68600000Y-109700000D03*
%TD*%
D10*
%TO.P,R2,2*%
%TO.N,Net-(R13-Pad2)*%
X78760000Y-113200000D03*
D11*
%TO.P,R2,1*%
%TO.N,POT_RES*%
X68600000Y-113200000D03*
%TD*%
D14*
%TO.P,J3,4*%
%TO.N,SW_FREQ_RES*%
X71000000Y-93620000D03*
%TO.P,J3,3*%
%TO.N,SW_RES*%
X71000000Y-91080000D03*
%TO.P,J3,2*%
%TO.N,SW_FREQ*%
X71000000Y-88540000D03*
%TO.P,J3,1*%
%TO.N,LFO*%
%TA.AperFunction,ComponentPad*%
G36*
G01*
X70154999Y-85130000D02*
X71845001Y-85130000D01*
G75*
G02*
X72095000Y-85379999I0J-249999D01*
G01*
X72095000Y-86620001D01*
G75*
G02*
X71845001Y-86870000I-249999J0D01*
G01*
X70154999Y-86870000D01*
G75*
G02*
X69905000Y-86620001I0J249999D01*
G01*
X69905000Y-85379999D01*
G75*
G02*
X70154999Y-85130000I249999J0D01*
G01*
G37*
%TD.AperFunction*%
%TD*%
D10*
%TO.P,R7,2*%
%TO.N,FREQ*%
X91760000Y-81600000D03*
D11*
%TO.P,R7,1*%
%TO.N,Net-(R6-Pad2)*%
X81600000Y-81600000D03*
%TD*%
D10*
%TO.P,R6,2*%
%TO.N,Net-(R6-Pad2)*%
X104660000Y-78000000D03*
D11*
%TO.P,R6,1*%
%TO.N,Net-(R5-Pad2)*%
X94500000Y-78000000D03*
%TD*%
D10*
%TO.P,R5,2*%
%TO.N,Net-(R5-Pad2)*%
X91760000Y-78000000D03*
D11*
%TO.P,R5,1*%
%TO.N,Net-(R12-Pad2)*%
X81600000Y-78000000D03*
%TD*%
D10*
%TO.P,R4,2*%
%TO.N,Net-(R12-Pad2)*%
X78860000Y-78000000D03*
D11*
%TO.P,R4,1*%
%TO.N,SW_FREQ*%
X68700000Y-78000000D03*
%TD*%
D10*
%TO.P,R3,2*%
%TO.N,Net-(R12-Pad2)*%
X78860000Y-74400000D03*
D11*
%TO.P,R3,1*%
%TO.N,POT_FREQ*%
X68700000Y-74400000D03*
%TD*%
D14*
%TO.P,J2,2*%
%TO.N,GND*%
X71000000Y-101540000D03*
%TO.P,J2,1*%
%TO.N,LFO*%
%TA.AperFunction,ComponentPad*%
G36*
G01*
X70154999Y-98130000D02*
X71845001Y-98130000D01*
G75*
G02*
X72095000Y-98379999I0J-249999D01*
G01*
X72095000Y-99620001D01*
G75*
G02*
X71845001Y-99870000I-249999J0D01*
G01*
X70154999Y-99870000D01*
G75*
G02*
X69905000Y-99620001I0J249999D01*
G01*
X69905000Y-98379999D01*
G75*
G02*
X70154999Y-98130000I249999J0D01*
G01*
G37*
%TD.AperFunction*%
%TD*%
D11*
%TO.P,C2,2*%
%TO.N,-12V*%
X94300000Y-93600000D03*
%TO.P,C2,1*%
%TO.N,GND*%
X96800000Y-93600000D03*
%TD*%
%TO.P,C1,2*%
%TO.N,+12V*%
X79300000Y-93600000D03*
%TO.P,C1,1*%
%TO.N,GND*%
X76800000Y-93600000D03*
%TD*%
D15*
%TO.P,RV2,*%
%TO.N,*%
X91300000Y-122500000D03*
X81700000Y-122500000D03*
D16*
%TO.P,RV2,3*%
%TO.N,-12V*%
X84000000Y-130000000D03*
%TO.P,RV2,2*%
%TO.N,POT_RES*%
X86500000Y-130000000D03*
D17*
%TO.P,RV2,1*%
%TO.N,+12V*%
X89000000Y-130000000D03*
%TD*%
D15*
%TO.P,RV1,*%
%TO.N,*%
X91300000Y-62500000D03*
X81700000Y-62500000D03*
D16*
%TO.P,RV1,3*%
%TO.N,+12V*%
X84000000Y-70000000D03*
%TO.P,RV1,2*%
%TO.N,POT_FREQ*%
X86500000Y-70000000D03*
D17*
%TO.P,RV1,1*%
%TO.N,Net-(R1-Pad1)*%
X89000000Y-70000000D03*
%TD*%
D10*
%TO.P,R1,2*%
%TO.N,GND*%
X98000000Y-58840000D03*
D11*
%TO.P,R1,1*%
%TO.N,Net-(R1-Pad1)*%
X98000000Y-69000000D03*
%TD*%
D14*
%TO.P,J1,5*%
%TO.N,GND*%
X103000000Y-88840000D03*
%TO.P,J1,4*%
%TO.N,-12V*%
X103000000Y-91380000D03*
%TO.P,J1,3*%
%TO.N,+12V*%
X103000000Y-93920000D03*
%TO.P,J1,2*%
%TO.N,FREQ*%
X103000000Y-96460000D03*
%TO.P,J1,1*%
%TO.N,RES*%
%TA.AperFunction,ComponentPad*%
G36*
G01*
X103845001Y-99870000D02*
X102154999Y-99870000D01*
G75*
G02*
X101905000Y-99620001I0J249999D01*
G01*
X101905000Y-98379999D01*
G75*
G02*
X102154999Y-98130000I249999J0D01*
G01*
X103845001Y-98130000D01*
G75*
G02*
X104095000Y-98379999I0J-249999D01*
G01*
X104095000Y-99620001D01*
G75*
G02*
X103845001Y-99870000I-249999J0D01*
G01*
G37*
%TD.AperFunction*%
%TD*%
D18*
%TO.N,GND*%
X105000000Y-58000000D03*
X69000000Y-58000000D03*
X69000000Y-130500000D03*
X105000000Y-130500000D03*
%TD*%
D19*
%TO.N,-12V*%
X84654010Y-129345990D02*
X84000000Y-130000000D01*
X84654010Y-99585990D02*
X84654010Y-129345990D01*
X90620000Y-93620000D02*
X84654010Y-99585990D01*
%TO.N,+12V*%
X80345999Y-73654001D02*
X84000000Y-70000000D01*
X80345999Y-90965999D02*
X80345999Y-73654001D01*
X83000000Y-93620000D02*
X80345999Y-90965999D01*
X89000000Y-120004078D02*
X89000000Y-130000000D01*
X104549010Y-104455068D02*
X89000000Y-120004078D01*
X104549010Y-95469010D02*
X104549010Y-104455068D01*
X103000000Y-93920000D02*
X104549010Y-95469010D01*
%TO.N,FREQ*%
X92540000Y-86000000D02*
X103000000Y-96460000D01*
X90620000Y-86000000D02*
X92540000Y-86000000D01*
%TO.N,LFO*%
X69450990Y-97450990D02*
X71000000Y-99000000D01*
X69450990Y-87549010D02*
X69450990Y-97450990D01*
X71000000Y-86000000D02*
X69450990Y-87549010D01*
%TO.N,Net-(R6-Pad2)*%
X88540000Y-88540000D02*
X81600000Y-81600000D01*
X90620000Y-88540000D02*
X88540000Y-88540000D01*
%TO.N,Net-(R10-Pad2)*%
X94500000Y-102580000D02*
X94500000Y-106200000D01*
X90620000Y-98700000D02*
X94500000Y-102580000D01*
%TD*%
D20*
%TO.N,GND*%
X107340001Y-132840000D02*
X66660000Y-132840000D01*
X66660000Y-122142003D01*
X79705000Y-122142003D01*
X79705000Y-122857998D01*
X79733867Y-123151088D01*
X79847943Y-123527147D01*
X80033193Y-123873725D01*
X80282498Y-124177503D01*
X80586276Y-124426807D01*
X80932854Y-124612057D01*
X81308913Y-124726133D01*
X81700000Y-124764652D01*
X82091088Y-124726133D01*
X82467147Y-124612057D01*
X82813725Y-124426807D01*
X83117503Y-124177503D01*
X83366807Y-123873725D01*
X83552057Y-123527147D01*
X83666133Y-123151087D01*
X83695000Y-122857997D01*
X83695000Y-122142002D01*
X83666133Y-121848912D01*
X83552057Y-121472853D01*
X83366807Y-121126275D01*
X83117503Y-120822497D01*
X82813725Y-120573193D01*
X82467146Y-120387943D01*
X82091087Y-120273867D01*
X81700000Y-120235348D01*
X81308912Y-120273867D01*
X80932853Y-120387943D01*
X80586275Y-120573193D01*
X80282497Y-120822497D01*
X80033193Y-121126275D01*
X79847943Y-121472854D01*
X79733867Y-121848913D01*
X79705000Y-122142003D01*
X66660000Y-122142003D01*
X66660000Y-113058665D01*
X67165000Y-113058665D01*
X67165000Y-113341335D01*
X67220147Y-113618574D01*
X67328320Y-113879727D01*
X67485363Y-114114759D01*
X67685241Y-114314637D01*
X67920273Y-114471680D01*
X68181426Y-114579853D01*
X68458665Y-114635000D01*
X68741335Y-114635000D01*
X69018574Y-114579853D01*
X69279727Y-114471680D01*
X69514759Y-114314637D01*
X69714637Y-114114759D01*
X69871680Y-113879727D01*
X69979853Y-113618574D01*
X70035000Y-113341335D01*
X70035000Y-113058665D01*
X77325000Y-113058665D01*
X77325000Y-113341335D01*
X77380147Y-113618574D01*
X77488320Y-113879727D01*
X77645363Y-114114759D01*
X77845241Y-114314637D01*
X78080273Y-114471680D01*
X78341426Y-114579853D01*
X78618665Y-114635000D01*
X78901335Y-114635000D01*
X79178574Y-114579853D01*
X79439727Y-114471680D01*
X79674759Y-114314637D01*
X79874637Y-114114759D01*
X80031680Y-113879727D01*
X80139853Y-113618574D01*
X80195000Y-113341335D01*
X80195000Y-113058665D01*
X80139853Y-112781426D01*
X80031680Y-112520273D01*
X79874637Y-112285241D01*
X79674759Y-112085363D01*
X79439727Y-111928320D01*
X79178574Y-111820147D01*
X78901335Y-111765000D01*
X78618665Y-111765000D01*
X78341426Y-111820147D01*
X78080273Y-111928320D01*
X77845241Y-112085363D01*
X77645363Y-112285241D01*
X77488320Y-112520273D01*
X77380147Y-112781426D01*
X77325000Y-113058665D01*
X70035000Y-113058665D01*
X69979853Y-112781426D01*
X69871680Y-112520273D01*
X69714637Y-112285241D01*
X69514759Y-112085363D01*
X69279727Y-111928320D01*
X69018574Y-111820147D01*
X68741335Y-111765000D01*
X68458665Y-111765000D01*
X68181426Y-111820147D01*
X67920273Y-111928320D01*
X67685241Y-112085363D01*
X67485363Y-112285241D01*
X67328320Y-112520273D01*
X67220147Y-112781426D01*
X67165000Y-113058665D01*
X66660000Y-113058665D01*
X66660000Y-109558665D01*
X67165000Y-109558665D01*
X67165000Y-109841335D01*
X67220147Y-110118574D01*
X67328320Y-110379727D01*
X67485363Y-110614759D01*
X67685241Y-110814637D01*
X67920273Y-110971680D01*
X68181426Y-111079853D01*
X68458665Y-111135000D01*
X68741335Y-111135000D01*
X69018574Y-111079853D01*
X69279727Y-110971680D01*
X69514759Y-110814637D01*
X69714637Y-110614759D01*
X69871680Y-110379727D01*
X69979853Y-110118574D01*
X70035000Y-109841335D01*
X70035000Y-109558665D01*
X77325000Y-109558665D01*
X77325000Y-109841335D01*
X77380147Y-110118574D01*
X77488320Y-110379727D01*
X77645363Y-110614759D01*
X77845241Y-110814637D01*
X78080273Y-110971680D01*
X78341426Y-111079853D01*
X78618665Y-111135000D01*
X78901335Y-111135000D01*
X79178574Y-111079853D01*
X79439727Y-110971680D01*
X79674759Y-110814637D01*
X79874637Y-110614759D01*
X80031680Y-110379727D01*
X80130000Y-110142361D01*
X80228320Y-110379727D01*
X80385363Y-110614759D01*
X80585241Y-110814637D01*
X80820273Y-110971680D01*
X81081426Y-111079853D01*
X81358665Y-111135000D01*
X81641335Y-111135000D01*
X81918574Y-111079853D01*
X82179727Y-110971680D01*
X82414759Y-110814637D01*
X82614637Y-110614759D01*
X82771680Y-110379727D01*
X82879853Y-110118574D01*
X82935000Y-109841335D01*
X82935000Y-109558665D01*
X82879853Y-109281426D01*
X82771680Y-109020273D01*
X82614637Y-108785241D01*
X82414759Y-108585363D01*
X82179727Y-108428320D01*
X81918574Y-108320147D01*
X81641335Y-108265000D01*
X81358665Y-108265000D01*
X81081426Y-108320147D01*
X80820273Y-108428320D01*
X80585241Y-108585363D01*
X80385363Y-108785241D01*
X80228320Y-109020273D01*
X80130000Y-109257639D01*
X80031680Y-109020273D01*
X79874637Y-108785241D01*
X79674759Y-108585363D01*
X79439727Y-108428320D01*
X79178574Y-108320147D01*
X78901335Y-108265000D01*
X78618665Y-108265000D01*
X78341426Y-108320147D01*
X78080273Y-108428320D01*
X77845241Y-108585363D01*
X77645363Y-108785241D01*
X77488320Y-109020273D01*
X77380147Y-109281426D01*
X77325000Y-109558665D01*
X70035000Y-109558665D01*
X69979853Y-109281426D01*
X69871680Y-109020273D01*
X69714637Y-108785241D01*
X69514759Y-108585363D01*
X69279727Y-108428320D01*
X69018574Y-108320147D01*
X68741335Y-108265000D01*
X68458665Y-108265000D01*
X68181426Y-108320147D01*
X67920273Y-108428320D01*
X67685241Y-108585363D01*
X67485363Y-108785241D01*
X67328320Y-109020273D01*
X67220147Y-109281426D01*
X67165000Y-109558665D01*
X66660000Y-109558665D01*
X66660000Y-106058665D01*
X67165000Y-106058665D01*
X67165000Y-106341335D01*
X67220147Y-106618574D01*
X67328320Y-106879727D01*
X67485363Y-107114759D01*
X67685241Y-107314637D01*
X67920273Y-107471680D01*
X68181426Y-107579853D01*
X68458665Y-107635000D01*
X68741335Y-107635000D01*
X69018574Y-107579853D01*
X69279727Y-107471680D01*
X69514759Y-107314637D01*
X69714637Y-107114759D01*
X69871680Y-106879727D01*
X69979853Y-106618574D01*
X70035000Y-106341335D01*
X70035000Y-106058665D01*
X77325000Y-106058665D01*
X77325000Y-106341335D01*
X77380147Y-106618574D01*
X77488320Y-106879727D01*
X77645363Y-107114759D01*
X77845241Y-107314637D01*
X78080273Y-107471680D01*
X78341426Y-107579853D01*
X78618665Y-107635000D01*
X78901335Y-107635000D01*
X79178574Y-107579853D01*
X79439727Y-107471680D01*
X79674759Y-107314637D01*
X79874637Y-107114759D01*
X80031680Y-106879727D01*
X80130000Y-106642361D01*
X80228320Y-106879727D01*
X80385363Y-107114759D01*
X80585241Y-107314637D01*
X80820273Y-107471680D01*
X81081426Y-107579853D01*
X81358665Y-107635000D01*
X81641335Y-107635000D01*
X81918574Y-107579853D01*
X82179727Y-107471680D01*
X82414759Y-107314637D01*
X82614637Y-107114759D01*
X82771680Y-106879727D01*
X82879853Y-106618574D01*
X82935000Y-106341335D01*
X82935000Y-106058665D01*
X82879853Y-105781426D01*
X82771680Y-105520273D01*
X82614637Y-105285241D01*
X82414759Y-105085363D01*
X82179727Y-104928320D01*
X81918574Y-104820147D01*
X81641335Y-104765000D01*
X81358665Y-104765000D01*
X81081426Y-104820147D01*
X80820273Y-104928320D01*
X80585241Y-105085363D01*
X80385363Y-105285241D01*
X80228320Y-105520273D01*
X80130000Y-105757639D01*
X80031680Y-105520273D01*
X79874637Y-105285241D01*
X79674759Y-105085363D01*
X79439727Y-104928320D01*
X79178574Y-104820147D01*
X78901335Y-104765000D01*
X78618665Y-104765000D01*
X78341426Y-104820147D01*
X78080273Y-104928320D01*
X77845241Y-105085363D01*
X77645363Y-105285241D01*
X77488320Y-105520273D01*
X77380147Y-105781426D01*
X77325000Y-106058665D01*
X70035000Y-106058665D01*
X69979853Y-105781426D01*
X69871680Y-105520273D01*
X69714637Y-105285241D01*
X69514759Y-105085363D01*
X69279727Y-104928320D01*
X69018574Y-104820147D01*
X68741335Y-104765000D01*
X68458665Y-104765000D01*
X68181426Y-104820147D01*
X67920273Y-104928320D01*
X67685241Y-105085363D01*
X67485363Y-105285241D01*
X67328320Y-105520273D01*
X67220147Y-105781426D01*
X67165000Y-106058665D01*
X66660000Y-106058665D01*
X66660000Y-101900031D01*
X69313698Y-101900031D01*
X69330449Y-101987591D01*
X69445526Y-102260809D01*
X69611694Y-102506326D01*
X69822567Y-102714708D01*
X70070042Y-102877947D01*
X70344608Y-102989769D01*
X70635714Y-103045877D01*
X70873000Y-102890376D01*
X70873000Y-101667000D01*
X71127000Y-101667000D01*
X71127000Y-102890376D01*
X71364286Y-103045877D01*
X71655392Y-102989769D01*
X71929958Y-102877947D01*
X72177433Y-102714708D01*
X72388306Y-102506326D01*
X72554474Y-102260809D01*
X72669551Y-101987591D01*
X72686302Y-101900031D01*
X72565246Y-101667000D01*
X71127000Y-101667000D01*
X70873000Y-101667000D01*
X69434754Y-101667000D01*
X69313698Y-101900031D01*
X66660000Y-101900031D01*
X66660000Y-87549010D01*
X68557690Y-87549010D01*
X68561990Y-87592670D01*
X68561991Y-97407320D01*
X68557690Y-97450990D01*
X68574854Y-97625264D01*
X68625688Y-97792842D01*
X68675810Y-97886613D01*
X68708238Y-97947281D01*
X68819332Y-98082649D01*
X68853249Y-98110484D01*
X69266928Y-98524163D01*
X69266928Y-99620001D01*
X69283992Y-99793255D01*
X69334528Y-99959851D01*
X69416595Y-100113387D01*
X69527038Y-100247962D01*
X69661613Y-100358405D01*
X69770590Y-100416655D01*
X69611694Y-100573674D01*
X69445526Y-100819191D01*
X69330449Y-101092409D01*
X69313698Y-101179969D01*
X69434754Y-101413000D01*
X70873000Y-101413000D01*
X70873000Y-101393000D01*
X71127000Y-101393000D01*
X71127000Y-101413000D01*
X72565246Y-101413000D01*
X72686302Y-101179969D01*
X72669551Y-101092409D01*
X72554474Y-100819191D01*
X72388306Y-100573674D01*
X72229410Y-100416655D01*
X72338387Y-100358405D01*
X72472962Y-100247962D01*
X72583405Y-100113387D01*
X72665472Y-99959851D01*
X72716008Y-99793255D01*
X72733072Y-99620001D01*
X72733072Y-98379999D01*
X72716008Y-98206745D01*
X72665472Y-98040149D01*
X72583405Y-97886613D01*
X72472962Y-97752038D01*
X72338387Y-97641595D01*
X72184851Y-97559528D01*
X72018255Y-97508992D01*
X71845001Y-97491928D01*
X70749163Y-97491928D01*
X70339990Y-97082755D01*
X70339990Y-95060762D01*
X70479968Y-95103224D01*
X70701064Y-95125000D01*
X71298936Y-95125000D01*
X71520032Y-95103224D01*
X71803725Y-95017166D01*
X72065179Y-94877417D01*
X72294345Y-94689345D01*
X72373657Y-94592702D01*
X75986903Y-94592702D01*
X76058486Y-94836671D01*
X76313996Y-94957571D01*
X76588184Y-95026300D01*
X76870512Y-95040217D01*
X77150130Y-94998787D01*
X77416292Y-94903603D01*
X77541514Y-94836671D01*
X77613097Y-94592702D01*
X76800000Y-93779605D01*
X75986903Y-94592702D01*
X72373657Y-94592702D01*
X72482417Y-94460179D01*
X72622166Y-94198725D01*
X72708224Y-93915032D01*
X72732307Y-93670512D01*
X75359783Y-93670512D01*
X75401213Y-93950130D01*
X75496397Y-94216292D01*
X75563329Y-94341514D01*
X75807298Y-94413097D01*
X76620395Y-93600000D01*
X76979605Y-93600000D01*
X77792702Y-94413097D01*
X78036671Y-94341514D01*
X78050324Y-94312659D01*
X78185363Y-94514759D01*
X78385241Y-94714637D01*
X78620273Y-94871680D01*
X78881426Y-94979853D01*
X79158665Y-95035000D01*
X79441335Y-95035000D01*
X79718574Y-94979853D01*
X79979727Y-94871680D01*
X80214759Y-94714637D01*
X80414637Y-94514759D01*
X80571680Y-94279727D01*
X80679853Y-94018574D01*
X80735000Y-93741335D01*
X80735000Y-93458665D01*
X80679853Y-93181426D01*
X80571680Y-92920273D01*
X80414637Y-92685241D01*
X80214759Y-92485363D01*
X79979727Y-92328320D01*
X79718574Y-92220147D01*
X79441335Y-92165000D01*
X79158665Y-92165000D01*
X78881426Y-92220147D01*
X78620273Y-92328320D01*
X78385241Y-92485363D01*
X78185363Y-92685241D01*
X78051308Y-92885869D01*
X78036671Y-92858486D01*
X77792702Y-92786903D01*
X76979605Y-93600000D01*
X76620395Y-93600000D01*
X75807298Y-92786903D01*
X75563329Y-92858486D01*
X75442429Y-93113996D01*
X75373700Y-93388184D01*
X75359783Y-93670512D01*
X72732307Y-93670512D01*
X72737282Y-93620000D01*
X72708224Y-93324968D01*
X72622166Y-93041275D01*
X72482417Y-92779821D01*
X72340831Y-92607298D01*
X75986903Y-92607298D01*
X76800000Y-93420395D01*
X77613097Y-92607298D01*
X77541514Y-92363329D01*
X77286004Y-92242429D01*
X77011816Y-92173700D01*
X76729488Y-92159783D01*
X76449870Y-92201213D01*
X76183708Y-92296397D01*
X76058486Y-92363329D01*
X75986903Y-92607298D01*
X72340831Y-92607298D01*
X72294345Y-92550655D01*
X72065179Y-92362583D01*
X72041638Y-92350000D01*
X72065179Y-92337417D01*
X72294345Y-92149345D01*
X72482417Y-91920179D01*
X72622166Y-91658725D01*
X72708224Y-91375032D01*
X72737282Y-91080000D01*
X72708224Y-90784968D01*
X72622166Y-90501275D01*
X72482417Y-90239821D01*
X72294345Y-90010655D01*
X72065179Y-89822583D01*
X72041638Y-89810000D01*
X72065179Y-89797417D01*
X72294345Y-89609345D01*
X72482417Y-89380179D01*
X72622166Y-89118725D01*
X72708224Y-88835032D01*
X72737282Y-88540000D01*
X72708224Y-88244968D01*
X72622166Y-87961275D01*
X72482417Y-87699821D01*
X72294345Y-87470655D01*
X72228886Y-87416934D01*
X72338387Y-87358405D01*
X72472962Y-87247962D01*
X72583405Y-87113387D01*
X72665472Y-86959851D01*
X72716008Y-86793255D01*
X72733072Y-86620001D01*
X72733072Y-85379999D01*
X72716008Y-85206745D01*
X72665472Y-85040149D01*
X72583405Y-84886613D01*
X72472962Y-84752038D01*
X72338387Y-84641595D01*
X72184851Y-84559528D01*
X72018255Y-84508992D01*
X71845001Y-84491928D01*
X70154999Y-84491928D01*
X69981745Y-84508992D01*
X69815149Y-84559528D01*
X69661613Y-84641595D01*
X69527038Y-84752038D01*
X69416595Y-84886613D01*
X69334528Y-85040149D01*
X69283992Y-85206745D01*
X69266928Y-85379999D01*
X69266928Y-86475837D01*
X68853254Y-86889511D01*
X68819331Y-86917351D01*
X68708237Y-87052720D01*
X68625687Y-87207160D01*
X68574854Y-87374737D01*
X68561990Y-87505344D01*
X68561990Y-87505350D01*
X68557690Y-87549010D01*
X66660000Y-87549010D01*
X66660000Y-81458665D01*
X67265000Y-81458665D01*
X67265000Y-81741335D01*
X67320147Y-82018574D01*
X67428320Y-82279727D01*
X67585363Y-82514759D01*
X67785241Y-82714637D01*
X68020273Y-82871680D01*
X68281426Y-82979853D01*
X68558665Y-83035000D01*
X68841335Y-83035000D01*
X69118574Y-82979853D01*
X69379727Y-82871680D01*
X69614759Y-82714637D01*
X69814637Y-82514759D01*
X69971680Y-82279727D01*
X70079853Y-82018574D01*
X70135000Y-81741335D01*
X70135000Y-81458665D01*
X70079853Y-81181426D01*
X69971680Y-80920273D01*
X69814637Y-80685241D01*
X69614759Y-80485363D01*
X69379727Y-80328320D01*
X69118574Y-80220147D01*
X68841335Y-80165000D01*
X68558665Y-80165000D01*
X68281426Y-80220147D01*
X68020273Y-80328320D01*
X67785241Y-80485363D01*
X67585363Y-80685241D01*
X67428320Y-80920273D01*
X67320147Y-81181426D01*
X67265000Y-81458665D01*
X66660000Y-81458665D01*
X66660000Y-77858665D01*
X67265000Y-77858665D01*
X67265000Y-78141335D01*
X67320147Y-78418574D01*
X67428320Y-78679727D01*
X67585363Y-78914759D01*
X67785241Y-79114637D01*
X68020273Y-79271680D01*
X68281426Y-79379853D01*
X68558665Y-79435000D01*
X68841335Y-79435000D01*
X69118574Y-79379853D01*
X69379727Y-79271680D01*
X69614759Y-79114637D01*
X69814637Y-78914759D01*
X69971680Y-78679727D01*
X70079853Y-78418574D01*
X70135000Y-78141335D01*
X70135000Y-77858665D01*
X70079853Y-77581426D01*
X69971680Y-77320273D01*
X69814637Y-77085241D01*
X69614759Y-76885363D01*
X69379727Y-76728320D01*
X69118574Y-76620147D01*
X68841335Y-76565000D01*
X68558665Y-76565000D01*
X68281426Y-76620147D01*
X68020273Y-76728320D01*
X67785241Y-76885363D01*
X67585363Y-77085241D01*
X67428320Y-77320273D01*
X67320147Y-77581426D01*
X67265000Y-77858665D01*
X66660000Y-77858665D01*
X66660000Y-74258665D01*
X67265000Y-74258665D01*
X67265000Y-74541335D01*
X67320147Y-74818574D01*
X67428320Y-75079727D01*
X67585363Y-75314759D01*
X67785241Y-75514637D01*
X68020273Y-75671680D01*
X68281426Y-75779853D01*
X68558665Y-75835000D01*
X68841335Y-75835000D01*
X69118574Y-75779853D01*
X69379727Y-75671680D01*
X69614759Y-75514637D01*
X69814637Y-75314759D01*
X69971680Y-75079727D01*
X70079853Y-74818574D01*
X70135000Y-74541335D01*
X70135000Y-74258665D01*
X77425000Y-74258665D01*
X77425000Y-74541335D01*
X77480147Y-74818574D01*
X77588320Y-75079727D01*
X77745363Y-75314759D01*
X77945241Y-75514637D01*
X78180273Y-75671680D01*
X78441426Y-75779853D01*
X78718665Y-75835000D01*
X79001335Y-75835000D01*
X79278574Y-75779853D01*
X79457000Y-75705947D01*
X79457000Y-76694053D01*
X79278574Y-76620147D01*
X79001335Y-76565000D01*
X78718665Y-76565000D01*
X78441426Y-76620147D01*
X78180273Y-76728320D01*
X77945241Y-76885363D01*
X77745363Y-77085241D01*
X77588320Y-77320273D01*
X77480147Y-77581426D01*
X77425000Y-77858665D01*
X77425000Y-78141335D01*
X77480147Y-78418574D01*
X77588320Y-78679727D01*
X77745363Y-78914759D01*
X77945241Y-79114637D01*
X78180273Y-79271680D01*
X78441426Y-79379853D01*
X78718665Y-79435000D01*
X79001335Y-79435000D01*
X79278574Y-79379853D01*
X79457000Y-79305947D01*
X79457000Y-80294053D01*
X79278574Y-80220147D01*
X79001335Y-80165000D01*
X78718665Y-80165000D01*
X78441426Y-80220147D01*
X78180273Y-80328320D01*
X77945241Y-80485363D01*
X77745363Y-80685241D01*
X77588320Y-80920273D01*
X77480147Y-81181426D01*
X77425000Y-81458665D01*
X77425000Y-81741335D01*
X77480147Y-82018574D01*
X77588320Y-82279727D01*
X77745363Y-82514759D01*
X77945241Y-82714637D01*
X78180273Y-82871680D01*
X78441426Y-82979853D01*
X78718665Y-83035000D01*
X79001335Y-83035000D01*
X79278574Y-82979853D01*
X79456999Y-82905947D01*
X79456999Y-90922339D01*
X79452699Y-90965999D01*
X79456999Y-91009659D01*
X79456999Y-91009665D01*
X79469863Y-91140272D01*
X79520696Y-91307849D01*
X79603246Y-91462289D01*
X79714340Y-91597658D01*
X79748263Y-91625498D01*
X81249929Y-93127165D01*
X81185764Y-93338691D01*
X81158057Y-93620000D01*
X81185764Y-93901309D01*
X81267818Y-94171808D01*
X81401068Y-94421101D01*
X81580392Y-94639608D01*
X81798899Y-94818932D01*
X81926741Y-94887265D01*
X81697161Y-95037399D01*
X81495500Y-95235105D01*
X81336285Y-95468354D01*
X81225633Y-95728182D01*
X81208096Y-95810961D01*
X81330085Y-96033000D01*
X82873000Y-96033000D01*
X82873000Y-96013000D01*
X83127000Y-96013000D01*
X83127000Y-96033000D01*
X84669915Y-96033000D01*
X84791904Y-95810961D01*
X84774367Y-95728182D01*
X84663715Y-95468354D01*
X84504500Y-95235105D01*
X84302839Y-95037399D01*
X84073259Y-94887265D01*
X84201101Y-94818932D01*
X84419608Y-94639608D01*
X84598932Y-94421101D01*
X84732182Y-94171808D01*
X84814236Y-93901309D01*
X84841943Y-93620000D01*
X84814236Y-93338691D01*
X84732182Y-93068192D01*
X84598932Y-92818899D01*
X84419608Y-92600392D01*
X84201101Y-92421068D01*
X84073259Y-92352735D01*
X84302839Y-92202601D01*
X84504500Y-92004895D01*
X84663715Y-91771646D01*
X84774367Y-91511818D01*
X84791904Y-91429039D01*
X84669915Y-91207000D01*
X83127000Y-91207000D01*
X83127000Y-91227000D01*
X82873000Y-91227000D01*
X82873000Y-91207000D01*
X82853000Y-91207000D01*
X82853000Y-90953000D01*
X82873000Y-90953000D01*
X82873000Y-90933000D01*
X83127000Y-90933000D01*
X83127000Y-90953000D01*
X84669915Y-90953000D01*
X84791904Y-90730961D01*
X84774367Y-90648182D01*
X84663715Y-90388354D01*
X84504500Y-90155105D01*
X84302839Y-89957399D01*
X84073259Y-89807265D01*
X84201101Y-89738932D01*
X84419608Y-89559608D01*
X84598932Y-89341101D01*
X84732182Y-89091808D01*
X84814236Y-88821309D01*
X84841943Y-88540000D01*
X84814236Y-88258691D01*
X84732182Y-87988192D01*
X84598932Y-87738899D01*
X84419608Y-87520392D01*
X84306518Y-87427581D01*
X84324482Y-87425812D01*
X84444180Y-87389502D01*
X84554494Y-87330537D01*
X84651185Y-87251185D01*
X84730537Y-87154494D01*
X84789502Y-87044180D01*
X84825812Y-86924482D01*
X84838072Y-86800000D01*
X84838072Y-86095308D01*
X87880506Y-89137742D01*
X87908341Y-89171659D01*
X88043709Y-89282753D01*
X88198149Y-89365303D01*
X88264058Y-89385296D01*
X88365724Y-89416136D01*
X88398924Y-89419406D01*
X88496333Y-89429000D01*
X88496339Y-89429000D01*
X88539999Y-89433300D01*
X88583659Y-89429000D01*
X89093205Y-89429000D01*
X89200392Y-89559608D01*
X89418899Y-89738932D01*
X89546741Y-89807265D01*
X89317161Y-89957399D01*
X89115500Y-90155105D01*
X88956285Y-90388354D01*
X88845633Y-90648182D01*
X88828096Y-90730961D01*
X88950085Y-90953000D01*
X90493000Y-90953000D01*
X90493000Y-90933000D01*
X90747000Y-90933000D01*
X90747000Y-90953000D01*
X92289915Y-90953000D01*
X92411904Y-90730961D01*
X92394367Y-90648182D01*
X92283715Y-90388354D01*
X92124500Y-90155105D01*
X91922839Y-89957399D01*
X91693259Y-89807265D01*
X91821101Y-89738932D01*
X92039608Y-89559608D01*
X92218932Y-89341101D01*
X92352182Y-89091808D01*
X92434236Y-88821309D01*
X92461943Y-88540000D01*
X92434236Y-88258691D01*
X92352182Y-87988192D01*
X92218932Y-87738899D01*
X92039608Y-87520392D01*
X91821101Y-87341068D01*
X91688142Y-87270000D01*
X91821101Y-87198932D01*
X92039608Y-87019608D01*
X92146795Y-86889000D01*
X92171765Y-86889000D01*
X101328074Y-96045310D01*
X101291776Y-96164968D01*
X101262718Y-96460000D01*
X101291776Y-96755032D01*
X101377834Y-97038725D01*
X101517583Y-97300179D01*
X101705655Y-97529345D01*
X101771114Y-97583066D01*
X101661613Y-97641595D01*
X101527038Y-97752038D01*
X101416595Y-97886613D01*
X101334528Y-98040149D01*
X101283992Y-98206745D01*
X101266928Y-98379999D01*
X101266928Y-99620001D01*
X101283992Y-99793255D01*
X101334528Y-99959851D01*
X101416595Y-100113387D01*
X101527038Y-100247962D01*
X101661613Y-100358405D01*
X101815149Y-100440472D01*
X101981745Y-100491008D01*
X102154999Y-100508072D01*
X103660011Y-100508072D01*
X103660011Y-104086831D01*
X88402264Y-119344579D01*
X88368341Y-119372419D01*
X88257247Y-119507788D01*
X88174697Y-119662228D01*
X88123864Y-119829805D01*
X88111000Y-119960412D01*
X88111000Y-119960418D01*
X88106700Y-120004078D01*
X88111000Y-120047738D01*
X88111001Y-128461928D01*
X88100000Y-128461928D01*
X87975518Y-128474188D01*
X87855820Y-128510498D01*
X87745506Y-128569463D01*
X87648815Y-128648815D01*
X87569463Y-128745506D01*
X87516120Y-128845303D01*
X87478505Y-128807688D01*
X87227095Y-128639701D01*
X86947743Y-128523989D01*
X86651184Y-128465000D01*
X86348816Y-128465000D01*
X86052257Y-128523989D01*
X85772905Y-128639701D01*
X85543010Y-128793312D01*
X85543010Y-109558665D01*
X90225000Y-109558665D01*
X90225000Y-109841335D01*
X90280147Y-110118574D01*
X90388320Y-110379727D01*
X90545363Y-110614759D01*
X90745241Y-110814637D01*
X90980273Y-110971680D01*
X91241426Y-111079853D01*
X91518665Y-111135000D01*
X91801335Y-111135000D01*
X92078574Y-111079853D01*
X92339727Y-110971680D01*
X92574759Y-110814637D01*
X92774637Y-110614759D01*
X92931680Y-110379727D01*
X93039853Y-110118574D01*
X93095000Y-109841335D01*
X93095000Y-109558665D01*
X93039853Y-109281426D01*
X92931680Y-109020273D01*
X92774637Y-108785241D01*
X92574759Y-108585363D01*
X92339727Y-108428320D01*
X92078574Y-108320147D01*
X91801335Y-108265000D01*
X91518665Y-108265000D01*
X91241426Y-108320147D01*
X90980273Y-108428320D01*
X90745241Y-108585363D01*
X90545363Y-108785241D01*
X90388320Y-109020273D01*
X90280147Y-109281426D01*
X90225000Y-109558665D01*
X85543010Y-109558665D01*
X85543010Y-99954225D01*
X88863489Y-96633747D01*
X88956285Y-96851646D01*
X89115500Y-97084895D01*
X89317161Y-97282601D01*
X89546741Y-97432735D01*
X89418899Y-97501068D01*
X89200392Y-97680392D01*
X89021068Y-97898899D01*
X88887818Y-98148192D01*
X88805764Y-98418691D01*
X88778057Y-98700000D01*
X88805764Y-98981309D01*
X88887818Y-99251808D01*
X89021068Y-99501101D01*
X89200392Y-99719608D01*
X89418899Y-99898932D01*
X89551858Y-99970000D01*
X89418899Y-100041068D01*
X89200392Y-100220392D01*
X89021068Y-100438899D01*
X88887818Y-100688192D01*
X88805764Y-100958691D01*
X88778057Y-101240000D01*
X88805764Y-101521309D01*
X88887818Y-101791808D01*
X89021068Y-102041101D01*
X89200392Y-102259608D01*
X89418899Y-102438932D01*
X89668192Y-102572182D01*
X89938691Y-102654236D01*
X90149508Y-102675000D01*
X91090492Y-102675000D01*
X91301309Y-102654236D01*
X91571808Y-102572182D01*
X91821101Y-102438932D01*
X92039608Y-102259608D01*
X92218932Y-102041101D01*
X92352182Y-101791808D01*
X92376013Y-101713248D01*
X93611000Y-102948236D01*
X93611001Y-105068151D01*
X93585241Y-105085363D01*
X93385363Y-105285241D01*
X93228320Y-105520273D01*
X93120147Y-105781426D01*
X93080000Y-105983256D01*
X93039853Y-105781426D01*
X92931680Y-105520273D01*
X92774637Y-105285241D01*
X92574759Y-105085363D01*
X92339727Y-104928320D01*
X92078574Y-104820147D01*
X91801335Y-104765000D01*
X91518665Y-104765000D01*
X91241426Y-104820147D01*
X90980273Y-104928320D01*
X90745241Y-105085363D01*
X90545363Y-105285241D01*
X90388320Y-105520273D01*
X90280147Y-105781426D01*
X90225000Y-106058665D01*
X90225000Y-106341335D01*
X90280147Y-106618574D01*
X90388320Y-106879727D01*
X90545363Y-107114759D01*
X90745241Y-107314637D01*
X90980273Y-107471680D01*
X91241426Y-107579853D01*
X91518665Y-107635000D01*
X91801335Y-107635000D01*
X92078574Y-107579853D01*
X92339727Y-107471680D01*
X92574759Y-107314637D01*
X92774637Y-107114759D01*
X92931680Y-106879727D01*
X93039853Y-106618574D01*
X93080000Y-106416744D01*
X93120147Y-106618574D01*
X93228320Y-106879727D01*
X93385363Y-107114759D01*
X93585241Y-107314637D01*
X93820273Y-107471680D01*
X94081426Y-107579853D01*
X94358665Y-107635000D01*
X94641335Y-107635000D01*
X94918574Y-107579853D01*
X95179727Y-107471680D01*
X95414759Y-107314637D01*
X95614637Y-107114759D01*
X95771680Y-106879727D01*
X95879853Y-106618574D01*
X95935000Y-106341335D01*
X95935000Y-106058665D01*
X95879853Y-105781426D01*
X95771680Y-105520273D01*
X95614637Y-105285241D01*
X95414759Y-105085363D01*
X95389000Y-105068151D01*
X95389000Y-102623660D01*
X95393300Y-102580000D01*
X95389000Y-102536340D01*
X95389000Y-102536333D01*
X95376136Y-102405726D01*
X95325303Y-102238149D01*
X95242753Y-102083709D01*
X95131659Y-101948341D01*
X95097743Y-101920507D01*
X92370071Y-99192836D01*
X92434236Y-98981309D01*
X92461943Y-98700000D01*
X92434236Y-98418691D01*
X92352182Y-98148192D01*
X92218932Y-97898899D01*
X92039608Y-97680392D01*
X91821101Y-97501068D01*
X91693259Y-97432735D01*
X91922839Y-97282601D01*
X92124500Y-97084895D01*
X92283715Y-96851646D01*
X92394367Y-96591818D01*
X92411904Y-96509039D01*
X92289915Y-96287000D01*
X90747000Y-96287000D01*
X90747000Y-96307000D01*
X90493000Y-96307000D01*
X90493000Y-96287000D01*
X90473000Y-96287000D01*
X90473000Y-96033000D01*
X90493000Y-96033000D01*
X90493000Y-96013000D01*
X90747000Y-96013000D01*
X90747000Y-96033000D01*
X92289915Y-96033000D01*
X92411904Y-95810961D01*
X92394367Y-95728182D01*
X92283715Y-95468354D01*
X92124500Y-95235105D01*
X91922839Y-95037399D01*
X91693259Y-94887265D01*
X91821101Y-94818932D01*
X92039608Y-94639608D01*
X92218932Y-94421101D01*
X92352182Y-94171808D01*
X92434236Y-93901309D01*
X92461943Y-93620000D01*
X92446053Y-93458665D01*
X92865000Y-93458665D01*
X92865000Y-93741335D01*
X92920147Y-94018574D01*
X93028320Y-94279727D01*
X93185363Y-94514759D01*
X93385241Y-94714637D01*
X93620273Y-94871680D01*
X93881426Y-94979853D01*
X94158665Y-95035000D01*
X94441335Y-95035000D01*
X94718574Y-94979853D01*
X94979727Y-94871680D01*
X95214759Y-94714637D01*
X95336694Y-94592702D01*
X95986903Y-94592702D01*
X96058486Y-94836671D01*
X96313996Y-94957571D01*
X96588184Y-95026300D01*
X96870512Y-95040217D01*
X97150130Y-94998787D01*
X97416292Y-94903603D01*
X97541514Y-94836671D01*
X97613097Y-94592702D01*
X96800000Y-93779605D01*
X95986903Y-94592702D01*
X95336694Y-94592702D01*
X95414637Y-94514759D01*
X95548692Y-94314131D01*
X95563329Y-94341514D01*
X95807298Y-94413097D01*
X96620395Y-93600000D01*
X96979605Y-93600000D01*
X97792702Y-94413097D01*
X98036671Y-94341514D01*
X98157571Y-94086004D01*
X98226300Y-93811816D01*
X98240217Y-93529488D01*
X98198787Y-93249870D01*
X98103603Y-92983708D01*
X98036671Y-92858486D01*
X97792702Y-92786903D01*
X96979605Y-93600000D01*
X96620395Y-93600000D01*
X95807298Y-92786903D01*
X95563329Y-92858486D01*
X95549676Y-92887341D01*
X95414637Y-92685241D01*
X95336694Y-92607298D01*
X95986903Y-92607298D01*
X96800000Y-93420395D01*
X97613097Y-92607298D01*
X97541514Y-92363329D01*
X97286004Y-92242429D01*
X97011816Y-92173700D01*
X96729488Y-92159783D01*
X96449870Y-92201213D01*
X96183708Y-92296397D01*
X96058486Y-92363329D01*
X95986903Y-92607298D01*
X95336694Y-92607298D01*
X95214759Y-92485363D01*
X94979727Y-92328320D01*
X94718574Y-92220147D01*
X94441335Y-92165000D01*
X94158665Y-92165000D01*
X93881426Y-92220147D01*
X93620273Y-92328320D01*
X93385241Y-92485363D01*
X93185363Y-92685241D01*
X93028320Y-92920273D01*
X92920147Y-93181426D01*
X92865000Y-93458665D01*
X92446053Y-93458665D01*
X92434236Y-93338691D01*
X92352182Y-93068192D01*
X92218932Y-92818899D01*
X92039608Y-92600392D01*
X91821101Y-92421068D01*
X91693259Y-92352735D01*
X91922839Y-92202601D01*
X92124500Y-92004895D01*
X92283715Y-91771646D01*
X92394367Y-91511818D01*
X92411904Y-91429039D01*
X92289915Y-91207000D01*
X90747000Y-91207000D01*
X90747000Y-91227000D01*
X90493000Y-91227000D01*
X90493000Y-91207000D01*
X88950085Y-91207000D01*
X88828096Y-91429039D01*
X88845633Y-91511818D01*
X88956285Y-91771646D01*
X89115500Y-92004895D01*
X89317161Y-92202601D01*
X89546741Y-92352735D01*
X89418899Y-92421068D01*
X89200392Y-92600392D01*
X89021068Y-92818899D01*
X88887818Y-93068192D01*
X88805764Y-93338691D01*
X88778057Y-93620000D01*
X88805764Y-93901309D01*
X88869929Y-94112835D01*
X84756013Y-98226752D01*
X84732182Y-98148192D01*
X84598932Y-97898899D01*
X84419608Y-97680392D01*
X84201101Y-97501068D01*
X84073259Y-97432735D01*
X84302839Y-97282601D01*
X84504500Y-97084895D01*
X84663715Y-96851646D01*
X84774367Y-96591818D01*
X84791904Y-96509039D01*
X84669915Y-96287000D01*
X83127000Y-96287000D01*
X83127000Y-96307000D01*
X82873000Y-96307000D01*
X82873000Y-96287000D01*
X81330085Y-96287000D01*
X81208096Y-96509039D01*
X81225633Y-96591818D01*
X81336285Y-96851646D01*
X81495500Y-97084895D01*
X81697161Y-97282601D01*
X81926741Y-97432735D01*
X81798899Y-97501068D01*
X81580392Y-97680392D01*
X81401068Y-97898899D01*
X81267818Y-98148192D01*
X81185764Y-98418691D01*
X81158057Y-98700000D01*
X81185764Y-98981309D01*
X81267818Y-99251808D01*
X81401068Y-99501101D01*
X81580392Y-99719608D01*
X81798899Y-99898932D01*
X81931858Y-99970000D01*
X81798899Y-100041068D01*
X81580392Y-100220392D01*
X81401068Y-100438899D01*
X81267818Y-100688192D01*
X81185764Y-100958691D01*
X81158057Y-101240000D01*
X81185764Y-101521309D01*
X81267818Y-101791808D01*
X81401068Y-102041101D01*
X81580392Y-102259608D01*
X81798899Y-102438932D01*
X82048192Y-102572182D01*
X82318691Y-102654236D01*
X82529508Y-102675000D01*
X83470492Y-102675000D01*
X83681309Y-102654236D01*
X83765010Y-102628846D01*
X83765011Y-128481670D01*
X83552257Y-128523989D01*
X83272905Y-128639701D01*
X83021495Y-128807688D01*
X82807688Y-129021495D01*
X82639701Y-129272905D01*
X82523989Y-129552257D01*
X82465000Y-129848816D01*
X82465000Y-130151184D01*
X82523989Y-130447743D01*
X82639701Y-130727095D01*
X82807688Y-130978505D01*
X83021495Y-131192312D01*
X83272905Y-131360299D01*
X83552257Y-131476011D01*
X83848816Y-131535000D01*
X84151184Y-131535000D01*
X84447743Y-131476011D01*
X84727095Y-131360299D01*
X84978505Y-131192312D01*
X85192312Y-130978505D01*
X85250000Y-130892169D01*
X85307688Y-130978505D01*
X85521495Y-131192312D01*
X85772905Y-131360299D01*
X86052257Y-131476011D01*
X86348816Y-131535000D01*
X86651184Y-131535000D01*
X86947743Y-131476011D01*
X87227095Y-131360299D01*
X87478505Y-131192312D01*
X87516120Y-131154697D01*
X87569463Y-131254494D01*
X87648815Y-131351185D01*
X87745506Y-131430537D01*
X87855820Y-131489502D01*
X87975518Y-131525812D01*
X88100000Y-131538072D01*
X89900000Y-131538072D01*
X90024482Y-131525812D01*
X90144180Y-131489502D01*
X90254494Y-131430537D01*
X90351185Y-131351185D01*
X90430537Y-131254494D01*
X90489502Y-131144180D01*
X90525812Y-131024482D01*
X90538072Y-130900000D01*
X90538072Y-129100000D01*
X90525812Y-128975518D01*
X90489502Y-128855820D01*
X90430537Y-128745506D01*
X90351185Y-128648815D01*
X90254494Y-128569463D01*
X90144180Y-128510498D01*
X90024482Y-128474188D01*
X89900000Y-128461928D01*
X89889000Y-128461928D01*
X89889000Y-124182839D01*
X90186276Y-124426807D01*
X90532854Y-124612057D01*
X90908913Y-124726133D01*
X91300000Y-124764652D01*
X91691088Y-124726133D01*
X92067147Y-124612057D01*
X92413725Y-124426807D01*
X92717503Y-124177503D01*
X92966807Y-123873725D01*
X93152057Y-123527147D01*
X93266133Y-123151087D01*
X93295000Y-122857997D01*
X93295000Y-122142002D01*
X93266133Y-121848912D01*
X93152057Y-121472853D01*
X92966807Y-121126275D01*
X92717503Y-120822497D01*
X92413725Y-120573193D01*
X92067146Y-120387943D01*
X91691087Y-120273867D01*
X91300000Y-120235348D01*
X90908912Y-120273867D01*
X90532853Y-120387943D01*
X90186275Y-120573193D01*
X89889000Y-120817160D01*
X89889000Y-120372313D01*
X103386348Y-106874966D01*
X103388320Y-106879727D01*
X103545363Y-107114759D01*
X103745241Y-107314637D01*
X103980273Y-107471680D01*
X104241426Y-107579853D01*
X104518665Y-107635000D01*
X104801335Y-107635000D01*
X105078574Y-107579853D01*
X105339727Y-107471680D01*
X105574759Y-107314637D01*
X105774637Y-107114759D01*
X105931680Y-106879727D01*
X106039853Y-106618574D01*
X106095000Y-106341335D01*
X106095000Y-106058665D01*
X106039853Y-105781426D01*
X105931680Y-105520273D01*
X105774637Y-105285241D01*
X105574759Y-105085363D01*
X105339727Y-104928320D01*
X105310540Y-104916230D01*
X105374313Y-104796919D01*
X105425146Y-104629342D01*
X105438010Y-104498735D01*
X105438010Y-104498728D01*
X105442310Y-104455068D01*
X105438010Y-104411408D01*
X105438010Y-95512670D01*
X105442310Y-95469010D01*
X105438010Y-95425350D01*
X105438010Y-95425343D01*
X105425146Y-95294736D01*
X105407058Y-95235105D01*
X105374312Y-95127157D01*
X105361519Y-95103224D01*
X105291763Y-94972719D01*
X105217996Y-94882834D01*
X105208505Y-94871269D01*
X105208504Y-94871268D01*
X105180669Y-94837351D01*
X105146753Y-94809517D01*
X104671926Y-94334690D01*
X104708224Y-94215032D01*
X104737282Y-93920000D01*
X104708224Y-93624968D01*
X104622166Y-93341275D01*
X104482417Y-93079821D01*
X104294345Y-92850655D01*
X104065179Y-92662583D01*
X104041638Y-92650000D01*
X104065179Y-92637417D01*
X104294345Y-92449345D01*
X104482417Y-92220179D01*
X104622166Y-91958725D01*
X104708224Y-91675032D01*
X104737282Y-91380000D01*
X104708224Y-91084968D01*
X104622166Y-90801275D01*
X104482417Y-90539821D01*
X104294345Y-90310655D01*
X104065179Y-90122583D01*
X104036848Y-90107440D01*
X104177433Y-90014708D01*
X104388306Y-89806326D01*
X104554474Y-89560809D01*
X104669551Y-89287591D01*
X104686302Y-89200031D01*
X104565246Y-88967000D01*
X103127000Y-88967000D01*
X103127000Y-88987000D01*
X102873000Y-88987000D01*
X102873000Y-88967000D01*
X101434754Y-88967000D01*
X101313698Y-89200031D01*
X101330449Y-89287591D01*
X101445526Y-89560809D01*
X101611694Y-89806326D01*
X101822567Y-90014708D01*
X101963152Y-90107440D01*
X101934821Y-90122583D01*
X101705655Y-90310655D01*
X101517583Y-90539821D01*
X101377834Y-90801275D01*
X101291776Y-91084968D01*
X101262718Y-91380000D01*
X101291776Y-91675032D01*
X101377834Y-91958725D01*
X101517583Y-92220179D01*
X101705655Y-92449345D01*
X101934821Y-92637417D01*
X101958362Y-92650000D01*
X101934821Y-92662583D01*
X101705655Y-92850655D01*
X101517583Y-93079821D01*
X101377834Y-93341275D01*
X101322133Y-93524897D01*
X96277205Y-88479969D01*
X101313698Y-88479969D01*
X101434754Y-88713000D01*
X102873000Y-88713000D01*
X102873000Y-87489624D01*
X103127000Y-87489624D01*
X103127000Y-88713000D01*
X104565246Y-88713000D01*
X104686302Y-88479969D01*
X104669551Y-88392409D01*
X104554474Y-88119191D01*
X104388306Y-87873674D01*
X104177433Y-87665292D01*
X103929958Y-87502053D01*
X103655392Y-87390231D01*
X103364286Y-87334123D01*
X103127000Y-87489624D01*
X102873000Y-87489624D01*
X102635714Y-87334123D01*
X102344608Y-87390231D01*
X102070042Y-87502053D01*
X101822567Y-87665292D01*
X101611694Y-87873674D01*
X101445526Y-88119191D01*
X101330449Y-88392409D01*
X101313698Y-88479969D01*
X96277205Y-88479969D01*
X93199499Y-85402264D01*
X93171659Y-85368341D01*
X93036291Y-85257247D01*
X92881851Y-85174697D01*
X92714274Y-85123864D01*
X92583667Y-85111000D01*
X92583660Y-85111000D01*
X92540000Y-85106700D01*
X92496340Y-85111000D01*
X92146795Y-85111000D01*
X92039608Y-84980392D01*
X91821101Y-84801068D01*
X91571808Y-84667818D01*
X91301309Y-84585764D01*
X91090492Y-84565000D01*
X90149508Y-84565000D01*
X89938691Y-84585764D01*
X89668192Y-84667818D01*
X89418899Y-84801068D01*
X89200392Y-84980392D01*
X89021068Y-85198899D01*
X88887818Y-85448192D01*
X88805764Y-85718691D01*
X88778057Y-86000000D01*
X88805764Y-86281309D01*
X88887818Y-86551808D01*
X89021068Y-86801101D01*
X89200392Y-87019608D01*
X89418899Y-87198932D01*
X89551858Y-87270000D01*
X89418899Y-87341068D01*
X89200392Y-87520392D01*
X89093205Y-87651000D01*
X88908236Y-87651000D01*
X83028956Y-81771721D01*
X83035000Y-81741335D01*
X83035000Y-81458665D01*
X90325000Y-81458665D01*
X90325000Y-81741335D01*
X90380147Y-82018574D01*
X90488320Y-82279727D01*
X90645363Y-82514759D01*
X90845241Y-82714637D01*
X91080273Y-82871680D01*
X91341426Y-82979853D01*
X91618665Y-83035000D01*
X91901335Y-83035000D01*
X92178574Y-82979853D01*
X92439727Y-82871680D01*
X92674759Y-82714637D01*
X92874637Y-82514759D01*
X93031680Y-82279727D01*
X93139853Y-82018574D01*
X93195000Y-81741335D01*
X93195000Y-81458665D01*
X93139853Y-81181426D01*
X93031680Y-80920273D01*
X92874637Y-80685241D01*
X92674759Y-80485363D01*
X92439727Y-80328320D01*
X92178574Y-80220147D01*
X91901335Y-80165000D01*
X91618665Y-80165000D01*
X91341426Y-80220147D01*
X91080273Y-80328320D01*
X90845241Y-80485363D01*
X90645363Y-80685241D01*
X90488320Y-80920273D01*
X90380147Y-81181426D01*
X90325000Y-81458665D01*
X83035000Y-81458665D01*
X82979853Y-81181426D01*
X82871680Y-80920273D01*
X82714637Y-80685241D01*
X82514759Y-80485363D01*
X82279727Y-80328320D01*
X82018574Y-80220147D01*
X81741335Y-80165000D01*
X81458665Y-80165000D01*
X81234999Y-80209491D01*
X81234999Y-79390509D01*
X81458665Y-79435000D01*
X81741335Y-79435000D01*
X82018574Y-79379853D01*
X82279727Y-79271680D01*
X82514759Y-79114637D01*
X82714637Y-78914759D01*
X82871680Y-78679727D01*
X82979853Y-78418574D01*
X83035000Y-78141335D01*
X83035000Y-77858665D01*
X90325000Y-77858665D01*
X90325000Y-78141335D01*
X90380147Y-78418574D01*
X90488320Y-78679727D01*
X90645363Y-78914759D01*
X90845241Y-79114637D01*
X91080273Y-79271680D01*
X91341426Y-79379853D01*
X91618665Y-79435000D01*
X91901335Y-79435000D01*
X92178574Y-79379853D01*
X92439727Y-79271680D01*
X92674759Y-79114637D01*
X92874637Y-78914759D01*
X93031680Y-78679727D01*
X93130000Y-78442361D01*
X93228320Y-78679727D01*
X93385363Y-78914759D01*
X93585241Y-79114637D01*
X93820273Y-79271680D01*
X94081426Y-79379853D01*
X94358665Y-79435000D01*
X94641335Y-79435000D01*
X94918574Y-79379853D01*
X95179727Y-79271680D01*
X95414759Y-79114637D01*
X95614637Y-78914759D01*
X95771680Y-78679727D01*
X95879853Y-78418574D01*
X95935000Y-78141335D01*
X95935000Y-77858665D01*
X103225000Y-77858665D01*
X103225000Y-78141335D01*
X103280147Y-78418574D01*
X103388320Y-78679727D01*
X103545363Y-78914759D01*
X103745241Y-79114637D01*
X103980273Y-79271680D01*
X104241426Y-79379853D01*
X104518665Y-79435000D01*
X104801335Y-79435000D01*
X105078574Y-79379853D01*
X105339727Y-79271680D01*
X105574759Y-79114637D01*
X105774637Y-78914759D01*
X105931680Y-78679727D01*
X106039853Y-78418574D01*
X106095000Y-78141335D01*
X106095000Y-77858665D01*
X106039853Y-77581426D01*
X105931680Y-77320273D01*
X105774637Y-77085241D01*
X105574759Y-76885363D01*
X105339727Y-76728320D01*
X105078574Y-76620147D01*
X104801335Y-76565000D01*
X104518665Y-76565000D01*
X104241426Y-76620147D01*
X103980273Y-76728320D01*
X103745241Y-76885363D01*
X103545363Y-77085241D01*
X103388320Y-77320273D01*
X103280147Y-77581426D01*
X103225000Y-77858665D01*
X95935000Y-77858665D01*
X95879853Y-77581426D01*
X95771680Y-77320273D01*
X95614637Y-77085241D01*
X95414759Y-76885363D01*
X95179727Y-76728320D01*
X94918574Y-76620147D01*
X94641335Y-76565000D01*
X94358665Y-76565000D01*
X94081426Y-76620147D01*
X93820273Y-76728320D01*
X93585241Y-76885363D01*
X93385363Y-77085241D01*
X93228320Y-77320273D01*
X93130000Y-77557639D01*
X93031680Y-77320273D01*
X92874637Y-77085241D01*
X92674759Y-76885363D01*
X92439727Y-76728320D01*
X92178574Y-76620147D01*
X91901335Y-76565000D01*
X91618665Y-76565000D01*
X91341426Y-76620147D01*
X91080273Y-76728320D01*
X90845241Y-76885363D01*
X90645363Y-77085241D01*
X90488320Y-77320273D01*
X90380147Y-77581426D01*
X90325000Y-77858665D01*
X83035000Y-77858665D01*
X82979853Y-77581426D01*
X82871680Y-77320273D01*
X82714637Y-77085241D01*
X82514759Y-76885363D01*
X82279727Y-76728320D01*
X82018574Y-76620147D01*
X81741335Y-76565000D01*
X81458665Y-76565000D01*
X81234999Y-76609491D01*
X81234999Y-74022236D01*
X83743237Y-71513999D01*
X83848816Y-71535000D01*
X84151184Y-71535000D01*
X84447743Y-71476011D01*
X84727095Y-71360299D01*
X84978505Y-71192312D01*
X85192312Y-70978505D01*
X85250000Y-70892169D01*
X85307688Y-70978505D01*
X85521495Y-71192312D01*
X85772905Y-71360299D01*
X86052257Y-71476011D01*
X86348816Y-71535000D01*
X86651184Y-71535000D01*
X86947743Y-71476011D01*
X87227095Y-71360299D01*
X87478505Y-71192312D01*
X87516120Y-71154697D01*
X87569463Y-71254494D01*
X87648815Y-71351185D01*
X87745506Y-71430537D01*
X87855820Y-71489502D01*
X87975518Y-71525812D01*
X88100000Y-71538072D01*
X89900000Y-71538072D01*
X90024482Y-71525812D01*
X90144180Y-71489502D01*
X90254494Y-71430537D01*
X90351185Y-71351185D01*
X90430537Y-71254494D01*
X90489502Y-71144180D01*
X90525812Y-71024482D01*
X90538072Y-70900000D01*
X90538072Y-69100000D01*
X90525812Y-68975518D01*
X90490366Y-68858665D01*
X96565000Y-68858665D01*
X96565000Y-69141335D01*
X96620147Y-69418574D01*
X96728320Y-69679727D01*
X96885363Y-69914759D01*
X97085241Y-70114637D01*
X97320273Y-70271680D01*
X97581426Y-70379853D01*
X97858665Y-70435000D01*
X98141335Y-70435000D01*
X98418574Y-70379853D01*
X98679727Y-70271680D01*
X98914759Y-70114637D01*
X99114637Y-69914759D01*
X99271680Y-69679727D01*
X99379853Y-69418574D01*
X99435000Y-69141335D01*
X99435000Y-68858665D01*
X99379853Y-68581426D01*
X99271680Y-68320273D01*
X99114637Y-68085241D01*
X98914759Y-67885363D01*
X98679727Y-67728320D01*
X98418574Y-67620147D01*
X98141335Y-67565000D01*
X97858665Y-67565000D01*
X97581426Y-67620147D01*
X97320273Y-67728320D01*
X97085241Y-67885363D01*
X96885363Y-68085241D01*
X96728320Y-68320273D01*
X96620147Y-68581426D01*
X96565000Y-68858665D01*
X90490366Y-68858665D01*
X90489502Y-68855820D01*
X90430537Y-68745506D01*
X90351185Y-68648815D01*
X90254494Y-68569463D01*
X90144180Y-68510498D01*
X90024482Y-68474188D01*
X89900000Y-68461928D01*
X88100000Y-68461928D01*
X87975518Y-68474188D01*
X87855820Y-68510498D01*
X87745506Y-68569463D01*
X87648815Y-68648815D01*
X87569463Y-68745506D01*
X87516120Y-68845303D01*
X87478505Y-68807688D01*
X87227095Y-68639701D01*
X86947743Y-68523989D01*
X86651184Y-68465000D01*
X86348816Y-68465000D01*
X86052257Y-68523989D01*
X85772905Y-68639701D01*
X85521495Y-68807688D01*
X85307688Y-69021495D01*
X85250000Y-69107831D01*
X85192312Y-69021495D01*
X84978505Y-68807688D01*
X84727095Y-68639701D01*
X84447743Y-68523989D01*
X84151184Y-68465000D01*
X83848816Y-68465000D01*
X83552257Y-68523989D01*
X83272905Y-68639701D01*
X83021495Y-68807688D01*
X82807688Y-69021495D01*
X82639701Y-69272905D01*
X82523989Y-69552257D01*
X82465000Y-69848816D01*
X82465000Y-70151184D01*
X82486001Y-70256763D01*
X79748258Y-72994507D01*
X79714341Y-73022342D01*
X79686506Y-73056259D01*
X79686504Y-73056261D01*
X79603247Y-73157710D01*
X79598106Y-73167328D01*
X79539727Y-73128320D01*
X79278574Y-73020147D01*
X79001335Y-72965000D01*
X78718665Y-72965000D01*
X78441426Y-73020147D01*
X78180273Y-73128320D01*
X77945241Y-73285363D01*
X77745363Y-73485241D01*
X77588320Y-73720273D01*
X77480147Y-73981426D01*
X77425000Y-74258665D01*
X70135000Y-74258665D01*
X70079853Y-73981426D01*
X69971680Y-73720273D01*
X69814637Y-73485241D01*
X69614759Y-73285363D01*
X69379727Y-73128320D01*
X69118574Y-73020147D01*
X68841335Y-72965000D01*
X68558665Y-72965000D01*
X68281426Y-73020147D01*
X68020273Y-73128320D01*
X67785241Y-73285363D01*
X67585363Y-73485241D01*
X67428320Y-73720273D01*
X67320147Y-73981426D01*
X67265000Y-74258665D01*
X66660000Y-74258665D01*
X66660000Y-62142003D01*
X79705000Y-62142003D01*
X79705000Y-62857998D01*
X79733867Y-63151088D01*
X79847943Y-63527147D01*
X80033193Y-63873725D01*
X80282498Y-64177503D01*
X80586276Y-64426807D01*
X80932854Y-64612057D01*
X81308913Y-64726133D01*
X81700000Y-64764652D01*
X82091088Y-64726133D01*
X82467147Y-64612057D01*
X82813725Y-64426807D01*
X83117503Y-64177503D01*
X83366807Y-63873725D01*
X83552057Y-63527147D01*
X83666133Y-63151087D01*
X83695000Y-62857997D01*
X83695000Y-62142003D01*
X89305000Y-62142003D01*
X89305000Y-62857998D01*
X89333867Y-63151088D01*
X89447943Y-63527147D01*
X89633193Y-63873725D01*
X89882498Y-64177503D01*
X90186276Y-64426807D01*
X90532854Y-64612057D01*
X90908913Y-64726133D01*
X91300000Y-64764652D01*
X91691088Y-64726133D01*
X92067147Y-64612057D01*
X92413725Y-64426807D01*
X92717503Y-64177503D01*
X92966807Y-63873725D01*
X93152057Y-63527147D01*
X93266133Y-63151087D01*
X93295000Y-62857997D01*
X93295000Y-62142002D01*
X93266133Y-61848912D01*
X93152057Y-61472853D01*
X92966807Y-61126275D01*
X92717503Y-60822497D01*
X92413725Y-60573193D01*
X92067146Y-60387943D01*
X91691087Y-60273867D01*
X91300000Y-60235348D01*
X90908912Y-60273867D01*
X90532853Y-60387943D01*
X90186275Y-60573193D01*
X89882497Y-60822497D01*
X89633193Y-61126275D01*
X89447943Y-61472854D01*
X89333867Y-61848913D01*
X89305000Y-62142003D01*
X83695000Y-62142003D01*
X83695000Y-62142002D01*
X83666133Y-61848912D01*
X83552057Y-61472853D01*
X83366807Y-61126275D01*
X83117503Y-60822497D01*
X82813725Y-60573193D01*
X82467146Y-60387943D01*
X82091087Y-60273867D01*
X81700000Y-60235348D01*
X81308912Y-60273867D01*
X80932853Y-60387943D01*
X80586275Y-60573193D01*
X80282497Y-60822497D01*
X80033193Y-61126275D01*
X79847943Y-61472854D01*
X79733867Y-61848913D01*
X79705000Y-62142003D01*
X66660000Y-62142003D01*
X66660000Y-59189040D01*
X96608091Y-59189040D01*
X96702930Y-59453881D01*
X96847615Y-59695131D01*
X97036586Y-59903519D01*
X97262580Y-60071037D01*
X97516913Y-60191246D01*
X97650961Y-60231904D01*
X97873000Y-60109915D01*
X97873000Y-58967000D01*
X98127000Y-58967000D01*
X98127000Y-60109915D01*
X98349039Y-60231904D01*
X98483087Y-60191246D01*
X98737420Y-60071037D01*
X98963414Y-59903519D01*
X99152385Y-59695131D01*
X99297070Y-59453881D01*
X99391909Y-59189040D01*
X99270624Y-58967000D01*
X98127000Y-58967000D01*
X97873000Y-58967000D01*
X96729376Y-58967000D01*
X96608091Y-59189040D01*
X66660000Y-59189040D01*
X66660000Y-58490960D01*
X96608091Y-58490960D01*
X96729376Y-58713000D01*
X97873000Y-58713000D01*
X97873000Y-57570085D01*
X98127000Y-57570085D01*
X98127000Y-58713000D01*
X99270624Y-58713000D01*
X99391909Y-58490960D01*
X99297070Y-58226119D01*
X99152385Y-57984869D01*
X98963414Y-57776481D01*
X98737420Y-57608963D01*
X98483087Y-57488754D01*
X98349039Y-57448096D01*
X98127000Y-57570085D01*
X97873000Y-57570085D01*
X97650961Y-57448096D01*
X97516913Y-57488754D01*
X97262580Y-57608963D01*
X97036586Y-57776481D01*
X96847615Y-57984869D01*
X96702930Y-58226119D01*
X96608091Y-58490960D01*
X66660000Y-58490960D01*
X66660000Y-55660000D01*
X107340000Y-55660000D01*
X107340001Y-132840000D01*
%TA.AperFunction,Conductor*%
D21*
G36*
X107340001Y-132840000D02*
G01*
X66660000Y-132840000D01*
X66660000Y-122142003D01*
X79705000Y-122142003D01*
X79705000Y-122857998D01*
X79733867Y-123151088D01*
X79847943Y-123527147D01*
X80033193Y-123873725D01*
X80282498Y-124177503D01*
X80586276Y-124426807D01*
X80932854Y-124612057D01*
X81308913Y-124726133D01*
X81700000Y-124764652D01*
X82091088Y-124726133D01*
X82467147Y-124612057D01*
X82813725Y-124426807D01*
X83117503Y-124177503D01*
X83366807Y-123873725D01*
X83552057Y-123527147D01*
X83666133Y-123151087D01*
X83695000Y-122857997D01*
X83695000Y-122142002D01*
X83666133Y-121848912D01*
X83552057Y-121472853D01*
X83366807Y-121126275D01*
X83117503Y-120822497D01*
X82813725Y-120573193D01*
X82467146Y-120387943D01*
X82091087Y-120273867D01*
X81700000Y-120235348D01*
X81308912Y-120273867D01*
X80932853Y-120387943D01*
X80586275Y-120573193D01*
X80282497Y-120822497D01*
X80033193Y-121126275D01*
X79847943Y-121472854D01*
X79733867Y-121848913D01*
X79705000Y-122142003D01*
X66660000Y-122142003D01*
X66660000Y-113058665D01*
X67165000Y-113058665D01*
X67165000Y-113341335D01*
X67220147Y-113618574D01*
X67328320Y-113879727D01*
X67485363Y-114114759D01*
X67685241Y-114314637D01*
X67920273Y-114471680D01*
X68181426Y-114579853D01*
X68458665Y-114635000D01*
X68741335Y-114635000D01*
X69018574Y-114579853D01*
X69279727Y-114471680D01*
X69514759Y-114314637D01*
X69714637Y-114114759D01*
X69871680Y-113879727D01*
X69979853Y-113618574D01*
X70035000Y-113341335D01*
X70035000Y-113058665D01*
X77325000Y-113058665D01*
X77325000Y-113341335D01*
X77380147Y-113618574D01*
X77488320Y-113879727D01*
X77645363Y-114114759D01*
X77845241Y-114314637D01*
X78080273Y-114471680D01*
X78341426Y-114579853D01*
X78618665Y-114635000D01*
X78901335Y-114635000D01*
X79178574Y-114579853D01*
X79439727Y-114471680D01*
X79674759Y-114314637D01*
X79874637Y-114114759D01*
X80031680Y-113879727D01*
X80139853Y-113618574D01*
X80195000Y-113341335D01*
X80195000Y-113058665D01*
X80139853Y-112781426D01*
X80031680Y-112520273D01*
X79874637Y-112285241D01*
X79674759Y-112085363D01*
X79439727Y-111928320D01*
X79178574Y-111820147D01*
X78901335Y-111765000D01*
X78618665Y-111765000D01*
X78341426Y-111820147D01*
X78080273Y-111928320D01*
X77845241Y-112085363D01*
X77645363Y-112285241D01*
X77488320Y-112520273D01*
X77380147Y-112781426D01*
X77325000Y-113058665D01*
X70035000Y-113058665D01*
X69979853Y-112781426D01*
X69871680Y-112520273D01*
X69714637Y-112285241D01*
X69514759Y-112085363D01*
X69279727Y-111928320D01*
X69018574Y-111820147D01*
X68741335Y-111765000D01*
X68458665Y-111765000D01*
X68181426Y-111820147D01*
X67920273Y-111928320D01*
X67685241Y-112085363D01*
X67485363Y-112285241D01*
X67328320Y-112520273D01*
X67220147Y-112781426D01*
X67165000Y-113058665D01*
X66660000Y-113058665D01*
X66660000Y-109558665D01*
X67165000Y-109558665D01*
X67165000Y-109841335D01*
X67220147Y-110118574D01*
X67328320Y-110379727D01*
X67485363Y-110614759D01*
X67685241Y-110814637D01*
X67920273Y-110971680D01*
X68181426Y-111079853D01*
X68458665Y-111135000D01*
X68741335Y-111135000D01*
X69018574Y-111079853D01*
X69279727Y-110971680D01*
X69514759Y-110814637D01*
X69714637Y-110614759D01*
X69871680Y-110379727D01*
X69979853Y-110118574D01*
X70035000Y-109841335D01*
X70035000Y-109558665D01*
X77325000Y-109558665D01*
X77325000Y-109841335D01*
X77380147Y-110118574D01*
X77488320Y-110379727D01*
X77645363Y-110614759D01*
X77845241Y-110814637D01*
X78080273Y-110971680D01*
X78341426Y-111079853D01*
X78618665Y-111135000D01*
X78901335Y-111135000D01*
X79178574Y-111079853D01*
X79439727Y-110971680D01*
X79674759Y-110814637D01*
X79874637Y-110614759D01*
X80031680Y-110379727D01*
X80130000Y-110142361D01*
X80228320Y-110379727D01*
X80385363Y-110614759D01*
X80585241Y-110814637D01*
X80820273Y-110971680D01*
X81081426Y-111079853D01*
X81358665Y-111135000D01*
X81641335Y-111135000D01*
X81918574Y-111079853D01*
X82179727Y-110971680D01*
X82414759Y-110814637D01*
X82614637Y-110614759D01*
X82771680Y-110379727D01*
X82879853Y-110118574D01*
X82935000Y-109841335D01*
X82935000Y-109558665D01*
X82879853Y-109281426D01*
X82771680Y-109020273D01*
X82614637Y-108785241D01*
X82414759Y-108585363D01*
X82179727Y-108428320D01*
X81918574Y-108320147D01*
X81641335Y-108265000D01*
X81358665Y-108265000D01*
X81081426Y-108320147D01*
X80820273Y-108428320D01*
X80585241Y-108585363D01*
X80385363Y-108785241D01*
X80228320Y-109020273D01*
X80130000Y-109257639D01*
X80031680Y-109020273D01*
X79874637Y-108785241D01*
X79674759Y-108585363D01*
X79439727Y-108428320D01*
X79178574Y-108320147D01*
X78901335Y-108265000D01*
X78618665Y-108265000D01*
X78341426Y-108320147D01*
X78080273Y-108428320D01*
X77845241Y-108585363D01*
X77645363Y-108785241D01*
X77488320Y-109020273D01*
X77380147Y-109281426D01*
X77325000Y-109558665D01*
X70035000Y-109558665D01*
X69979853Y-109281426D01*
X69871680Y-109020273D01*
X69714637Y-108785241D01*
X69514759Y-108585363D01*
X69279727Y-108428320D01*
X69018574Y-108320147D01*
X68741335Y-108265000D01*
X68458665Y-108265000D01*
X68181426Y-108320147D01*
X67920273Y-108428320D01*
X67685241Y-108585363D01*
X67485363Y-108785241D01*
X67328320Y-109020273D01*
X67220147Y-109281426D01*
X67165000Y-109558665D01*
X66660000Y-109558665D01*
X66660000Y-106058665D01*
X67165000Y-106058665D01*
X67165000Y-106341335D01*
X67220147Y-106618574D01*
X67328320Y-106879727D01*
X67485363Y-107114759D01*
X67685241Y-107314637D01*
X67920273Y-107471680D01*
X68181426Y-107579853D01*
X68458665Y-107635000D01*
X68741335Y-107635000D01*
X69018574Y-107579853D01*
X69279727Y-107471680D01*
X69514759Y-107314637D01*
X69714637Y-107114759D01*
X69871680Y-106879727D01*
X69979853Y-106618574D01*
X70035000Y-106341335D01*
X70035000Y-106058665D01*
X77325000Y-106058665D01*
X77325000Y-106341335D01*
X77380147Y-106618574D01*
X77488320Y-106879727D01*
X77645363Y-107114759D01*
X77845241Y-107314637D01*
X78080273Y-107471680D01*
X78341426Y-107579853D01*
X78618665Y-107635000D01*
X78901335Y-107635000D01*
X79178574Y-107579853D01*
X79439727Y-107471680D01*
X79674759Y-107314637D01*
X79874637Y-107114759D01*
X80031680Y-106879727D01*
X80130000Y-106642361D01*
X80228320Y-106879727D01*
X80385363Y-107114759D01*
X80585241Y-107314637D01*
X80820273Y-107471680D01*
X81081426Y-107579853D01*
X81358665Y-107635000D01*
X81641335Y-107635000D01*
X81918574Y-107579853D01*
X82179727Y-107471680D01*
X82414759Y-107314637D01*
X82614637Y-107114759D01*
X82771680Y-106879727D01*
X82879853Y-106618574D01*
X82935000Y-106341335D01*
X82935000Y-106058665D01*
X82879853Y-105781426D01*
X82771680Y-105520273D01*
X82614637Y-105285241D01*
X82414759Y-105085363D01*
X82179727Y-104928320D01*
X81918574Y-104820147D01*
X81641335Y-104765000D01*
X81358665Y-104765000D01*
X81081426Y-104820147D01*
X80820273Y-104928320D01*
X80585241Y-105085363D01*
X80385363Y-105285241D01*
X80228320Y-105520273D01*
X80130000Y-105757639D01*
X80031680Y-105520273D01*
X79874637Y-105285241D01*
X79674759Y-105085363D01*
X79439727Y-104928320D01*
X79178574Y-104820147D01*
X78901335Y-104765000D01*
X78618665Y-104765000D01*
X78341426Y-104820147D01*
X78080273Y-104928320D01*
X77845241Y-105085363D01*
X77645363Y-105285241D01*
X77488320Y-105520273D01*
X77380147Y-105781426D01*
X77325000Y-106058665D01*
X70035000Y-106058665D01*
X69979853Y-105781426D01*
X69871680Y-105520273D01*
X69714637Y-105285241D01*
X69514759Y-105085363D01*
X69279727Y-104928320D01*
X69018574Y-104820147D01*
X68741335Y-104765000D01*
X68458665Y-104765000D01*
X68181426Y-104820147D01*
X67920273Y-104928320D01*
X67685241Y-105085363D01*
X67485363Y-105285241D01*
X67328320Y-105520273D01*
X67220147Y-105781426D01*
X67165000Y-106058665D01*
X66660000Y-106058665D01*
X66660000Y-101900031D01*
X69313698Y-101900031D01*
X69330449Y-101987591D01*
X69445526Y-102260809D01*
X69611694Y-102506326D01*
X69822567Y-102714708D01*
X70070042Y-102877947D01*
X70344608Y-102989769D01*
X70635714Y-103045877D01*
X70873000Y-102890376D01*
X70873000Y-101667000D01*
X71127000Y-101667000D01*
X71127000Y-102890376D01*
X71364286Y-103045877D01*
X71655392Y-102989769D01*
X71929958Y-102877947D01*
X72177433Y-102714708D01*
X72388306Y-102506326D01*
X72554474Y-102260809D01*
X72669551Y-101987591D01*
X72686302Y-101900031D01*
X72565246Y-101667000D01*
X71127000Y-101667000D01*
X70873000Y-101667000D01*
X69434754Y-101667000D01*
X69313698Y-101900031D01*
X66660000Y-101900031D01*
X66660000Y-87549010D01*
X68557690Y-87549010D01*
X68561990Y-87592670D01*
X68561991Y-97407320D01*
X68557690Y-97450990D01*
X68574854Y-97625264D01*
X68625688Y-97792842D01*
X68675810Y-97886613D01*
X68708238Y-97947281D01*
X68819332Y-98082649D01*
X68853249Y-98110484D01*
X69266928Y-98524163D01*
X69266928Y-99620001D01*
X69283992Y-99793255D01*
X69334528Y-99959851D01*
X69416595Y-100113387D01*
X69527038Y-100247962D01*
X69661613Y-100358405D01*
X69770590Y-100416655D01*
X69611694Y-100573674D01*
X69445526Y-100819191D01*
X69330449Y-101092409D01*
X69313698Y-101179969D01*
X69434754Y-101413000D01*
X70873000Y-101413000D01*
X70873000Y-101393000D01*
X71127000Y-101393000D01*
X71127000Y-101413000D01*
X72565246Y-101413000D01*
X72686302Y-101179969D01*
X72669551Y-101092409D01*
X72554474Y-100819191D01*
X72388306Y-100573674D01*
X72229410Y-100416655D01*
X72338387Y-100358405D01*
X72472962Y-100247962D01*
X72583405Y-100113387D01*
X72665472Y-99959851D01*
X72716008Y-99793255D01*
X72733072Y-99620001D01*
X72733072Y-98379999D01*
X72716008Y-98206745D01*
X72665472Y-98040149D01*
X72583405Y-97886613D01*
X72472962Y-97752038D01*
X72338387Y-97641595D01*
X72184851Y-97559528D01*
X72018255Y-97508992D01*
X71845001Y-97491928D01*
X70749163Y-97491928D01*
X70339990Y-97082755D01*
X70339990Y-95060762D01*
X70479968Y-95103224D01*
X70701064Y-95125000D01*
X71298936Y-95125000D01*
X71520032Y-95103224D01*
X71803725Y-95017166D01*
X72065179Y-94877417D01*
X72294345Y-94689345D01*
X72373657Y-94592702D01*
X75986903Y-94592702D01*
X76058486Y-94836671D01*
X76313996Y-94957571D01*
X76588184Y-95026300D01*
X76870512Y-95040217D01*
X77150130Y-94998787D01*
X77416292Y-94903603D01*
X77541514Y-94836671D01*
X77613097Y-94592702D01*
X76800000Y-93779605D01*
X75986903Y-94592702D01*
X72373657Y-94592702D01*
X72482417Y-94460179D01*
X72622166Y-94198725D01*
X72708224Y-93915032D01*
X72732307Y-93670512D01*
X75359783Y-93670512D01*
X75401213Y-93950130D01*
X75496397Y-94216292D01*
X75563329Y-94341514D01*
X75807298Y-94413097D01*
X76620395Y-93600000D01*
X76979605Y-93600000D01*
X77792702Y-94413097D01*
X78036671Y-94341514D01*
X78050324Y-94312659D01*
X78185363Y-94514759D01*
X78385241Y-94714637D01*
X78620273Y-94871680D01*
X78881426Y-94979853D01*
X79158665Y-95035000D01*
X79441335Y-95035000D01*
X79718574Y-94979853D01*
X79979727Y-94871680D01*
X80214759Y-94714637D01*
X80414637Y-94514759D01*
X80571680Y-94279727D01*
X80679853Y-94018574D01*
X80735000Y-93741335D01*
X80735000Y-93458665D01*
X80679853Y-93181426D01*
X80571680Y-92920273D01*
X80414637Y-92685241D01*
X80214759Y-92485363D01*
X79979727Y-92328320D01*
X79718574Y-92220147D01*
X79441335Y-92165000D01*
X79158665Y-92165000D01*
X78881426Y-92220147D01*
X78620273Y-92328320D01*
X78385241Y-92485363D01*
X78185363Y-92685241D01*
X78051308Y-92885869D01*
X78036671Y-92858486D01*
X77792702Y-92786903D01*
X76979605Y-93600000D01*
X76620395Y-93600000D01*
X75807298Y-92786903D01*
X75563329Y-92858486D01*
X75442429Y-93113996D01*
X75373700Y-93388184D01*
X75359783Y-93670512D01*
X72732307Y-93670512D01*
X72737282Y-93620000D01*
X72708224Y-93324968D01*
X72622166Y-93041275D01*
X72482417Y-92779821D01*
X72340831Y-92607298D01*
X75986903Y-92607298D01*
X76800000Y-93420395D01*
X77613097Y-92607298D01*
X77541514Y-92363329D01*
X77286004Y-92242429D01*
X77011816Y-92173700D01*
X76729488Y-92159783D01*
X76449870Y-92201213D01*
X76183708Y-92296397D01*
X76058486Y-92363329D01*
X75986903Y-92607298D01*
X72340831Y-92607298D01*
X72294345Y-92550655D01*
X72065179Y-92362583D01*
X72041638Y-92350000D01*
X72065179Y-92337417D01*
X72294345Y-92149345D01*
X72482417Y-91920179D01*
X72622166Y-91658725D01*
X72708224Y-91375032D01*
X72737282Y-91080000D01*
X72708224Y-90784968D01*
X72622166Y-90501275D01*
X72482417Y-90239821D01*
X72294345Y-90010655D01*
X72065179Y-89822583D01*
X72041638Y-89810000D01*
X72065179Y-89797417D01*
X72294345Y-89609345D01*
X72482417Y-89380179D01*
X72622166Y-89118725D01*
X72708224Y-88835032D01*
X72737282Y-88540000D01*
X72708224Y-88244968D01*
X72622166Y-87961275D01*
X72482417Y-87699821D01*
X72294345Y-87470655D01*
X72228886Y-87416934D01*
X72338387Y-87358405D01*
X72472962Y-87247962D01*
X72583405Y-87113387D01*
X72665472Y-86959851D01*
X72716008Y-86793255D01*
X72733072Y-86620001D01*
X72733072Y-85379999D01*
X72716008Y-85206745D01*
X72665472Y-85040149D01*
X72583405Y-84886613D01*
X72472962Y-84752038D01*
X72338387Y-84641595D01*
X72184851Y-84559528D01*
X72018255Y-84508992D01*
X71845001Y-84491928D01*
X70154999Y-84491928D01*
X69981745Y-84508992D01*
X69815149Y-84559528D01*
X69661613Y-84641595D01*
X69527038Y-84752038D01*
X69416595Y-84886613D01*
X69334528Y-85040149D01*
X69283992Y-85206745D01*
X69266928Y-85379999D01*
X69266928Y-86475837D01*
X68853254Y-86889511D01*
X68819331Y-86917351D01*
X68708237Y-87052720D01*
X68625687Y-87207160D01*
X68574854Y-87374737D01*
X68561990Y-87505344D01*
X68561990Y-87505350D01*
X68557690Y-87549010D01*
X66660000Y-87549010D01*
X66660000Y-81458665D01*
X67265000Y-81458665D01*
X67265000Y-81741335D01*
X67320147Y-82018574D01*
X67428320Y-82279727D01*
X67585363Y-82514759D01*
X67785241Y-82714637D01*
X68020273Y-82871680D01*
X68281426Y-82979853D01*
X68558665Y-83035000D01*
X68841335Y-83035000D01*
X69118574Y-82979853D01*
X69379727Y-82871680D01*
X69614759Y-82714637D01*
X69814637Y-82514759D01*
X69971680Y-82279727D01*
X70079853Y-82018574D01*
X70135000Y-81741335D01*
X70135000Y-81458665D01*
X70079853Y-81181426D01*
X69971680Y-80920273D01*
X69814637Y-80685241D01*
X69614759Y-80485363D01*
X69379727Y-80328320D01*
X69118574Y-80220147D01*
X68841335Y-80165000D01*
X68558665Y-80165000D01*
X68281426Y-80220147D01*
X68020273Y-80328320D01*
X67785241Y-80485363D01*
X67585363Y-80685241D01*
X67428320Y-80920273D01*
X67320147Y-81181426D01*
X67265000Y-81458665D01*
X66660000Y-81458665D01*
X66660000Y-77858665D01*
X67265000Y-77858665D01*
X67265000Y-78141335D01*
X67320147Y-78418574D01*
X67428320Y-78679727D01*
X67585363Y-78914759D01*
X67785241Y-79114637D01*
X68020273Y-79271680D01*
X68281426Y-79379853D01*
X68558665Y-79435000D01*
X68841335Y-79435000D01*
X69118574Y-79379853D01*
X69379727Y-79271680D01*
X69614759Y-79114637D01*
X69814637Y-78914759D01*
X69971680Y-78679727D01*
X70079853Y-78418574D01*
X70135000Y-78141335D01*
X70135000Y-77858665D01*
X70079853Y-77581426D01*
X69971680Y-77320273D01*
X69814637Y-77085241D01*
X69614759Y-76885363D01*
X69379727Y-76728320D01*
X69118574Y-76620147D01*
X68841335Y-76565000D01*
X68558665Y-76565000D01*
X68281426Y-76620147D01*
X68020273Y-76728320D01*
X67785241Y-76885363D01*
X67585363Y-77085241D01*
X67428320Y-77320273D01*
X67320147Y-77581426D01*
X67265000Y-77858665D01*
X66660000Y-77858665D01*
X66660000Y-74258665D01*
X67265000Y-74258665D01*
X67265000Y-74541335D01*
X67320147Y-74818574D01*
X67428320Y-75079727D01*
X67585363Y-75314759D01*
X67785241Y-75514637D01*
X68020273Y-75671680D01*
X68281426Y-75779853D01*
X68558665Y-75835000D01*
X68841335Y-75835000D01*
X69118574Y-75779853D01*
X69379727Y-75671680D01*
X69614759Y-75514637D01*
X69814637Y-75314759D01*
X69971680Y-75079727D01*
X70079853Y-74818574D01*
X70135000Y-74541335D01*
X70135000Y-74258665D01*
X77425000Y-74258665D01*
X77425000Y-74541335D01*
X77480147Y-74818574D01*
X77588320Y-75079727D01*
X77745363Y-75314759D01*
X77945241Y-75514637D01*
X78180273Y-75671680D01*
X78441426Y-75779853D01*
X78718665Y-75835000D01*
X79001335Y-75835000D01*
X79278574Y-75779853D01*
X79457000Y-75705947D01*
X79457000Y-76694053D01*
X79278574Y-76620147D01*
X79001335Y-76565000D01*
X78718665Y-76565000D01*
X78441426Y-76620147D01*
X78180273Y-76728320D01*
X77945241Y-76885363D01*
X77745363Y-77085241D01*
X77588320Y-77320273D01*
X77480147Y-77581426D01*
X77425000Y-77858665D01*
X77425000Y-78141335D01*
X77480147Y-78418574D01*
X77588320Y-78679727D01*
X77745363Y-78914759D01*
X77945241Y-79114637D01*
X78180273Y-79271680D01*
X78441426Y-79379853D01*
X78718665Y-79435000D01*
X79001335Y-79435000D01*
X79278574Y-79379853D01*
X79457000Y-79305947D01*
X79457000Y-80294053D01*
X79278574Y-80220147D01*
X79001335Y-80165000D01*
X78718665Y-80165000D01*
X78441426Y-80220147D01*
X78180273Y-80328320D01*
X77945241Y-80485363D01*
X77745363Y-80685241D01*
X77588320Y-80920273D01*
X77480147Y-81181426D01*
X77425000Y-81458665D01*
X77425000Y-81741335D01*
X77480147Y-82018574D01*
X77588320Y-82279727D01*
X77745363Y-82514759D01*
X77945241Y-82714637D01*
X78180273Y-82871680D01*
X78441426Y-82979853D01*
X78718665Y-83035000D01*
X79001335Y-83035000D01*
X79278574Y-82979853D01*
X79456999Y-82905947D01*
X79456999Y-90922339D01*
X79452699Y-90965999D01*
X79456999Y-91009659D01*
X79456999Y-91009665D01*
X79469863Y-91140272D01*
X79520696Y-91307849D01*
X79603246Y-91462289D01*
X79714340Y-91597658D01*
X79748263Y-91625498D01*
X81249929Y-93127165D01*
X81185764Y-93338691D01*
X81158057Y-93620000D01*
X81185764Y-93901309D01*
X81267818Y-94171808D01*
X81401068Y-94421101D01*
X81580392Y-94639608D01*
X81798899Y-94818932D01*
X81926741Y-94887265D01*
X81697161Y-95037399D01*
X81495500Y-95235105D01*
X81336285Y-95468354D01*
X81225633Y-95728182D01*
X81208096Y-95810961D01*
X81330085Y-96033000D01*
X82873000Y-96033000D01*
X82873000Y-96013000D01*
X83127000Y-96013000D01*
X83127000Y-96033000D01*
X84669915Y-96033000D01*
X84791904Y-95810961D01*
X84774367Y-95728182D01*
X84663715Y-95468354D01*
X84504500Y-95235105D01*
X84302839Y-95037399D01*
X84073259Y-94887265D01*
X84201101Y-94818932D01*
X84419608Y-94639608D01*
X84598932Y-94421101D01*
X84732182Y-94171808D01*
X84814236Y-93901309D01*
X84841943Y-93620000D01*
X84814236Y-93338691D01*
X84732182Y-93068192D01*
X84598932Y-92818899D01*
X84419608Y-92600392D01*
X84201101Y-92421068D01*
X84073259Y-92352735D01*
X84302839Y-92202601D01*
X84504500Y-92004895D01*
X84663715Y-91771646D01*
X84774367Y-91511818D01*
X84791904Y-91429039D01*
X84669915Y-91207000D01*
X83127000Y-91207000D01*
X83127000Y-91227000D01*
X82873000Y-91227000D01*
X82873000Y-91207000D01*
X82853000Y-91207000D01*
X82853000Y-90953000D01*
X82873000Y-90953000D01*
X82873000Y-90933000D01*
X83127000Y-90933000D01*
X83127000Y-90953000D01*
X84669915Y-90953000D01*
X84791904Y-90730961D01*
X84774367Y-90648182D01*
X84663715Y-90388354D01*
X84504500Y-90155105D01*
X84302839Y-89957399D01*
X84073259Y-89807265D01*
X84201101Y-89738932D01*
X84419608Y-89559608D01*
X84598932Y-89341101D01*
X84732182Y-89091808D01*
X84814236Y-88821309D01*
X84841943Y-88540000D01*
X84814236Y-88258691D01*
X84732182Y-87988192D01*
X84598932Y-87738899D01*
X84419608Y-87520392D01*
X84306518Y-87427581D01*
X84324482Y-87425812D01*
X84444180Y-87389502D01*
X84554494Y-87330537D01*
X84651185Y-87251185D01*
X84730537Y-87154494D01*
X84789502Y-87044180D01*
X84825812Y-86924482D01*
X84838072Y-86800000D01*
X84838072Y-86095308D01*
X87880506Y-89137742D01*
X87908341Y-89171659D01*
X88043709Y-89282753D01*
X88198149Y-89365303D01*
X88264058Y-89385296D01*
X88365724Y-89416136D01*
X88398924Y-89419406D01*
X88496333Y-89429000D01*
X88496339Y-89429000D01*
X88539999Y-89433300D01*
X88583659Y-89429000D01*
X89093205Y-89429000D01*
X89200392Y-89559608D01*
X89418899Y-89738932D01*
X89546741Y-89807265D01*
X89317161Y-89957399D01*
X89115500Y-90155105D01*
X88956285Y-90388354D01*
X88845633Y-90648182D01*
X88828096Y-90730961D01*
X88950085Y-90953000D01*
X90493000Y-90953000D01*
X90493000Y-90933000D01*
X90747000Y-90933000D01*
X90747000Y-90953000D01*
X92289915Y-90953000D01*
X92411904Y-90730961D01*
X92394367Y-90648182D01*
X92283715Y-90388354D01*
X92124500Y-90155105D01*
X91922839Y-89957399D01*
X91693259Y-89807265D01*
X91821101Y-89738932D01*
X92039608Y-89559608D01*
X92218932Y-89341101D01*
X92352182Y-89091808D01*
X92434236Y-88821309D01*
X92461943Y-88540000D01*
X92434236Y-88258691D01*
X92352182Y-87988192D01*
X92218932Y-87738899D01*
X92039608Y-87520392D01*
X91821101Y-87341068D01*
X91688142Y-87270000D01*
X91821101Y-87198932D01*
X92039608Y-87019608D01*
X92146795Y-86889000D01*
X92171765Y-86889000D01*
X101328074Y-96045310D01*
X101291776Y-96164968D01*
X101262718Y-96460000D01*
X101291776Y-96755032D01*
X101377834Y-97038725D01*
X101517583Y-97300179D01*
X101705655Y-97529345D01*
X101771114Y-97583066D01*
X101661613Y-97641595D01*
X101527038Y-97752038D01*
X101416595Y-97886613D01*
X101334528Y-98040149D01*
X101283992Y-98206745D01*
X101266928Y-98379999D01*
X101266928Y-99620001D01*
X101283992Y-99793255D01*
X101334528Y-99959851D01*
X101416595Y-100113387D01*
X101527038Y-100247962D01*
X101661613Y-100358405D01*
X101815149Y-100440472D01*
X101981745Y-100491008D01*
X102154999Y-100508072D01*
X103660011Y-100508072D01*
X103660011Y-104086831D01*
X88402264Y-119344579D01*
X88368341Y-119372419D01*
X88257247Y-119507788D01*
X88174697Y-119662228D01*
X88123864Y-119829805D01*
X88111000Y-119960412D01*
X88111000Y-119960418D01*
X88106700Y-120004078D01*
X88111000Y-120047738D01*
X88111001Y-128461928D01*
X88100000Y-128461928D01*
X87975518Y-128474188D01*
X87855820Y-128510498D01*
X87745506Y-128569463D01*
X87648815Y-128648815D01*
X87569463Y-128745506D01*
X87516120Y-128845303D01*
X87478505Y-128807688D01*
X87227095Y-128639701D01*
X86947743Y-128523989D01*
X86651184Y-128465000D01*
X86348816Y-128465000D01*
X86052257Y-128523989D01*
X85772905Y-128639701D01*
X85543010Y-128793312D01*
X85543010Y-109558665D01*
X90225000Y-109558665D01*
X90225000Y-109841335D01*
X90280147Y-110118574D01*
X90388320Y-110379727D01*
X90545363Y-110614759D01*
X90745241Y-110814637D01*
X90980273Y-110971680D01*
X91241426Y-111079853D01*
X91518665Y-111135000D01*
X91801335Y-111135000D01*
X92078574Y-111079853D01*
X92339727Y-110971680D01*
X92574759Y-110814637D01*
X92774637Y-110614759D01*
X92931680Y-110379727D01*
X93039853Y-110118574D01*
X93095000Y-109841335D01*
X93095000Y-109558665D01*
X93039853Y-109281426D01*
X92931680Y-109020273D01*
X92774637Y-108785241D01*
X92574759Y-108585363D01*
X92339727Y-108428320D01*
X92078574Y-108320147D01*
X91801335Y-108265000D01*
X91518665Y-108265000D01*
X91241426Y-108320147D01*
X90980273Y-108428320D01*
X90745241Y-108585363D01*
X90545363Y-108785241D01*
X90388320Y-109020273D01*
X90280147Y-109281426D01*
X90225000Y-109558665D01*
X85543010Y-109558665D01*
X85543010Y-99954225D01*
X88863489Y-96633747D01*
X88956285Y-96851646D01*
X89115500Y-97084895D01*
X89317161Y-97282601D01*
X89546741Y-97432735D01*
X89418899Y-97501068D01*
X89200392Y-97680392D01*
X89021068Y-97898899D01*
X88887818Y-98148192D01*
X88805764Y-98418691D01*
X88778057Y-98700000D01*
X88805764Y-98981309D01*
X88887818Y-99251808D01*
X89021068Y-99501101D01*
X89200392Y-99719608D01*
X89418899Y-99898932D01*
X89551858Y-99970000D01*
X89418899Y-100041068D01*
X89200392Y-100220392D01*
X89021068Y-100438899D01*
X88887818Y-100688192D01*
X88805764Y-100958691D01*
X88778057Y-101240000D01*
X88805764Y-101521309D01*
X88887818Y-101791808D01*
X89021068Y-102041101D01*
X89200392Y-102259608D01*
X89418899Y-102438932D01*
X89668192Y-102572182D01*
X89938691Y-102654236D01*
X90149508Y-102675000D01*
X91090492Y-102675000D01*
X91301309Y-102654236D01*
X91571808Y-102572182D01*
X91821101Y-102438932D01*
X92039608Y-102259608D01*
X92218932Y-102041101D01*
X92352182Y-101791808D01*
X92376013Y-101713248D01*
X93611000Y-102948236D01*
X93611001Y-105068151D01*
X93585241Y-105085363D01*
X93385363Y-105285241D01*
X93228320Y-105520273D01*
X93120147Y-105781426D01*
X93080000Y-105983256D01*
X93039853Y-105781426D01*
X92931680Y-105520273D01*
X92774637Y-105285241D01*
X92574759Y-105085363D01*
X92339727Y-104928320D01*
X92078574Y-104820147D01*
X91801335Y-104765000D01*
X91518665Y-104765000D01*
X91241426Y-104820147D01*
X90980273Y-104928320D01*
X90745241Y-105085363D01*
X90545363Y-105285241D01*
X90388320Y-105520273D01*
X90280147Y-105781426D01*
X90225000Y-106058665D01*
X90225000Y-106341335D01*
X90280147Y-106618574D01*
X90388320Y-106879727D01*
X90545363Y-107114759D01*
X90745241Y-107314637D01*
X90980273Y-107471680D01*
X91241426Y-107579853D01*
X91518665Y-107635000D01*
X91801335Y-107635000D01*
X92078574Y-107579853D01*
X92339727Y-107471680D01*
X92574759Y-107314637D01*
X92774637Y-107114759D01*
X92931680Y-106879727D01*
X93039853Y-106618574D01*
X93080000Y-106416744D01*
X93120147Y-106618574D01*
X93228320Y-106879727D01*
X93385363Y-107114759D01*
X93585241Y-107314637D01*
X93820273Y-107471680D01*
X94081426Y-107579853D01*
X94358665Y-107635000D01*
X94641335Y-107635000D01*
X94918574Y-107579853D01*
X95179727Y-107471680D01*
X95414759Y-107314637D01*
X95614637Y-107114759D01*
X95771680Y-106879727D01*
X95879853Y-106618574D01*
X95935000Y-106341335D01*
X95935000Y-106058665D01*
X95879853Y-105781426D01*
X95771680Y-105520273D01*
X95614637Y-105285241D01*
X95414759Y-105085363D01*
X95389000Y-105068151D01*
X95389000Y-102623660D01*
X95393300Y-102580000D01*
X95389000Y-102536340D01*
X95389000Y-102536333D01*
X95376136Y-102405726D01*
X95325303Y-102238149D01*
X95242753Y-102083709D01*
X95131659Y-101948341D01*
X95097743Y-101920507D01*
X92370071Y-99192836D01*
X92434236Y-98981309D01*
X92461943Y-98700000D01*
X92434236Y-98418691D01*
X92352182Y-98148192D01*
X92218932Y-97898899D01*
X92039608Y-97680392D01*
X91821101Y-97501068D01*
X91693259Y-97432735D01*
X91922839Y-97282601D01*
X92124500Y-97084895D01*
X92283715Y-96851646D01*
X92394367Y-96591818D01*
X92411904Y-96509039D01*
X92289915Y-96287000D01*
X90747000Y-96287000D01*
X90747000Y-96307000D01*
X90493000Y-96307000D01*
X90493000Y-96287000D01*
X90473000Y-96287000D01*
X90473000Y-96033000D01*
X90493000Y-96033000D01*
X90493000Y-96013000D01*
X90747000Y-96013000D01*
X90747000Y-96033000D01*
X92289915Y-96033000D01*
X92411904Y-95810961D01*
X92394367Y-95728182D01*
X92283715Y-95468354D01*
X92124500Y-95235105D01*
X91922839Y-95037399D01*
X91693259Y-94887265D01*
X91821101Y-94818932D01*
X92039608Y-94639608D01*
X92218932Y-94421101D01*
X92352182Y-94171808D01*
X92434236Y-93901309D01*
X92461943Y-93620000D01*
X92446053Y-93458665D01*
X92865000Y-93458665D01*
X92865000Y-93741335D01*
X92920147Y-94018574D01*
X93028320Y-94279727D01*
X93185363Y-94514759D01*
X93385241Y-94714637D01*
X93620273Y-94871680D01*
X93881426Y-94979853D01*
X94158665Y-95035000D01*
X94441335Y-95035000D01*
X94718574Y-94979853D01*
X94979727Y-94871680D01*
X95214759Y-94714637D01*
X95336694Y-94592702D01*
X95986903Y-94592702D01*
X96058486Y-94836671D01*
X96313996Y-94957571D01*
X96588184Y-95026300D01*
X96870512Y-95040217D01*
X97150130Y-94998787D01*
X97416292Y-94903603D01*
X97541514Y-94836671D01*
X97613097Y-94592702D01*
X96800000Y-93779605D01*
X95986903Y-94592702D01*
X95336694Y-94592702D01*
X95414637Y-94514759D01*
X95548692Y-94314131D01*
X95563329Y-94341514D01*
X95807298Y-94413097D01*
X96620395Y-93600000D01*
X96979605Y-93600000D01*
X97792702Y-94413097D01*
X98036671Y-94341514D01*
X98157571Y-94086004D01*
X98226300Y-93811816D01*
X98240217Y-93529488D01*
X98198787Y-93249870D01*
X98103603Y-92983708D01*
X98036671Y-92858486D01*
X97792702Y-92786903D01*
X96979605Y-93600000D01*
X96620395Y-93600000D01*
X95807298Y-92786903D01*
X95563329Y-92858486D01*
X95549676Y-92887341D01*
X95414637Y-92685241D01*
X95336694Y-92607298D01*
X95986903Y-92607298D01*
X96800000Y-93420395D01*
X97613097Y-92607298D01*
X97541514Y-92363329D01*
X97286004Y-92242429D01*
X97011816Y-92173700D01*
X96729488Y-92159783D01*
X96449870Y-92201213D01*
X96183708Y-92296397D01*
X96058486Y-92363329D01*
X95986903Y-92607298D01*
X95336694Y-92607298D01*
X95214759Y-92485363D01*
X94979727Y-92328320D01*
X94718574Y-92220147D01*
X94441335Y-92165000D01*
X94158665Y-92165000D01*
X93881426Y-92220147D01*
X93620273Y-92328320D01*
X93385241Y-92485363D01*
X93185363Y-92685241D01*
X93028320Y-92920273D01*
X92920147Y-93181426D01*
X92865000Y-93458665D01*
X92446053Y-93458665D01*
X92434236Y-93338691D01*
X92352182Y-93068192D01*
X92218932Y-92818899D01*
X92039608Y-92600392D01*
X91821101Y-92421068D01*
X91693259Y-92352735D01*
X91922839Y-92202601D01*
X92124500Y-92004895D01*
X92283715Y-91771646D01*
X92394367Y-91511818D01*
X92411904Y-91429039D01*
X92289915Y-91207000D01*
X90747000Y-91207000D01*
X90747000Y-91227000D01*
X90493000Y-91227000D01*
X90493000Y-91207000D01*
X88950085Y-91207000D01*
X88828096Y-91429039D01*
X88845633Y-91511818D01*
X88956285Y-91771646D01*
X89115500Y-92004895D01*
X89317161Y-92202601D01*
X89546741Y-92352735D01*
X89418899Y-92421068D01*
X89200392Y-92600392D01*
X89021068Y-92818899D01*
X88887818Y-93068192D01*
X88805764Y-93338691D01*
X88778057Y-93620000D01*
X88805764Y-93901309D01*
X88869929Y-94112835D01*
X84756013Y-98226752D01*
X84732182Y-98148192D01*
X84598932Y-97898899D01*
X84419608Y-97680392D01*
X84201101Y-97501068D01*
X84073259Y-97432735D01*
X84302839Y-97282601D01*
X84504500Y-97084895D01*
X84663715Y-96851646D01*
X84774367Y-96591818D01*
X84791904Y-96509039D01*
X84669915Y-96287000D01*
X83127000Y-96287000D01*
X83127000Y-96307000D01*
X82873000Y-96307000D01*
X82873000Y-96287000D01*
X81330085Y-96287000D01*
X81208096Y-96509039D01*
X81225633Y-96591818D01*
X81336285Y-96851646D01*
X81495500Y-97084895D01*
X81697161Y-97282601D01*
X81926741Y-97432735D01*
X81798899Y-97501068D01*
X81580392Y-97680392D01*
X81401068Y-97898899D01*
X81267818Y-98148192D01*
X81185764Y-98418691D01*
X81158057Y-98700000D01*
X81185764Y-98981309D01*
X81267818Y-99251808D01*
X81401068Y-99501101D01*
X81580392Y-99719608D01*
X81798899Y-99898932D01*
X81931858Y-99970000D01*
X81798899Y-100041068D01*
X81580392Y-100220392D01*
X81401068Y-100438899D01*
X81267818Y-100688192D01*
X81185764Y-100958691D01*
X81158057Y-101240000D01*
X81185764Y-101521309D01*
X81267818Y-101791808D01*
X81401068Y-102041101D01*
X81580392Y-102259608D01*
X81798899Y-102438932D01*
X82048192Y-102572182D01*
X82318691Y-102654236D01*
X82529508Y-102675000D01*
X83470492Y-102675000D01*
X83681309Y-102654236D01*
X83765010Y-102628846D01*
X83765011Y-128481670D01*
X83552257Y-128523989D01*
X83272905Y-128639701D01*
X83021495Y-128807688D01*
X82807688Y-129021495D01*
X82639701Y-129272905D01*
X82523989Y-129552257D01*
X82465000Y-129848816D01*
X82465000Y-130151184D01*
X82523989Y-130447743D01*
X82639701Y-130727095D01*
X82807688Y-130978505D01*
X83021495Y-131192312D01*
X83272905Y-131360299D01*
X83552257Y-131476011D01*
X83848816Y-131535000D01*
X84151184Y-131535000D01*
X84447743Y-131476011D01*
X84727095Y-131360299D01*
X84978505Y-131192312D01*
X85192312Y-130978505D01*
X85250000Y-130892169D01*
X85307688Y-130978505D01*
X85521495Y-131192312D01*
X85772905Y-131360299D01*
X86052257Y-131476011D01*
X86348816Y-131535000D01*
X86651184Y-131535000D01*
X86947743Y-131476011D01*
X87227095Y-131360299D01*
X87478505Y-131192312D01*
X87516120Y-131154697D01*
X87569463Y-131254494D01*
X87648815Y-131351185D01*
X87745506Y-131430537D01*
X87855820Y-131489502D01*
X87975518Y-131525812D01*
X88100000Y-131538072D01*
X89900000Y-131538072D01*
X90024482Y-131525812D01*
X90144180Y-131489502D01*
X90254494Y-131430537D01*
X90351185Y-131351185D01*
X90430537Y-131254494D01*
X90489502Y-131144180D01*
X90525812Y-131024482D01*
X90538072Y-130900000D01*
X90538072Y-129100000D01*
X90525812Y-128975518D01*
X90489502Y-128855820D01*
X90430537Y-128745506D01*
X90351185Y-128648815D01*
X90254494Y-128569463D01*
X90144180Y-128510498D01*
X90024482Y-128474188D01*
X89900000Y-128461928D01*
X89889000Y-128461928D01*
X89889000Y-124182839D01*
X90186276Y-124426807D01*
X90532854Y-124612057D01*
X90908913Y-124726133D01*
X91300000Y-124764652D01*
X91691088Y-124726133D01*
X92067147Y-124612057D01*
X92413725Y-124426807D01*
X92717503Y-124177503D01*
X92966807Y-123873725D01*
X93152057Y-123527147D01*
X93266133Y-123151087D01*
X93295000Y-122857997D01*
X93295000Y-122142002D01*
X93266133Y-121848912D01*
X93152057Y-121472853D01*
X92966807Y-121126275D01*
X92717503Y-120822497D01*
X92413725Y-120573193D01*
X92067146Y-120387943D01*
X91691087Y-120273867D01*
X91300000Y-120235348D01*
X90908912Y-120273867D01*
X90532853Y-120387943D01*
X90186275Y-120573193D01*
X89889000Y-120817160D01*
X89889000Y-120372313D01*
X103386348Y-106874966D01*
X103388320Y-106879727D01*
X103545363Y-107114759D01*
X103745241Y-107314637D01*
X103980273Y-107471680D01*
X104241426Y-107579853D01*
X104518665Y-107635000D01*
X104801335Y-107635000D01*
X105078574Y-107579853D01*
X105339727Y-107471680D01*
X105574759Y-107314637D01*
X105774637Y-107114759D01*
X105931680Y-106879727D01*
X106039853Y-106618574D01*
X106095000Y-106341335D01*
X106095000Y-106058665D01*
X106039853Y-105781426D01*
X105931680Y-105520273D01*
X105774637Y-105285241D01*
X105574759Y-105085363D01*
X105339727Y-104928320D01*
X105310540Y-104916230D01*
X105374313Y-104796919D01*
X105425146Y-104629342D01*
X105438010Y-104498735D01*
X105438010Y-104498728D01*
X105442310Y-104455068D01*
X105438010Y-104411408D01*
X105438010Y-95512670D01*
X105442310Y-95469010D01*
X105438010Y-95425350D01*
X105438010Y-95425343D01*
X105425146Y-95294736D01*
X105407058Y-95235105D01*
X105374312Y-95127157D01*
X105361519Y-95103224D01*
X105291763Y-94972719D01*
X105217996Y-94882834D01*
X105208505Y-94871269D01*
X105208504Y-94871268D01*
X105180669Y-94837351D01*
X105146753Y-94809517D01*
X104671926Y-94334690D01*
X104708224Y-94215032D01*
X104737282Y-93920000D01*
X104708224Y-93624968D01*
X104622166Y-93341275D01*
X104482417Y-93079821D01*
X104294345Y-92850655D01*
X104065179Y-92662583D01*
X104041638Y-92650000D01*
X104065179Y-92637417D01*
X104294345Y-92449345D01*
X104482417Y-92220179D01*
X104622166Y-91958725D01*
X104708224Y-91675032D01*
X104737282Y-91380000D01*
X104708224Y-91084968D01*
X104622166Y-90801275D01*
X104482417Y-90539821D01*
X104294345Y-90310655D01*
X104065179Y-90122583D01*
X104036848Y-90107440D01*
X104177433Y-90014708D01*
X104388306Y-89806326D01*
X104554474Y-89560809D01*
X104669551Y-89287591D01*
X104686302Y-89200031D01*
X104565246Y-88967000D01*
X103127000Y-88967000D01*
X103127000Y-88987000D01*
X102873000Y-88987000D01*
X102873000Y-88967000D01*
X101434754Y-88967000D01*
X101313698Y-89200031D01*
X101330449Y-89287591D01*
X101445526Y-89560809D01*
X101611694Y-89806326D01*
X101822567Y-90014708D01*
X101963152Y-90107440D01*
X101934821Y-90122583D01*
X101705655Y-90310655D01*
X101517583Y-90539821D01*
X101377834Y-90801275D01*
X101291776Y-91084968D01*
X101262718Y-91380000D01*
X101291776Y-91675032D01*
X101377834Y-91958725D01*
X101517583Y-92220179D01*
X101705655Y-92449345D01*
X101934821Y-92637417D01*
X101958362Y-92650000D01*
X101934821Y-92662583D01*
X101705655Y-92850655D01*
X101517583Y-93079821D01*
X101377834Y-93341275D01*
X101322133Y-93524897D01*
X96277205Y-88479969D01*
X101313698Y-88479969D01*
X101434754Y-88713000D01*
X102873000Y-88713000D01*
X102873000Y-87489624D01*
X103127000Y-87489624D01*
X103127000Y-88713000D01*
X104565246Y-88713000D01*
X104686302Y-88479969D01*
X104669551Y-88392409D01*
X104554474Y-88119191D01*
X104388306Y-87873674D01*
X104177433Y-87665292D01*
X103929958Y-87502053D01*
X103655392Y-87390231D01*
X103364286Y-87334123D01*
X103127000Y-87489624D01*
X102873000Y-87489624D01*
X102635714Y-87334123D01*
X102344608Y-87390231D01*
X102070042Y-87502053D01*
X101822567Y-87665292D01*
X101611694Y-87873674D01*
X101445526Y-88119191D01*
X101330449Y-88392409D01*
X101313698Y-88479969D01*
X96277205Y-88479969D01*
X93199499Y-85402264D01*
X93171659Y-85368341D01*
X93036291Y-85257247D01*
X92881851Y-85174697D01*
X92714274Y-85123864D01*
X92583667Y-85111000D01*
X92583660Y-85111000D01*
X92540000Y-85106700D01*
X92496340Y-85111000D01*
X92146795Y-85111000D01*
X92039608Y-84980392D01*
X91821101Y-84801068D01*
X91571808Y-84667818D01*
X91301309Y-84585764D01*
X91090492Y-84565000D01*
X90149508Y-84565000D01*
X89938691Y-84585764D01*
X89668192Y-84667818D01*
X89418899Y-84801068D01*
X89200392Y-84980392D01*
X89021068Y-85198899D01*
X88887818Y-85448192D01*
X88805764Y-85718691D01*
X88778057Y-86000000D01*
X88805764Y-86281309D01*
X88887818Y-86551808D01*
X89021068Y-86801101D01*
X89200392Y-87019608D01*
X89418899Y-87198932D01*
X89551858Y-87270000D01*
X89418899Y-87341068D01*
X89200392Y-87520392D01*
X89093205Y-87651000D01*
X88908236Y-87651000D01*
X83028956Y-81771721D01*
X83035000Y-81741335D01*
X83035000Y-81458665D01*
X90325000Y-81458665D01*
X90325000Y-81741335D01*
X90380147Y-82018574D01*
X90488320Y-82279727D01*
X90645363Y-82514759D01*
X90845241Y-82714637D01*
X91080273Y-82871680D01*
X91341426Y-82979853D01*
X91618665Y-83035000D01*
X91901335Y-83035000D01*
X92178574Y-82979853D01*
X92439727Y-82871680D01*
X92674759Y-82714637D01*
X92874637Y-82514759D01*
X93031680Y-82279727D01*
X93139853Y-82018574D01*
X93195000Y-81741335D01*
X93195000Y-81458665D01*
X93139853Y-81181426D01*
X93031680Y-80920273D01*
X92874637Y-80685241D01*
X92674759Y-80485363D01*
X92439727Y-80328320D01*
X92178574Y-80220147D01*
X91901335Y-80165000D01*
X91618665Y-80165000D01*
X91341426Y-80220147D01*
X91080273Y-80328320D01*
X90845241Y-80485363D01*
X90645363Y-80685241D01*
X90488320Y-80920273D01*
X90380147Y-81181426D01*
X90325000Y-81458665D01*
X83035000Y-81458665D01*
X82979853Y-81181426D01*
X82871680Y-80920273D01*
X82714637Y-80685241D01*
X82514759Y-80485363D01*
X82279727Y-80328320D01*
X82018574Y-80220147D01*
X81741335Y-80165000D01*
X81458665Y-80165000D01*
X81234999Y-80209491D01*
X81234999Y-79390509D01*
X81458665Y-79435000D01*
X81741335Y-79435000D01*
X82018574Y-79379853D01*
X82279727Y-79271680D01*
X82514759Y-79114637D01*
X82714637Y-78914759D01*
X82871680Y-78679727D01*
X82979853Y-78418574D01*
X83035000Y-78141335D01*
X83035000Y-77858665D01*
X90325000Y-77858665D01*
X90325000Y-78141335D01*
X90380147Y-78418574D01*
X90488320Y-78679727D01*
X90645363Y-78914759D01*
X90845241Y-79114637D01*
X91080273Y-79271680D01*
X91341426Y-79379853D01*
X91618665Y-79435000D01*
X91901335Y-79435000D01*
X92178574Y-79379853D01*
X92439727Y-79271680D01*
X92674759Y-79114637D01*
X92874637Y-78914759D01*
X93031680Y-78679727D01*
X93130000Y-78442361D01*
X93228320Y-78679727D01*
X93385363Y-78914759D01*
X93585241Y-79114637D01*
X93820273Y-79271680D01*
X94081426Y-79379853D01*
X94358665Y-79435000D01*
X94641335Y-79435000D01*
X94918574Y-79379853D01*
X95179727Y-79271680D01*
X95414759Y-79114637D01*
X95614637Y-78914759D01*
X95771680Y-78679727D01*
X95879853Y-78418574D01*
X95935000Y-78141335D01*
X95935000Y-77858665D01*
X103225000Y-77858665D01*
X103225000Y-78141335D01*
X103280147Y-78418574D01*
X103388320Y-78679727D01*
X103545363Y-78914759D01*
X103745241Y-79114637D01*
X103980273Y-79271680D01*
X104241426Y-79379853D01*
X104518665Y-79435000D01*
X104801335Y-79435000D01*
X105078574Y-79379853D01*
X105339727Y-79271680D01*
X105574759Y-79114637D01*
X105774637Y-78914759D01*
X105931680Y-78679727D01*
X106039853Y-78418574D01*
X106095000Y-78141335D01*
X106095000Y-77858665D01*
X106039853Y-77581426D01*
X105931680Y-77320273D01*
X105774637Y-77085241D01*
X105574759Y-76885363D01*
X105339727Y-76728320D01*
X105078574Y-76620147D01*
X104801335Y-76565000D01*
X104518665Y-76565000D01*
X104241426Y-76620147D01*
X103980273Y-76728320D01*
X103745241Y-76885363D01*
X103545363Y-77085241D01*
X103388320Y-77320273D01*
X103280147Y-77581426D01*
X103225000Y-77858665D01*
X95935000Y-77858665D01*
X95879853Y-77581426D01*
X95771680Y-77320273D01*
X95614637Y-77085241D01*
X95414759Y-76885363D01*
X95179727Y-76728320D01*
X94918574Y-76620147D01*
X94641335Y-76565000D01*
X94358665Y-76565000D01*
X94081426Y-76620147D01*
X93820273Y-76728320D01*
X93585241Y-76885363D01*
X93385363Y-77085241D01*
X93228320Y-77320273D01*
X93130000Y-77557639D01*
X93031680Y-77320273D01*
X92874637Y-77085241D01*
X92674759Y-76885363D01*
X92439727Y-76728320D01*
X92178574Y-76620147D01*
X91901335Y-76565000D01*
X91618665Y-76565000D01*
X91341426Y-76620147D01*
X91080273Y-76728320D01*
X90845241Y-76885363D01*
X90645363Y-77085241D01*
X90488320Y-77320273D01*
X90380147Y-77581426D01*
X90325000Y-77858665D01*
X83035000Y-77858665D01*
X82979853Y-77581426D01*
X82871680Y-77320273D01*
X82714637Y-77085241D01*
X82514759Y-76885363D01*
X82279727Y-76728320D01*
X82018574Y-76620147D01*
X81741335Y-76565000D01*
X81458665Y-76565000D01*
X81234999Y-76609491D01*
X81234999Y-74022236D01*
X83743237Y-71513999D01*
X83848816Y-71535000D01*
X84151184Y-71535000D01*
X84447743Y-71476011D01*
X84727095Y-71360299D01*
X84978505Y-71192312D01*
X85192312Y-70978505D01*
X85250000Y-70892169D01*
X85307688Y-70978505D01*
X85521495Y-71192312D01*
X85772905Y-71360299D01*
X86052257Y-71476011D01*
X86348816Y-71535000D01*
X86651184Y-71535000D01*
X86947743Y-71476011D01*
X87227095Y-71360299D01*
X87478505Y-71192312D01*
X87516120Y-71154697D01*
X87569463Y-71254494D01*
X87648815Y-71351185D01*
X87745506Y-71430537D01*
X87855820Y-71489502D01*
X87975518Y-71525812D01*
X88100000Y-71538072D01*
X89900000Y-71538072D01*
X90024482Y-71525812D01*
X90144180Y-71489502D01*
X90254494Y-71430537D01*
X90351185Y-71351185D01*
X90430537Y-71254494D01*
X90489502Y-71144180D01*
X90525812Y-71024482D01*
X90538072Y-70900000D01*
X90538072Y-69100000D01*
X90525812Y-68975518D01*
X90490366Y-68858665D01*
X96565000Y-68858665D01*
X96565000Y-69141335D01*
X96620147Y-69418574D01*
X96728320Y-69679727D01*
X96885363Y-69914759D01*
X97085241Y-70114637D01*
X97320273Y-70271680D01*
X97581426Y-70379853D01*
X97858665Y-70435000D01*
X98141335Y-70435000D01*
X98418574Y-70379853D01*
X98679727Y-70271680D01*
X98914759Y-70114637D01*
X99114637Y-69914759D01*
X99271680Y-69679727D01*
X99379853Y-69418574D01*
X99435000Y-69141335D01*
X99435000Y-68858665D01*
X99379853Y-68581426D01*
X99271680Y-68320273D01*
X99114637Y-68085241D01*
X98914759Y-67885363D01*
X98679727Y-67728320D01*
X98418574Y-67620147D01*
X98141335Y-67565000D01*
X97858665Y-67565000D01*
X97581426Y-67620147D01*
X97320273Y-67728320D01*
X97085241Y-67885363D01*
X96885363Y-68085241D01*
X96728320Y-68320273D01*
X96620147Y-68581426D01*
X96565000Y-68858665D01*
X90490366Y-68858665D01*
X90489502Y-68855820D01*
X90430537Y-68745506D01*
X90351185Y-68648815D01*
X90254494Y-68569463D01*
X90144180Y-68510498D01*
X90024482Y-68474188D01*
X89900000Y-68461928D01*
X88100000Y-68461928D01*
X87975518Y-68474188D01*
X87855820Y-68510498D01*
X87745506Y-68569463D01*
X87648815Y-68648815D01*
X87569463Y-68745506D01*
X87516120Y-68845303D01*
X87478505Y-68807688D01*
X87227095Y-68639701D01*
X86947743Y-68523989D01*
X86651184Y-68465000D01*
X86348816Y-68465000D01*
X86052257Y-68523989D01*
X85772905Y-68639701D01*
X85521495Y-68807688D01*
X85307688Y-69021495D01*
X85250000Y-69107831D01*
X85192312Y-69021495D01*
X84978505Y-68807688D01*
X84727095Y-68639701D01*
X84447743Y-68523989D01*
X84151184Y-68465000D01*
X83848816Y-68465000D01*
X83552257Y-68523989D01*
X83272905Y-68639701D01*
X83021495Y-68807688D01*
X82807688Y-69021495D01*
X82639701Y-69272905D01*
X82523989Y-69552257D01*
X82465000Y-69848816D01*
X82465000Y-70151184D01*
X82486001Y-70256763D01*
X79748258Y-72994507D01*
X79714341Y-73022342D01*
X79686506Y-73056259D01*
X79686504Y-73056261D01*
X79603247Y-73157710D01*
X79598106Y-73167328D01*
X79539727Y-73128320D01*
X79278574Y-73020147D01*
X79001335Y-72965000D01*
X78718665Y-72965000D01*
X78441426Y-73020147D01*
X78180273Y-73128320D01*
X77945241Y-73285363D01*
X77745363Y-73485241D01*
X77588320Y-73720273D01*
X77480147Y-73981426D01*
X77425000Y-74258665D01*
X70135000Y-74258665D01*
X70079853Y-73981426D01*
X69971680Y-73720273D01*
X69814637Y-73485241D01*
X69614759Y-73285363D01*
X69379727Y-73128320D01*
X69118574Y-73020147D01*
X68841335Y-72965000D01*
X68558665Y-72965000D01*
X68281426Y-73020147D01*
X68020273Y-73128320D01*
X67785241Y-73285363D01*
X67585363Y-73485241D01*
X67428320Y-73720273D01*
X67320147Y-73981426D01*
X67265000Y-74258665D01*
X66660000Y-74258665D01*
X66660000Y-62142003D01*
X79705000Y-62142003D01*
X79705000Y-62857998D01*
X79733867Y-63151088D01*
X79847943Y-63527147D01*
X80033193Y-63873725D01*
X80282498Y-64177503D01*
X80586276Y-64426807D01*
X80932854Y-64612057D01*
X81308913Y-64726133D01*
X81700000Y-64764652D01*
X82091088Y-64726133D01*
X82467147Y-64612057D01*
X82813725Y-64426807D01*
X83117503Y-64177503D01*
X83366807Y-63873725D01*
X83552057Y-63527147D01*
X83666133Y-63151087D01*
X83695000Y-62857997D01*
X83695000Y-62142003D01*
X89305000Y-62142003D01*
X89305000Y-62857998D01*
X89333867Y-63151088D01*
X89447943Y-63527147D01*
X89633193Y-63873725D01*
X89882498Y-64177503D01*
X90186276Y-64426807D01*
X90532854Y-64612057D01*
X90908913Y-64726133D01*
X91300000Y-64764652D01*
X91691088Y-64726133D01*
X92067147Y-64612057D01*
X92413725Y-64426807D01*
X92717503Y-64177503D01*
X92966807Y-63873725D01*
X93152057Y-63527147D01*
X93266133Y-63151087D01*
X93295000Y-62857997D01*
X93295000Y-62142002D01*
X93266133Y-61848912D01*
X93152057Y-61472853D01*
X92966807Y-61126275D01*
X92717503Y-60822497D01*
X92413725Y-60573193D01*
X92067146Y-60387943D01*
X91691087Y-60273867D01*
X91300000Y-60235348D01*
X90908912Y-60273867D01*
X90532853Y-60387943D01*
X90186275Y-60573193D01*
X89882497Y-60822497D01*
X89633193Y-61126275D01*
X89447943Y-61472854D01*
X89333867Y-61848913D01*
X89305000Y-62142003D01*
X83695000Y-62142003D01*
X83695000Y-62142002D01*
X83666133Y-61848912D01*
X83552057Y-61472853D01*
X83366807Y-61126275D01*
X83117503Y-60822497D01*
X82813725Y-60573193D01*
X82467146Y-60387943D01*
X82091087Y-60273867D01*
X81700000Y-60235348D01*
X81308912Y-60273867D01*
X80932853Y-60387943D01*
X80586275Y-60573193D01*
X80282497Y-60822497D01*
X80033193Y-61126275D01*
X79847943Y-61472854D01*
X79733867Y-61848913D01*
X79705000Y-62142003D01*
X66660000Y-62142003D01*
X66660000Y-59189040D01*
X96608091Y-59189040D01*
X96702930Y-59453881D01*
X96847615Y-59695131D01*
X97036586Y-59903519D01*
X97262580Y-60071037D01*
X97516913Y-60191246D01*
X97650961Y-60231904D01*
X97873000Y-60109915D01*
X97873000Y-58967000D01*
X98127000Y-58967000D01*
X98127000Y-60109915D01*
X98349039Y-60231904D01*
X98483087Y-60191246D01*
X98737420Y-60071037D01*
X98963414Y-59903519D01*
X99152385Y-59695131D01*
X99297070Y-59453881D01*
X99391909Y-59189040D01*
X99270624Y-58967000D01*
X98127000Y-58967000D01*
X97873000Y-58967000D01*
X96729376Y-58967000D01*
X96608091Y-59189040D01*
X66660000Y-59189040D01*
X66660000Y-58490960D01*
X96608091Y-58490960D01*
X96729376Y-58713000D01*
X97873000Y-58713000D01*
X97873000Y-57570085D01*
X98127000Y-57570085D01*
X98127000Y-58713000D01*
X99270624Y-58713000D01*
X99391909Y-58490960D01*
X99297070Y-58226119D01*
X99152385Y-57984869D01*
X98963414Y-57776481D01*
X98737420Y-57608963D01*
X98483087Y-57488754D01*
X98349039Y-57448096D01*
X98127000Y-57570085D01*
X97873000Y-57570085D01*
X97650961Y-57448096D01*
X97516913Y-57488754D01*
X97262580Y-57608963D01*
X97036586Y-57776481D01*
X96847615Y-57984869D01*
X96702930Y-58226119D01*
X96608091Y-58490960D01*
X66660000Y-58490960D01*
X66660000Y-55660000D01*
X107340000Y-55660000D01*
X107340001Y-132840000D01*
G37*
%TD.AperFunction*%
%TD*%
M02*
